<?xml version="1.0" encoding="utf-8"?>
<svg xmlns="http://www.w3.org/2000/svg" xmlns:xlink="http://www.w3.org/1999/xlink" width="600" height="400" viewBox="0 0 2400 1600">
<defs>
  <clipPath id="clip340">
    <rect x="0" y="0" width="2400" height="1600"/>
  </clipPath>
</defs>
<path clip-path="url(#clip340)" d="M0 1600 L2400 1600 L2400 0 L0 0  Z" fill="#ffffff" fill-rule="evenodd" fill-opacity="1"/>
<defs>
  <clipPath id="clip341">
    <rect x="480" y="0" width="1681" height="1600"/>
  </clipPath>
</defs>
<path clip-path="url(#clip340)" d="M224.098 1486.45 L2352.76 1486.45 L2352.76 47.2441 L224.098 47.2441  Z" fill="#ffffff" fill-rule="evenodd" fill-opacity="1"/>
<defs>
  <clipPath id="clip342">
    <rect x="224" y="47" width="2130" height="1440"/>
  </clipPath>
</defs>
<polyline clip-path="url(#clip340)" style="stroke:#000000; stroke-linecap:round; stroke-linejoin:round; stroke-width:4; stroke-opacity:1; fill:none" points="224.098,1486.45 2352.76,1486.45 "/>
<path clip-path="url(#clip340)" d="M284.343 1517.37 Q280.732 1517.37 278.903 1520.93 Q277.098 1524.47 277.098 1531.6 Q277.098 1538.71 278.903 1542.27 Q280.732 1545.82 284.343 1545.82 Q287.977 1545.82 289.783 1542.27 Q291.611 1538.71 291.611 1531.6 Q291.611 1524.47 289.783 1520.93 Q287.977 1517.37 284.343 1517.37 M284.343 1513.66 Q290.153 1513.66 293.209 1518.27 Q296.287 1522.85 296.287 1531.6 Q296.287 1540.33 293.209 1544.94 Q290.153 1549.52 284.343 1549.52 Q278.533 1549.52 275.454 1544.94 Q272.399 1540.33 272.399 1531.6 Q272.399 1522.85 275.454 1518.27 Q278.533 1513.66 284.343 1513.66 Z" fill="#000000" fill-rule="nonzero" fill-opacity="1" /><path clip-path="url(#clip340)" d="M944.114 1544.91 L951.753 1544.91 L951.753 1518.55 L943.443 1520.21 L943.443 1515.95 L951.707 1514.29 L956.383 1514.29 L956.383 1544.91 L964.022 1544.91 L964.022 1548.85 L944.114 1548.85 L944.114 1544.91 Z" fill="#000000" fill-rule="nonzero" fill-opacity="1" /><path clip-path="url(#clip340)" d="M1617.77 1544.91 L1634.09 1544.91 L1634.09 1548.85 L1612.15 1548.85 L1612.15 1544.91 Q1614.81 1542.16 1619.39 1537.53 Q1624 1532.88 1625.18 1531.53 Q1627.43 1529.01 1628.31 1527.27 Q1629.21 1525.51 1629.21 1523.82 Q1629.21 1521.07 1627.27 1519.33 Q1625.34 1517.6 1622.24 1517.6 Q1620.04 1517.6 1617.59 1518.36 Q1615.16 1519.13 1612.38 1520.68 L1612.38 1515.95 Q1615.2 1514.82 1617.66 1514.24 Q1620.11 1513.66 1622.15 1513.66 Q1627.52 1513.66 1630.71 1516.35 Q1633.91 1519.03 1633.91 1523.52 Q1633.91 1525.65 1633.1 1527.57 Q1632.31 1529.47 1630.2 1532.07 Q1629.63 1532.74 1626.52 1535.95 Q1623.42 1539.15 1617.77 1544.91 Z" fill="#000000" fill-rule="nonzero" fill-opacity="1" /><path clip-path="url(#clip340)" d="M2296.76 1530.21 Q2300.11 1530.93 2301.99 1533.2 Q2303.89 1535.47 2303.89 1538.8 Q2303.89 1543.92 2300.37 1546.72 Q2296.85 1549.52 2290.37 1549.52 Q2288.19 1549.52 2285.88 1549.08 Q2283.59 1548.66 2281.13 1547.81 L2281.13 1543.29 Q2283.08 1544.43 2285.39 1545.01 Q2287.71 1545.58 2290.23 1545.58 Q2294.63 1545.58 2296.92 1543.85 Q2299.24 1542.11 2299.24 1538.8 Q2299.24 1535.75 2297.08 1534.03 Q2294.95 1532.3 2291.13 1532.3 L2287.11 1532.3 L2287.11 1528.45 L2291.32 1528.45 Q2294.77 1528.45 2296.6 1527.09 Q2298.43 1525.7 2298.43 1523.11 Q2298.43 1520.45 2296.53 1519.03 Q2294.65 1517.6 2291.13 1517.6 Q2289.21 1517.6 2287.01 1518.01 Q2284.81 1518.43 2282.18 1519.31 L2282.18 1515.14 Q2284.84 1514.4 2287.15 1514.03 Q2289.49 1513.66 2291.55 1513.66 Q2296.87 1513.66 2299.98 1516.09 Q2303.08 1518.5 2303.08 1522.62 Q2303.08 1525.49 2301.43 1527.48 Q2299.79 1529.45 2296.76 1530.21 Z" fill="#000000" fill-rule="nonzero" fill-opacity="1" /><polyline clip-path="url(#clip340)" style="stroke:#000000; stroke-linecap:round; stroke-linejoin:round; stroke-width:4; stroke-opacity:1; fill:none" points="224.098,1486.45 224.098,47.2441 "/>
<polyline clip-path="url(#clip340)" style="stroke:#000000; stroke-linecap:round; stroke-linejoin:round; stroke-width:4; stroke-opacity:1; fill:none" points="224.098,1285.88 205.2,1285.88 "/>
<polyline clip-path="url(#clip340)" style="stroke:#000000; stroke-linecap:round; stroke-linejoin:round; stroke-width:4; stroke-opacity:1; fill:none" points="224.098,1018.63 205.2,1018.63 "/>
<polyline clip-path="url(#clip340)" style="stroke:#000000; stroke-linecap:round; stroke-linejoin:round; stroke-width:4; stroke-opacity:1; fill:none" points="224.098,751.377 205.2,751.377 "/>
<polyline clip-path="url(#clip340)" style="stroke:#000000; stroke-linecap:round; stroke-linejoin:round; stroke-width:4; stroke-opacity:1; fill:none" points="224.098,484.122 205.2,484.122 "/>
<polyline clip-path="url(#clip340)" style="stroke:#000000; stroke-linecap:round; stroke-linejoin:round; stroke-width:4; stroke-opacity:1; fill:none" points="224.098,216.868 205.2,216.868 "/>
<path clip-path="url(#clip340)" d="M32.9921 1286.34 L62.6679 1286.34 L62.6679 1290.27 L32.9921 1290.27 L32.9921 1286.34 Z" fill="#000000" fill-rule="nonzero" fill-opacity="1" /><path clip-path="url(#clip340)" d="M82.7604 1271.68 Q79.1493 1271.68 77.3206 1275.25 Q75.515 1278.79 75.515 1285.92 Q75.515 1293.03 77.3206 1296.59 Q79.1493 1300.13 82.7604 1300.13 Q86.3946 1300.13 88.2002 1296.59 Q90.0289 1293.03 90.0289 1285.92 Q90.0289 1278.79 88.2002 1275.25 Q86.3946 1271.68 82.7604 1271.68 M82.7604 1267.98 Q88.5705 1267.98 91.6261 1272.59 Q94.7048 1277.17 94.7048 1285.92 Q94.7048 1294.65 91.6261 1299.25 Q88.5705 1303.84 82.7604 1303.84 Q76.9502 1303.84 73.8715 1299.25 Q70.816 1294.65 70.816 1285.92 Q70.816 1277.17 73.8715 1272.59 Q76.9502 1267.98 82.7604 1267.98 Z" fill="#000000" fill-rule="nonzero" fill-opacity="1" /><path clip-path="url(#clip340)" d="M102.922 1297.29 L107.807 1297.29 L107.807 1303.16 L102.922 1303.16 L102.922 1297.29 Z" fill="#000000" fill-rule="nonzero" fill-opacity="1" /><path clip-path="url(#clip340)" d="M118.038 1268.6 L136.394 1268.6 L136.394 1272.54 L122.32 1272.54 L122.32 1281.01 Q123.339 1280.66 124.357 1280.5 Q125.376 1280.32 126.394 1280.32 Q132.181 1280.32 135.561 1283.49 Q138.941 1286.66 138.941 1292.08 Q138.941 1297.66 135.468 1300.76 Q131.996 1303.84 125.677 1303.84 Q123.501 1303.84 121.232 1303.47 Q118.987 1303.1 116.58 1302.35 L116.58 1297.66 Q118.663 1298.79 120.885 1299.35 Q123.107 1299.9 125.584 1299.9 Q129.589 1299.9 131.927 1297.79 Q134.265 1295.69 134.265 1292.08 Q134.265 1288.47 131.927 1286.36 Q129.589 1284.25 125.584 1284.25 Q123.709 1284.25 121.834 1284.67 Q119.982 1285.09 118.038 1285.97 L118.038 1268.6 Z" fill="#000000" fill-rule="nonzero" fill-opacity="1" /><path clip-path="url(#clip340)" d="M158.153 1271.68 Q154.542 1271.68 152.714 1275.25 Q150.908 1278.79 150.908 1285.92 Q150.908 1293.03 152.714 1296.59 Q154.542 1300.13 158.153 1300.13 Q161.788 1300.13 163.593 1296.59 Q165.422 1293.03 165.422 1285.92 Q165.422 1278.79 163.593 1275.25 Q161.788 1271.68 158.153 1271.68 M158.153 1267.98 Q163.964 1267.98 167.019 1272.59 Q170.098 1277.17 170.098 1285.92 Q170.098 1294.65 167.019 1299.25 Q163.964 1303.84 158.153 1303.84 Q152.343 1303.84 149.265 1299.25 Q146.209 1294.65 146.209 1285.92 Q146.209 1277.17 149.265 1272.59 Q152.343 1267.98 158.153 1267.98 Z" fill="#000000" fill-rule="nonzero" fill-opacity="1" /><path clip-path="url(#clip340)" d="M33.9875 1019.08 L63.6633 1019.08 L63.6633 1023.02 L33.9875 1023.02 L33.9875 1019.08 Z" fill="#000000" fill-rule="nonzero" fill-opacity="1" /><path clip-path="url(#clip340)" d="M83.7557 1004.43 Q80.1447 1004.43 78.316 1007.99 Q76.5104 1011.54 76.5104 1018.67 Q76.5104 1025.77 78.316 1029.34 Q80.1447 1032.88 83.7557 1032.88 Q87.39 1032.88 89.1955 1029.34 Q91.0242 1025.77 91.0242 1018.67 Q91.0242 1011.54 89.1955 1007.99 Q87.39 1004.43 83.7557 1004.43 M83.7557 1000.73 Q89.5659 1000.73 92.6214 1005.33 Q95.7001 1009.92 95.7001 1018.67 Q95.7001 1027.39 92.6214 1032 Q89.5659 1036.58 83.7557 1036.58 Q77.9456 1036.58 74.8669 1032 Q71.8114 1027.39 71.8114 1018.67 Q71.8114 1009.92 74.8669 1005.33 Q77.9456 1000.73 83.7557 1000.73 Z" fill="#000000" fill-rule="nonzero" fill-opacity="1" /><path clip-path="url(#clip340)" d="M103.918 1030.03 L108.802 1030.03 L108.802 1035.91 L103.918 1035.91 L103.918 1030.03 Z" fill="#000000" fill-rule="nonzero" fill-opacity="1" /><path clip-path="url(#clip340)" d="M123.015 1031.98 L139.334 1031.98 L139.334 1035.91 L117.39 1035.91 L117.39 1031.98 Q120.052 1029.22 124.635 1024.59 Q129.242 1019.94 130.422 1018.6 Q132.668 1016.07 133.547 1014.34 Q134.45 1012.58 134.45 1010.89 Q134.45 1008.13 132.505 1006.4 Q130.584 1004.66 127.482 1004.66 Q125.283 1004.66 122.83 1005.42 Q120.399 1006.19 117.621 1007.74 L117.621 1003.02 Q120.445 1001.88 122.899 1001.3 Q125.353 1000.73 127.39 1000.73 Q132.76 1000.73 135.955 1003.41 Q139.149 1006.1 139.149 1010.59 Q139.149 1012.72 138.339 1014.64 Q137.552 1016.54 135.445 1019.13 Q134.867 1019.8 131.765 1023.02 Q128.663 1026.21 123.015 1031.98 Z" fill="#000000" fill-rule="nonzero" fill-opacity="1" /><path clip-path="url(#clip340)" d="M149.195 1001.35 L167.552 1001.35 L167.552 1005.29 L153.478 1005.29 L153.478 1013.76 Q154.496 1013.41 155.515 1013.25 Q156.533 1013.06 157.552 1013.06 Q163.339 1013.06 166.718 1016.23 Q170.098 1019.41 170.098 1024.82 Q170.098 1030.4 166.626 1033.5 Q163.153 1036.58 156.834 1036.58 Q154.658 1036.58 152.39 1036.21 Q150.144 1035.84 147.737 1035.1 L147.737 1030.4 Q149.82 1031.54 152.042 1032.09 Q154.265 1032.65 156.741 1032.65 Q160.746 1032.65 163.084 1030.54 Q165.422 1028.43 165.422 1024.82 Q165.422 1021.21 163.084 1019.11 Q160.746 1017 156.741 1017 Q154.866 1017 152.991 1017.42 Q151.14 1017.83 149.195 1018.71 L149.195 1001.35 Z" fill="#000000" fill-rule="nonzero" fill-opacity="1" /><path clip-path="url(#clip340)" d="M82.7604 737.175 Q79.1493 737.175 77.3206 740.74 Q75.515 744.282 75.515 751.411 Q75.515 758.518 77.3206 762.082 Q79.1493 765.624 82.7604 765.624 Q86.3946 765.624 88.2002 762.082 Q90.0289 758.518 90.0289 751.411 Q90.0289 744.282 88.2002 740.74 Q86.3946 737.175 82.7604 737.175 M82.7604 733.472 Q88.5705 733.472 91.6261 738.078 Q94.7048 742.661 94.7048 751.411 Q94.7048 760.138 91.6261 764.744 Q88.5705 769.328 82.7604 769.328 Q76.9502 769.328 73.8715 764.744 Q70.816 760.138 70.816 751.411 Q70.816 742.661 73.8715 738.078 Q76.9502 733.472 82.7604 733.472 Z" fill="#000000" fill-rule="nonzero" fill-opacity="1" /><path clip-path="url(#clip340)" d="M102.922 762.777 L107.807 762.777 L107.807 768.657 L102.922 768.657 L102.922 762.777 Z" fill="#000000" fill-rule="nonzero" fill-opacity="1" /><path clip-path="url(#clip340)" d="M127.992 737.175 Q124.381 737.175 122.552 740.74 Q120.746 744.282 120.746 751.411 Q120.746 758.518 122.552 762.082 Q124.381 765.624 127.992 765.624 Q131.626 765.624 133.431 762.082 Q135.26 758.518 135.26 751.411 Q135.26 744.282 133.431 740.74 Q131.626 737.175 127.992 737.175 M127.992 733.472 Q133.802 733.472 136.857 738.078 Q139.936 742.661 139.936 751.411 Q139.936 760.138 136.857 764.744 Q133.802 769.328 127.992 769.328 Q122.181 769.328 119.103 764.744 Q116.047 760.138 116.047 751.411 Q116.047 742.661 119.103 738.078 Q122.181 733.472 127.992 733.472 Z" fill="#000000" fill-rule="nonzero" fill-opacity="1" /><path clip-path="url(#clip340)" d="M158.153 737.175 Q154.542 737.175 152.714 740.74 Q150.908 744.282 150.908 751.411 Q150.908 758.518 152.714 762.082 Q154.542 765.624 158.153 765.624 Q161.788 765.624 163.593 762.082 Q165.422 758.518 165.422 751.411 Q165.422 744.282 163.593 740.74 Q161.788 737.175 158.153 737.175 M158.153 733.472 Q163.964 733.472 167.019 738.078 Q170.098 742.661 170.098 751.411 Q170.098 760.138 167.019 764.744 Q163.964 769.328 158.153 769.328 Q152.343 769.328 149.265 764.744 Q146.209 760.138 146.209 751.411 Q146.209 742.661 149.265 738.078 Q152.343 733.472 158.153 733.472 Z" fill="#000000" fill-rule="nonzero" fill-opacity="1" /><path clip-path="url(#clip340)" d="M83.7557 469.921 Q80.1447 469.921 78.316 473.486 Q76.5104 477.028 76.5104 484.157 Q76.5104 491.264 78.316 494.828 Q80.1447 498.37 83.7557 498.37 Q87.39 498.37 89.1955 494.828 Q91.0242 491.264 91.0242 484.157 Q91.0242 477.028 89.1955 473.486 Q87.39 469.921 83.7557 469.921 M83.7557 466.217 Q89.5659 466.217 92.6214 470.824 Q95.7001 475.407 95.7001 484.157 Q95.7001 492.884 92.6214 497.49 Q89.5659 502.074 83.7557 502.074 Q77.9456 502.074 74.8669 497.49 Q71.8114 492.884 71.8114 484.157 Q71.8114 475.407 74.8669 470.824 Q77.9456 466.217 83.7557 466.217 Z" fill="#000000" fill-rule="nonzero" fill-opacity="1" /><path clip-path="url(#clip340)" d="M103.918 495.523 L108.802 495.523 L108.802 501.402 L103.918 501.402 L103.918 495.523 Z" fill="#000000" fill-rule="nonzero" fill-opacity="1" /><path clip-path="url(#clip340)" d="M123.015 497.467 L139.334 497.467 L139.334 501.402 L117.39 501.402 L117.39 497.467 Q120.052 494.713 124.635 490.083 Q129.242 485.43 130.422 484.088 Q132.668 481.565 133.547 479.828 Q134.45 478.069 134.45 476.379 Q134.45 473.625 132.505 471.889 Q130.584 470.153 127.482 470.153 Q125.283 470.153 122.83 470.916 Q120.399 471.68 117.621 473.231 L117.621 468.509 Q120.445 467.375 122.899 466.796 Q125.353 466.217 127.39 466.217 Q132.76 466.217 135.955 468.903 Q139.149 471.588 139.149 476.078 Q139.149 478.208 138.339 480.129 Q137.552 482.027 135.445 484.62 Q134.867 485.291 131.765 488.509 Q128.663 491.703 123.015 497.467 Z" fill="#000000" fill-rule="nonzero" fill-opacity="1" /><path clip-path="url(#clip340)" d="M149.195 466.842 L167.552 466.842 L167.552 470.778 L153.478 470.778 L153.478 479.25 Q154.496 478.903 155.515 478.74 Q156.533 478.555 157.552 478.555 Q163.339 478.555 166.718 481.727 Q170.098 484.898 170.098 490.314 Q170.098 495.893 166.626 498.995 Q163.153 502.074 156.834 502.074 Q154.658 502.074 152.39 501.703 Q150.144 501.333 147.737 500.592 L147.737 495.893 Q149.82 497.027 152.042 497.583 Q154.265 498.139 156.741 498.139 Q160.746 498.139 163.084 496.032 Q165.422 493.926 165.422 490.314 Q165.422 486.703 163.084 484.597 Q160.746 482.49 156.741 482.49 Q154.866 482.49 152.991 482.907 Q151.14 483.324 149.195 484.203 L149.195 466.842 Z" fill="#000000" fill-rule="nonzero" fill-opacity="1" /><path clip-path="url(#clip340)" d="M82.7604 202.667 Q79.1493 202.667 77.3206 206.232 Q75.515 209.773 75.515 216.903 Q75.515 224.009 77.3206 227.574 Q79.1493 231.116 82.7604 231.116 Q86.3946 231.116 88.2002 227.574 Q90.0289 224.009 90.0289 216.903 Q90.0289 209.773 88.2002 206.232 Q86.3946 202.667 82.7604 202.667 M82.7604 198.963 Q88.5705 198.963 91.6261 203.57 Q94.7048 208.153 94.7048 216.903 Q94.7048 225.63 91.6261 230.236 Q88.5705 234.82 82.7604 234.82 Q76.9502 234.82 73.8715 230.236 Q70.816 225.63 70.816 216.903 Q70.816 208.153 73.8715 203.57 Q76.9502 198.963 82.7604 198.963 Z" fill="#000000" fill-rule="nonzero" fill-opacity="1" /><path clip-path="url(#clip340)" d="M102.922 228.269 L107.807 228.269 L107.807 234.148 L102.922 234.148 L102.922 228.269 Z" fill="#000000" fill-rule="nonzero" fill-opacity="1" /><path clip-path="url(#clip340)" d="M118.038 199.588 L136.394 199.588 L136.394 203.523 L122.32 203.523 L122.32 211.996 Q123.339 211.648 124.357 211.486 Q125.376 211.301 126.394 211.301 Q132.181 211.301 135.561 214.472 Q138.941 217.644 138.941 223.06 Q138.941 228.639 135.468 231.741 Q131.996 234.82 125.677 234.82 Q123.501 234.82 121.232 234.449 Q118.987 234.079 116.58 233.338 L116.58 228.639 Q118.663 229.773 120.885 230.329 Q123.107 230.884 125.584 230.884 Q129.589 230.884 131.927 228.778 Q134.265 226.671 134.265 223.06 Q134.265 219.449 131.927 217.343 Q129.589 215.236 125.584 215.236 Q123.709 215.236 121.834 215.653 Q119.982 216.07 118.038 216.949 L118.038 199.588 Z" fill="#000000" fill-rule="nonzero" fill-opacity="1" /><path clip-path="url(#clip340)" d="M158.153 202.667 Q154.542 202.667 152.714 206.232 Q150.908 209.773 150.908 216.903 Q150.908 224.009 152.714 227.574 Q154.542 231.116 158.153 231.116 Q161.788 231.116 163.593 227.574 Q165.422 224.009 165.422 216.903 Q165.422 209.773 163.593 206.232 Q161.788 202.667 158.153 202.667 M158.153 198.963 Q163.964 198.963 167.019 203.57 Q170.098 208.153 170.098 216.903 Q170.098 225.63 167.019 230.236 Q163.964 234.82 158.153 234.82 Q152.343 234.82 149.265 230.236 Q146.209 225.63 146.209 216.903 Q146.209 208.153 149.265 203.57 Q152.343 198.963 158.153 198.963 Z" fill="#000000" fill-rule="nonzero" fill-opacity="1" /><polyline clip-path="url(#clip342)" style="stroke:#000000; stroke-linecap:round; stroke-linejoin:round; stroke-width:4; stroke-opacity:1; fill:none" points="284.343,1445.72 284.343,789.928 "/>
<polyline clip-path="url(#clip342)" style="stroke:#000000; stroke-linecap:round; stroke-linejoin:round; stroke-width:4; stroke-opacity:1; fill:none" points="953.732,1007.06 953.732,679.171 "/>
<polyline clip-path="url(#clip342)" style="stroke:#000000; stroke-linecap:round; stroke-linejoin:round; stroke-width:4; stroke-opacity:1; fill:none" points="1623.12,568.413 1623.12,568.413 "/>
<polyline clip-path="url(#clip342)" style="stroke:#000000; stroke-linecap:round; stroke-linejoin:round; stroke-width:4; stroke-opacity:1; fill:none" points="2292.51,457.655 2292.51,129.762 "/>
<line clip-path="url(#clip342)" x1="300.343" y1="1445.72" x2="268.343" y2="1445.72" style="stroke:#000000; stroke-width:4; stroke-opacity:1"/>
<line clip-path="url(#clip342)" x1="300.343" y1="789.928" x2="268.343" y2="789.928" style="stroke:#000000; stroke-width:4; stroke-opacity:1"/>
<line clip-path="url(#clip342)" x1="969.732" y1="1007.06" x2="937.732" y2="1007.06" style="stroke:#000000; stroke-width:4; stroke-opacity:1"/>
<line clip-path="url(#clip342)" x1="969.732" y1="679.171" x2="937.732" y2="679.171" style="stroke:#000000; stroke-width:4; stroke-opacity:1"/>
<line clip-path="url(#clip342)" x1="1639.12" y1="568.413" x2="1607.12" y2="568.413" style="stroke:#000000; stroke-width:4; stroke-opacity:1"/>
<line clip-path="url(#clip342)" x1="1639.12" y1="568.413" x2="1607.12" y2="568.413" style="stroke:#000000; stroke-width:4; stroke-opacity:1"/>
<line clip-path="url(#clip342)" x1="2308.51" y1="457.655" x2="2276.51" y2="457.655" style="stroke:#000000; stroke-width:4; stroke-opacity:1"/>
<line clip-path="url(#clip342)" x1="2308.51" y1="129.762" x2="2276.51" y2="129.762" style="stroke:#000000; stroke-width:4; stroke-opacity:1"/>
<circle clip-path="url(#clip342)" cx="284.343" cy="1117.82" r="14.4" fill="#009af9" fill-rule="evenodd" fill-opacity="1" stroke="#000000" stroke-opacity="1" stroke-width="3.2"/>
<circle clip-path="url(#clip342)" cx="953.732" cy="843.117" r="14.4" fill="#009af9" fill-rule="evenodd" fill-opacity="1" stroke="#000000" stroke-opacity="1" stroke-width="3.2"/>
<circle clip-path="url(#clip342)" cx="1623.12" cy="568.413" r="14.4" fill="#009af9" fill-rule="evenodd" fill-opacity="1" stroke="#000000" stroke-opacity="1" stroke-width="3.2"/>
<circle clip-path="url(#clip342)" cx="2292.51" cy="293.709" r="14.4" fill="#009af9" fill-rule="evenodd" fill-opacity="1" stroke="#000000" stroke-opacity="1" stroke-width="3.2"/>
<polyline clip-path="url(#clip342)" style="stroke:#e26f46; stroke-linecap:round; stroke-linejoin:round; stroke-width:4; stroke-opacity:1; fill:none" points="284.343,1117.82 953.732,843.117 1623.12,568.413 2292.51,293.709 "/>
<path clip-path="url(#clip342)" d="M284.343 1229.1 L953.732 848.724 L1623.12 668.476 L2292.51 499.441 L2292.51 87.9763 L1623.12 468.35 L953.732 848.724 L284.343 1229.1  Z" fill="#3da44d" fill-rule="evenodd" fill-opacity="0.5"/>
<polyline clip-path="url(#clip342)" style="stroke:#3da44d; stroke-linecap:round; stroke-linejoin:round; stroke-width:4; stroke-opacity:1; fill:none" points="284.343,1117.82 953.732,843.117 1623.12,568.413 2292.51,293.709 "/>
<path clip-path="url(#clip340)" d="M295.053 302.578 L959.768 302.578 L959.768 95.2176 L295.053 95.2176  Z" fill="#ffffff" fill-rule="evenodd" fill-opacity="1"/>
<polyline clip-path="url(#clip340)" style="stroke:#000000; stroke-linecap:round; stroke-linejoin:round; stroke-width:4; stroke-opacity:1; fill:none" points="295.053,302.578 959.768,302.578 959.768,95.2176 295.053,95.2176 295.053,302.578 "/>
<circle clip-path="url(#clip340)" cx="389.66" cy="147.058" r="20.48" fill="#009af9" fill-rule="evenodd" fill-opacity="1" stroke="#000000" stroke-opacity="1" stroke-width="4.55111"/>
<path clip-path="url(#clip340)" d="M488.943 133.62 L488.943 146.606 L494.823 146.606 Q498.087 146.606 499.869 144.916 Q501.651 143.227 501.651 140.102 Q501.651 137 499.869 135.31 Q498.087 133.62 494.823 133.62 L488.943 133.62 M484.267 129.778 L494.823 129.778 Q500.633 129.778 503.596 132.416 Q506.582 135.032 506.582 140.102 Q506.582 145.217 503.596 147.833 Q500.633 150.449 494.823 150.449 L488.943 150.449 L488.943 164.338 L484.267 164.338 L484.267 129.778 Z" fill="#000000" fill-rule="nonzero" fill-opacity="1" /><path clip-path="url(#clip340)" d="M521.026 141.398 Q517.6 141.398 515.61 144.083 Q513.619 146.745 513.619 151.398 Q513.619 156.051 515.586 158.736 Q517.577 161.398 521.026 161.398 Q524.429 161.398 526.42 158.713 Q528.41 156.027 528.41 151.398 Q528.41 146.791 526.42 144.106 Q524.429 141.398 521.026 141.398 M521.026 137.787 Q526.582 137.787 529.753 141.398 Q532.924 145.009 532.924 151.398 Q532.924 157.764 529.753 161.398 Q526.582 165.009 521.026 165.009 Q515.448 165.009 512.276 161.398 Q509.128 157.764 509.128 151.398 Q509.128 145.009 512.276 141.398 Q515.448 137.787 521.026 137.787 Z" fill="#000000" fill-rule="nonzero" fill-opacity="1" /><path clip-path="url(#clip340)" d="M539.984 138.412 L544.244 138.412 L544.244 164.338 L539.984 164.338 L539.984 138.412 M539.984 128.319 L544.244 128.319 L544.244 133.713 L539.984 133.713 L539.984 128.319 Z" fill="#000000" fill-rule="nonzero" fill-opacity="1" /><path clip-path="url(#clip340)" d="M574.707 148.689 L574.707 164.338 L570.447 164.338 L570.447 148.828 Q570.447 145.148 569.012 143.319 Q567.577 141.49 564.707 141.49 Q561.258 141.49 559.267 143.69 Q557.276 145.889 557.276 149.685 L557.276 164.338 L552.994 164.338 L552.994 138.412 L557.276 138.412 L557.276 142.44 Q558.804 140.102 560.864 138.944 Q562.947 137.787 565.656 137.787 Q570.123 137.787 572.415 140.565 Q574.707 143.319 574.707 148.689 Z" fill="#000000" fill-rule="nonzero" fill-opacity="1" /><path clip-path="url(#clip340)" d="M587.415 131.051 L587.415 138.412 L596.188 138.412 L596.188 141.722 L587.415 141.722 L587.415 155.796 Q587.415 158.967 588.271 159.87 Q589.151 160.773 591.813 160.773 L596.188 160.773 L596.188 164.338 L591.813 164.338 Q586.882 164.338 585.007 162.509 Q583.132 160.657 583.132 155.796 L583.132 141.722 L580.007 141.722 L580.007 138.412 L583.132 138.412 L583.132 131.051 L587.415 131.051 Z" fill="#000000" fill-rule="nonzero" fill-opacity="1" /><path clip-path="url(#clip340)" d="M599.313 138.412 L603.572 138.412 L608.896 158.643 L614.197 138.412 L619.22 138.412 L624.544 158.643 L629.845 138.412 L634.104 138.412 L627.322 164.338 L622.299 164.338 L616.72 143.088 L611.118 164.338 L606.095 164.338 L599.313 138.412 Z" fill="#000000" fill-rule="nonzero" fill-opacity="1" /><path clip-path="url(#clip340)" d="M640.563 138.412 L644.822 138.412 L644.822 164.338 L640.563 164.338 L640.563 138.412 M640.563 128.319 L644.822 128.319 L644.822 133.713 L640.563 133.713 L640.563 128.319 Z" fill="#000000" fill-rule="nonzero" fill-opacity="1" /><path clip-path="url(#clip340)" d="M670.262 139.176 L670.262 143.203 Q668.456 142.277 666.512 141.815 Q664.567 141.352 662.484 141.352 Q659.313 141.352 657.715 142.324 Q656.141 143.296 656.141 145.24 Q656.141 146.722 657.276 147.578 Q658.41 148.412 661.836 149.176 L663.294 149.5 Q667.831 150.472 669.729 152.254 Q671.65 154.014 671.65 157.185 Q671.65 160.796 668.78 162.902 Q665.933 165.009 660.933 165.009 Q658.85 165.009 656.581 164.592 Q654.336 164.199 651.836 163.388 L651.836 158.99 Q654.197 160.217 656.488 160.842 Q658.78 161.444 661.026 161.444 Q664.035 161.444 665.655 160.426 Q667.275 159.384 667.275 157.509 Q667.275 155.773 666.095 154.847 Q664.938 153.921 660.979 153.064 L659.498 152.717 Q655.539 151.884 653.78 150.171 Q652.021 148.435 652.021 145.426 Q652.021 141.768 654.613 139.778 Q657.206 137.787 661.975 137.787 Q664.336 137.787 666.419 138.134 Q668.502 138.481 670.262 139.176 Z" fill="#000000" fill-rule="nonzero" fill-opacity="1" /><path clip-path="url(#clip340)" d="M700.609 150.31 L700.609 152.393 L681.025 152.393 Q681.303 156.791 683.664 159.106 Q686.049 161.398 690.285 161.398 Q692.738 161.398 695.03 160.796 Q697.345 160.194 699.613 158.99 L699.613 163.018 Q697.322 163.99 694.914 164.5 Q692.507 165.009 690.03 165.009 Q683.826 165.009 680.192 161.398 Q676.581 157.787 676.581 151.629 Q676.581 145.264 680.007 141.537 Q683.456 137.787 689.289 137.787 Q694.521 137.787 697.553 141.166 Q700.609 144.523 700.609 150.31 M696.349 149.06 Q696.303 145.565 694.382 143.481 Q692.484 141.398 689.336 141.398 Q685.771 141.398 683.618 143.412 Q681.488 145.426 681.164 149.083 L696.349 149.06 Z" fill="#000000" fill-rule="nonzero" fill-opacity="1" /><path clip-path="url(#clip340)" d="M741.326 139.407 L741.326 143.389 Q739.52 142.393 737.692 141.907 Q735.886 141.398 734.034 141.398 Q729.891 141.398 727.599 144.037 Q725.308 146.652 725.308 151.398 Q725.308 156.143 727.599 158.782 Q729.891 161.398 734.034 161.398 Q735.886 161.398 737.692 160.912 Q739.52 160.402 741.326 159.407 L741.326 163.342 Q739.544 164.176 737.622 164.592 Q735.724 165.009 733.571 165.009 Q727.715 165.009 724.266 161.328 Q720.817 157.648 720.817 151.398 Q720.817 145.055 724.289 141.421 Q727.784 137.787 733.849 137.787 Q735.817 137.787 737.692 138.203 Q739.567 138.597 741.326 139.407 Z" fill="#000000" fill-rule="nonzero" fill-opacity="1" /><path clip-path="url(#clip340)" d="M758.78 141.398 Q755.354 141.398 753.363 144.083 Q751.372 146.745 751.372 151.398 Q751.372 156.051 753.34 158.736 Q755.331 161.398 758.78 161.398 Q762.182 161.398 764.173 158.713 Q766.164 156.027 766.164 151.398 Q766.164 146.791 764.173 144.106 Q762.182 141.398 758.78 141.398 M758.78 137.787 Q764.335 137.787 767.506 141.398 Q770.678 145.009 770.678 151.398 Q770.678 157.764 767.506 161.398 Q764.335 165.009 758.78 165.009 Q753.201 165.009 750.03 161.398 Q746.882 157.764 746.882 151.398 Q746.882 145.009 750.03 141.398 Q753.201 137.787 758.78 137.787 Z" fill="#000000" fill-rule="nonzero" fill-opacity="1" /><path clip-path="url(#clip340)" d="M799.289 148.689 L799.289 164.338 L795.029 164.338 L795.029 148.828 Q795.029 145.148 793.594 143.319 Q792.159 141.49 789.289 141.49 Q785.84 141.49 783.849 143.69 Q781.858 145.889 781.858 149.685 L781.858 164.338 L777.576 164.338 L777.576 138.412 L781.858 138.412 L781.858 142.44 Q783.386 140.102 785.446 138.944 Q787.529 137.787 790.238 137.787 Q794.705 137.787 796.997 140.565 Q799.289 143.319 799.289 148.689 Z" fill="#000000" fill-rule="nonzero" fill-opacity="1" /><path clip-path="url(#clip340)" d="M811.997 131.051 L811.997 138.412 L820.77 138.412 L820.77 141.722 L811.997 141.722 L811.997 155.796 Q811.997 158.967 812.853 159.87 Q813.733 160.773 816.395 160.773 L820.77 160.773 L820.77 164.338 L816.395 164.338 Q811.465 164.338 809.59 162.509 Q807.715 160.657 807.715 155.796 L807.715 141.722 L804.59 141.722 L804.59 138.412 L807.715 138.412 L807.715 131.051 L811.997 131.051 Z" fill="#000000" fill-rule="nonzero" fill-opacity="1" /><path clip-path="url(#clip340)" d="M841.395 142.393 Q840.677 141.977 839.821 141.791 Q838.988 141.583 837.969 141.583 Q834.358 141.583 832.413 143.944 Q830.492 146.282 830.492 150.68 L830.492 164.338 L826.21 164.338 L826.21 138.412 L830.492 138.412 L830.492 142.44 Q831.835 140.078 833.988 138.944 Q836.14 137.787 839.219 137.787 Q839.659 137.787 840.191 137.856 Q840.724 137.903 841.372 138.018 L841.395 142.393 Z" fill="#000000" fill-rule="nonzero" fill-opacity="1" /><path clip-path="url(#clip340)" d="M857.645 151.305 Q852.483 151.305 850.492 152.486 Q848.501 153.666 848.501 156.514 Q848.501 158.782 849.983 160.125 Q851.487 161.444 854.057 161.444 Q857.599 161.444 859.728 158.944 Q861.881 156.421 861.881 152.254 L861.881 151.305 L857.645 151.305 M866.14 149.546 L866.14 164.338 L861.881 164.338 L861.881 160.402 Q860.423 162.763 858.247 163.898 Q856.071 165.009 852.923 165.009 Q848.941 165.009 846.58 162.787 Q844.242 160.541 844.242 156.791 Q844.242 152.416 847.159 150.194 Q850.099 147.972 855.909 147.972 L861.881 147.972 L861.881 147.555 Q861.881 144.615 859.936 143.018 Q858.015 141.398 854.52 141.398 Q852.298 141.398 850.191 141.93 Q848.085 142.463 846.14 143.527 L846.14 139.592 Q848.478 138.69 850.677 138.25 Q852.876 137.787 854.96 137.787 Q860.585 137.787 863.362 140.703 Q866.14 143.62 866.14 149.546 Z" fill="#000000" fill-rule="nonzero" fill-opacity="1" /><path clip-path="url(#clip340)" d="M891.441 139.176 L891.441 143.203 Q889.635 142.277 887.691 141.815 Q885.747 141.352 883.663 141.352 Q880.492 141.352 878.895 142.324 Q877.321 143.296 877.321 145.24 Q877.321 146.722 878.455 147.578 Q879.589 148.412 883.015 149.176 L884.473 149.5 Q889.01 150.472 890.909 152.254 Q892.83 154.014 892.83 157.185 Q892.83 160.796 889.959 162.902 Q887.112 165.009 882.112 165.009 Q880.029 165.009 877.76 164.592 Q875.515 164.199 873.015 163.388 L873.015 158.99 Q875.376 160.217 877.668 160.842 Q879.96 161.444 882.205 161.444 Q885.214 161.444 886.834 160.426 Q888.455 159.384 888.455 157.509 Q888.455 155.773 887.274 154.847 Q886.117 153.921 882.159 153.064 L880.677 152.717 Q876.719 151.884 874.96 150.171 Q873.2 148.435 873.2 145.426 Q873.2 141.768 875.793 139.778 Q878.385 137.787 883.154 137.787 Q885.515 137.787 887.598 138.134 Q889.682 138.481 891.441 139.176 Z" fill="#000000" fill-rule="nonzero" fill-opacity="1" /><path clip-path="url(#clip340)" d="M903.825 131.051 L903.825 138.412 L912.598 138.412 L912.598 141.722 L903.825 141.722 L903.825 155.796 Q903.825 158.967 904.682 159.87 Q905.561 160.773 908.223 160.773 L912.598 160.773 L912.598 164.338 L908.223 164.338 Q903.293 164.338 901.418 162.509 Q899.543 160.657 899.543 155.796 L899.543 141.722 L896.418 141.722 L896.418 138.412 L899.543 138.412 L899.543 131.051 L903.825 131.051 Z" fill="#000000" fill-rule="nonzero" fill-opacity="1" /><path clip-path="url(#clip340)" d="M934.728 139.176 L934.728 143.203 Q932.922 142.277 930.978 141.815 Q929.033 141.352 926.95 141.352 Q923.779 141.352 922.182 142.324 Q920.607 143.296 920.607 145.24 Q920.607 146.722 921.742 147.578 Q922.876 148.412 926.302 149.176 L927.76 149.5 Q932.297 150.472 934.195 152.254 Q936.117 154.014 936.117 157.185 Q936.117 160.796 933.246 162.902 Q930.399 165.009 925.399 165.009 Q923.316 165.009 921.047 164.592 Q918.802 164.199 916.302 163.388 L916.302 158.99 Q918.663 160.217 920.955 160.842 Q923.246 161.444 925.492 161.444 Q928.501 161.444 930.121 160.426 Q931.742 159.384 931.742 157.509 Q931.742 155.773 930.561 154.847 Q929.404 153.921 925.445 153.064 L923.964 152.717 Q920.006 151.884 918.246 150.171 Q916.487 148.435 916.487 145.426 Q916.487 141.768 919.08 139.778 Q921.672 137.787 926.441 137.787 Q928.802 137.787 930.885 138.134 Q932.968 138.481 934.728 139.176 Z" fill="#000000" fill-rule="nonzero" fill-opacity="1" /><polyline clip-path="url(#clip340)" style="stroke:#e26f46; stroke-linecap:round; stroke-linejoin:round; stroke-width:4; stroke-opacity:1; fill:none" points="318.705,198.898 460.615,198.898 "/>
<path clip-path="url(#clip340)" d="M484.267 181.618 L491.235 181.618 L500.054 205.136 L508.92 181.618 L515.887 181.618 L515.887 216.178 L511.327 216.178 L511.327 185.83 L502.415 209.534 L497.716 209.534 L488.804 185.83 L488.804 216.178 L484.267 216.178 L484.267 181.618 Z" fill="#000000" fill-rule="nonzero" fill-opacity="1" /><path clip-path="url(#clip340)" d="M545.887 182.752 L545.887 187.312 Q543.225 186.039 540.864 185.414 Q538.503 184.789 536.304 184.789 Q532.485 184.789 530.401 186.27 Q528.341 187.752 528.341 190.483 Q528.341 192.775 529.707 193.955 Q531.096 195.113 534.938 195.83 L537.762 196.409 Q542.994 197.405 545.471 199.928 Q547.971 202.428 547.971 206.641 Q547.971 211.664 544.591 214.256 Q541.234 216.849 534.73 216.849 Q532.276 216.849 529.498 216.293 Q526.744 215.738 523.781 214.65 L523.781 209.835 Q526.628 211.432 529.36 212.242 Q532.091 213.053 534.73 213.053 Q538.734 213.053 540.91 211.479 Q543.086 209.904 543.086 206.988 Q543.086 204.442 541.512 203.006 Q539.961 201.571 536.397 200.854 L533.549 200.298 Q528.318 199.256 525.98 197.034 Q523.642 194.812 523.642 190.854 Q523.642 186.27 526.86 183.631 Q530.1 180.993 535.772 180.993 Q538.202 180.993 540.725 181.432 Q543.248 181.872 545.887 182.752 Z" fill="#000000" fill-rule="nonzero" fill-opacity="1" /><path clip-path="url(#clip340)" d="M555.262 181.618 L562.23 181.618 L571.049 205.136 L579.915 181.618 L586.882 181.618 L586.882 216.178 L582.322 216.178 L582.322 185.83 L573.41 209.534 L568.711 209.534 L559.799 185.83 L559.799 216.178 L555.262 216.178 L555.262 181.618 Z" fill="#000000" fill-rule="nonzero" fill-opacity="1" /><path clip-path="url(#clip340)" d="M624.174 180.159 L624.174 183.701 L620.1 183.701 Q617.808 183.701 616.905 184.627 Q616.026 185.553 616.026 187.96 L616.026 190.252 L623.04 190.252 L623.04 193.562 L616.026 193.562 L616.026 216.178 L611.743 216.178 L611.743 193.562 L607.669 193.562 L607.669 190.252 L611.743 190.252 L611.743 188.446 Q611.743 184.118 613.757 182.15 Q615.771 180.159 620.146 180.159 L624.174 180.159 Z" fill="#000000" fill-rule="nonzero" fill-opacity="1" /><path clip-path="url(#clip340)" d="M627.739 190.252 L631.998 190.252 L631.998 216.178 L627.739 216.178 L627.739 190.252 M627.739 180.159 L631.998 180.159 L631.998 185.553 L627.739 185.553 L627.739 180.159 Z" fill="#000000" fill-rule="nonzero" fill-opacity="1" /><path clip-path="url(#clip340)" d="M645.123 182.891 L645.123 190.252 L653.896 190.252 L653.896 193.562 L645.123 193.562 L645.123 207.636 Q645.123 210.807 645.979 211.71 Q646.859 212.613 649.521 212.613 L653.896 212.613 L653.896 216.178 L649.521 216.178 Q644.59 216.178 642.715 214.349 Q640.84 212.497 640.84 207.636 L640.84 193.562 L637.715 193.562 L637.715 190.252 L640.84 190.252 L640.84 182.891 L645.123 182.891 Z" fill="#000000" fill-rule="nonzero" fill-opacity="1" /><polyline clip-path="url(#clip340)" style="stroke:#3da44d; stroke-linecap:round; stroke-linejoin:round; stroke-width:4; stroke-opacity:1; fill:none" points="318.705,250.738 460.615,250.738 "/>
<path clip-path="url(#clip340)" d="M484.267 233.458 L491.235 233.458 L500.054 256.976 L508.92 233.458 L515.887 233.458 L515.887 268.018 L511.327 268.018 L511.327 237.67 L502.415 261.374 L497.716 261.374 L488.804 237.67 L488.804 268.018 L484.267 268.018 L484.267 233.458 Z" fill="#000000" fill-rule="nonzero" fill-opacity="1" /><path clip-path="url(#clip340)" d="M545.887 234.592 L545.887 239.152 Q543.225 237.879 540.864 237.254 Q538.503 236.629 536.304 236.629 Q532.485 236.629 530.401 238.11 Q528.341 239.592 528.341 242.323 Q528.341 244.615 529.707 245.795 Q531.096 246.953 534.938 247.67 L537.762 248.249 Q542.994 249.245 545.471 251.768 Q547.971 254.268 547.971 258.481 Q547.971 263.504 544.591 266.096 Q541.234 268.689 534.73 268.689 Q532.276 268.689 529.498 268.133 Q526.744 267.578 523.781 266.49 L523.781 261.675 Q526.628 263.272 529.36 264.082 Q532.091 264.893 534.73 264.893 Q538.734 264.893 540.91 263.319 Q543.086 261.744 543.086 258.828 Q543.086 256.282 541.512 254.846 Q539.961 253.411 536.397 252.694 L533.549 252.138 Q528.318 251.096 525.98 248.874 Q523.642 246.652 523.642 242.694 Q523.642 238.11 526.86 235.471 Q530.1 232.833 535.772 232.833 Q538.202 232.833 540.725 233.272 Q543.248 233.712 545.887 234.592 Z" fill="#000000" fill-rule="nonzero" fill-opacity="1" /><path clip-path="url(#clip340)" d="M555.262 233.458 L562.23 233.458 L571.049 256.976 L579.915 233.458 L586.882 233.458 L586.882 268.018 L582.322 268.018 L582.322 237.67 L573.41 261.374 L568.711 261.374 L559.799 237.67 L559.799 268.018 L555.262 268.018 L555.262 233.458 Z" fill="#000000" fill-rule="nonzero" fill-opacity="1" /><path clip-path="url(#clip340)" d="M624.174 231.999 L624.174 235.541 L620.1 235.541 Q617.808 235.541 616.905 236.467 Q616.026 237.393 616.026 239.8 L616.026 242.092 L623.04 242.092 L623.04 245.402 L616.026 245.402 L616.026 268.018 L611.743 268.018 L611.743 245.402 L607.669 245.402 L607.669 242.092 L611.743 242.092 L611.743 240.286 Q611.743 235.958 613.757 233.99 Q615.771 231.999 620.146 231.999 L624.174 231.999 Z" fill="#000000" fill-rule="nonzero" fill-opacity="1" /><path clip-path="url(#clip340)" d="M627.739 242.092 L631.998 242.092 L631.998 268.018 L627.739 268.018 L627.739 242.092 M627.739 231.999 L631.998 231.999 L631.998 237.393 L627.739 237.393 L627.739 231.999 Z" fill="#000000" fill-rule="nonzero" fill-opacity="1" /><path clip-path="url(#clip340)" d="M645.123 234.731 L645.123 242.092 L653.896 242.092 L653.896 245.402 L645.123 245.402 L645.123 259.476 Q645.123 262.647 645.979 263.55 Q646.859 264.453 649.521 264.453 L653.896 264.453 L653.896 268.018 L649.521 268.018 Q644.59 268.018 642.715 266.189 Q640.84 264.337 640.84 259.476 L640.84 245.402 L637.715 245.402 L637.715 242.092 L640.84 242.092 L640.84 234.731 L645.123 234.731 Z" fill="#000000" fill-rule="nonzero" fill-opacity="1" /></svg>
