<?xml version="1.0" encoding="utf-8"?>
<svg xmlns="http://www.w3.org/2000/svg" xmlns:xlink="http://www.w3.org/1999/xlink" width="600" height="400" viewBox="0 0 2400 1600">
<defs>
  <clipPath id="clip430">
    <rect x="0" y="0" width="2400" height="1600"/>
  </clipPath>
</defs>
<path clip-path="url(#clip430)" d="M0 1600 L2400 1600 L2400 0 L0 0  Z" fill="#ffffff" fill-rule="evenodd" fill-opacity="1"/>
<defs>
  <clipPath id="clip431">
    <rect x="480" y="0" width="1681" height="1600"/>
  </clipPath>
</defs>
<path clip-path="url(#clip430)" d="M224.098 1486.45 L2352.76 1486.45 L2352.76 47.2441 L224.098 47.2441  Z" fill="#ffffff" fill-rule="evenodd" fill-opacity="1"/>
<defs>
  <clipPath id="clip432">
    <rect x="224" y="47" width="2130" height="1440"/>
  </clipPath>
</defs>
<polyline clip-path="url(#clip430)" style="stroke:#000000; stroke-linecap:round; stroke-linejoin:round; stroke-width:4; stroke-opacity:1; fill:none" points="224.098,1486.45 2352.76,1486.45 "/>
<path clip-path="url(#clip430)" d="M284.343 1517.37 Q280.732 1517.37 278.903 1520.93 Q277.098 1524.47 277.098 1531.6 Q277.098 1538.71 278.903 1542.27 Q280.732 1545.82 284.343 1545.82 Q287.977 1545.82 289.783 1542.27 Q291.611 1538.71 291.611 1531.6 Q291.611 1524.47 289.783 1520.93 Q287.977 1517.37 284.343 1517.37 M284.343 1513.66 Q290.153 1513.66 293.209 1518.27 Q296.287 1522.85 296.287 1531.6 Q296.287 1540.33 293.209 1544.94 Q290.153 1549.52 284.343 1549.52 Q278.533 1549.52 275.454 1544.94 Q272.399 1540.33 272.399 1531.6 Q272.399 1522.85 275.454 1518.27 Q278.533 1513.66 284.343 1513.66 Z" fill="#000000" fill-rule="nonzero" fill-opacity="1" /><path clip-path="url(#clip430)" d="M944.114 1544.91 L951.753 1544.91 L951.753 1518.55 L943.443 1520.21 L943.443 1515.95 L951.707 1514.29 L956.383 1514.29 L956.383 1544.91 L964.022 1544.91 L964.022 1548.85 L944.114 1548.85 L944.114 1544.91 Z" fill="#000000" fill-rule="nonzero" fill-opacity="1" /><path clip-path="url(#clip430)" d="M1617.77 1544.91 L1634.09 1544.91 L1634.09 1548.85 L1612.15 1548.85 L1612.15 1544.91 Q1614.81 1542.16 1619.39 1537.53 Q1624 1532.88 1625.18 1531.53 Q1627.43 1529.01 1628.31 1527.27 Q1629.21 1525.51 1629.21 1523.82 Q1629.21 1521.07 1627.27 1519.33 Q1625.34 1517.6 1622.24 1517.6 Q1620.04 1517.6 1617.59 1518.36 Q1615.16 1519.13 1612.38 1520.68 L1612.38 1515.95 Q1615.2 1514.82 1617.66 1514.24 Q1620.11 1513.66 1622.15 1513.66 Q1627.52 1513.66 1630.71 1516.35 Q1633.91 1519.03 1633.91 1523.52 Q1633.91 1525.65 1633.1 1527.57 Q1632.31 1529.47 1630.2 1532.07 Q1629.63 1532.74 1626.52 1535.95 Q1623.42 1539.15 1617.77 1544.91 Z" fill="#000000" fill-rule="nonzero" fill-opacity="1" /><path clip-path="url(#clip430)" d="M2296.76 1530.21 Q2300.11 1530.93 2301.99 1533.2 Q2303.89 1535.47 2303.89 1538.8 Q2303.89 1543.92 2300.37 1546.72 Q2296.85 1549.52 2290.37 1549.52 Q2288.19 1549.52 2285.88 1549.08 Q2283.59 1548.66 2281.13 1547.81 L2281.13 1543.29 Q2283.08 1544.43 2285.39 1545.01 Q2287.71 1545.58 2290.23 1545.58 Q2294.63 1545.58 2296.92 1543.85 Q2299.24 1542.11 2299.24 1538.8 Q2299.24 1535.75 2297.08 1534.03 Q2294.95 1532.3 2291.13 1532.3 L2287.11 1532.3 L2287.11 1528.45 L2291.32 1528.45 Q2294.77 1528.45 2296.6 1527.09 Q2298.43 1525.7 2298.43 1523.11 Q2298.43 1520.45 2296.53 1519.03 Q2294.65 1517.6 2291.13 1517.6 Q2289.21 1517.6 2287.01 1518.01 Q2284.81 1518.43 2282.18 1519.31 L2282.18 1515.14 Q2284.84 1514.4 2287.15 1514.03 Q2289.49 1513.66 2291.55 1513.66 Q2296.87 1513.66 2299.98 1516.09 Q2303.08 1518.5 2303.08 1522.62 Q2303.08 1525.49 2301.43 1527.48 Q2299.79 1529.45 2296.76 1530.21 Z" fill="#000000" fill-rule="nonzero" fill-opacity="1" /><polyline clip-path="url(#clip430)" style="stroke:#000000; stroke-linecap:round; stroke-linejoin:round; stroke-width:4; stroke-opacity:1; fill:none" points="224.098,1486.45 224.098,47.2441 "/>
<polyline clip-path="url(#clip430)" style="stroke:#000000; stroke-linecap:round; stroke-linejoin:round; stroke-width:4; stroke-opacity:1; fill:none" points="224.098,1398.94 205.2,1398.94 "/>
<polyline clip-path="url(#clip430)" style="stroke:#000000; stroke-linecap:round; stroke-linejoin:round; stroke-width:4; stroke-opacity:1; fill:none" points="224.098,1199.8 205.2,1199.8 "/>
<polyline clip-path="url(#clip430)" style="stroke:#000000; stroke-linecap:round; stroke-linejoin:round; stroke-width:4; stroke-opacity:1; fill:none" points="224.098,1000.66 205.2,1000.66 "/>
<polyline clip-path="url(#clip430)" style="stroke:#000000; stroke-linecap:round; stroke-linejoin:round; stroke-width:4; stroke-opacity:1; fill:none" points="224.098,801.52 205.2,801.52 "/>
<polyline clip-path="url(#clip430)" style="stroke:#000000; stroke-linecap:round; stroke-linejoin:round; stroke-width:4; stroke-opacity:1; fill:none" points="224.098,602.38 205.2,602.38 "/>
<polyline clip-path="url(#clip430)" style="stroke:#000000; stroke-linecap:round; stroke-linejoin:round; stroke-width:4; stroke-opacity:1; fill:none" points="224.098,403.241 205.2,403.241 "/>
<polyline clip-path="url(#clip430)" style="stroke:#000000; stroke-linecap:round; stroke-linejoin:round; stroke-width:4; stroke-opacity:1; fill:none" points="224.098,204.101 205.2,204.101 "/>
<path clip-path="url(#clip430)" d="M33.9875 1399.39 L63.6633 1399.39 L63.6633 1403.32 L33.9875 1403.32 L33.9875 1399.39 Z" fill="#000000" fill-rule="nonzero" fill-opacity="1" /><path clip-path="url(#clip430)" d="M83.7557 1384.74 Q80.1447 1384.74 78.316 1388.3 Q76.5104 1391.84 76.5104 1398.97 Q76.5104 1406.08 78.316 1409.64 Q80.1447 1413.19 83.7557 1413.19 Q87.39 1413.19 89.1955 1409.64 Q91.0242 1406.08 91.0242 1398.97 Q91.0242 1391.84 89.1955 1388.3 Q87.39 1384.74 83.7557 1384.74 M83.7557 1381.03 Q89.5659 1381.03 92.6214 1385.64 Q95.7001 1390.22 95.7001 1398.97 Q95.7001 1407.7 92.6214 1412.31 Q89.5659 1416.89 83.7557 1416.89 Q77.9456 1416.89 74.8669 1412.31 Q71.8114 1407.7 71.8114 1398.97 Q71.8114 1390.22 74.8669 1385.64 Q77.9456 1381.03 83.7557 1381.03 Z" fill="#000000" fill-rule="nonzero" fill-opacity="1" /><path clip-path="url(#clip430)" d="M103.918 1410.34 L108.802 1410.34 L108.802 1416.22 L103.918 1416.22 L103.918 1410.34 Z" fill="#000000" fill-rule="nonzero" fill-opacity="1" /><path clip-path="url(#clip430)" d="M117.806 1381.66 L140.029 1381.66 L140.029 1383.65 L127.482 1416.22 L122.598 1416.22 L134.404 1385.59 L117.806 1385.59 L117.806 1381.66 Z" fill="#000000" fill-rule="nonzero" fill-opacity="1" /><path clip-path="url(#clip430)" d="M149.195 1381.66 L167.552 1381.66 L167.552 1385.59 L153.478 1385.59 L153.478 1394.07 Q154.496 1393.72 155.515 1393.56 Q156.533 1393.37 157.552 1393.37 Q163.339 1393.37 166.718 1396.54 Q170.098 1399.71 170.098 1405.13 Q170.098 1410.71 166.626 1413.81 Q163.153 1416.89 156.834 1416.89 Q154.658 1416.89 152.39 1416.52 Q150.144 1416.15 147.737 1415.41 L147.737 1410.71 Q149.82 1411.84 152.042 1412.4 Q154.265 1412.95 156.741 1412.95 Q160.746 1412.95 163.084 1410.85 Q165.422 1408.74 165.422 1405.13 Q165.422 1401.52 163.084 1399.41 Q160.746 1397.31 156.741 1397.31 Q154.866 1397.31 152.991 1397.72 Q151.14 1398.14 149.195 1399.02 L149.195 1381.66 Z" fill="#000000" fill-rule="nonzero" fill-opacity="1" /><path clip-path="url(#clip430)" d="M32.9921 1200.25 L62.6679 1200.25 L62.6679 1204.19 L32.9921 1204.19 L32.9921 1200.25 Z" fill="#000000" fill-rule="nonzero" fill-opacity="1" /><path clip-path="url(#clip430)" d="M82.7604 1185.6 Q79.1493 1185.6 77.3206 1189.16 Q75.515 1192.7 75.515 1199.83 Q75.515 1206.94 77.3206 1210.5 Q79.1493 1214.05 82.7604 1214.05 Q86.3946 1214.05 88.2002 1210.5 Q90.0289 1206.94 90.0289 1199.83 Q90.0289 1192.7 88.2002 1189.16 Q86.3946 1185.6 82.7604 1185.6 M82.7604 1181.89 Q88.5705 1181.89 91.6261 1186.5 Q94.7048 1191.08 94.7048 1199.83 Q94.7048 1208.56 91.6261 1213.17 Q88.5705 1217.75 82.7604 1217.75 Q76.9502 1217.75 73.8715 1213.17 Q70.816 1208.56 70.816 1199.83 Q70.816 1191.08 73.8715 1186.5 Q76.9502 1181.89 82.7604 1181.89 Z" fill="#000000" fill-rule="nonzero" fill-opacity="1" /><path clip-path="url(#clip430)" d="M102.922 1211.2 L107.807 1211.2 L107.807 1217.08 L102.922 1217.08 L102.922 1211.2 Z" fill="#000000" fill-rule="nonzero" fill-opacity="1" /><path clip-path="url(#clip430)" d="M118.038 1182.52 L136.394 1182.52 L136.394 1186.45 L122.32 1186.45 L122.32 1194.93 Q123.339 1194.58 124.357 1194.42 Q125.376 1194.23 126.394 1194.23 Q132.181 1194.23 135.561 1197.4 Q138.941 1200.57 138.941 1205.99 Q138.941 1211.57 135.468 1214.67 Q131.996 1217.75 125.677 1217.75 Q123.501 1217.75 121.232 1217.38 Q118.987 1217.01 116.58 1216.27 L116.58 1211.57 Q118.663 1212.7 120.885 1213.26 Q123.107 1213.81 125.584 1213.81 Q129.589 1213.81 131.927 1211.71 Q134.265 1209.6 134.265 1205.99 Q134.265 1202.38 131.927 1200.27 Q129.589 1198.17 125.584 1198.17 Q123.709 1198.17 121.834 1198.58 Q119.982 1199 118.038 1199.88 L118.038 1182.52 Z" fill="#000000" fill-rule="nonzero" fill-opacity="1" /><path clip-path="url(#clip430)" d="M158.153 1185.6 Q154.542 1185.6 152.714 1189.16 Q150.908 1192.7 150.908 1199.83 Q150.908 1206.94 152.714 1210.5 Q154.542 1214.05 158.153 1214.05 Q161.788 1214.05 163.593 1210.5 Q165.422 1206.94 165.422 1199.83 Q165.422 1192.7 163.593 1189.16 Q161.788 1185.6 158.153 1185.6 M158.153 1181.89 Q163.964 1181.89 167.019 1186.5 Q170.098 1191.08 170.098 1199.83 Q170.098 1208.56 167.019 1213.17 Q163.964 1217.75 158.153 1217.75 Q152.343 1217.75 149.265 1213.17 Q146.209 1208.56 146.209 1199.83 Q146.209 1191.08 149.265 1186.5 Q152.343 1181.89 158.153 1181.89 Z" fill="#000000" fill-rule="nonzero" fill-opacity="1" /><path clip-path="url(#clip430)" d="M33.9875 1001.11 L63.6633 1001.11 L63.6633 1005.05 L33.9875 1005.05 L33.9875 1001.11 Z" fill="#000000" fill-rule="nonzero" fill-opacity="1" /><path clip-path="url(#clip430)" d="M83.7557 986.458 Q80.1447 986.458 78.316 990.023 Q76.5104 993.564 76.5104 1000.69 Q76.5104 1007.8 78.316 1011.36 Q80.1447 1014.91 83.7557 1014.91 Q87.39 1014.91 89.1955 1011.36 Q91.0242 1007.8 91.0242 1000.69 Q91.0242 993.564 89.1955 990.023 Q87.39 986.458 83.7557 986.458 M83.7557 982.754 Q89.5659 982.754 92.6214 987.36 Q95.7001 991.944 95.7001 1000.69 Q95.7001 1009.42 92.6214 1014.03 Q89.5659 1018.61 83.7557 1018.61 Q77.9456 1018.61 74.8669 1014.03 Q71.8114 1009.42 71.8114 1000.69 Q71.8114 991.944 74.8669 987.36 Q77.9456 982.754 83.7557 982.754 Z" fill="#000000" fill-rule="nonzero" fill-opacity="1" /><path clip-path="url(#clip430)" d="M103.918 1012.06 L108.802 1012.06 L108.802 1017.94 L103.918 1017.94 L103.918 1012.06 Z" fill="#000000" fill-rule="nonzero" fill-opacity="1" /><path clip-path="url(#clip430)" d="M123.015 1014 L139.334 1014 L139.334 1017.94 L117.39 1017.94 L117.39 1014 Q120.052 1011.25 124.635 1006.62 Q129.242 1001.97 130.422 1000.62 Q132.668 998.101 133.547 996.365 Q134.45 994.606 134.45 992.916 Q134.45 990.161 132.505 988.425 Q130.584 986.689 127.482 986.689 Q125.283 986.689 122.83 987.453 Q120.399 988.217 117.621 989.768 L117.621 985.046 Q120.445 983.911 122.899 983.333 Q125.353 982.754 127.39 982.754 Q132.76 982.754 135.955 985.439 Q139.149 988.124 139.149 992.615 Q139.149 994.745 138.339 996.666 Q137.552 998.564 135.445 1001.16 Q134.867 1001.83 131.765 1005.05 Q128.663 1008.24 123.015 1014 Z" fill="#000000" fill-rule="nonzero" fill-opacity="1" /><path clip-path="url(#clip430)" d="M149.195 983.379 L167.552 983.379 L167.552 987.314 L153.478 987.314 L153.478 995.786 Q154.496 995.439 155.515 995.277 Q156.533 995.092 157.552 995.092 Q163.339 995.092 166.718 998.263 Q170.098 1001.43 170.098 1006.85 Q170.098 1012.43 166.626 1015.53 Q163.153 1018.61 156.834 1018.61 Q154.658 1018.61 152.39 1018.24 Q150.144 1017.87 147.737 1017.13 L147.737 1012.43 Q149.82 1013.56 152.042 1014.12 Q154.265 1014.68 156.741 1014.68 Q160.746 1014.68 163.084 1012.57 Q165.422 1010.46 165.422 1006.85 Q165.422 1003.24 163.084 1001.13 Q160.746 999.027 156.741 999.027 Q154.866 999.027 152.991 999.444 Q151.14 999.86 149.195 1000.74 L149.195 983.379 Z" fill="#000000" fill-rule="nonzero" fill-opacity="1" /><path clip-path="url(#clip430)" d="M82.7604 787.318 Q79.1493 787.318 77.3206 790.883 Q75.515 794.425 75.515 801.554 Q75.515 808.661 77.3206 812.225 Q79.1493 815.767 82.7604 815.767 Q86.3946 815.767 88.2002 812.225 Q90.0289 808.661 90.0289 801.554 Q90.0289 794.425 88.2002 790.883 Q86.3946 787.318 82.7604 787.318 M82.7604 783.615 Q88.5705 783.615 91.6261 788.221 Q94.7048 792.804 94.7048 801.554 Q94.7048 810.281 91.6261 814.888 Q88.5705 819.471 82.7604 819.471 Q76.9502 819.471 73.8715 814.888 Q70.816 810.281 70.816 801.554 Q70.816 792.804 73.8715 788.221 Q76.9502 783.615 82.7604 783.615 Z" fill="#000000" fill-rule="nonzero" fill-opacity="1" /><path clip-path="url(#clip430)" d="M102.922 812.92 L107.807 812.92 L107.807 818.8 L102.922 818.8 L102.922 812.92 Z" fill="#000000" fill-rule="nonzero" fill-opacity="1" /><path clip-path="url(#clip430)" d="M127.992 787.318 Q124.381 787.318 122.552 790.883 Q120.746 794.425 120.746 801.554 Q120.746 808.661 122.552 812.225 Q124.381 815.767 127.992 815.767 Q131.626 815.767 133.431 812.225 Q135.26 808.661 135.26 801.554 Q135.26 794.425 133.431 790.883 Q131.626 787.318 127.992 787.318 M127.992 783.615 Q133.802 783.615 136.857 788.221 Q139.936 792.804 139.936 801.554 Q139.936 810.281 136.857 814.888 Q133.802 819.471 127.992 819.471 Q122.181 819.471 119.103 814.888 Q116.047 810.281 116.047 801.554 Q116.047 792.804 119.103 788.221 Q122.181 783.615 127.992 783.615 Z" fill="#000000" fill-rule="nonzero" fill-opacity="1" /><path clip-path="url(#clip430)" d="M158.153 787.318 Q154.542 787.318 152.714 790.883 Q150.908 794.425 150.908 801.554 Q150.908 808.661 152.714 812.225 Q154.542 815.767 158.153 815.767 Q161.788 815.767 163.593 812.225 Q165.422 808.661 165.422 801.554 Q165.422 794.425 163.593 790.883 Q161.788 787.318 158.153 787.318 M158.153 783.615 Q163.964 783.615 167.019 788.221 Q170.098 792.804 170.098 801.554 Q170.098 810.281 167.019 814.888 Q163.964 819.471 158.153 819.471 Q152.343 819.471 149.265 814.888 Q146.209 810.281 146.209 801.554 Q146.209 792.804 149.265 788.221 Q152.343 783.615 158.153 783.615 Z" fill="#000000" fill-rule="nonzero" fill-opacity="1" /><path clip-path="url(#clip430)" d="M83.7557 588.179 Q80.1447 588.179 78.316 591.744 Q76.5104 595.285 76.5104 602.415 Q76.5104 609.521 78.316 613.086 Q80.1447 616.628 83.7557 616.628 Q87.39 616.628 89.1955 613.086 Q91.0242 609.521 91.0242 602.415 Q91.0242 595.285 89.1955 591.744 Q87.39 588.179 83.7557 588.179 M83.7557 584.475 Q89.5659 584.475 92.6214 589.081 Q95.7001 593.665 95.7001 602.415 Q95.7001 611.142 92.6214 615.748 Q89.5659 620.331 83.7557 620.331 Q77.9456 620.331 74.8669 615.748 Q71.8114 611.142 71.8114 602.415 Q71.8114 593.665 74.8669 589.081 Q77.9456 584.475 83.7557 584.475 Z" fill="#000000" fill-rule="nonzero" fill-opacity="1" /><path clip-path="url(#clip430)" d="M103.918 613.78 L108.802 613.78 L108.802 619.66 L103.918 619.66 L103.918 613.78 Z" fill="#000000" fill-rule="nonzero" fill-opacity="1" /><path clip-path="url(#clip430)" d="M123.015 615.725 L139.334 615.725 L139.334 619.66 L117.39 619.66 L117.39 615.725 Q120.052 612.97 124.635 608.341 Q129.242 603.688 130.422 602.345 Q132.668 599.822 133.547 598.086 Q134.45 596.327 134.45 594.637 Q134.45 591.882 132.505 590.146 Q130.584 588.41 127.482 588.41 Q125.283 588.41 122.83 589.174 Q120.399 589.938 117.621 591.489 L117.621 586.767 Q120.445 585.632 122.899 585.054 Q125.353 584.475 127.39 584.475 Q132.76 584.475 135.955 587.16 Q139.149 589.845 139.149 594.336 Q139.149 596.466 138.339 598.387 Q137.552 600.285 135.445 602.878 Q134.867 603.549 131.765 606.767 Q128.663 609.961 123.015 615.725 Z" fill="#000000" fill-rule="nonzero" fill-opacity="1" /><path clip-path="url(#clip430)" d="M149.195 585.1 L167.552 585.1 L167.552 589.035 L153.478 589.035 L153.478 597.507 Q154.496 597.16 155.515 596.998 Q156.533 596.813 157.552 596.813 Q163.339 596.813 166.718 599.984 Q170.098 603.155 170.098 608.572 Q170.098 614.151 166.626 617.253 Q163.153 620.331 156.834 620.331 Q154.658 620.331 152.39 619.961 Q150.144 619.591 147.737 618.85 L147.737 614.151 Q149.82 615.285 152.042 615.841 Q154.265 616.396 156.741 616.396 Q160.746 616.396 163.084 614.29 Q165.422 612.183 165.422 608.572 Q165.422 604.961 163.084 602.855 Q160.746 600.748 156.741 600.748 Q154.866 600.748 152.991 601.165 Q151.14 601.581 149.195 602.461 L149.195 585.1 Z" fill="#000000" fill-rule="nonzero" fill-opacity="1" /><path clip-path="url(#clip430)" d="M82.7604 389.039 Q79.1493 389.039 77.3206 392.604 Q75.515 396.146 75.515 403.275 Q75.515 410.382 77.3206 413.946 Q79.1493 417.488 82.7604 417.488 Q86.3946 417.488 88.2002 413.946 Q90.0289 410.382 90.0289 403.275 Q90.0289 396.146 88.2002 392.604 Q86.3946 389.039 82.7604 389.039 M82.7604 385.336 Q88.5705 385.336 91.6261 389.942 Q94.7048 394.525 94.7048 403.275 Q94.7048 412.002 91.6261 416.609 Q88.5705 421.192 82.7604 421.192 Q76.9502 421.192 73.8715 416.609 Q70.816 412.002 70.816 403.275 Q70.816 394.525 73.8715 389.942 Q76.9502 385.336 82.7604 385.336 Z" fill="#000000" fill-rule="nonzero" fill-opacity="1" /><path clip-path="url(#clip430)" d="M102.922 414.641 L107.807 414.641 L107.807 420.521 L102.922 420.521 L102.922 414.641 Z" fill="#000000" fill-rule="nonzero" fill-opacity="1" /><path clip-path="url(#clip430)" d="M118.038 385.961 L136.394 385.961 L136.394 389.896 L122.32 389.896 L122.32 398.368 Q123.339 398.021 124.357 397.859 Q125.376 397.673 126.394 397.673 Q132.181 397.673 135.561 400.845 Q138.941 404.016 138.941 409.433 Q138.941 415.011 135.468 418.113 Q131.996 421.192 125.677 421.192 Q123.501 421.192 121.232 420.821 Q118.987 420.451 116.58 419.71 L116.58 415.011 Q118.663 416.146 120.885 416.701 Q123.107 417.257 125.584 417.257 Q129.589 417.257 131.927 415.15 Q134.265 413.044 134.265 409.433 Q134.265 405.822 131.927 403.715 Q129.589 401.609 125.584 401.609 Q123.709 401.609 121.834 402.025 Q119.982 402.442 118.038 403.322 L118.038 385.961 Z" fill="#000000" fill-rule="nonzero" fill-opacity="1" /><path clip-path="url(#clip430)" d="M158.153 389.039 Q154.542 389.039 152.714 392.604 Q150.908 396.146 150.908 403.275 Q150.908 410.382 152.714 413.946 Q154.542 417.488 158.153 417.488 Q161.788 417.488 163.593 413.946 Q165.422 410.382 165.422 403.275 Q165.422 396.146 163.593 392.604 Q161.788 389.039 158.153 389.039 M158.153 385.336 Q163.964 385.336 167.019 389.942 Q170.098 394.525 170.098 403.275 Q170.098 412.002 167.019 416.609 Q163.964 421.192 158.153 421.192 Q152.343 421.192 149.265 416.609 Q146.209 412.002 146.209 403.275 Q146.209 394.525 149.265 389.942 Q152.343 385.336 158.153 385.336 Z" fill="#000000" fill-rule="nonzero" fill-opacity="1" /><path clip-path="url(#clip430)" d="M83.7557 189.9 Q80.1447 189.9 78.316 193.465 Q76.5104 197.006 76.5104 204.136 Q76.5104 211.242 78.316 214.807 Q80.1447 218.349 83.7557 218.349 Q87.39 218.349 89.1955 214.807 Q91.0242 211.242 91.0242 204.136 Q91.0242 197.006 89.1955 193.465 Q87.39 189.9 83.7557 189.9 M83.7557 186.196 Q89.5659 186.196 92.6214 190.802 Q95.7001 195.386 95.7001 204.136 Q95.7001 212.863 92.6214 217.469 Q89.5659 222.052 83.7557 222.052 Q77.9456 222.052 74.8669 217.469 Q71.8114 212.863 71.8114 204.136 Q71.8114 195.386 74.8669 190.802 Q77.9456 186.196 83.7557 186.196 Z" fill="#000000" fill-rule="nonzero" fill-opacity="1" /><path clip-path="url(#clip430)" d="M103.918 215.501 L108.802 215.501 L108.802 221.381 L103.918 221.381 L103.918 215.501 Z" fill="#000000" fill-rule="nonzero" fill-opacity="1" /><path clip-path="url(#clip430)" d="M117.806 186.821 L140.029 186.821 L140.029 188.812 L127.482 221.381 L122.598 221.381 L134.404 190.756 L117.806 190.756 L117.806 186.821 Z" fill="#000000" fill-rule="nonzero" fill-opacity="1" /><path clip-path="url(#clip430)" d="M149.195 186.821 L167.552 186.821 L167.552 190.756 L153.478 190.756 L153.478 199.228 Q154.496 198.881 155.515 198.719 Q156.533 198.534 157.552 198.534 Q163.339 198.534 166.718 201.705 Q170.098 204.876 170.098 210.293 Q170.098 215.872 166.626 218.974 Q163.153 222.052 156.834 222.052 Q154.658 222.052 152.39 221.682 Q150.144 221.312 147.737 220.571 L147.737 215.872 Q149.82 217.006 152.042 217.562 Q154.265 218.117 156.741 218.117 Q160.746 218.117 163.084 216.011 Q165.422 213.904 165.422 210.293 Q165.422 206.682 163.084 204.576 Q160.746 202.469 156.741 202.469 Q154.866 202.469 152.991 202.886 Q151.14 203.302 149.195 204.182 L149.195 186.821 Z" fill="#000000" fill-rule="nonzero" fill-opacity="1" /><polyline clip-path="url(#clip432)" style="stroke:#009af9; stroke-linecap:round; stroke-linejoin:round; stroke-width:4; stroke-opacity:1; fill:none" points="284.343,1101.07 304.425,1081.42 324.506,1062.62 344.588,1044.65 364.67,1027.5 384.751,1011.16 404.833,995.595 424.915,980.804 444.996,966.769 465.078,953.474 485.16,940.902 505.241,929.039 525.323,917.869 545.405,907.376 565.486,897.545 585.568,888.359 605.65,879.804 625.731,871.864 645.813,864.523 665.895,857.766 685.977,851.577 706.058,845.94 726.14,840.84 746.222,836.261 766.303,832.188 786.385,828.605 806.467,825.496 826.548,822.846 846.63,820.639 866.712,818.86 886.793,817.493 906.875,816.523 926.957,815.933 947.038,815.708 967.12,815.593 987.202,814.814 1007.28,813.346 1027.37,811.226 1047.45,808.49 1067.53,805.172 1087.61,801.311 1107.69,796.941 1127.77,792.098 1147.86,786.819 1167.94,781.14 1188.02,775.096 1208.1,768.724 1228.18,762.06 1248.26,755.14 1268.35,747.999 1288.43,740.675 1308.51,733.202 1328.59,725.617 1348.67,717.956 1368.75,710.256 1388.84,702.551 1408.92,694.878 1429,687.274 1449.08,679.773 1469.16,672.413 1489.24,665.229 1509.33,658.258 1529.41,651.534 1549.49,645.095 1569.57,638.977 1589.65,633.214 1609.73,627.845 1629.82,622.892 1649.9,618.229 1669.98,613.802 1690.06,609.598 1710.14,605.606 1730.22,601.813 1750.31,598.208 1770.39,594.777 1790.47,591.51 1810.55,588.394 1830.63,585.416 1850.71,582.566 1870.8,579.83 1890.88,577.196 1910.96,574.653 1931.04,572.189 1951.12,569.79 1971.2,567.446 1991.29,565.144 2011.37,562.872 2031.45,560.618 2051.53,558.369 2071.61,556.115 2091.69,553.841 2111.78,551.538 2131.86,549.192 2151.94,546.791 2172.02,544.323 2192.1,541.776 2212.18,539.138 2232.27,536.397 2252.35,533.541 2272.43,530.558 2292.51,527.435 "/>
<polyline clip-path="url(#clip432)" style="stroke:#000000; stroke-linecap:round; stroke-linejoin:round; stroke-width:4; stroke-opacity:1; fill:none" points="284.343,1101.07 284.343,1101.07 "/>
<polyline clip-path="url(#clip432)" style="stroke:#000000; stroke-linecap:round; stroke-linejoin:round; stroke-width:4; stroke-opacity:1; fill:none" points="953.732,1077.91 953.732,553.518 "/>
<polyline clip-path="url(#clip432)" style="stroke:#000000; stroke-linecap:round; stroke-linejoin:round; stroke-width:4; stroke-opacity:1; fill:none" points="1623.12,947.894 1623.12,301.107 "/>
<polyline clip-path="url(#clip432)" style="stroke:#000000; stroke-linecap:round; stroke-linejoin:round; stroke-width:4; stroke-opacity:1; fill:none" points="2292.51,847.63 2292.51,207.241 "/>
<line clip-path="url(#clip432)" x1="300.343" y1="1101.07" x2="268.343" y2="1101.07" style="stroke:#000000; stroke-width:4; stroke-opacity:1"/>
<line clip-path="url(#clip432)" x1="300.343" y1="1101.07" x2="268.343" y2="1101.07" style="stroke:#000000; stroke-width:4; stroke-opacity:1"/>
<line clip-path="url(#clip432)" x1="969.732" y1="1077.91" x2="937.732" y2="1077.91" style="stroke:#000000; stroke-width:4; stroke-opacity:1"/>
<line clip-path="url(#clip432)" x1="969.732" y1="553.518" x2="937.732" y2="553.518" style="stroke:#000000; stroke-width:4; stroke-opacity:1"/>
<line clip-path="url(#clip432)" x1="1639.12" y1="947.894" x2="1607.12" y2="947.894" style="stroke:#000000; stroke-width:4; stroke-opacity:1"/>
<line clip-path="url(#clip432)" x1="1639.12" y1="301.107" x2="1607.12" y2="301.107" style="stroke:#000000; stroke-width:4; stroke-opacity:1"/>
<line clip-path="url(#clip432)" x1="2308.51" y1="847.63" x2="2276.51" y2="847.63" style="stroke:#000000; stroke-width:4; stroke-opacity:1"/>
<line clip-path="url(#clip432)" x1="2308.51" y1="207.241" x2="2276.51" y2="207.241" style="stroke:#000000; stroke-width:4; stroke-opacity:1"/>
<circle clip-path="url(#clip432)" cx="284.343" cy="1101.07" r="14.4" fill="#e26f46" fill-rule="evenodd" fill-opacity="1" stroke="#000000" stroke-opacity="1" stroke-width="3.2"/>
<circle clip-path="url(#clip432)" cx="953.732" cy="815.712" r="14.4" fill="#e26f46" fill-rule="evenodd" fill-opacity="1" stroke="#000000" stroke-opacity="1" stroke-width="3.2"/>
<circle clip-path="url(#clip432)" cx="1623.12" cy="624.5" r="14.4" fill="#e26f46" fill-rule="evenodd" fill-opacity="1" stroke="#000000" stroke-opacity="1" stroke-width="3.2"/>
<circle clip-path="url(#clip432)" cx="2292.51" cy="527.435" r="14.4" fill="#e26f46" fill-rule="evenodd" fill-opacity="1" stroke="#000000" stroke-opacity="1" stroke-width="3.2"/>
<polyline clip-path="url(#clip432)" style="stroke:#3da44d; stroke-linecap:round; stroke-linejoin:round; stroke-width:4; stroke-opacity:1; fill:none" points="284.343,1101.07 953.732,815.712 1623.12,624.5 2292.51,527.435 "/>
<path clip-path="url(#clip432)" d="M284.343 1445.72 L953.732 1061.63 L1623.12 872.499 L2292.51 862.165 L2292.51 87.9763 L1623.12 384.019 L953.732 589.822 L284.343 756.256  Z" fill="#c271d2" fill-rule="evenodd" fill-opacity="0.5"/>
<polyline clip-path="url(#clip432)" style="stroke:#c271d2; stroke-linecap:round; stroke-linejoin:round; stroke-width:4; stroke-opacity:1; fill:none" points="284.343,1101.07 953.732,815.712 1623.12,624.5 2292.51,527.435 "/>
<path clip-path="url(#clip430)" d="M295.053 354.418 L1286.02 354.418 L1286.02 95.2176 L295.053 95.2176  Z" fill="#ffffff" fill-rule="evenodd" fill-opacity="1"/>
<polyline clip-path="url(#clip430)" style="stroke:#000000; stroke-linecap:round; stroke-linejoin:round; stroke-width:4; stroke-opacity:1; fill:none" points="295.053,354.418 1286.02,354.418 1286.02,95.2176 295.053,95.2176 295.053,354.418 "/>
<polyline clip-path="url(#clip430)" style="stroke:#009af9; stroke-linecap:round; stroke-linejoin:round; stroke-width:4; stroke-opacity:1; fill:none" points="318.705,147.058 460.615,147.058 "/>
<path clip-path="url(#clip430)" d="M484.267 129.778 L504.128 129.778 L504.128 133.713 L488.943 133.713 L488.943 143.898 L502.647 143.898 L502.647 147.833 L488.943 147.833 L488.943 164.338 L484.267 164.338 L484.267 129.778 Z" fill="#000000" fill-rule="nonzero" fill-opacity="1" /><path clip-path="url(#clip430)" d="M511.35 128.319 L515.61 128.319 L515.61 164.338 L511.35 164.338 L511.35 128.319 Z" fill="#000000" fill-rule="nonzero" fill-opacity="1" /><path clip-path="url(#clip430)" d="M546.697 150.31 L546.697 152.393 L527.114 152.393 Q527.392 156.791 529.753 159.106 Q532.137 161.398 536.373 161.398 Q538.827 161.398 541.119 160.796 Q543.434 160.194 545.702 158.99 L545.702 163.018 Q543.41 163.99 541.003 164.5 Q538.596 165.009 536.119 165.009 Q529.915 165.009 526.281 161.398 Q522.67 157.787 522.67 151.629 Q522.67 145.264 526.096 141.537 Q529.545 137.787 535.378 137.787 Q540.609 137.787 543.642 141.166 Q546.697 144.523 546.697 150.31 M542.438 149.06 Q542.392 145.565 540.471 143.481 Q538.572 141.398 535.424 141.398 Q531.86 141.398 529.707 143.412 Q527.577 145.426 527.253 149.083 L542.438 149.06 Z" fill="#000000" fill-rule="nonzero" fill-opacity="1" /><path clip-path="url(#clip430)" d="M574.406 138.412 L565.031 151.027 L574.892 164.338 L569.869 164.338 L562.322 154.152 L554.776 164.338 L549.753 164.338 L559.822 150.773 L550.609 138.412 L555.633 138.412 L562.508 147.648 L569.382 138.412 L574.406 138.412 Z" fill="#000000" fill-rule="nonzero" fill-opacity="1" /><path clip-path="url(#clip430)" d="M580.91 138.412 L585.169 138.412 L585.169 164.338 L580.91 164.338 L580.91 138.412 M580.91 128.319 L585.169 128.319 L585.169 133.713 L580.91 133.713 L580.91 128.319 Z" fill="#000000" fill-rule="nonzero" fill-opacity="1" /><path clip-path="url(#clip430)" d="M612.692 151.398 Q612.692 146.699 610.748 144.037 Q608.827 141.352 605.447 141.352 Q602.067 141.352 600.123 144.037 Q598.202 146.699 598.202 151.398 Q598.202 156.097 600.123 158.782 Q602.067 161.444 605.447 161.444 Q608.827 161.444 610.748 158.782 Q612.692 156.097 612.692 151.398 M598.202 142.347 Q599.544 140.032 601.581 138.921 Q603.642 137.787 606.489 137.787 Q611.211 137.787 614.151 141.537 Q617.114 145.287 617.114 151.398 Q617.114 157.509 614.151 161.259 Q611.211 165.009 606.489 165.009 Q603.642 165.009 601.581 163.898 Q599.544 162.763 598.202 160.449 L598.202 164.338 L593.919 164.338 L593.919 128.319 L598.202 128.319 L598.202 142.347 Z" fill="#000000" fill-rule="nonzero" fill-opacity="1" /><path clip-path="url(#clip430)" d="M624.174 128.319 L628.433 128.319 L628.433 164.338 L624.174 164.338 L624.174 128.319 Z" fill="#000000" fill-rule="nonzero" fill-opacity="1" /><path clip-path="url(#clip430)" d="M659.521 150.31 L659.521 152.393 L639.938 152.393 Q640.215 156.791 642.577 159.106 Q644.961 161.398 649.197 161.398 Q651.651 161.398 653.942 160.796 Q656.257 160.194 658.526 158.99 L658.526 163.018 Q656.234 163.99 653.826 164.5 Q651.419 165.009 648.942 165.009 Q642.739 165.009 639.104 161.398 Q635.493 157.787 635.493 151.629 Q635.493 145.264 638.919 141.537 Q642.368 137.787 648.201 137.787 Q653.433 137.787 656.465 141.166 Q659.521 144.523 659.521 150.31 M655.262 149.06 Q655.215 145.565 653.294 143.481 Q651.396 141.398 648.248 141.398 Q644.683 141.398 642.53 143.412 Q640.401 145.426 640.077 149.083 L655.262 149.06 Z" fill="#000000" fill-rule="nonzero" fill-opacity="1" /><path clip-path="url(#clip430)" d="M694.706 128.319 L694.706 131.861 L690.632 131.861 Q688.34 131.861 687.437 132.787 Q686.558 133.713 686.558 136.12 L686.558 138.412 L693.572 138.412 L693.572 141.722 L686.558 141.722 L686.558 164.338 L682.275 164.338 L682.275 141.722 L678.201 141.722 L678.201 138.412 L682.275 138.412 L682.275 136.606 Q682.275 132.278 684.289 130.31 Q686.303 128.319 690.678 128.319 L694.706 128.319 Z" fill="#000000" fill-rule="nonzero" fill-opacity="1" /><path clip-path="url(#clip430)" d="M697.831 154.106 L697.831 138.412 L702.09 138.412 L702.09 153.944 Q702.09 157.625 703.525 159.476 Q704.96 161.305 707.831 161.305 Q711.28 161.305 713.271 159.106 Q715.284 156.907 715.284 153.111 L715.284 138.412 L719.544 138.412 L719.544 164.338 L715.284 164.338 L715.284 160.356 Q713.734 162.717 711.673 163.875 Q709.636 165.009 706.928 165.009 Q702.46 165.009 700.146 162.231 Q697.831 159.453 697.831 154.106 M708.548 137.787 L708.548 137.787 Z" fill="#000000" fill-rule="nonzero" fill-opacity="1" /><path clip-path="url(#clip430)" d="M749.868 148.689 L749.868 164.338 L745.608 164.338 L745.608 148.828 Q745.608 145.148 744.173 143.319 Q742.738 141.49 739.868 141.49 Q736.419 141.49 734.428 143.69 Q732.437 145.889 732.437 149.685 L732.437 164.338 L728.155 164.338 L728.155 138.412 L732.437 138.412 L732.437 142.44 Q733.965 140.102 736.025 138.944 Q738.108 137.787 740.817 137.787 Q745.284 137.787 747.576 140.565 Q749.868 143.319 749.868 148.689 Z" fill="#000000" fill-rule="nonzero" fill-opacity="1" /><path clip-path="url(#clip430)" d="M777.02 139.407 L777.02 143.389 Q775.215 142.393 773.386 141.907 Q771.58 141.398 769.729 141.398 Q765.585 141.398 763.293 144.037 Q761.002 146.652 761.002 151.398 Q761.002 156.143 763.293 158.782 Q765.585 161.398 769.729 161.398 Q771.58 161.398 773.386 160.912 Q775.215 160.402 777.02 159.407 L777.02 163.342 Q775.238 164.176 773.317 164.592 Q771.418 165.009 769.266 165.009 Q763.409 165.009 759.96 161.328 Q756.511 157.648 756.511 151.398 Q756.511 145.055 759.983 141.421 Q763.479 137.787 769.543 137.787 Q771.511 137.787 773.386 138.203 Q775.261 138.597 777.02 139.407 Z" fill="#000000" fill-rule="nonzero" fill-opacity="1" /><path clip-path="url(#clip430)" d="M788.641 131.051 L788.641 138.412 L797.414 138.412 L797.414 141.722 L788.641 141.722 L788.641 155.796 Q788.641 158.967 789.497 159.87 Q790.377 160.773 793.039 160.773 L797.414 160.773 L797.414 164.338 L793.039 164.338 Q788.108 164.338 786.233 162.509 Q784.358 160.657 784.358 155.796 L784.358 141.722 L781.233 141.722 L781.233 138.412 L784.358 138.412 L784.358 131.051 L788.641 131.051 Z" fill="#000000" fill-rule="nonzero" fill-opacity="1" /><path clip-path="url(#clip430)" d="M803.015 138.412 L807.275 138.412 L807.275 164.338 L803.015 164.338 L803.015 138.412 M803.015 128.319 L807.275 128.319 L807.275 133.713 L803.015 133.713 L803.015 128.319 Z" fill="#000000" fill-rule="nonzero" fill-opacity="1" /><path clip-path="url(#clip430)" d="M826.233 141.398 Q822.807 141.398 820.816 144.083 Q818.826 146.745 818.826 151.398 Q818.826 156.051 820.793 158.736 Q822.784 161.398 826.233 161.398 Q829.636 161.398 831.626 158.713 Q833.617 156.027 833.617 151.398 Q833.617 146.791 831.626 144.106 Q829.636 141.398 826.233 141.398 M826.233 137.787 Q831.788 137.787 834.96 141.398 Q838.131 145.009 838.131 151.398 Q838.131 157.764 834.96 161.398 Q831.788 165.009 826.233 165.009 Q820.654 165.009 817.483 161.398 Q814.335 157.764 814.335 151.398 Q814.335 145.009 817.483 141.398 Q820.654 137.787 826.233 137.787 Z" fill="#000000" fill-rule="nonzero" fill-opacity="1" /><path clip-path="url(#clip430)" d="M866.742 148.689 L866.742 164.338 L862.483 164.338 L862.483 148.828 Q862.483 145.148 861.048 143.319 Q859.612 141.49 856.742 141.49 Q853.293 141.49 851.302 143.69 Q849.312 145.889 849.312 149.685 L849.312 164.338 L845.029 164.338 L845.029 138.412 L849.312 138.412 L849.312 142.44 Q850.839 140.102 852.899 138.944 Q854.983 137.787 857.691 137.787 Q862.159 137.787 864.45 140.565 Q866.742 143.319 866.742 148.689 Z" fill="#000000" fill-rule="nonzero" fill-opacity="1" /><path clip-path="url(#clip430)" d="M900.353 141.398 Q896.927 141.398 894.936 144.083 Q892.946 146.745 892.946 151.398 Q892.946 156.051 894.913 158.736 Q896.904 161.398 900.353 161.398 Q903.756 161.398 905.746 158.713 Q907.737 156.027 907.737 151.398 Q907.737 146.791 905.746 144.106 Q903.756 141.398 900.353 141.398 M900.353 137.787 Q905.908 137.787 909.08 141.398 Q912.251 145.009 912.251 151.398 Q912.251 157.764 909.08 161.398 Q905.908 165.009 900.353 165.009 Q894.774 165.009 891.603 161.398 Q888.455 157.764 888.455 151.398 Q888.455 145.009 891.603 141.398 Q894.774 137.787 900.353 137.787 Z" fill="#000000" fill-rule="nonzero" fill-opacity="1" /><path clip-path="url(#clip430)" d="M932.436 128.319 L932.436 131.861 L928.362 131.861 Q926.07 131.861 925.168 132.787 Q924.288 133.713 924.288 136.12 L924.288 138.412 L931.302 138.412 L931.302 141.722 L924.288 141.722 L924.288 164.338 L920.006 164.338 L920.006 141.722 L915.932 141.722 L915.932 138.412 L920.006 138.412 L920.006 136.606 Q920.006 132.278 922.019 130.31 Q924.033 128.319 928.408 128.319 L932.436 128.319 Z" fill="#000000" fill-rule="nonzero" fill-opacity="1" /><path clip-path="url(#clip430)" d="M950.63 154.106 L950.63 138.412 L954.89 138.412 L954.89 153.944 Q954.89 157.625 956.325 159.476 Q957.76 161.305 960.63 161.305 Q964.079 161.305 966.07 159.106 Q968.084 156.907 968.084 153.111 L968.084 138.412 L972.343 138.412 L972.343 164.338 L968.084 164.338 L968.084 160.356 Q966.533 162.717 964.473 163.875 Q962.436 165.009 959.728 165.009 Q955.26 165.009 952.945 162.231 Q950.63 159.453 950.63 154.106 M961.348 137.787 L961.348 137.787 Z" fill="#000000" fill-rule="nonzero" fill-opacity="1" /><path clip-path="url(#clip430)" d="M1002.67 148.689 L1002.67 164.338 L998.408 164.338 L998.408 148.828 Q998.408 145.148 996.973 143.319 Q995.538 141.49 992.667 141.49 Q989.218 141.49 987.227 143.69 Q985.237 145.889 985.237 149.685 L985.237 164.338 L980.954 164.338 L980.954 138.412 L985.237 138.412 L985.237 142.44 Q986.764 140.102 988.825 138.944 Q990.908 137.787 993.616 137.787 Q998.084 137.787 1000.38 140.565 Q1002.67 143.319 1002.67 148.689 Z" fill="#000000" fill-rule="nonzero" fill-opacity="1" /><path clip-path="url(#clip430)" d="M1028.22 142.347 L1028.22 128.319 L1032.48 128.319 L1032.48 164.338 L1028.22 164.338 L1028.22 160.449 Q1026.88 162.763 1024.82 163.898 Q1022.78 165.009 1019.91 165.009 Q1015.21 165.009 1012.25 161.259 Q1009.31 157.509 1009.31 151.398 Q1009.31 145.287 1012.25 141.537 Q1015.21 137.787 1019.91 137.787 Q1022.78 137.787 1024.82 138.921 Q1026.88 140.032 1028.22 142.347 M1013.71 151.398 Q1013.71 156.097 1015.63 158.782 Q1017.57 161.444 1020.95 161.444 Q1024.33 161.444 1026.28 158.782 Q1028.22 156.097 1028.22 151.398 Q1028.22 146.699 1026.28 144.037 Q1024.33 141.352 1020.95 141.352 Q1017.57 141.352 1015.63 144.037 Q1013.71 146.699 1013.71 151.398 Z" fill="#000000" fill-rule="nonzero" fill-opacity="1" /><path clip-path="url(#clip430)" d="M1063.43 150.31 L1063.43 152.393 L1043.85 152.393 Q1044.13 156.791 1046.49 159.106 Q1048.87 161.398 1053.11 161.398 Q1055.56 161.398 1057.85 160.796 Q1060.17 160.194 1062.44 158.99 L1062.44 163.018 Q1060.14 163.99 1057.74 164.5 Q1055.33 165.009 1052.85 165.009 Q1046.65 165.009 1043.01 161.398 Q1039.4 157.787 1039.4 151.629 Q1039.4 145.264 1042.83 141.537 Q1046.28 137.787 1052.11 137.787 Q1057.34 137.787 1060.38 141.166 Q1063.43 144.523 1063.43 150.31 M1059.17 149.06 Q1059.13 145.565 1057.2 143.481 Q1055.31 141.398 1052.16 141.398 Q1048.59 141.398 1046.44 143.412 Q1044.31 145.426 1043.99 149.083 L1059.17 149.06 Z" fill="#000000" fill-rule="nonzero" fill-opacity="1" /><path clip-path="url(#clip430)" d="M1085.44 142.393 Q1084.73 141.977 1083.87 141.791 Q1083.04 141.583 1082.02 141.583 Q1078.41 141.583 1076.46 143.944 Q1074.54 146.282 1074.54 150.68 L1074.54 164.338 L1070.26 164.338 L1070.26 138.412 L1074.54 138.412 L1074.54 142.44 Q1075.88 140.078 1078.04 138.944 Q1080.19 137.787 1083.27 137.787 Q1083.71 137.787 1084.24 137.856 Q1084.77 137.903 1085.42 138.018 L1085.44 142.393 Z" fill="#000000" fill-rule="nonzero" fill-opacity="1" /><path clip-path="url(#clip430)" d="M1089.91 128.319 L1094.17 128.319 L1094.17 164.338 L1089.91 164.338 L1089.91 128.319 Z" fill="#000000" fill-rule="nonzero" fill-opacity="1" /><path clip-path="url(#clip430)" d="M1113.87 166.745 Q1112.06 171.375 1110.35 172.787 Q1108.64 174.199 1105.77 174.199 L1102.37 174.199 L1102.37 170.634 L1104.87 170.634 Q1106.62 170.634 1107.6 169.8 Q1108.57 168.967 1109.75 165.865 L1110.51 163.921 L1100.03 138.412 L1104.54 138.412 L1112.64 158.689 L1120.75 138.412 L1125.26 138.412 L1113.87 166.745 Z" fill="#000000" fill-rule="nonzero" fill-opacity="1" /><path clip-path="url(#clip430)" d="M1131.14 138.412 L1135.4 138.412 L1135.4 164.338 L1131.14 164.338 L1131.14 138.412 M1131.14 128.319 L1135.4 128.319 L1135.4 133.713 L1131.14 133.713 L1131.14 128.319 Z" fill="#000000" fill-rule="nonzero" fill-opacity="1" /><path clip-path="url(#clip430)" d="M1165.86 148.689 L1165.86 164.338 L1161.6 164.338 L1161.6 148.828 Q1161.6 145.148 1160.17 143.319 Q1158.73 141.49 1155.86 141.49 Q1152.41 141.49 1150.42 143.69 Q1148.43 145.889 1148.43 149.685 L1148.43 164.338 L1144.15 164.338 L1144.15 138.412 L1148.43 138.412 L1148.43 142.44 Q1149.96 140.102 1152.02 138.944 Q1154.1 137.787 1156.81 137.787 Q1161.28 137.787 1163.57 140.565 Q1165.86 143.319 1165.86 148.689 Z" fill="#000000" fill-rule="nonzero" fill-opacity="1" /><path clip-path="url(#clip430)" d="M1191.42 151.074 Q1191.42 146.444 1189.49 143.898 Q1187.6 141.352 1184.15 141.352 Q1180.72 141.352 1178.8 143.898 Q1176.9 146.444 1176.9 151.074 Q1176.9 155.68 1178.8 158.226 Q1180.72 160.773 1184.15 160.773 Q1187.6 160.773 1189.49 158.226 Q1191.42 155.68 1191.42 151.074 M1195.68 161.12 Q1195.68 167.74 1192.74 170.958 Q1189.8 174.199 1183.73 174.199 Q1181.49 174.199 1179.49 173.851 Q1177.5 173.527 1175.63 172.833 L1175.63 168.689 Q1177.5 169.708 1179.33 170.194 Q1181.16 170.68 1183.06 170.68 Q1187.25 170.68 1189.33 168.481 Q1191.42 166.305 1191.42 161.884 L1191.42 159.777 Q1190.1 162.069 1188.04 163.203 Q1185.98 164.338 1183.11 164.338 Q1178.34 164.338 1175.42 160.703 Q1172.5 157.069 1172.5 151.074 Q1172.5 145.055 1175.42 141.421 Q1178.34 137.787 1183.11 137.787 Q1185.98 137.787 1188.04 138.921 Q1190.1 140.055 1191.42 142.347 L1191.42 138.412 L1195.68 138.412 L1195.68 161.12 Z" fill="#000000" fill-rule="nonzero" fill-opacity="1" /><path clip-path="url(#clip430)" d="M1232.64 128.319 L1232.64 131.861 L1228.57 131.861 Q1226.28 131.861 1225.37 132.787 Q1224.49 133.713 1224.49 136.12 L1224.49 138.412 L1231.51 138.412 L1231.51 141.722 L1224.49 141.722 L1224.49 164.338 L1220.21 164.338 L1220.21 141.722 L1216.14 141.722 L1216.14 138.412 L1220.21 138.412 L1220.21 136.606 Q1220.21 132.278 1222.23 130.31 Q1224.24 128.319 1228.62 128.319 L1232.64 128.319 Z" fill="#000000" fill-rule="nonzero" fill-opacity="1" /><path clip-path="url(#clip430)" d="M1236.21 138.412 L1240.47 138.412 L1240.47 164.338 L1236.21 164.338 L1236.21 138.412 M1236.21 128.319 L1240.47 128.319 L1240.47 133.713 L1236.21 133.713 L1236.21 128.319 Z" fill="#000000" fill-rule="nonzero" fill-opacity="1" /><path clip-path="url(#clip430)" d="M1253.59 131.051 L1253.59 138.412 L1262.36 138.412 L1262.36 141.722 L1253.59 141.722 L1253.59 155.796 Q1253.59 158.967 1254.45 159.87 Q1255.33 160.773 1257.99 160.773 L1262.36 160.773 L1262.36 164.338 L1257.99 164.338 Q1253.06 164.338 1251.18 162.509 Q1249.31 160.657 1249.31 155.796 L1249.31 141.722 L1246.18 141.722 L1246.18 138.412 L1249.31 138.412 L1249.31 131.051 L1253.59 131.051 Z" fill="#000000" fill-rule="nonzero" fill-opacity="1" /><circle clip-path="url(#clip430)" cx="389.66" cy="198.898" r="20.48" fill="#e26f46" fill-rule="evenodd" fill-opacity="1" stroke="#000000" stroke-opacity="1" stroke-width="4.55111"/>
<path clip-path="url(#clip430)" d="M488.943 185.46 L488.943 198.446 L494.823 198.446 Q498.087 198.446 499.869 196.756 Q501.651 195.067 501.651 191.942 Q501.651 188.84 499.869 187.15 Q498.087 185.46 494.823 185.46 L488.943 185.46 M484.267 181.618 L494.823 181.618 Q500.633 181.618 503.596 184.256 Q506.582 186.872 506.582 191.942 Q506.582 197.057 503.596 199.673 Q500.633 202.289 494.823 202.289 L488.943 202.289 L488.943 216.178 L484.267 216.178 L484.267 181.618 Z" fill="#000000" fill-rule="nonzero" fill-opacity="1" /><path clip-path="url(#clip430)" d="M521.026 193.238 Q517.6 193.238 515.61 195.923 Q513.619 198.585 513.619 203.238 Q513.619 207.891 515.586 210.576 Q517.577 213.238 521.026 213.238 Q524.429 213.238 526.42 210.553 Q528.41 207.867 528.41 203.238 Q528.41 198.631 526.42 195.946 Q524.429 193.238 521.026 193.238 M521.026 189.627 Q526.582 189.627 529.753 193.238 Q532.924 196.849 532.924 203.238 Q532.924 209.604 529.753 213.238 Q526.582 216.849 521.026 216.849 Q515.448 216.849 512.276 213.238 Q509.128 209.604 509.128 203.238 Q509.128 196.849 512.276 193.238 Q515.448 189.627 521.026 189.627 Z" fill="#000000" fill-rule="nonzero" fill-opacity="1" /><path clip-path="url(#clip430)" d="M539.984 190.252 L544.244 190.252 L544.244 216.178 L539.984 216.178 L539.984 190.252 M539.984 180.159 L544.244 180.159 L544.244 185.553 L539.984 185.553 L539.984 180.159 Z" fill="#000000" fill-rule="nonzero" fill-opacity="1" /><path clip-path="url(#clip430)" d="M574.707 200.529 L574.707 216.178 L570.447 216.178 L570.447 200.668 Q570.447 196.988 569.012 195.159 Q567.577 193.33 564.707 193.33 Q561.258 193.33 559.267 195.53 Q557.276 197.729 557.276 201.525 L557.276 216.178 L552.994 216.178 L552.994 190.252 L557.276 190.252 L557.276 194.28 Q558.804 191.942 560.864 190.784 Q562.947 189.627 565.656 189.627 Q570.123 189.627 572.415 192.405 Q574.707 195.159 574.707 200.529 Z" fill="#000000" fill-rule="nonzero" fill-opacity="1" /><path clip-path="url(#clip430)" d="M587.415 182.891 L587.415 190.252 L596.188 190.252 L596.188 193.562 L587.415 193.562 L587.415 207.636 Q587.415 210.807 588.271 211.71 Q589.151 212.613 591.813 212.613 L596.188 212.613 L596.188 216.178 L591.813 216.178 Q586.882 216.178 585.007 214.349 Q583.132 212.497 583.132 207.636 L583.132 193.562 L580.007 193.562 L580.007 190.252 L583.132 190.252 L583.132 182.891 L587.415 182.891 Z" fill="#000000" fill-rule="nonzero" fill-opacity="1" /><path clip-path="url(#clip430)" d="M599.313 190.252 L603.572 190.252 L608.896 210.483 L614.197 190.252 L619.22 190.252 L624.544 210.483 L629.845 190.252 L634.104 190.252 L627.322 216.178 L622.299 216.178 L616.72 194.928 L611.118 216.178 L606.095 216.178 L599.313 190.252 Z" fill="#000000" fill-rule="nonzero" fill-opacity="1" /><path clip-path="url(#clip430)" d="M640.563 190.252 L644.822 190.252 L644.822 216.178 L640.563 216.178 L640.563 190.252 M640.563 180.159 L644.822 180.159 L644.822 185.553 L640.563 185.553 L640.563 180.159 Z" fill="#000000" fill-rule="nonzero" fill-opacity="1" /><path clip-path="url(#clip430)" d="M670.262 191.016 L670.262 195.043 Q668.456 194.117 666.512 193.655 Q664.567 193.192 662.484 193.192 Q659.313 193.192 657.715 194.164 Q656.141 195.136 656.141 197.08 Q656.141 198.562 657.276 199.418 Q658.41 200.252 661.836 201.016 L663.294 201.34 Q667.831 202.312 669.729 204.094 Q671.65 205.854 671.65 209.025 Q671.65 212.636 668.78 214.742 Q665.933 216.849 660.933 216.849 Q658.85 216.849 656.581 216.432 Q654.336 216.039 651.836 215.228 L651.836 210.83 Q654.197 212.057 656.488 212.682 Q658.78 213.284 661.026 213.284 Q664.035 213.284 665.655 212.266 Q667.275 211.224 667.275 209.349 Q667.275 207.613 666.095 206.687 Q664.938 205.761 660.979 204.904 L659.498 204.557 Q655.539 203.724 653.78 202.011 Q652.021 200.275 652.021 197.266 Q652.021 193.608 654.613 191.618 Q657.206 189.627 661.975 189.627 Q664.336 189.627 666.419 189.974 Q668.502 190.321 670.262 191.016 Z" fill="#000000" fill-rule="nonzero" fill-opacity="1" /><path clip-path="url(#clip430)" d="M700.609 202.15 L700.609 204.233 L681.025 204.233 Q681.303 208.631 683.664 210.946 Q686.049 213.238 690.285 213.238 Q692.738 213.238 695.03 212.636 Q697.345 212.034 699.613 210.83 L699.613 214.858 Q697.322 215.83 694.914 216.34 Q692.507 216.849 690.03 216.849 Q683.826 216.849 680.192 213.238 Q676.581 209.627 676.581 203.469 Q676.581 197.104 680.007 193.377 Q683.456 189.627 689.289 189.627 Q694.521 189.627 697.553 193.006 Q700.609 196.363 700.609 202.15 M696.349 200.9 Q696.303 197.405 694.382 195.321 Q692.484 193.238 689.336 193.238 Q685.771 193.238 683.618 195.252 Q681.488 197.266 681.164 200.923 L696.349 200.9 Z" fill="#000000" fill-rule="nonzero" fill-opacity="1" /><path clip-path="url(#clip430)" d="M741.326 191.247 L741.326 195.229 Q739.52 194.233 737.692 193.747 Q735.886 193.238 734.034 193.238 Q729.891 193.238 727.599 195.877 Q725.308 198.492 725.308 203.238 Q725.308 207.983 727.599 210.622 Q729.891 213.238 734.034 213.238 Q735.886 213.238 737.692 212.752 Q739.52 212.242 741.326 211.247 L741.326 215.182 Q739.544 216.016 737.622 216.432 Q735.724 216.849 733.571 216.849 Q727.715 216.849 724.266 213.168 Q720.817 209.488 720.817 203.238 Q720.817 196.895 724.289 193.261 Q727.784 189.627 733.849 189.627 Q735.817 189.627 737.692 190.043 Q739.567 190.437 741.326 191.247 Z" fill="#000000" fill-rule="nonzero" fill-opacity="1" /><path clip-path="url(#clip430)" d="M758.78 193.238 Q755.354 193.238 753.363 195.923 Q751.372 198.585 751.372 203.238 Q751.372 207.891 753.34 210.576 Q755.331 213.238 758.78 213.238 Q762.182 213.238 764.173 210.553 Q766.164 207.867 766.164 203.238 Q766.164 198.631 764.173 195.946 Q762.182 193.238 758.78 193.238 M758.78 189.627 Q764.335 189.627 767.506 193.238 Q770.678 196.849 770.678 203.238 Q770.678 209.604 767.506 213.238 Q764.335 216.849 758.78 216.849 Q753.201 216.849 750.03 213.238 Q746.882 209.604 746.882 203.238 Q746.882 196.849 750.03 193.238 Q753.201 189.627 758.78 189.627 Z" fill="#000000" fill-rule="nonzero" fill-opacity="1" /><path clip-path="url(#clip430)" d="M799.289 200.529 L799.289 216.178 L795.029 216.178 L795.029 200.668 Q795.029 196.988 793.594 195.159 Q792.159 193.33 789.289 193.33 Q785.84 193.33 783.849 195.53 Q781.858 197.729 781.858 201.525 L781.858 216.178 L777.576 216.178 L777.576 190.252 L781.858 190.252 L781.858 194.28 Q783.386 191.942 785.446 190.784 Q787.529 189.627 790.238 189.627 Q794.705 189.627 796.997 192.405 Q799.289 195.159 799.289 200.529 Z" fill="#000000" fill-rule="nonzero" fill-opacity="1" /><path clip-path="url(#clip430)" d="M811.997 182.891 L811.997 190.252 L820.77 190.252 L820.77 193.562 L811.997 193.562 L811.997 207.636 Q811.997 210.807 812.853 211.71 Q813.733 212.613 816.395 212.613 L820.77 212.613 L820.77 216.178 L816.395 216.178 Q811.465 216.178 809.59 214.349 Q807.715 212.497 807.715 207.636 L807.715 193.562 L804.59 193.562 L804.59 190.252 L807.715 190.252 L807.715 182.891 L811.997 182.891 Z" fill="#000000" fill-rule="nonzero" fill-opacity="1" /><path clip-path="url(#clip430)" d="M841.395 194.233 Q840.677 193.817 839.821 193.631 Q838.988 193.423 837.969 193.423 Q834.358 193.423 832.413 195.784 Q830.492 198.122 830.492 202.52 L830.492 216.178 L826.21 216.178 L826.21 190.252 L830.492 190.252 L830.492 194.28 Q831.835 191.918 833.988 190.784 Q836.14 189.627 839.219 189.627 Q839.659 189.627 840.191 189.696 Q840.724 189.743 841.372 189.858 L841.395 194.233 Z" fill="#000000" fill-rule="nonzero" fill-opacity="1" /><path clip-path="url(#clip430)" d="M857.645 203.145 Q852.483 203.145 850.492 204.326 Q848.501 205.506 848.501 208.354 Q848.501 210.622 849.983 211.965 Q851.487 213.284 854.057 213.284 Q857.599 213.284 859.728 210.784 Q861.881 208.261 861.881 204.094 L861.881 203.145 L857.645 203.145 M866.14 201.386 L866.14 216.178 L861.881 216.178 L861.881 212.242 Q860.423 214.603 858.247 215.738 Q856.071 216.849 852.923 216.849 Q848.941 216.849 846.58 214.627 Q844.242 212.381 844.242 208.631 Q844.242 204.256 847.159 202.034 Q850.099 199.812 855.909 199.812 L861.881 199.812 L861.881 199.395 Q861.881 196.455 859.936 194.858 Q858.015 193.238 854.52 193.238 Q852.298 193.238 850.191 193.77 Q848.085 194.303 846.14 195.367 L846.14 191.432 Q848.478 190.53 850.677 190.09 Q852.876 189.627 854.96 189.627 Q860.585 189.627 863.362 192.543 Q866.14 195.46 866.14 201.386 Z" fill="#000000" fill-rule="nonzero" fill-opacity="1" /><path clip-path="url(#clip430)" d="M891.441 191.016 L891.441 195.043 Q889.635 194.117 887.691 193.655 Q885.747 193.192 883.663 193.192 Q880.492 193.192 878.895 194.164 Q877.321 195.136 877.321 197.08 Q877.321 198.562 878.455 199.418 Q879.589 200.252 883.015 201.016 L884.473 201.34 Q889.01 202.312 890.909 204.094 Q892.83 205.854 892.83 209.025 Q892.83 212.636 889.959 214.742 Q887.112 216.849 882.112 216.849 Q880.029 216.849 877.76 216.432 Q875.515 216.039 873.015 215.228 L873.015 210.83 Q875.376 212.057 877.668 212.682 Q879.96 213.284 882.205 213.284 Q885.214 213.284 886.834 212.266 Q888.455 211.224 888.455 209.349 Q888.455 207.613 887.274 206.687 Q886.117 205.761 882.159 204.904 L880.677 204.557 Q876.719 203.724 874.96 202.011 Q873.2 200.275 873.2 197.266 Q873.2 193.608 875.793 191.618 Q878.385 189.627 883.154 189.627 Q885.515 189.627 887.598 189.974 Q889.682 190.321 891.441 191.016 Z" fill="#000000" fill-rule="nonzero" fill-opacity="1" /><path clip-path="url(#clip430)" d="M903.825 182.891 L903.825 190.252 L912.598 190.252 L912.598 193.562 L903.825 193.562 L903.825 207.636 Q903.825 210.807 904.682 211.71 Q905.561 212.613 908.223 212.613 L912.598 212.613 L912.598 216.178 L908.223 216.178 Q903.293 216.178 901.418 214.349 Q899.543 212.497 899.543 207.636 L899.543 193.562 L896.418 193.562 L896.418 190.252 L899.543 190.252 L899.543 182.891 L903.825 182.891 Z" fill="#000000" fill-rule="nonzero" fill-opacity="1" /><path clip-path="url(#clip430)" d="M934.728 191.016 L934.728 195.043 Q932.922 194.117 930.978 193.655 Q929.033 193.192 926.95 193.192 Q923.779 193.192 922.182 194.164 Q920.607 195.136 920.607 197.08 Q920.607 198.562 921.742 199.418 Q922.876 200.252 926.302 201.016 L927.76 201.34 Q932.297 202.312 934.195 204.094 Q936.117 205.854 936.117 209.025 Q936.117 212.636 933.246 214.742 Q930.399 216.849 925.399 216.849 Q923.316 216.849 921.047 216.432 Q918.802 216.039 916.302 215.228 L916.302 210.83 Q918.663 212.057 920.955 212.682 Q923.246 213.284 925.492 213.284 Q928.501 213.284 930.121 212.266 Q931.742 211.224 931.742 209.349 Q931.742 207.613 930.561 206.687 Q929.404 205.761 925.445 204.904 L923.964 204.557 Q920.006 203.724 918.246 202.011 Q916.487 200.275 916.487 197.266 Q916.487 193.608 919.08 191.618 Q921.672 189.627 926.441 189.627 Q928.802 189.627 930.885 189.974 Q932.968 190.321 934.728 191.016 Z" fill="#000000" fill-rule="nonzero" fill-opacity="1" /><polyline clip-path="url(#clip430)" style="stroke:#3da44d; stroke-linecap:round; stroke-linejoin:round; stroke-width:4; stroke-opacity:1; fill:none" points="318.705,250.738 460.615,250.738 "/>
<path clip-path="url(#clip430)" d="M484.267 233.458 L491.235 233.458 L500.054 256.976 L508.92 233.458 L515.887 233.458 L515.887 268.018 L511.327 268.018 L511.327 237.67 L502.415 261.374 L497.716 261.374 L488.804 237.67 L488.804 268.018 L484.267 268.018 L484.267 233.458 Z" fill="#000000" fill-rule="nonzero" fill-opacity="1" /><path clip-path="url(#clip430)" d="M545.887 234.592 L545.887 239.152 Q543.225 237.879 540.864 237.254 Q538.503 236.629 536.304 236.629 Q532.485 236.629 530.401 238.11 Q528.341 239.592 528.341 242.323 Q528.341 244.615 529.707 245.795 Q531.096 246.953 534.938 247.67 L537.762 248.249 Q542.994 249.245 545.471 251.768 Q547.971 254.268 547.971 258.481 Q547.971 263.504 544.591 266.096 Q541.234 268.689 534.73 268.689 Q532.276 268.689 529.498 268.133 Q526.744 267.578 523.781 266.49 L523.781 261.675 Q526.628 263.272 529.36 264.082 Q532.091 264.893 534.73 264.893 Q538.734 264.893 540.91 263.319 Q543.086 261.744 543.086 258.828 Q543.086 256.282 541.512 254.846 Q539.961 253.411 536.397 252.694 L533.549 252.138 Q528.318 251.096 525.98 248.874 Q523.642 246.652 523.642 242.694 Q523.642 238.11 526.86 235.471 Q530.1 232.833 535.772 232.833 Q538.202 232.833 540.725 233.272 Q543.248 233.712 545.887 234.592 Z" fill="#000000" fill-rule="nonzero" fill-opacity="1" /><path clip-path="url(#clip430)" d="M555.262 233.458 L562.23 233.458 L571.049 256.976 L579.915 233.458 L586.882 233.458 L586.882 268.018 L582.322 268.018 L582.322 237.67 L573.41 261.374 L568.711 261.374 L559.799 237.67 L559.799 268.018 L555.262 268.018 L555.262 233.458 Z" fill="#000000" fill-rule="nonzero" fill-opacity="1" /><path clip-path="url(#clip430)" d="M624.174 231.999 L624.174 235.541 L620.1 235.541 Q617.808 235.541 616.905 236.467 Q616.026 237.393 616.026 239.8 L616.026 242.092 L623.04 242.092 L623.04 245.402 L616.026 245.402 L616.026 268.018 L611.743 268.018 L611.743 245.402 L607.669 245.402 L607.669 242.092 L611.743 242.092 L611.743 240.286 Q611.743 235.958 613.757 233.99 Q615.771 231.999 620.146 231.999 L624.174 231.999 Z" fill="#000000" fill-rule="nonzero" fill-opacity="1" /><path clip-path="url(#clip430)" d="M627.739 242.092 L631.998 242.092 L631.998 268.018 L627.739 268.018 L627.739 242.092 M627.739 231.999 L631.998 231.999 L631.998 237.393 L627.739 237.393 L627.739 231.999 Z" fill="#000000" fill-rule="nonzero" fill-opacity="1" /><path clip-path="url(#clip430)" d="M645.123 234.731 L645.123 242.092 L653.896 242.092 L653.896 245.402 L645.123 245.402 L645.123 259.476 Q645.123 262.647 645.979 263.55 Q646.859 264.453 649.521 264.453 L653.896 264.453 L653.896 268.018 L649.521 268.018 Q644.59 268.018 642.715 266.189 Q640.84 264.337 640.84 259.476 L640.84 245.402 L637.715 245.402 L637.715 242.092 L640.84 242.092 L640.84 234.731 L645.123 234.731 Z" fill="#000000" fill-rule="nonzero" fill-opacity="1" /><polyline clip-path="url(#clip430)" style="stroke:#c271d2; stroke-linecap:round; stroke-linejoin:round; stroke-width:4; stroke-opacity:1; fill:none" points="318.705,302.578 460.615,302.578 "/>
<path clip-path="url(#clip430)" d="M484.267 285.298 L491.235 285.298 L500.054 308.816 L508.92 285.298 L515.887 285.298 L515.887 319.858 L511.327 319.858 L511.327 289.51 L502.415 313.214 L497.716 313.214 L488.804 289.51 L488.804 319.858 L484.267 319.858 L484.267 285.298 Z" fill="#000000" fill-rule="nonzero" fill-opacity="1" /><path clip-path="url(#clip430)" d="M545.887 286.432 L545.887 290.992 Q543.225 289.719 540.864 289.094 Q538.503 288.469 536.304 288.469 Q532.485 288.469 530.401 289.95 Q528.341 291.432 528.341 294.163 Q528.341 296.455 529.707 297.635 Q531.096 298.793 534.938 299.51 L537.762 300.089 Q542.994 301.085 545.471 303.608 Q547.971 306.108 547.971 310.321 Q547.971 315.344 544.591 317.936 Q541.234 320.529 534.73 320.529 Q532.276 320.529 529.498 319.973 Q526.744 319.418 523.781 318.33 L523.781 313.515 Q526.628 315.112 529.36 315.922 Q532.091 316.733 534.73 316.733 Q538.734 316.733 540.91 315.159 Q543.086 313.584 543.086 310.668 Q543.086 308.122 541.512 306.686 Q539.961 305.251 536.397 304.534 L533.549 303.978 Q528.318 302.936 525.98 300.714 Q523.642 298.492 523.642 294.534 Q523.642 289.95 526.86 287.311 Q530.1 284.673 535.772 284.673 Q538.202 284.673 540.725 285.112 Q543.248 285.552 545.887 286.432 Z" fill="#000000" fill-rule="nonzero" fill-opacity="1" /><path clip-path="url(#clip430)" d="M555.262 285.298 L562.23 285.298 L571.049 308.816 L579.915 285.298 L586.882 285.298 L586.882 319.858 L582.322 319.858 L582.322 289.51 L573.41 313.214 L568.711 313.214 L559.799 289.51 L559.799 319.858 L555.262 319.858 L555.262 285.298 Z" fill="#000000" fill-rule="nonzero" fill-opacity="1" /><path clip-path="url(#clip430)" d="M624.174 283.839 L624.174 287.381 L620.1 287.381 Q617.808 287.381 616.905 288.307 Q616.026 289.233 616.026 291.64 L616.026 293.932 L623.04 293.932 L623.04 297.242 L616.026 297.242 L616.026 319.858 L611.743 319.858 L611.743 297.242 L607.669 297.242 L607.669 293.932 L611.743 293.932 L611.743 292.126 Q611.743 287.798 613.757 285.83 Q615.771 283.839 620.146 283.839 L624.174 283.839 Z" fill="#000000" fill-rule="nonzero" fill-opacity="1" /><path clip-path="url(#clip430)" d="M627.739 293.932 L631.998 293.932 L631.998 319.858 L627.739 319.858 L627.739 293.932 M627.739 283.839 L631.998 283.839 L631.998 289.233 L627.739 289.233 L627.739 283.839 Z" fill="#000000" fill-rule="nonzero" fill-opacity="1" /><path clip-path="url(#clip430)" d="M645.123 286.571 L645.123 293.932 L653.896 293.932 L653.896 297.242 L645.123 297.242 L645.123 311.316 Q645.123 314.487 645.979 315.39 Q646.859 316.293 649.521 316.293 L653.896 316.293 L653.896 319.858 L649.521 319.858 Q644.59 319.858 642.715 318.029 Q640.84 316.177 640.84 311.316 L640.84 297.242 L637.715 297.242 L637.715 293.932 L640.84 293.932 L640.84 286.571 L645.123 286.571 Z" fill="#000000" fill-rule="nonzero" fill-opacity="1" /></svg>
