<?xml version="1.0" encoding="utf-8"?>
<svg xmlns="http://www.w3.org/2000/svg" xmlns:xlink="http://www.w3.org/1999/xlink" width="600" height="400" viewBox="0 0 2400 1600">
<defs>
  <clipPath id="clip840">
    <rect x="0" y="0" width="2400" height="1600"/>
  </clipPath>
</defs>
<path clip-path="url(#clip840)" d="M0 1600 L2400 1600 L2400 0 L0 0  Z" fill="#ffffff" fill-rule="evenodd" fill-opacity="1"/>
<defs>
  <clipPath id="clip841">
    <rect x="194" y="47" width="2160" height="1440"/>
  </clipPath>
</defs>
<path clip-path="url(#clip840)" d="M194.098 1486.45 L2352.76 1486.45 L2352.76 47.2441 L194.098 47.2441  Z" fill="#ffffff" fill-rule="evenodd" fill-opacity="1"/>
<polyline clip-path="url(#clip840)" style="stroke:#000000; stroke-linecap:round; stroke-linejoin:round; stroke-width:4; stroke-opacity:1; fill:none" points="194.098,1486.45 2352.76,1486.45 "/>
<path clip-path="url(#clip840)" d="M255.192 1517.37 Q251.581 1517.37 249.752 1520.93 Q247.947 1524.47 247.947 1531.6 Q247.947 1538.71 249.752 1542.27 Q251.581 1545.82 255.192 1545.82 Q258.826 1545.82 260.632 1542.27 Q262.461 1538.71 262.461 1531.6 Q262.461 1524.47 260.632 1520.93 Q258.826 1517.37 255.192 1517.37 M255.192 1513.66 Q261.002 1513.66 264.058 1518.27 Q267.137 1522.85 267.137 1531.6 Q267.137 1540.33 264.058 1544.94 Q261.002 1549.52 255.192 1549.52 Q249.382 1549.52 246.303 1544.94 Q243.248 1540.33 243.248 1531.6 Q243.248 1522.85 246.303 1518.27 Q249.382 1513.66 255.192 1513.66 Z" fill="#000000" fill-rule="nonzero" fill-opacity="1" /><path clip-path="url(#clip840)" d="M924.397 1544.91 L932.036 1544.91 L932.036 1518.55 L923.726 1520.21 L923.726 1515.95 L931.99 1514.29 L936.666 1514.29 L936.666 1544.91 L944.305 1544.91 L944.305 1548.85 L924.397 1548.85 L924.397 1544.91 Z" fill="#000000" fill-rule="nonzero" fill-opacity="1" /><path clip-path="url(#clip840)" d="M1607.49 1544.91 L1623.81 1544.91 L1623.81 1548.85 L1601.87 1548.85 L1601.87 1544.91 Q1604.53 1542.16 1609.11 1537.53 Q1613.72 1532.88 1614.9 1531.53 Q1617.14 1529.01 1618.02 1527.27 Q1618.93 1525.51 1618.93 1523.82 Q1618.93 1521.07 1616.98 1519.33 Q1615.06 1517.6 1611.96 1517.6 Q1609.76 1517.6 1607.31 1518.36 Q1604.88 1519.13 1602.1 1520.68 L1602.1 1515.95 Q1604.92 1514.82 1607.38 1514.24 Q1609.83 1513.66 1611.87 1513.66 Q1617.24 1513.66 1620.43 1516.35 Q1623.63 1519.03 1623.63 1523.52 Q1623.63 1525.65 1622.82 1527.57 Q1622.03 1529.47 1619.92 1532.07 Q1619.34 1532.74 1616.24 1535.95 Q1613.14 1539.15 1607.49 1544.91 Z" fill="#000000" fill-rule="nonzero" fill-opacity="1" /><path clip-path="url(#clip840)" d="M2295.91 1530.21 Q2299.27 1530.93 2301.14 1533.2 Q2303.04 1535.47 2303.04 1538.8 Q2303.04 1543.92 2299.52 1546.72 Q2296 1549.52 2289.52 1549.52 Q2287.34 1549.52 2285.03 1549.08 Q2282.74 1548.66 2280.28 1547.81 L2280.28 1543.29 Q2282.23 1544.43 2284.54 1545.01 Q2286.86 1545.58 2289.38 1545.58 Q2293.78 1545.58 2296.07 1543.85 Q2298.39 1542.11 2298.39 1538.8 Q2298.39 1535.75 2296.23 1534.03 Q2294.1 1532.3 2290.28 1532.3 L2286.26 1532.3 L2286.26 1528.45 L2290.47 1528.45 Q2293.92 1528.45 2295.75 1527.09 Q2297.58 1525.7 2297.58 1523.11 Q2297.58 1520.45 2295.68 1519.03 Q2293.8 1517.6 2290.28 1517.6 Q2288.36 1517.6 2286.16 1518.01 Q2283.97 1518.43 2281.33 1519.31 L2281.33 1515.14 Q2283.99 1514.4 2286.3 1514.03 Q2288.64 1513.66 2290.7 1513.66 Q2296.03 1513.66 2299.13 1516.09 Q2302.23 1518.5 2302.23 1522.62 Q2302.23 1525.49 2300.59 1527.48 Q2298.94 1529.45 2295.91 1530.21 Z" fill="#000000" fill-rule="nonzero" fill-opacity="1" /><polyline clip-path="url(#clip840)" style="stroke:#000000; stroke-linecap:round; stroke-linejoin:round; stroke-width:4; stroke-opacity:1; fill:none" points="194.098,1486.45 194.098,47.2441 "/>
<polyline clip-path="url(#clip840)" style="stroke:#000000; stroke-linecap:round; stroke-linejoin:round; stroke-width:4; stroke-opacity:1; fill:none" points="194.098,1382.27 175.2,1382.27 "/>
<polyline clip-path="url(#clip840)" style="stroke:#000000; stroke-linecap:round; stroke-linejoin:round; stroke-width:4; stroke-opacity:1; fill:none" points="194.098,1104.02 175.2,1104.02 "/>
<polyline clip-path="url(#clip840)" style="stroke:#000000; stroke-linecap:round; stroke-linejoin:round; stroke-width:4; stroke-opacity:1; fill:none" points="194.098,825.77 175.2,825.77 "/>
<polyline clip-path="url(#clip840)" style="stroke:#000000; stroke-linecap:round; stroke-linejoin:round; stroke-width:4; stroke-opacity:1; fill:none" points="194.098,547.522 175.2,547.522 "/>
<polyline clip-path="url(#clip840)" style="stroke:#000000; stroke-linecap:round; stroke-linejoin:round; stroke-width:4; stroke-opacity:1; fill:none" points="194.098,269.274 175.2,269.274 "/>
<path clip-path="url(#clip840)" d="M32.9921 1382.72 L62.6679 1382.72 L62.6679 1386.65 L32.9921 1386.65 L32.9921 1382.72 Z" fill="#000000" fill-rule="nonzero" fill-opacity="1" /><path clip-path="url(#clip840)" d="M82.7604 1368.06 Q79.1493 1368.06 77.3206 1371.63 Q75.515 1375.17 75.515 1382.3 Q75.515 1389.41 77.3206 1392.97 Q79.1493 1396.51 82.7604 1396.51 Q86.3946 1396.51 88.2002 1392.97 Q90.0289 1389.41 90.0289 1382.3 Q90.0289 1375.17 88.2002 1371.63 Q86.3946 1368.06 82.7604 1368.06 M82.7604 1364.36 Q88.5705 1364.36 91.6261 1368.97 Q94.7048 1373.55 94.7048 1382.3 Q94.7048 1391.03 91.6261 1395.63 Q88.5705 1400.22 82.7604 1400.22 Q76.9502 1400.22 73.8715 1395.63 Q70.816 1391.03 70.816 1382.3 Q70.816 1373.55 73.8715 1368.97 Q76.9502 1364.36 82.7604 1364.36 Z" fill="#000000" fill-rule="nonzero" fill-opacity="1" /><path clip-path="url(#clip840)" d="M102.922 1393.67 L107.807 1393.67 L107.807 1399.55 L102.922 1399.55 L102.922 1393.67 Z" fill="#000000" fill-rule="nonzero" fill-opacity="1" /><path clip-path="url(#clip840)" d="M128.57 1380.4 Q125.422 1380.4 123.57 1382.55 Q121.742 1384.71 121.742 1388.46 Q121.742 1392.18 123.57 1394.36 Q125.422 1396.51 128.57 1396.51 Q131.718 1396.51 133.547 1394.36 Q135.399 1392.18 135.399 1388.46 Q135.399 1384.71 133.547 1382.55 Q131.718 1380.4 128.57 1380.4 M137.853 1365.75 L137.853 1370.01 Q136.093 1369.17 134.288 1368.74 Q132.505 1368.3 130.746 1368.3 Q126.117 1368.3 123.663 1371.42 Q121.232 1374.55 120.885 1380.86 Q122.251 1378.85 124.311 1377.79 Q126.371 1376.7 128.848 1376.7 Q134.056 1376.7 137.066 1379.87 Q140.098 1383.02 140.098 1388.46 Q140.098 1393.78 136.95 1397 Q133.802 1400.22 128.57 1400.22 Q122.575 1400.22 119.404 1395.63 Q116.232 1391.03 116.232 1382.3 Q116.232 1374.11 120.121 1369.24 Q124.01 1364.36 130.561 1364.36 Q132.32 1364.36 134.103 1364.71 Q135.908 1365.05 137.853 1365.75 Z" fill="#000000" fill-rule="nonzero" fill-opacity="1" /><path clip-path="url(#clip840)" d="M33.8023 1104.47 L63.4781 1104.47 L63.4781 1108.4 L33.8023 1108.4 L33.8023 1104.47 Z" fill="#000000" fill-rule="nonzero" fill-opacity="1" /><path clip-path="url(#clip840)" d="M83.5706 1089.82 Q79.9595 1089.82 78.1308 1093.38 Q76.3252 1096.92 76.3252 1104.05 Q76.3252 1111.16 78.1308 1114.72 Q79.9595 1118.26 83.5706 1118.26 Q87.2048 1118.26 89.0103 1114.72 Q90.839 1111.16 90.839 1104.05 Q90.839 1096.92 89.0103 1093.38 Q87.2048 1089.82 83.5706 1089.82 M83.5706 1086.11 Q89.3807 1086.11 92.4363 1090.72 Q95.5149 1095.3 95.5149 1104.05 Q95.5149 1112.78 92.4363 1117.39 Q89.3807 1121.97 83.5706 1121.97 Q77.7604 1121.97 74.6817 1117.39 Q71.6262 1112.78 71.6262 1104.05 Q71.6262 1095.3 74.6817 1090.72 Q77.7604 1086.11 83.5706 1086.11 Z" fill="#000000" fill-rule="nonzero" fill-opacity="1" /><path clip-path="url(#clip840)" d="M103.732 1115.42 L108.617 1115.42 L108.617 1121.3 L103.732 1121.3 L103.732 1115.42 Z" fill="#000000" fill-rule="nonzero" fill-opacity="1" /><path clip-path="url(#clip840)" d="M132.968 1102.66 Q136.325 1103.38 138.2 1105.65 Q140.098 1107.92 140.098 1111.25 Q140.098 1116.37 136.58 1119.17 Q133.061 1121.97 126.58 1121.97 Q124.404 1121.97 122.089 1121.53 Q119.797 1121.11 117.344 1120.26 L117.344 1115.74 Q119.288 1116.88 121.603 1117.45 Q123.918 1118.03 126.441 1118.03 Q130.839 1118.03 133.13 1116.3 Q135.445 1114.56 135.445 1111.25 Q135.445 1108.2 133.293 1106.48 Q131.163 1104.75 127.343 1104.75 L123.316 1104.75 L123.316 1100.9 L127.529 1100.9 Q130.978 1100.9 132.806 1099.54 Q134.635 1098.15 134.635 1095.56 Q134.635 1092.89 132.737 1091.48 Q130.862 1090.05 127.343 1090.05 Q125.422 1090.05 123.223 1090.46 Q121.024 1090.88 118.385 1091.76 L118.385 1087.59 Q121.047 1086.85 123.362 1086.48 Q125.7 1086.11 127.76 1086.11 Q133.084 1086.11 136.186 1088.54 Q139.288 1090.95 139.288 1095.07 Q139.288 1097.94 137.644 1099.93 Q136.001 1101.9 132.968 1102.66 Z" fill="#000000" fill-rule="nonzero" fill-opacity="1" /><path clip-path="url(#clip840)" d="M82.9224 811.568 Q79.3113 811.568 77.4826 815.133 Q75.6771 818.675 75.6771 825.804 Q75.6771 832.911 77.4826 836.476 Q79.3113 840.017 82.9224 840.017 Q86.5567 840.017 88.3622 836.476 Q90.1909 832.911 90.1909 825.804 Q90.1909 818.675 88.3622 815.133 Q86.5567 811.568 82.9224 811.568 M82.9224 807.865 Q88.7326 807.865 91.7881 812.471 Q94.8668 817.054 94.8668 825.804 Q94.8668 834.531 91.7881 839.138 Q88.7326 843.721 82.9224 843.721 Q77.1123 843.721 74.0336 839.138 Q70.978 834.531 70.978 825.804 Q70.978 817.054 74.0336 812.471 Q77.1123 807.865 82.9224 807.865 Z" fill="#000000" fill-rule="nonzero" fill-opacity="1" /><path clip-path="url(#clip840)" d="M103.084 837.17 L107.969 837.17 L107.969 843.05 L103.084 843.05 L103.084 837.17 Z" fill="#000000" fill-rule="nonzero" fill-opacity="1" /><path clip-path="url(#clip840)" d="M128.154 811.568 Q124.543 811.568 122.714 815.133 Q120.908 818.675 120.908 825.804 Q120.908 832.911 122.714 836.476 Q124.543 840.017 128.154 840.017 Q131.788 840.017 133.593 836.476 Q135.422 832.911 135.422 825.804 Q135.422 818.675 133.593 815.133 Q131.788 811.568 128.154 811.568 M128.154 807.865 Q133.964 807.865 137.019 812.471 Q140.098 817.054 140.098 825.804 Q140.098 834.531 137.019 839.138 Q133.964 843.721 128.154 843.721 Q122.343 843.721 119.265 839.138 Q116.209 834.531 116.209 825.804 Q116.209 817.054 119.265 812.471 Q122.343 807.865 128.154 807.865 Z" fill="#000000" fill-rule="nonzero" fill-opacity="1" /><path clip-path="url(#clip840)" d="M83.5706 533.321 Q79.9595 533.321 78.1308 536.885 Q76.3252 540.427 76.3252 547.557 Q76.3252 554.663 78.1308 558.228 Q79.9595 561.77 83.5706 561.77 Q87.2048 561.77 89.0103 558.228 Q90.839 554.663 90.839 547.557 Q90.839 540.427 89.0103 536.885 Q87.2048 533.321 83.5706 533.321 M83.5706 529.617 Q89.3807 529.617 92.4363 534.223 Q95.5149 538.807 95.5149 547.557 Q95.5149 556.283 92.4363 560.89 Q89.3807 565.473 83.5706 565.473 Q77.7604 565.473 74.6817 560.89 Q71.6262 556.283 71.6262 547.557 Q71.6262 538.807 74.6817 534.223 Q77.7604 529.617 83.5706 529.617 Z" fill="#000000" fill-rule="nonzero" fill-opacity="1" /><path clip-path="url(#clip840)" d="M103.732 558.922 L108.617 558.922 L108.617 564.802 L103.732 564.802 L103.732 558.922 Z" fill="#000000" fill-rule="nonzero" fill-opacity="1" /><path clip-path="url(#clip840)" d="M132.968 546.168 Q136.325 546.885 138.2 549.154 Q140.098 551.422 140.098 554.756 Q140.098 559.871 136.58 562.672 Q133.061 565.473 126.58 565.473 Q124.404 565.473 122.089 565.033 Q119.797 564.617 117.344 563.76 L117.344 559.246 Q119.288 560.381 121.603 560.959 Q123.918 561.538 126.441 561.538 Q130.839 561.538 133.13 559.802 Q135.445 558.066 135.445 554.756 Q135.445 551.7 133.293 549.987 Q131.163 548.251 127.343 548.251 L123.316 548.251 L123.316 544.409 L127.529 544.409 Q130.978 544.409 132.806 543.043 Q134.635 541.654 134.635 539.061 Q134.635 536.399 132.737 534.987 Q130.862 533.552 127.343 533.552 Q125.422 533.552 123.223 533.969 Q121.024 534.385 118.385 535.265 L118.385 531.098 Q121.047 530.358 123.362 529.987 Q125.7 529.617 127.76 529.617 Q133.084 529.617 136.186 532.047 Q139.288 534.455 139.288 538.575 Q139.288 541.446 137.644 543.436 Q136.001 545.404 132.968 546.168 Z" fill="#000000" fill-rule="nonzero" fill-opacity="1" /><path clip-path="url(#clip840)" d="M82.7604 255.073 Q79.1493 255.073 77.3206 258.638 Q75.515 262.179 75.515 269.309 Q75.515 276.415 77.3206 279.98 Q79.1493 283.522 82.7604 283.522 Q86.3946 283.522 88.2002 279.98 Q90.0289 276.415 90.0289 269.309 Q90.0289 262.179 88.2002 258.638 Q86.3946 255.073 82.7604 255.073 M82.7604 251.369 Q88.5705 251.369 91.6261 255.976 Q94.7048 260.559 94.7048 269.309 Q94.7048 278.036 91.6261 282.642 Q88.5705 287.225 82.7604 287.225 Q76.9502 287.225 73.8715 282.642 Q70.816 278.036 70.816 269.309 Q70.816 260.559 73.8715 255.976 Q76.9502 251.369 82.7604 251.369 Z" fill="#000000" fill-rule="nonzero" fill-opacity="1" /><path clip-path="url(#clip840)" d="M102.922 280.675 L107.807 280.675 L107.807 286.554 L102.922 286.554 L102.922 280.675 Z" fill="#000000" fill-rule="nonzero" fill-opacity="1" /><path clip-path="url(#clip840)" d="M128.57 267.411 Q125.422 267.411 123.57 269.564 Q121.742 271.716 121.742 275.466 Q121.742 279.193 123.57 281.369 Q125.422 283.522 128.57 283.522 Q131.718 283.522 133.547 281.369 Q135.399 279.193 135.399 275.466 Q135.399 271.716 133.547 269.564 Q131.718 267.411 128.57 267.411 M137.853 252.758 L137.853 257.017 Q136.093 256.184 134.288 255.744 Q132.505 255.304 130.746 255.304 Q126.117 255.304 123.663 258.429 Q121.232 261.554 120.885 267.874 Q122.251 265.86 124.311 264.795 Q126.371 263.707 128.848 263.707 Q134.056 263.707 137.066 266.878 Q140.098 270.027 140.098 275.466 Q140.098 280.79 136.95 284.008 Q133.802 287.225 128.57 287.225 Q122.575 287.225 119.404 282.642 Q116.232 278.036 116.232 269.309 Q116.232 261.115 120.121 256.253 Q124.01 251.369 130.561 251.369 Q132.32 251.369 134.103 251.716 Q135.908 252.064 137.853 252.758 Z" fill="#000000" fill-rule="nonzero" fill-opacity="1" /><polyline clip-path="url(#clip841)" style="stroke:#000000; stroke-linecap:round; stroke-linejoin:round; stroke-width:4; stroke-opacity:1; fill:none" points="255.192,1389.88 255.192,897.53 "/>
<polyline clip-path="url(#clip841)" style="stroke:#000000; stroke-linecap:round; stroke-linejoin:round; stroke-width:4; stroke-opacity:1; fill:none" points="934.015,1028.45 934.015,782.279 "/>
<polyline clip-path="url(#clip841)" style="stroke:#000000; stroke-linecap:round; stroke-linejoin:round; stroke-width:4; stroke-opacity:1; fill:none" points="1612.84,667.028 1612.84,667.028 "/>
<polyline clip-path="url(#clip841)" style="stroke:#000000; stroke-linecap:round; stroke-linejoin:round; stroke-width:4; stroke-opacity:1; fill:none" points="2291.66,551.777 2291.66,305.605 "/>
<line clip-path="url(#clip841)" x1="271.192" y1="1389.88" x2="239.192" y2="1389.88" style="stroke:#000000; stroke-width:4; stroke-opacity:1"/>
<line clip-path="url(#clip841)" x1="271.192" y1="897.53" x2="239.192" y2="897.53" style="stroke:#000000; stroke-width:4; stroke-opacity:1"/>
<line clip-path="url(#clip841)" x1="950.015" y1="1028.45" x2="918.015" y2="1028.45" style="stroke:#000000; stroke-width:4; stroke-opacity:1"/>
<line clip-path="url(#clip841)" x1="950.015" y1="782.279" x2="918.015" y2="782.279" style="stroke:#000000; stroke-width:4; stroke-opacity:1"/>
<line clip-path="url(#clip841)" x1="1628.84" y1="667.028" x2="1596.84" y2="667.028" style="stroke:#000000; stroke-width:4; stroke-opacity:1"/>
<line clip-path="url(#clip841)" x1="1628.84" y1="667.028" x2="1596.84" y2="667.028" style="stroke:#000000; stroke-width:4; stroke-opacity:1"/>
<line clip-path="url(#clip841)" x1="2307.66" y1="551.777" x2="2275.66" y2="551.777" style="stroke:#000000; stroke-width:4; stroke-opacity:1"/>
<line clip-path="url(#clip841)" x1="2307.66" y1="305.605" x2="2275.66" y2="305.605" style="stroke:#000000; stroke-width:4; stroke-opacity:1"/>
<circle clip-path="url(#clip841)" cx="255.192" cy="1143.7" r="14.4" fill="#009af9" fill-rule="evenodd" fill-opacity="1" stroke="#000000" stroke-opacity="1" stroke-width="3.2"/>
<circle clip-path="url(#clip841)" cx="934.015" cy="905.365" r="14.4" fill="#009af9" fill-rule="evenodd" fill-opacity="1" stroke="#000000" stroke-opacity="1" stroke-width="3.2"/>
<circle clip-path="url(#clip841)" cx="1612.84" cy="667.028" r="14.4" fill="#009af9" fill-rule="evenodd" fill-opacity="1" stroke="#000000" stroke-opacity="1" stroke-width="3.2"/>
<circle clip-path="url(#clip841)" cx="2291.66" cy="428.691" r="14.4" fill="#009af9" fill-rule="evenodd" fill-opacity="1" stroke="#000000" stroke-opacity="1" stroke-width="3.2"/>
<polyline clip-path="url(#clip841)" style="stroke:#e26f46; stroke-linecap:round; stroke-linejoin:round; stroke-width:4; stroke-opacity:1; fill:none" points="255.192,1143.7 934.015,905.365 1612.84,667.028 2291.66,428.691 "/>
<path clip-path="url(#clip841)" d="M255.192 1445.72 L934.015 1022.5 L1612.84 827.76 L2291.66 777.358 L2291.66 87.9763 L1612.84 515.755 L934.015 786.677 L255.192 840.035  Z" fill="#3da44d" fill-rule="evenodd" fill-opacity="0.5"/>
<polyline clip-path="url(#clip841)" style="stroke:#3da44d; stroke-linecap:round; stroke-linejoin:round; stroke-width:4; stroke-opacity:1; fill:none" points="255.192,1143.7 934.015,905.365 1612.84,667.028 2291.66,428.691 "/>
<path clip-path="url(#clip840)" d="M266.053 302.578 L933.769 302.578 L933.769 95.2176 L266.053 95.2176  Z" fill="#ffffff" fill-rule="evenodd" fill-opacity="1"/>
<polyline clip-path="url(#clip840)" style="stroke:#000000; stroke-linecap:round; stroke-linejoin:round; stroke-width:4; stroke-opacity:1; fill:none" points="266.053,302.578 933.769,302.578 933.769,95.2176 266.053,95.2176 266.053,302.578 "/>
<circle clip-path="url(#clip840)" cx="361.994" cy="147.058" r="20.48" fill="#009af9" fill-rule="evenodd" fill-opacity="1" stroke="#000000" stroke-opacity="1" stroke-width="4.55111"/>
<path clip-path="url(#clip840)" d="M462.61 133.62 L462.61 146.606 L468.489 146.606 Q471.753 146.606 473.536 144.916 Q475.318 143.227 475.318 140.102 Q475.318 137 473.536 135.31 Q471.753 133.62 468.489 133.62 L462.61 133.62 M457.934 129.778 L468.489 129.778 Q474.3 129.778 477.263 132.416 Q480.249 135.032 480.249 140.102 Q480.249 145.217 477.263 147.833 Q474.3 150.449 468.489 150.449 L462.61 150.449 L462.61 164.338 L457.934 164.338 L457.934 129.778 Z" fill="#000000" fill-rule="nonzero" fill-opacity="1" /><path clip-path="url(#clip840)" d="M494.693 141.398 Q491.267 141.398 489.276 144.083 Q487.286 146.745 487.286 151.398 Q487.286 156.051 489.253 158.736 Q491.244 161.398 494.693 161.398 Q498.096 161.398 500.087 158.713 Q502.077 156.027 502.077 151.398 Q502.077 146.791 500.087 144.106 Q498.096 141.398 494.693 141.398 M494.693 137.787 Q500.249 137.787 503.42 141.398 Q506.591 145.009 506.591 151.398 Q506.591 157.764 503.42 161.398 Q500.249 165.009 494.693 165.009 Q489.114 165.009 485.943 161.398 Q482.795 157.764 482.795 151.398 Q482.795 145.009 485.943 141.398 Q489.114 137.787 494.693 137.787 Z" fill="#000000" fill-rule="nonzero" fill-opacity="1" /><path clip-path="url(#clip840)" d="M513.651 138.412 L517.911 138.412 L517.911 164.338 L513.651 164.338 L513.651 138.412 M513.651 128.319 L517.911 128.319 L517.911 133.713 L513.651 133.713 L513.651 128.319 Z" fill="#000000" fill-rule="nonzero" fill-opacity="1" /><path clip-path="url(#clip840)" d="M548.373 148.689 L548.373 164.338 L544.114 164.338 L544.114 148.828 Q544.114 145.148 542.679 143.319 Q541.244 141.49 538.373 141.49 Q534.924 141.49 532.934 143.69 Q530.943 145.889 530.943 149.685 L530.943 164.338 L526.66 164.338 L526.66 138.412 L530.943 138.412 L530.943 142.44 Q532.471 140.102 534.531 138.944 Q536.614 137.787 539.322 137.787 Q543.79 137.787 546.082 140.565 Q548.373 143.319 548.373 148.689 Z" fill="#000000" fill-rule="nonzero" fill-opacity="1" /><path clip-path="url(#clip840)" d="M561.082 131.051 L561.082 138.412 L569.855 138.412 L569.855 141.722 L561.082 141.722 L561.082 155.796 Q561.082 158.967 561.938 159.87 Q562.818 160.773 565.48 160.773 L569.855 160.773 L569.855 164.338 L565.48 164.338 Q560.549 164.338 558.674 162.509 Q556.799 160.657 556.799 155.796 L556.799 141.722 L553.674 141.722 L553.674 138.412 L556.799 138.412 L556.799 131.051 L561.082 131.051 Z" fill="#000000" fill-rule="nonzero" fill-opacity="1" /><path clip-path="url(#clip840)" d="M572.98 138.412 L577.239 138.412 L582.563 158.643 L587.864 138.412 L592.887 138.412 L598.211 158.643 L603.512 138.412 L607.771 138.412 L600.989 164.338 L595.966 164.338 L590.387 143.088 L584.785 164.338 L579.762 164.338 L572.98 138.412 Z" fill="#000000" fill-rule="nonzero" fill-opacity="1" /><path clip-path="url(#clip840)" d="M614.229 138.412 L618.489 138.412 L618.489 164.338 L614.229 164.338 L614.229 138.412 M614.229 128.319 L618.489 128.319 L618.489 133.713 L614.229 133.713 L614.229 128.319 Z" fill="#000000" fill-rule="nonzero" fill-opacity="1" /><path clip-path="url(#clip840)" d="M643.928 139.176 L643.928 143.203 Q642.123 142.277 640.178 141.815 Q638.234 141.352 636.151 141.352 Q632.979 141.352 631.382 142.324 Q629.808 143.296 629.808 145.24 Q629.808 146.722 630.942 147.578 Q632.077 148.412 635.502 149.176 L636.961 149.5 Q641.498 150.472 643.396 152.254 Q645.317 154.014 645.317 157.185 Q645.317 160.796 642.447 162.902 Q639.6 165.009 634.6 165.009 Q632.516 165.009 630.248 164.592 Q628.003 164.199 625.503 163.388 L625.503 158.99 Q627.864 160.217 630.155 160.842 Q632.447 161.444 634.692 161.444 Q637.702 161.444 639.322 160.426 Q640.942 159.384 640.942 157.509 Q640.942 155.773 639.762 154.847 Q638.604 153.921 634.646 153.064 L633.165 152.717 Q629.206 151.884 627.447 150.171 Q625.688 148.435 625.688 145.426 Q625.688 141.768 628.28 139.778 Q630.873 137.787 635.641 137.787 Q638.002 137.787 640.086 138.134 Q642.169 138.481 643.928 139.176 Z" fill="#000000" fill-rule="nonzero" fill-opacity="1" /><path clip-path="url(#clip840)" d="M674.275 150.31 L674.275 152.393 L654.692 152.393 Q654.97 156.791 657.331 159.106 Q659.715 161.398 663.951 161.398 Q666.405 161.398 668.697 160.796 Q671.012 160.194 673.28 158.99 L673.28 163.018 Q670.988 163.99 668.581 164.5 Q666.174 165.009 663.697 165.009 Q657.493 165.009 653.859 161.398 Q650.248 157.787 650.248 151.629 Q650.248 145.264 653.674 141.537 Q657.123 137.787 662.956 137.787 Q668.187 137.787 671.22 141.166 Q674.275 144.523 674.275 150.31 M670.016 149.06 Q669.97 145.565 668.049 143.481 Q666.15 141.398 663.002 141.398 Q659.438 141.398 657.285 143.412 Q655.155 145.426 654.831 149.083 L670.016 149.06 Z" fill="#000000" fill-rule="nonzero" fill-opacity="1" /><path clip-path="url(#clip840)" d="M714.993 139.407 L714.993 143.389 Q713.187 142.393 711.359 141.907 Q709.553 141.398 707.701 141.398 Q703.558 141.398 701.266 144.037 Q698.974 146.652 698.974 151.398 Q698.974 156.143 701.266 158.782 Q703.558 161.398 707.701 161.398 Q709.553 161.398 711.359 160.912 Q713.187 160.402 714.993 159.407 L714.993 163.342 Q713.21 164.176 711.289 164.592 Q709.391 165.009 707.238 165.009 Q701.382 165.009 697.933 161.328 Q694.484 157.648 694.484 151.398 Q694.484 145.055 697.956 141.421 Q701.451 137.787 707.516 137.787 Q709.484 137.787 711.359 138.203 Q713.234 138.597 714.993 139.407 Z" fill="#000000" fill-rule="nonzero" fill-opacity="1" /><path clip-path="url(#clip840)" d="M732.446 141.398 Q729.021 141.398 727.03 144.083 Q725.039 146.745 725.039 151.398 Q725.039 156.051 727.007 158.736 Q728.997 161.398 732.446 161.398 Q735.849 161.398 737.84 158.713 Q739.831 156.027 739.831 151.398 Q739.831 146.791 737.84 144.106 Q735.849 141.398 732.446 141.398 M732.446 137.787 Q738.002 137.787 741.173 141.398 Q744.344 145.009 744.344 151.398 Q744.344 157.764 741.173 161.398 Q738.002 165.009 732.446 165.009 Q726.868 165.009 723.696 161.398 Q720.548 157.764 720.548 151.398 Q720.548 145.009 723.696 141.398 Q726.868 137.787 732.446 137.787 Z" fill="#000000" fill-rule="nonzero" fill-opacity="1" /><path clip-path="url(#clip840)" d="M772.955 148.689 L772.955 164.338 L768.696 164.338 L768.696 148.828 Q768.696 145.148 767.261 143.319 Q765.826 141.49 762.956 141.49 Q759.506 141.49 757.516 143.69 Q755.525 145.889 755.525 149.685 L755.525 164.338 L751.243 164.338 L751.243 138.412 L755.525 138.412 L755.525 142.44 Q757.053 140.102 759.113 138.944 Q761.196 137.787 763.905 137.787 Q768.372 137.787 770.664 140.565 Q772.955 143.319 772.955 148.689 Z" fill="#000000" fill-rule="nonzero" fill-opacity="1" /><path clip-path="url(#clip840)" d="M785.664 131.051 L785.664 138.412 L794.437 138.412 L794.437 141.722 L785.664 141.722 L785.664 155.796 Q785.664 158.967 786.52 159.87 Q787.4 160.773 790.062 160.773 L794.437 160.773 L794.437 164.338 L790.062 164.338 Q785.131 164.338 783.256 162.509 Q781.381 160.657 781.381 155.796 L781.381 141.722 L778.256 141.722 L778.256 138.412 L781.381 138.412 L781.381 131.051 L785.664 131.051 Z" fill="#000000" fill-rule="nonzero" fill-opacity="1" /><path clip-path="url(#clip840)" d="M815.062 142.393 Q814.344 141.977 813.488 141.791 Q812.654 141.583 811.636 141.583 Q808.025 141.583 806.08 143.944 Q804.159 146.282 804.159 150.68 L804.159 164.338 L799.877 164.338 L799.877 138.412 L804.159 138.412 L804.159 142.44 Q805.502 140.078 807.654 138.944 Q809.807 137.787 812.886 137.787 Q813.326 137.787 813.858 137.856 Q814.39 137.903 815.039 138.018 L815.062 142.393 Z" fill="#000000" fill-rule="nonzero" fill-opacity="1" /><path clip-path="url(#clip840)" d="M831.312 151.305 Q826.15 151.305 824.159 152.486 Q822.168 153.666 822.168 156.514 Q822.168 158.782 823.65 160.125 Q825.154 161.444 827.724 161.444 Q831.265 161.444 833.395 158.944 Q835.548 156.421 835.548 152.254 L835.548 151.305 L831.312 151.305 M839.807 149.546 L839.807 164.338 L835.548 164.338 L835.548 160.402 Q834.089 162.763 831.913 163.898 Q829.738 165.009 826.589 165.009 Q822.608 165.009 820.247 162.787 Q817.909 160.541 817.909 156.791 Q817.909 152.416 820.826 150.194 Q823.765 147.972 829.576 147.972 L835.548 147.972 L835.548 147.555 Q835.548 144.615 833.603 143.018 Q831.682 141.398 828.187 141.398 Q825.964 141.398 823.858 141.93 Q821.751 142.463 819.807 143.527 L819.807 139.592 Q822.145 138.69 824.344 138.25 Q826.543 137.787 828.626 137.787 Q834.251 137.787 837.029 140.703 Q839.807 143.62 839.807 149.546 Z" fill="#000000" fill-rule="nonzero" fill-opacity="1" /><path clip-path="url(#clip840)" d="M865.108 139.176 L865.108 143.203 Q863.302 142.277 861.358 141.815 Q859.413 141.352 857.33 141.352 Q854.159 141.352 852.562 142.324 Q850.987 143.296 850.987 145.24 Q850.987 146.722 852.122 147.578 Q853.256 148.412 856.682 149.176 L858.14 149.5 Q862.677 150.472 864.575 152.254 Q866.497 154.014 866.497 157.185 Q866.497 160.796 863.626 162.902 Q860.779 165.009 855.779 165.009 Q853.696 165.009 851.427 164.592 Q849.182 164.199 846.682 163.388 L846.682 158.99 Q849.043 160.217 851.335 160.842 Q853.626 161.444 855.872 161.444 Q858.881 161.444 860.501 160.426 Q862.122 159.384 862.122 157.509 Q862.122 155.773 860.941 154.847 Q859.784 153.921 855.825 153.064 L854.344 152.717 Q850.386 151.884 848.626 150.171 Q846.867 148.435 846.867 145.426 Q846.867 141.768 849.46 139.778 Q852.052 137.787 856.821 137.787 Q859.182 137.787 861.265 138.134 Q863.348 138.481 865.108 139.176 Z" fill="#000000" fill-rule="nonzero" fill-opacity="1" /><path clip-path="url(#clip840)" d="M877.492 131.051 L877.492 138.412 L886.265 138.412 L886.265 141.722 L877.492 141.722 L877.492 155.796 Q877.492 158.967 878.348 159.87 Q879.228 160.773 881.89 160.773 L886.265 160.773 L886.265 164.338 L881.89 164.338 Q876.96 164.338 875.085 162.509 Q873.21 160.657 873.21 155.796 L873.21 141.722 L870.085 141.722 L870.085 138.412 L873.21 138.412 L873.21 131.051 L877.492 131.051 Z" fill="#000000" fill-rule="nonzero" fill-opacity="1" /><path clip-path="url(#clip840)" d="M908.395 139.176 L908.395 143.203 Q906.589 142.277 904.645 141.815 Q902.7 141.352 900.617 141.352 Q897.446 141.352 895.848 142.324 Q894.274 143.296 894.274 145.24 Q894.274 146.722 895.409 147.578 Q896.543 148.412 899.969 149.176 L901.427 149.5 Q905.964 150.472 907.862 152.254 Q909.783 154.014 909.783 157.185 Q909.783 160.796 906.913 162.902 Q904.066 165.009 899.066 165.009 Q896.983 165.009 894.714 164.592 Q892.469 164.199 889.969 163.388 L889.969 158.99 Q892.33 160.217 894.621 160.842 Q896.913 161.444 899.158 161.444 Q902.168 161.444 903.788 160.426 Q905.408 159.384 905.408 157.509 Q905.408 155.773 904.228 154.847 Q903.07 153.921 899.112 153.064 L897.631 152.717 Q893.672 151.884 891.913 150.171 Q890.154 148.435 890.154 145.426 Q890.154 141.768 892.746 139.778 Q895.339 137.787 900.108 137.787 Q902.469 137.787 904.552 138.134 Q906.635 138.481 908.395 139.176 Z" fill="#000000" fill-rule="nonzero" fill-opacity="1" /><polyline clip-path="url(#clip840)" style="stroke:#e26f46; stroke-linecap:round; stroke-linejoin:round; stroke-width:4; stroke-opacity:1; fill:none" points="290.038,198.898 433.949,198.898 "/>
<path clip-path="url(#clip840)" d="M457.934 181.618 L464.902 181.618 L473.721 205.136 L482.587 181.618 L489.554 181.618 L489.554 216.178 L484.994 216.178 L484.994 185.83 L476.082 209.534 L471.383 209.534 L462.471 185.83 L462.471 216.178 L457.934 216.178 L457.934 181.618 Z" fill="#000000" fill-rule="nonzero" fill-opacity="1" /><path clip-path="url(#clip840)" d="M519.554 182.752 L519.554 187.312 Q516.892 186.039 514.531 185.414 Q512.17 184.789 509.971 184.789 Q506.151 184.789 504.068 186.27 Q502.008 187.752 502.008 190.483 Q502.008 192.775 503.374 193.955 Q504.762 195.113 508.605 195.83 L511.429 196.409 Q516.661 197.405 519.137 199.928 Q521.637 202.428 521.637 206.641 Q521.637 211.664 518.258 214.256 Q514.901 216.849 508.397 216.849 Q505.943 216.849 503.165 216.293 Q500.411 215.738 497.448 214.65 L497.448 209.835 Q500.295 211.432 503.026 212.242 Q505.758 213.053 508.397 213.053 Q512.401 213.053 514.577 211.479 Q516.753 209.904 516.753 206.988 Q516.753 204.442 515.179 203.006 Q513.628 201.571 510.063 200.854 L507.216 200.298 Q501.985 199.256 499.647 197.034 Q497.309 194.812 497.309 190.854 Q497.309 186.27 500.526 183.631 Q503.767 180.993 509.438 180.993 Q511.869 180.993 514.392 181.432 Q516.915 181.872 519.554 182.752 Z" fill="#000000" fill-rule="nonzero" fill-opacity="1" /><path clip-path="url(#clip840)" d="M528.929 181.618 L535.897 181.618 L544.716 205.136 L553.582 181.618 L560.549 181.618 L560.549 216.178 L555.989 216.178 L555.989 185.83 L547.077 209.534 L542.378 209.534 L533.466 185.83 L533.466 216.178 L528.929 216.178 L528.929 181.618 Z" fill="#000000" fill-rule="nonzero" fill-opacity="1" /><path clip-path="url(#clip840)" d="M597.841 180.159 L597.841 183.701 L593.767 183.701 Q591.475 183.701 590.572 184.627 Q589.693 185.553 589.693 187.96 L589.693 190.252 L596.706 190.252 L596.706 193.562 L589.693 193.562 L589.693 216.178 L585.41 216.178 L585.41 193.562 L581.336 193.562 L581.336 190.252 L585.41 190.252 L585.41 188.446 Q585.41 184.118 587.424 182.15 Q589.438 180.159 593.813 180.159 L597.841 180.159 Z" fill="#000000" fill-rule="nonzero" fill-opacity="1" /><path clip-path="url(#clip840)" d="M601.405 190.252 L605.665 190.252 L605.665 216.178 L601.405 216.178 L601.405 190.252 M601.405 180.159 L605.665 180.159 L605.665 185.553 L601.405 185.553 L601.405 180.159 Z" fill="#000000" fill-rule="nonzero" fill-opacity="1" /><path clip-path="url(#clip840)" d="M618.79 182.891 L618.79 190.252 L627.563 190.252 L627.563 193.562 L618.79 193.562 L618.79 207.636 Q618.79 210.807 619.646 211.71 Q620.526 212.613 623.188 212.613 L627.563 212.613 L627.563 216.178 L623.188 216.178 Q618.257 216.178 616.382 214.349 Q614.507 212.497 614.507 207.636 L614.507 193.562 L611.382 193.562 L611.382 190.252 L614.507 190.252 L614.507 182.891 L618.79 182.891 Z" fill="#000000" fill-rule="nonzero" fill-opacity="1" /><polyline clip-path="url(#clip840)" style="stroke:#3da44d; stroke-linecap:round; stroke-linejoin:round; stroke-width:4; stroke-opacity:1; fill:none" points="290.038,250.738 433.949,250.738 "/>
<path clip-path="url(#clip840)" d="M457.934 233.458 L464.902 233.458 L473.721 256.976 L482.587 233.458 L489.554 233.458 L489.554 268.018 L484.994 268.018 L484.994 237.67 L476.082 261.374 L471.383 261.374 L462.471 237.67 L462.471 268.018 L457.934 268.018 L457.934 233.458 Z" fill="#000000" fill-rule="nonzero" fill-opacity="1" /><path clip-path="url(#clip840)" d="M519.554 234.592 L519.554 239.152 Q516.892 237.879 514.531 237.254 Q512.17 236.629 509.971 236.629 Q506.151 236.629 504.068 238.11 Q502.008 239.592 502.008 242.323 Q502.008 244.615 503.374 245.795 Q504.762 246.953 508.605 247.67 L511.429 248.249 Q516.661 249.245 519.137 251.768 Q521.637 254.268 521.637 258.481 Q521.637 263.504 518.258 266.096 Q514.901 268.689 508.397 268.689 Q505.943 268.689 503.165 268.133 Q500.411 267.578 497.448 266.49 L497.448 261.675 Q500.295 263.272 503.026 264.082 Q505.758 264.893 508.397 264.893 Q512.401 264.893 514.577 263.319 Q516.753 261.744 516.753 258.828 Q516.753 256.282 515.179 254.846 Q513.628 253.411 510.063 252.694 L507.216 252.138 Q501.985 251.096 499.647 248.874 Q497.309 246.652 497.309 242.694 Q497.309 238.11 500.526 235.471 Q503.767 232.833 509.438 232.833 Q511.869 232.833 514.392 233.272 Q516.915 233.712 519.554 234.592 Z" fill="#000000" fill-rule="nonzero" fill-opacity="1" /><path clip-path="url(#clip840)" d="M528.929 233.458 L535.897 233.458 L544.716 256.976 L553.582 233.458 L560.549 233.458 L560.549 268.018 L555.989 268.018 L555.989 237.67 L547.077 261.374 L542.378 261.374 L533.466 237.67 L533.466 268.018 L528.929 268.018 L528.929 233.458 Z" fill="#000000" fill-rule="nonzero" fill-opacity="1" /><path clip-path="url(#clip840)" d="M597.841 231.999 L597.841 235.541 L593.767 235.541 Q591.475 235.541 590.572 236.467 Q589.693 237.393 589.693 239.8 L589.693 242.092 L596.706 242.092 L596.706 245.402 L589.693 245.402 L589.693 268.018 L585.41 268.018 L585.41 245.402 L581.336 245.402 L581.336 242.092 L585.41 242.092 L585.41 240.286 Q585.41 235.958 587.424 233.99 Q589.438 231.999 593.813 231.999 L597.841 231.999 Z" fill="#000000" fill-rule="nonzero" fill-opacity="1" /><path clip-path="url(#clip840)" d="M601.405 242.092 L605.665 242.092 L605.665 268.018 L601.405 268.018 L601.405 242.092 M601.405 231.999 L605.665 231.999 L605.665 237.393 L601.405 237.393 L601.405 231.999 Z" fill="#000000" fill-rule="nonzero" fill-opacity="1" /><path clip-path="url(#clip840)" d="M618.79 234.731 L618.79 242.092 L627.563 242.092 L627.563 245.402 L618.79 245.402 L618.79 259.476 Q618.79 262.647 619.646 263.55 Q620.526 264.453 623.188 264.453 L627.563 264.453 L627.563 268.018 L623.188 268.018 Q618.257 268.018 616.382 266.189 Q614.507 264.337 614.507 259.476 L614.507 245.402 L611.382 245.402 L611.382 242.092 L614.507 242.092 L614.507 234.731 L618.79 234.731 Z" fill="#000000" fill-rule="nonzero" fill-opacity="1" /></svg>
