<?xml version="1.0" encoding="utf-8"?>
<svg xmlns="http://www.w3.org/2000/svg" xmlns:xlink="http://www.w3.org/1999/xlink" width="600" height="400" viewBox="0 0 2400 1600">
<defs>
  <clipPath id="clip540">
    <rect x="0" y="0" width="2400" height="1600"/>
  </clipPath>
</defs>
<path clip-path="url(#clip540)" d="M0 1600 L2400 1600 L2400 0 L0 0  Z" fill="#ffffff" fill-rule="evenodd" fill-opacity="1"/>
<defs>
  <clipPath id="clip541">
    <rect x="480" y="0" width="1681" height="1600"/>
  </clipPath>
</defs>
<path clip-path="url(#clip540)" d="M194.422 1486.45 L2352.76 1486.45 L2352.76 47.2441 L194.422 47.2441  Z" fill="#ffffff" fill-rule="evenodd" fill-opacity="1"/>
<defs>
  <clipPath id="clip542">
    <rect x="194" y="47" width="2159" height="1440"/>
  </clipPath>
</defs>
<polyline clip-path="url(#clip540)" style="stroke:#000000; stroke-linecap:round; stroke-linejoin:round; stroke-width:4; stroke-opacity:1; fill:none" points="194.422,1486.45 2352.76,1486.45 "/>
<path clip-path="url(#clip540)" d="M255.507 1517.37 Q251.896 1517.37 250.067 1520.93 Q248.262 1524.47 248.262 1531.6 Q248.262 1538.71 250.067 1542.27 Q251.896 1545.82 255.507 1545.82 Q259.141 1545.82 260.947 1542.27 Q262.776 1538.71 262.776 1531.6 Q262.776 1524.47 260.947 1520.93 Q259.141 1517.37 255.507 1517.37 M255.507 1513.66 Q261.317 1513.66 264.373 1518.27 Q267.451 1522.85 267.451 1531.6 Q267.451 1540.33 264.373 1544.94 Q261.317 1549.52 255.507 1549.52 Q249.697 1549.52 246.618 1544.94 Q243.563 1540.33 243.563 1531.6 Q243.563 1522.85 246.618 1518.27 Q249.697 1513.66 255.507 1513.66 Z" fill="#000000" fill-rule="nonzero" fill-opacity="1" /><path clip-path="url(#clip540)" d="M831.921 1544.91 L848.24 1544.91 L848.24 1548.85 L826.296 1548.85 L826.296 1544.91 Q828.958 1542.16 833.541 1537.53 Q838.148 1532.88 839.328 1531.53 Q841.574 1529.01 842.453 1527.27 Q843.356 1525.51 843.356 1523.82 Q843.356 1521.07 841.412 1519.33 Q839.49 1517.6 836.389 1517.6 Q834.189 1517.6 831.736 1518.36 Q829.305 1519.13 826.527 1520.68 L826.527 1515.95 Q829.352 1514.82 831.805 1514.24 Q834.259 1513.66 836.296 1513.66 Q841.666 1513.66 844.861 1516.35 Q848.055 1519.03 848.055 1523.52 Q848.055 1525.65 847.245 1527.57 Q846.458 1529.47 844.351 1532.07 Q843.773 1532.74 840.671 1535.95 Q837.569 1539.15 831.921 1544.91 Z" fill="#000000" fill-rule="nonzero" fill-opacity="1" /><path clip-path="url(#clip540)" d="M1422.04 1518.36 L1410.23 1536.81 L1422.04 1536.81 L1422.04 1518.36 M1420.81 1514.29 L1426.69 1514.29 L1426.69 1536.81 L1431.62 1536.81 L1431.62 1540.7 L1426.69 1540.7 L1426.69 1548.85 L1422.04 1548.85 L1422.04 1540.7 L1406.44 1540.7 L1406.44 1536.19 L1420.81 1514.29 Z" fill="#000000" fill-rule="nonzero" fill-opacity="1" /><path clip-path="url(#clip540)" d="M2001.2 1529.7 Q1998.05 1529.7 1996.2 1531.86 Q1994.37 1534.01 1994.37 1537.76 Q1994.37 1541.49 1996.2 1543.66 Q1998.05 1545.82 2001.2 1545.82 Q2004.34 1545.82 2006.17 1543.66 Q2008.02 1541.49 2008.02 1537.76 Q2008.02 1534.01 2006.17 1531.86 Q2004.34 1529.7 2001.2 1529.7 M2010.48 1515.05 L2010.48 1519.31 Q2008.72 1518.48 2006.91 1518.04 Q2005.13 1517.6 2003.37 1517.6 Q1998.74 1517.6 1996.29 1520.72 Q1993.86 1523.85 1993.51 1530.17 Q1994.88 1528.15 1996.94 1527.09 Q1999 1526 2001.47 1526 Q2006.68 1526 2009.69 1529.17 Q2012.72 1532.32 2012.72 1537.76 Q2012.72 1543.08 2009.58 1546.3 Q2006.43 1549.52 2001.2 1549.52 Q1995.2 1549.52 1992.03 1544.94 Q1988.86 1540.33 1988.86 1531.6 Q1988.86 1523.41 1992.75 1518.55 Q1996.64 1513.66 2003.19 1513.66 Q2004.95 1513.66 2006.73 1514.01 Q2008.53 1514.36 2010.48 1515.05 Z" fill="#000000" fill-rule="nonzero" fill-opacity="1" /><polyline clip-path="url(#clip540)" style="stroke:#000000; stroke-linecap:round; stroke-linejoin:round; stroke-width:4; stroke-opacity:1; fill:none" points="194.422,1486.45 194.422,47.2441 "/>
<polyline clip-path="url(#clip540)" style="stroke:#000000; stroke-linecap:round; stroke-linejoin:round; stroke-width:4; stroke-opacity:1; fill:none" points="194.422,1476.82 175.524,1476.82 "/>
<polyline clip-path="url(#clip540)" style="stroke:#000000; stroke-linecap:round; stroke-linejoin:round; stroke-width:4; stroke-opacity:1; fill:none" points="194.422,1155.45 175.524,1155.45 "/>
<polyline clip-path="url(#clip540)" style="stroke:#000000; stroke-linecap:round; stroke-linejoin:round; stroke-width:4; stroke-opacity:1; fill:none" points="194.422,834.088 175.524,834.088 "/>
<polyline clip-path="url(#clip540)" style="stroke:#000000; stroke-linecap:round; stroke-linejoin:round; stroke-width:4; stroke-opacity:1; fill:none" points="194.422,512.724 175.524,512.724 "/>
<polyline clip-path="url(#clip540)" style="stroke:#000000; stroke-linecap:round; stroke-linejoin:round; stroke-width:4; stroke-opacity:1; fill:none" points="194.422,191.36 175.524,191.36 "/>
<path clip-path="url(#clip540)" d="M32.9921 1477.27 L62.6679 1477.27 L62.6679 1481.2 L32.9921 1481.2 L32.9921 1477.27 Z" fill="#000000" fill-rule="nonzero" fill-opacity="1" /><path clip-path="url(#clip540)" d="M82.7604 1462.62 Q79.1493 1462.62 77.3206 1466.18 Q75.515 1469.72 75.515 1476.85 Q75.515 1483.96 77.3206 1487.52 Q79.1493 1491.06 82.7604 1491.06 Q86.3946 1491.06 88.2002 1487.52 Q90.0289 1483.96 90.0289 1476.85 Q90.0289 1469.72 88.2002 1466.18 Q86.3946 1462.62 82.7604 1462.62 M82.7604 1458.91 Q88.5705 1458.91 91.6261 1463.52 Q94.7048 1468.1 94.7048 1476.85 Q94.7048 1485.58 91.6261 1490.18 Q88.5705 1494.77 82.7604 1494.77 Q76.9502 1494.77 73.8715 1490.18 Q70.816 1485.58 70.816 1476.85 Q70.816 1468.1 73.8715 1463.52 Q76.9502 1458.91 82.7604 1458.91 Z" fill="#000000" fill-rule="nonzero" fill-opacity="1" /><path clip-path="url(#clip540)" d="M102.922 1488.22 L107.807 1488.22 L107.807 1494.1 L102.922 1494.1 L102.922 1488.22 Z" fill="#000000" fill-rule="nonzero" fill-opacity="1" /><path clip-path="url(#clip540)" d="M130.839 1463.61 L119.033 1482.06 L130.839 1482.06 L130.839 1463.61 M129.612 1459.54 L135.492 1459.54 L135.492 1482.06 L140.422 1482.06 L140.422 1485.95 L135.492 1485.95 L135.492 1494.1 L130.839 1494.1 L130.839 1485.95 L115.237 1485.95 L115.237 1481.43 L129.612 1459.54 Z" fill="#000000" fill-rule="nonzero" fill-opacity="1" /><path clip-path="url(#clip540)" d="M35.0754 1155.9 L64.7512 1155.9 L64.7512 1159.84 L35.0754 1159.84 L35.0754 1155.9 Z" fill="#000000" fill-rule="nonzero" fill-opacity="1" /><path clip-path="url(#clip540)" d="M84.8437 1141.25 Q81.2326 1141.25 79.4039 1144.82 Q77.5984 1148.36 77.5984 1155.49 Q77.5984 1162.59 79.4039 1166.16 Q81.2326 1169.7 84.8437 1169.7 Q88.4779 1169.7 90.2835 1166.16 Q92.1122 1162.59 92.1122 1155.49 Q92.1122 1148.36 90.2835 1144.82 Q88.4779 1141.25 84.8437 1141.25 M84.8437 1137.55 Q90.6539 1137.55 93.7094 1142.15 Q96.7881 1146.74 96.7881 1155.49 Q96.7881 1164.21 93.7094 1168.82 Q90.6539 1173.4 84.8437 1173.4 Q79.0335 1173.4 75.9549 1168.82 Q72.8993 1164.21 72.8993 1155.49 Q72.8993 1146.74 75.9549 1142.15 Q79.0335 1137.55 84.8437 1137.55 Z" fill="#000000" fill-rule="nonzero" fill-opacity="1" /><path clip-path="url(#clip540)" d="M105.006 1166.85 L109.89 1166.85 L109.89 1172.73 L105.006 1172.73 L105.006 1166.85 Z" fill="#000000" fill-rule="nonzero" fill-opacity="1" /><path clip-path="url(#clip540)" d="M124.103 1168.8 L140.422 1168.8 L140.422 1172.73 L118.478 1172.73 L118.478 1168.8 Q121.14 1166.04 125.723 1161.41 Q130.33 1156.76 131.51 1155.42 Q133.755 1152.89 134.635 1151.16 Q135.538 1149.4 135.538 1147.71 Q135.538 1144.96 133.593 1143.22 Q131.672 1141.48 128.57 1141.48 Q126.371 1141.48 123.918 1142.25 Q121.487 1143.01 118.709 1144.56 L118.709 1139.84 Q121.533 1138.71 123.987 1138.13 Q126.441 1137.55 128.478 1137.55 Q133.848 1137.55 137.042 1140.23 Q140.237 1142.92 140.237 1147.41 Q140.237 1149.54 139.427 1151.46 Q138.64 1153.36 136.533 1155.95 Q135.955 1156.62 132.853 1159.84 Q129.751 1163.03 124.103 1168.8 Z" fill="#000000" fill-rule="nonzero" fill-opacity="1" /><path clip-path="url(#clip540)" d="M83.2465 819.887 Q79.6354 819.887 77.8067 823.452 Q76.0012 826.994 76.0012 834.123 Q76.0012 841.23 77.8067 844.794 Q79.6354 848.336 83.2465 848.336 Q86.8807 848.336 88.6863 844.794 Q90.515 841.23 90.515 834.123 Q90.515 826.994 88.6863 823.452 Q86.8807 819.887 83.2465 819.887 M83.2465 816.183 Q89.0566 816.183 92.1122 820.79 Q95.1909 825.373 95.1909 834.123 Q95.1909 842.85 92.1122 847.456 Q89.0566 852.04 83.2465 852.04 Q77.4363 852.04 74.3576 847.456 Q71.3021 842.85 71.3021 834.123 Q71.3021 825.373 74.3576 820.79 Q77.4363 816.183 83.2465 816.183 Z" fill="#000000" fill-rule="nonzero" fill-opacity="1" /><path clip-path="url(#clip540)" d="M103.408 845.489 L108.293 845.489 L108.293 851.368 L103.408 851.368 L103.408 845.489 Z" fill="#000000" fill-rule="nonzero" fill-opacity="1" /><path clip-path="url(#clip540)" d="M128.478 819.887 Q124.867 819.887 123.038 823.452 Q121.232 826.994 121.232 834.123 Q121.232 841.23 123.038 844.794 Q124.867 848.336 128.478 848.336 Q132.112 848.336 133.918 844.794 Q135.746 841.23 135.746 834.123 Q135.746 826.994 133.918 823.452 Q132.112 819.887 128.478 819.887 M128.478 816.183 Q134.288 816.183 137.343 820.79 Q140.422 825.373 140.422 834.123 Q140.422 842.85 137.343 847.456 Q134.288 852.04 128.478 852.04 Q122.668 852.04 119.589 847.456 Q116.533 842.85 116.533 834.123 Q116.533 825.373 119.589 820.79 Q122.668 816.183 128.478 816.183 Z" fill="#000000" fill-rule="nonzero" fill-opacity="1" /><path clip-path="url(#clip540)" d="M84.8437 498.523 Q81.2326 498.523 79.4039 502.088 Q77.5984 505.629 77.5984 512.759 Q77.5984 519.865 79.4039 523.43 Q81.2326 526.972 84.8437 526.972 Q88.4779 526.972 90.2835 523.43 Q92.1122 519.865 92.1122 512.759 Q92.1122 505.629 90.2835 502.088 Q88.4779 498.523 84.8437 498.523 M84.8437 494.819 Q90.6539 494.819 93.7094 499.426 Q96.7881 504.009 96.7881 512.759 Q96.7881 521.486 93.7094 526.092 Q90.6539 530.676 84.8437 530.676 Q79.0335 530.676 75.9549 526.092 Q72.8993 521.486 72.8993 512.759 Q72.8993 504.009 75.9549 499.426 Q79.0335 494.819 84.8437 494.819 Z" fill="#000000" fill-rule="nonzero" fill-opacity="1" /><path clip-path="url(#clip540)" d="M105.006 524.125 L109.89 524.125 L109.89 530.004 L105.006 530.004 L105.006 524.125 Z" fill="#000000" fill-rule="nonzero" fill-opacity="1" /><path clip-path="url(#clip540)" d="M124.103 526.069 L140.422 526.069 L140.422 530.004 L118.478 530.004 L118.478 526.069 Q121.14 523.315 125.723 518.685 Q130.33 514.032 131.51 512.69 Q133.755 510.166 134.635 508.43 Q135.538 506.671 135.538 504.981 Q135.538 502.227 133.593 500.491 Q131.672 498.754 128.57 498.754 Q126.371 498.754 123.918 499.518 Q121.487 500.282 118.709 501.833 L118.709 497.111 Q121.533 495.977 123.987 495.398 Q126.441 494.819 128.478 494.819 Q133.848 494.819 137.042 497.504 Q140.237 500.19 140.237 504.68 Q140.237 506.81 139.427 508.731 Q138.64 510.629 136.533 513.222 Q135.955 513.893 132.853 517.111 Q129.751 520.305 124.103 526.069 Z" fill="#000000" fill-rule="nonzero" fill-opacity="1" /><path clip-path="url(#clip540)" d="M82.7604 177.159 Q79.1493 177.159 77.3206 180.724 Q75.515 184.265 75.515 191.395 Q75.515 198.501 77.3206 202.066 Q79.1493 205.608 82.7604 205.608 Q86.3946 205.608 88.2002 202.066 Q90.0289 198.501 90.0289 191.395 Q90.0289 184.265 88.2002 180.724 Q86.3946 177.159 82.7604 177.159 M82.7604 173.455 Q88.5705 173.455 91.6261 178.062 Q94.7048 182.645 94.7048 191.395 Q94.7048 200.122 91.6261 204.728 Q88.5705 209.311 82.7604 209.311 Q76.9502 209.311 73.8715 204.728 Q70.816 200.122 70.816 191.395 Q70.816 182.645 73.8715 178.062 Q76.9502 173.455 82.7604 173.455 Z" fill="#000000" fill-rule="nonzero" fill-opacity="1" /><path clip-path="url(#clip540)" d="M102.922 202.76 L107.807 202.76 L107.807 208.64 L102.922 208.64 L102.922 202.76 Z" fill="#000000" fill-rule="nonzero" fill-opacity="1" /><path clip-path="url(#clip540)" d="M130.839 178.154 L119.033 196.603 L130.839 196.603 L130.839 178.154 M129.612 174.08 L135.492 174.08 L135.492 196.603 L140.422 196.603 L140.422 200.492 L135.492 200.492 L135.492 208.64 L130.839 208.64 L130.839 200.492 L115.237 200.492 L115.237 195.978 L129.612 174.08 Z" fill="#000000" fill-rule="nonzero" fill-opacity="1" /><polyline clip-path="url(#clip542)" style="stroke:#000000; stroke-linecap:round; stroke-linejoin:round; stroke-width:4; stroke-opacity:1; fill:none" points="255.507,959.171 255.507,959.171 "/>
<polyline clip-path="url(#clip542)" style="stroke:#000000; stroke-linecap:round; stroke-linejoin:round; stroke-width:4; stroke-opacity:1; fill:none" points="546.388,1081.11 546.388,792.696 "/>
<polyline clip-path="url(#clip542)" style="stroke:#000000; stroke-linecap:round; stroke-linejoin:round; stroke-width:4; stroke-opacity:1; fill:none" points="837.268,1149.53 837.268,659.977 "/>
<polyline clip-path="url(#clip542)" style="stroke:#000000; stroke-linecap:round; stroke-linejoin:round; stroke-width:4; stroke-opacity:1; fill:none" points="1128.15,1168.06 1128.15,557.392 "/>
<polyline clip-path="url(#clip542)" style="stroke:#000000; stroke-linecap:round; stroke-linejoin:round; stroke-width:4; stroke-opacity:1; fill:none" points="1419.03,1143.92 1419.03,477.713 "/>
<polyline clip-path="url(#clip542)" style="stroke:#000000; stroke-linecap:round; stroke-linejoin:round; stroke-width:4; stroke-opacity:1; fill:none" points="1709.91,1092.08 1709.91,405.98 "/>
<polyline clip-path="url(#clip542)" style="stroke:#000000; stroke-linecap:round; stroke-linejoin:round; stroke-width:4; stroke-opacity:1; fill:none" points="2000.79,1041.14 2000.79,313.578 "/>
<polyline clip-path="url(#clip542)" style="stroke:#000000; stroke-linecap:round; stroke-linejoin:round; stroke-width:4; stroke-opacity:1; fill:none" points="2291.67,1029.65 2291.67,161.977 "/>
<line clip-path="url(#clip542)" x1="271.507" y1="959.171" x2="239.507" y2="959.171" style="stroke:#000000; stroke-width:4; stroke-opacity:1"/>
<line clip-path="url(#clip542)" x1="271.507" y1="959.171" x2="239.507" y2="959.171" style="stroke:#000000; stroke-width:4; stroke-opacity:1"/>
<line clip-path="url(#clip542)" x1="562.388" y1="1081.11" x2="530.388" y2="1081.11" style="stroke:#000000; stroke-width:4; stroke-opacity:1"/>
<line clip-path="url(#clip542)" x1="562.388" y1="792.696" x2="530.388" y2="792.696" style="stroke:#000000; stroke-width:4; stroke-opacity:1"/>
<line clip-path="url(#clip542)" x1="853.268" y1="1149.53" x2="821.268" y2="1149.53" style="stroke:#000000; stroke-width:4; stroke-opacity:1"/>
<line clip-path="url(#clip542)" x1="853.268" y1="659.977" x2="821.268" y2="659.977" style="stroke:#000000; stroke-width:4; stroke-opacity:1"/>
<line clip-path="url(#clip542)" x1="1144.15" y1="1168.06" x2="1112.15" y2="1168.06" style="stroke:#000000; stroke-width:4; stroke-opacity:1"/>
<line clip-path="url(#clip542)" x1="1144.15" y1="557.392" x2="1112.15" y2="557.392" style="stroke:#000000; stroke-width:4; stroke-opacity:1"/>
<line clip-path="url(#clip542)" x1="1435.03" y1="1143.92" x2="1403.03" y2="1143.92" style="stroke:#000000; stroke-width:4; stroke-opacity:1"/>
<line clip-path="url(#clip542)" x1="1435.03" y1="477.713" x2="1403.03" y2="477.713" style="stroke:#000000; stroke-width:4; stroke-opacity:1"/>
<line clip-path="url(#clip542)" x1="1725.91" y1="1092.08" x2="1693.91" y2="1092.08" style="stroke:#000000; stroke-width:4; stroke-opacity:1"/>
<line clip-path="url(#clip542)" x1="1725.91" y1="405.98" x2="1693.91" y2="405.98" style="stroke:#000000; stroke-width:4; stroke-opacity:1"/>
<line clip-path="url(#clip542)" x1="2016.79" y1="1041.14" x2="1984.79" y2="1041.14" style="stroke:#000000; stroke-width:4; stroke-opacity:1"/>
<line clip-path="url(#clip542)" x1="2016.79" y1="313.578" x2="1984.79" y2="313.578" style="stroke:#000000; stroke-width:4; stroke-opacity:1"/>
<line clip-path="url(#clip542)" x1="2307.67" y1="1029.65" x2="2275.67" y2="1029.65" style="stroke:#000000; stroke-width:4; stroke-opacity:1"/>
<line clip-path="url(#clip542)" x1="2307.67" y1="161.977" x2="2275.67" y2="161.977" style="stroke:#000000; stroke-width:4; stroke-opacity:1"/>
<circle clip-path="url(#clip542)" cx="255.507" cy="959.171" r="14.4" fill="#009af9" fill-rule="evenodd" fill-opacity="1" stroke="#000000" stroke-opacity="1" stroke-width="3.2"/>
<circle clip-path="url(#clip542)" cx="546.388" cy="936.903" r="14.4" fill="#009af9" fill-rule="evenodd" fill-opacity="1" stroke="#000000" stroke-opacity="1" stroke-width="3.2"/>
<circle clip-path="url(#clip542)" cx="837.268" cy="904.755" r="14.4" fill="#009af9" fill-rule="evenodd" fill-opacity="1" stroke="#000000" stroke-opacity="1" stroke-width="3.2"/>
<circle clip-path="url(#clip542)" cx="1128.15" cy="862.727" r="14.4" fill="#009af9" fill-rule="evenodd" fill-opacity="1" stroke="#000000" stroke-opacity="1" stroke-width="3.2"/>
<circle clip-path="url(#clip542)" cx="1419.03" cy="810.818" r="14.4" fill="#009af9" fill-rule="evenodd" fill-opacity="1" stroke="#000000" stroke-opacity="1" stroke-width="3.2"/>
<circle clip-path="url(#clip542)" cx="1709.91" cy="749.03" r="14.4" fill="#009af9" fill-rule="evenodd" fill-opacity="1" stroke="#000000" stroke-opacity="1" stroke-width="3.2"/>
<circle clip-path="url(#clip542)" cx="2000.79" cy="677.361" r="14.4" fill="#009af9" fill-rule="evenodd" fill-opacity="1" stroke="#000000" stroke-opacity="1" stroke-width="3.2"/>
<circle clip-path="url(#clip542)" cx="2291.67" cy="595.811" r="14.4" fill="#009af9" fill-rule="evenodd" fill-opacity="1" stroke="#000000" stroke-opacity="1" stroke-width="3.2"/>
<polyline clip-path="url(#clip542)" style="stroke:#e26f46; stroke-linecap:round; stroke-linejoin:round; stroke-width:4; stroke-opacity:1; fill:none" points="255.507,959.171 546.388,936.903 837.268,904.755 1128.15,862.727 1419.03,810.818 1709.91,749.03 2000.79,677.361 2291.67,595.811 "/>
<path clip-path="url(#clip542)" d="M255.507 1445.72 L546.388 1225.01 L837.268 1025.63 L1128.15 961.156 L1419.03 949.677 L1709.91 872.4 L2000.79 957.233 L2291.67 1062.79 L2291.67 87.9763 L2000.79 388.065 L1709.91 555.47 L1419.03 633.733 L1128.15 644.035 L837.268 644.471 L546.388 659.838 L255.507 600.799  Z" fill="#3da44d" fill-rule="evenodd" fill-opacity="0.5"/>
<polyline clip-path="url(#clip542)" style="stroke:#3da44d; stroke-linecap:round; stroke-linejoin:round; stroke-width:4; stroke-opacity:1; fill:none" points="255.507,959.171 546.388,936.903 837.268,904.755 1128.15,862.727 1419.03,810.818 1709.91,749.03 2000.79,677.361 2291.67,595.811 "/>
<path clip-path="url(#clip540)" d="M266.367 302.578 L934.049 302.578 L934.049 95.2176 L266.367 95.2176  Z" fill="#ffffff" fill-rule="evenodd" fill-opacity="1"/>
<polyline clip-path="url(#clip540)" style="stroke:#000000; stroke-linecap:round; stroke-linejoin:round; stroke-width:4; stroke-opacity:1; fill:none" points="266.367,302.578 934.049,302.578 934.049,95.2176 266.367,95.2176 266.367,302.578 "/>
<circle clip-path="url(#clip540)" cx="362.293" cy="147.058" r="20.48" fill="#009af9" fill-rule="evenodd" fill-opacity="1" stroke="#000000" stroke-opacity="1" stroke-width="4.55111"/>
<path clip-path="url(#clip540)" d="M462.894 133.62 L462.894 146.606 L468.774 146.606 Q472.038 146.606 473.82 144.916 Q475.603 143.227 475.603 140.102 Q475.603 137 473.82 135.31 Q472.038 133.62 468.774 133.62 L462.894 133.62 M458.218 129.778 L468.774 129.778 Q474.584 129.778 477.547 132.416 Q480.533 135.032 480.533 140.102 Q480.533 145.217 477.547 147.833 Q474.584 150.449 468.774 150.449 L462.894 150.449 L462.894 164.338 L458.218 164.338 L458.218 129.778 Z" fill="#000000" fill-rule="nonzero" fill-opacity="1" /><path clip-path="url(#clip540)" d="M494.978 141.398 Q491.552 141.398 489.561 144.083 Q487.57 146.745 487.57 151.398 Q487.57 156.051 489.538 158.736 Q491.528 161.398 494.978 161.398 Q498.38 161.398 500.371 158.713 Q502.362 156.027 502.362 151.398 Q502.362 146.791 500.371 144.106 Q498.38 141.398 494.978 141.398 M494.978 137.787 Q500.533 137.787 503.704 141.398 Q506.876 145.009 506.876 151.398 Q506.876 157.764 503.704 161.398 Q500.533 165.009 494.978 165.009 Q489.399 165.009 486.228 161.398 Q483.079 157.764 483.079 151.398 Q483.079 145.009 486.228 141.398 Q489.399 137.787 494.978 137.787 Z" fill="#000000" fill-rule="nonzero" fill-opacity="1" /><path clip-path="url(#clip540)" d="M513.936 138.412 L518.195 138.412 L518.195 164.338 L513.936 164.338 L513.936 138.412 M513.936 128.319 L518.195 128.319 L518.195 133.713 L513.936 133.713 L513.936 128.319 Z" fill="#000000" fill-rule="nonzero" fill-opacity="1" /><path clip-path="url(#clip540)" d="M548.658 148.689 L548.658 164.338 L544.399 164.338 L544.399 148.828 Q544.399 145.148 542.963 143.319 Q541.528 141.49 538.658 141.49 Q535.209 141.49 533.218 143.69 Q531.227 145.889 531.227 149.685 L531.227 164.338 L526.945 164.338 L526.945 138.412 L531.227 138.412 L531.227 142.44 Q532.755 140.102 534.815 138.944 Q536.899 137.787 539.607 137.787 Q544.074 137.787 546.366 140.565 Q548.658 143.319 548.658 148.689 Z" fill="#000000" fill-rule="nonzero" fill-opacity="1" /><path clip-path="url(#clip540)" d="M561.366 131.051 L561.366 138.412 L570.139 138.412 L570.139 141.722 L561.366 141.722 L561.366 155.796 Q561.366 158.967 562.223 159.87 Q563.102 160.773 565.764 160.773 L570.139 160.773 L570.139 164.338 L565.764 164.338 Q560.834 164.338 558.959 162.509 Q557.084 160.657 557.084 155.796 L557.084 141.722 L553.959 141.722 L553.959 138.412 L557.084 138.412 L557.084 131.051 L561.366 131.051 Z" fill="#000000" fill-rule="nonzero" fill-opacity="1" /><path clip-path="url(#clip540)" d="M573.264 138.412 L577.523 138.412 L582.847 158.643 L588.148 138.412 L593.171 138.412 L598.495 158.643 L603.796 138.412 L608.056 138.412 L601.273 164.338 L596.25 164.338 L590.671 143.088 L585.07 164.338 L580.047 164.338 L573.264 138.412 Z" fill="#000000" fill-rule="nonzero" fill-opacity="1" /><path clip-path="url(#clip540)" d="M614.514 138.412 L618.773 138.412 L618.773 164.338 L614.514 164.338 L614.514 138.412 M614.514 128.319 L618.773 128.319 L618.773 133.713 L614.514 133.713 L614.514 128.319 Z" fill="#000000" fill-rule="nonzero" fill-opacity="1" /><path clip-path="url(#clip540)" d="M644.213 139.176 L644.213 143.203 Q642.407 142.277 640.463 141.815 Q638.518 141.352 636.435 141.352 Q633.264 141.352 631.667 142.324 Q630.093 143.296 630.093 145.24 Q630.093 146.722 631.227 147.578 Q632.361 148.412 635.787 149.176 L637.245 149.5 Q641.782 150.472 643.68 152.254 Q645.602 154.014 645.602 157.185 Q645.602 160.796 642.731 162.902 Q639.884 165.009 634.884 165.009 Q632.801 165.009 630.532 164.592 Q628.287 164.199 625.787 163.388 L625.787 158.99 Q628.148 160.217 630.44 160.842 Q632.731 161.444 634.977 161.444 Q637.986 161.444 639.606 160.426 Q641.227 159.384 641.227 157.509 Q641.227 155.773 640.046 154.847 Q638.889 153.921 634.93 153.064 L633.449 152.717 Q629.491 151.884 627.731 150.171 Q625.972 148.435 625.972 145.426 Q625.972 141.768 628.565 139.778 Q631.157 137.787 635.926 137.787 Q638.287 137.787 640.37 138.134 Q642.454 138.481 644.213 139.176 Z" fill="#000000" fill-rule="nonzero" fill-opacity="1" /><path clip-path="url(#clip540)" d="M674.56 150.31 L674.56 152.393 L654.977 152.393 Q655.254 156.791 657.616 159.106 Q660 161.398 664.236 161.398 Q666.69 161.398 668.981 160.796 Q671.296 160.194 673.565 158.99 L673.565 163.018 Q671.273 163.99 668.865 164.5 Q666.458 165.009 663.981 165.009 Q657.778 165.009 654.143 161.398 Q650.532 157.787 650.532 151.629 Q650.532 145.264 653.958 141.537 Q657.407 137.787 663.241 137.787 Q668.472 137.787 671.504 141.166 Q674.56 144.523 674.56 150.31 M670.301 149.06 Q670.254 145.565 668.333 143.481 Q666.435 141.398 663.287 141.398 Q659.722 141.398 657.569 143.412 Q655.44 145.426 655.116 149.083 L670.301 149.06 Z" fill="#000000" fill-rule="nonzero" fill-opacity="1" /><path clip-path="url(#clip540)" d="M715.277 139.407 L715.277 143.389 Q713.472 142.393 711.643 141.907 Q709.837 141.398 707.986 141.398 Q703.842 141.398 701.55 144.037 Q699.259 146.652 699.259 151.398 Q699.259 156.143 701.55 158.782 Q703.842 161.398 707.986 161.398 Q709.837 161.398 711.643 160.912 Q713.472 160.402 715.277 159.407 L715.277 163.342 Q713.495 164.176 711.574 164.592 Q709.675 165.009 707.523 165.009 Q701.666 165.009 698.217 161.328 Q694.768 157.648 694.768 151.398 Q694.768 145.055 698.24 141.421 Q701.736 137.787 707.8 137.787 Q709.768 137.787 711.643 138.203 Q713.518 138.597 715.277 139.407 Z" fill="#000000" fill-rule="nonzero" fill-opacity="1" /><path clip-path="url(#clip540)" d="M732.731 141.398 Q729.305 141.398 727.314 144.083 Q725.324 146.745 725.324 151.398 Q725.324 156.051 727.291 158.736 Q729.282 161.398 732.731 161.398 Q736.134 161.398 738.124 158.713 Q740.115 156.027 740.115 151.398 Q740.115 146.791 738.124 144.106 Q736.134 141.398 732.731 141.398 M732.731 137.787 Q738.286 137.787 741.458 141.398 Q744.629 145.009 744.629 151.398 Q744.629 157.764 741.458 161.398 Q738.286 165.009 732.731 165.009 Q727.152 165.009 723.981 161.398 Q720.833 157.764 720.833 151.398 Q720.833 145.009 723.981 141.398 Q727.152 137.787 732.731 137.787 Z" fill="#000000" fill-rule="nonzero" fill-opacity="1" /><path clip-path="url(#clip540)" d="M773.24 148.689 L773.24 164.338 L768.981 164.338 L768.981 148.828 Q768.981 145.148 767.546 143.319 Q766.11 141.49 763.24 141.49 Q759.791 141.49 757.8 143.69 Q755.809 145.889 755.809 149.685 L755.809 164.338 L751.527 164.338 L751.527 138.412 L755.809 138.412 L755.809 142.44 Q757.337 140.102 759.397 138.944 Q761.481 137.787 764.189 137.787 Q768.657 137.787 770.948 140.565 Q773.24 143.319 773.24 148.689 Z" fill="#000000" fill-rule="nonzero" fill-opacity="1" /><path clip-path="url(#clip540)" d="M785.948 131.051 L785.948 138.412 L794.721 138.412 L794.721 141.722 L785.948 141.722 L785.948 155.796 Q785.948 158.967 786.805 159.87 Q787.684 160.773 790.346 160.773 L794.721 160.773 L794.721 164.338 L790.346 164.338 Q785.416 164.338 783.541 162.509 Q781.666 160.657 781.666 155.796 L781.666 141.722 L778.541 141.722 L778.541 138.412 L781.666 138.412 L781.666 131.051 L785.948 131.051 Z" fill="#000000" fill-rule="nonzero" fill-opacity="1" /><path clip-path="url(#clip540)" d="M815.346 142.393 Q814.629 141.977 813.772 141.791 Q812.939 141.583 811.92 141.583 Q808.309 141.583 806.365 143.944 Q804.443 146.282 804.443 150.68 L804.443 164.338 L800.161 164.338 L800.161 138.412 L804.443 138.412 L804.443 142.44 Q805.786 140.078 807.939 138.944 Q810.092 137.787 813.17 137.787 Q813.61 137.787 814.142 137.856 Q814.675 137.903 815.323 138.018 L815.346 142.393 Z" fill="#000000" fill-rule="nonzero" fill-opacity="1" /><path clip-path="url(#clip540)" d="M831.596 151.305 Q826.434 151.305 824.443 152.486 Q822.453 153.666 822.453 156.514 Q822.453 158.782 823.934 160.125 Q825.439 161.444 828.008 161.444 Q831.55 161.444 833.679 158.944 Q835.832 156.421 835.832 152.254 L835.832 151.305 L831.596 151.305 M840.091 149.546 L840.091 164.338 L835.832 164.338 L835.832 160.402 Q834.374 162.763 832.198 163.898 Q830.022 165.009 826.874 165.009 Q822.892 165.009 820.531 162.787 Q818.193 160.541 818.193 156.791 Q818.193 152.416 821.11 150.194 Q824.05 147.972 829.86 147.972 L835.832 147.972 L835.832 147.555 Q835.832 144.615 833.888 143.018 Q831.966 141.398 828.471 141.398 Q826.249 141.398 824.142 141.93 Q822.036 142.463 820.092 143.527 L820.092 139.592 Q822.429 138.69 824.629 138.25 Q826.828 137.787 828.911 137.787 Q834.536 137.787 837.314 140.703 Q840.091 143.62 840.091 149.546 Z" fill="#000000" fill-rule="nonzero" fill-opacity="1" /><path clip-path="url(#clip540)" d="M865.392 139.176 L865.392 143.203 Q863.587 142.277 861.642 141.815 Q859.698 141.352 857.614 141.352 Q854.443 141.352 852.846 142.324 Q851.272 143.296 851.272 145.24 Q851.272 146.722 852.406 147.578 Q853.54 148.412 856.966 149.176 L858.425 149.5 Q862.962 150.472 864.86 152.254 Q866.781 154.014 866.781 157.185 Q866.781 160.796 863.911 162.902 Q861.064 165.009 856.064 165.009 Q853.98 165.009 851.712 164.592 Q849.466 164.199 846.966 163.388 L846.966 158.99 Q849.327 160.217 851.619 160.842 Q853.911 161.444 856.156 161.444 Q859.165 161.444 860.786 160.426 Q862.406 159.384 862.406 157.509 Q862.406 155.773 861.226 154.847 Q860.068 153.921 856.11 153.064 L854.628 152.717 Q850.67 151.884 848.911 150.171 Q847.152 148.435 847.152 145.426 Q847.152 141.768 849.744 139.778 Q852.337 137.787 857.105 137.787 Q859.466 137.787 861.55 138.134 Q863.633 138.481 865.392 139.176 Z" fill="#000000" fill-rule="nonzero" fill-opacity="1" /><path clip-path="url(#clip540)" d="M877.776 131.051 L877.776 138.412 L886.549 138.412 L886.549 141.722 L877.776 141.722 L877.776 155.796 Q877.776 158.967 878.633 159.87 Q879.512 160.773 882.175 160.773 L886.549 160.773 L886.549 164.338 L882.175 164.338 Q877.244 164.338 875.369 162.509 Q873.494 160.657 873.494 155.796 L873.494 141.722 L870.369 141.722 L870.369 138.412 L873.494 138.412 L873.494 131.051 L877.776 131.051 Z" fill="#000000" fill-rule="nonzero" fill-opacity="1" /><path clip-path="url(#clip540)" d="M908.679 139.176 L908.679 143.203 Q906.873 142.277 904.929 141.815 Q902.985 141.352 900.901 141.352 Q897.73 141.352 896.133 142.324 Q894.559 143.296 894.559 145.24 Q894.559 146.722 895.693 147.578 Q896.827 148.412 900.253 149.176 L901.711 149.5 Q906.248 150.472 908.147 152.254 Q910.068 154.014 910.068 157.185 Q910.068 160.796 907.198 162.902 Q904.35 165.009 899.35 165.009 Q897.267 165.009 894.999 164.592 Q892.753 164.199 890.253 163.388 L890.253 158.99 Q892.614 160.217 894.906 160.842 Q897.198 161.444 899.443 161.444 Q902.452 161.444 904.073 160.426 Q905.693 159.384 905.693 157.509 Q905.693 155.773 904.512 154.847 Q903.355 153.921 899.397 153.064 L897.915 152.717 Q893.957 151.884 892.198 150.171 Q890.438 148.435 890.438 145.426 Q890.438 141.768 893.031 139.778 Q895.624 137.787 900.392 137.787 Q902.753 137.787 904.836 138.134 Q906.92 138.481 908.679 139.176 Z" fill="#000000" fill-rule="nonzero" fill-opacity="1" /><polyline clip-path="url(#clip540)" style="stroke:#e26f46; stroke-linecap:round; stroke-linejoin:round; stroke-width:4; stroke-opacity:1; fill:none" points="290.348,198.898 434.237,198.898 "/>
<path clip-path="url(#clip540)" d="M458.218 181.618 L465.186 181.618 L474.005 205.136 L482.871 181.618 L489.839 181.618 L489.839 216.178 L485.278 216.178 L485.278 185.83 L476.367 209.534 L471.667 209.534 L462.755 185.83 L462.755 216.178 L458.218 216.178 L458.218 181.618 Z" fill="#000000" fill-rule="nonzero" fill-opacity="1" /><path clip-path="url(#clip540)" d="M519.838 182.752 L519.838 187.312 Q517.176 186.039 514.815 185.414 Q512.454 184.789 510.255 184.789 Q506.436 184.789 504.352 186.27 Q502.292 187.752 502.292 190.483 Q502.292 192.775 503.658 193.955 Q505.047 195.113 508.889 195.83 L511.714 196.409 Q516.945 197.405 519.422 199.928 Q521.922 202.428 521.922 206.641 Q521.922 211.664 518.542 214.256 Q515.186 216.849 508.681 216.849 Q506.227 216.849 503.45 216.293 Q500.695 215.738 497.732 214.65 L497.732 209.835 Q500.579 211.432 503.311 212.242 Q506.042 213.053 508.681 213.053 Q512.686 213.053 514.862 211.479 Q517.038 209.904 517.038 206.988 Q517.038 204.442 515.464 203.006 Q513.913 201.571 510.348 200.854 L507.501 200.298 Q502.269 199.256 499.931 197.034 Q497.593 194.812 497.593 190.854 Q497.593 186.27 500.811 183.631 Q504.052 180.993 509.723 180.993 Q512.153 180.993 514.676 181.432 Q517.2 181.872 519.838 182.752 Z" fill="#000000" fill-rule="nonzero" fill-opacity="1" /><path clip-path="url(#clip540)" d="M529.213 181.618 L536.181 181.618 L545 205.136 L553.866 181.618 L560.834 181.618 L560.834 216.178 L556.273 216.178 L556.273 185.83 L547.362 209.534 L542.662 209.534 L533.75 185.83 L533.75 216.178 L529.213 216.178 L529.213 181.618 Z" fill="#000000" fill-rule="nonzero" fill-opacity="1" /><path clip-path="url(#clip540)" d="M598.125 180.159 L598.125 183.701 L594.051 183.701 Q591.759 183.701 590.857 184.627 Q589.977 185.553 589.977 187.96 L589.977 190.252 L596.991 190.252 L596.991 193.562 L589.977 193.562 L589.977 216.178 L585.695 216.178 L585.695 193.562 L581.621 193.562 L581.621 190.252 L585.695 190.252 L585.695 188.446 Q585.695 184.118 587.709 182.15 Q589.722 180.159 594.097 180.159 L598.125 180.159 Z" fill="#000000" fill-rule="nonzero" fill-opacity="1" /><path clip-path="url(#clip540)" d="M601.69 190.252 L605.949 190.252 L605.949 216.178 L601.69 216.178 L601.69 190.252 M601.69 180.159 L605.949 180.159 L605.949 185.553 L601.69 185.553 L601.69 180.159 Z" fill="#000000" fill-rule="nonzero" fill-opacity="1" /><path clip-path="url(#clip540)" d="M619.074 182.891 L619.074 190.252 L627.847 190.252 L627.847 193.562 L619.074 193.562 L619.074 207.636 Q619.074 210.807 619.931 211.71 Q620.81 212.613 623.472 212.613 L627.847 212.613 L627.847 216.178 L623.472 216.178 Q618.542 216.178 616.667 214.349 Q614.792 212.497 614.792 207.636 L614.792 193.562 L611.667 193.562 L611.667 190.252 L614.792 190.252 L614.792 182.891 L619.074 182.891 Z" fill="#000000" fill-rule="nonzero" fill-opacity="1" /><polyline clip-path="url(#clip540)" style="stroke:#3da44d; stroke-linecap:round; stroke-linejoin:round; stroke-width:4; stroke-opacity:1; fill:none" points="290.348,250.738 434.237,250.738 "/>
<path clip-path="url(#clip540)" d="M458.218 233.458 L465.186 233.458 L474.005 256.976 L482.871 233.458 L489.839 233.458 L489.839 268.018 L485.278 268.018 L485.278 237.67 L476.367 261.374 L471.667 261.374 L462.755 237.67 L462.755 268.018 L458.218 268.018 L458.218 233.458 Z" fill="#000000" fill-rule="nonzero" fill-opacity="1" /><path clip-path="url(#clip540)" d="M519.838 234.592 L519.838 239.152 Q517.176 237.879 514.815 237.254 Q512.454 236.629 510.255 236.629 Q506.436 236.629 504.352 238.11 Q502.292 239.592 502.292 242.323 Q502.292 244.615 503.658 245.795 Q505.047 246.953 508.889 247.67 L511.714 248.249 Q516.945 249.245 519.422 251.768 Q521.922 254.268 521.922 258.481 Q521.922 263.504 518.542 266.096 Q515.186 268.689 508.681 268.689 Q506.227 268.689 503.45 268.133 Q500.695 267.578 497.732 266.49 L497.732 261.675 Q500.579 263.272 503.311 264.082 Q506.042 264.893 508.681 264.893 Q512.686 264.893 514.862 263.319 Q517.038 261.744 517.038 258.828 Q517.038 256.282 515.464 254.846 Q513.913 253.411 510.348 252.694 L507.501 252.138 Q502.269 251.096 499.931 248.874 Q497.593 246.652 497.593 242.694 Q497.593 238.11 500.811 235.471 Q504.052 232.833 509.723 232.833 Q512.153 232.833 514.676 233.272 Q517.2 233.712 519.838 234.592 Z" fill="#000000" fill-rule="nonzero" fill-opacity="1" /><path clip-path="url(#clip540)" d="M529.213 233.458 L536.181 233.458 L545 256.976 L553.866 233.458 L560.834 233.458 L560.834 268.018 L556.273 268.018 L556.273 237.67 L547.362 261.374 L542.662 261.374 L533.75 237.67 L533.75 268.018 L529.213 268.018 L529.213 233.458 Z" fill="#000000" fill-rule="nonzero" fill-opacity="1" /><path clip-path="url(#clip540)" d="M598.125 231.999 L598.125 235.541 L594.051 235.541 Q591.759 235.541 590.857 236.467 Q589.977 237.393 589.977 239.8 L589.977 242.092 L596.991 242.092 L596.991 245.402 L589.977 245.402 L589.977 268.018 L585.695 268.018 L585.695 245.402 L581.621 245.402 L581.621 242.092 L585.695 242.092 L585.695 240.286 Q585.695 235.958 587.709 233.99 Q589.722 231.999 594.097 231.999 L598.125 231.999 Z" fill="#000000" fill-rule="nonzero" fill-opacity="1" /><path clip-path="url(#clip540)" d="M601.69 242.092 L605.949 242.092 L605.949 268.018 L601.69 268.018 L601.69 242.092 M601.69 231.999 L605.949 231.999 L605.949 237.393 L601.69 237.393 L601.69 231.999 Z" fill="#000000" fill-rule="nonzero" fill-opacity="1" /><path clip-path="url(#clip540)" d="M619.074 234.731 L619.074 242.092 L627.847 242.092 L627.847 245.402 L619.074 245.402 L619.074 259.476 Q619.074 262.647 619.931 263.55 Q620.81 264.453 623.472 264.453 L627.847 264.453 L627.847 268.018 L623.472 268.018 Q618.542 268.018 616.667 266.189 Q614.792 264.337 614.792 259.476 L614.792 245.402 L611.667 245.402 L611.667 242.092 L614.792 242.092 L614.792 234.731 L619.074 234.731 Z" fill="#000000" fill-rule="nonzero" fill-opacity="1" /></svg>
