<?xml version="1.0" encoding="utf-8"?>
<svg xmlns="http://www.w3.org/2000/svg" xmlns:xlink="http://www.w3.org/1999/xlink" width="600" height="400" viewBox="0 0 2400 1600">
<defs>
  <clipPath id="clip150">
    <rect x="0" y="0" width="2400" height="1600"/>
  </clipPath>
</defs>
<path clip-path="url(#clip150)" d="M0 1600 L2400 1600 L2400 0 L0 0  Z" fill="#ffffff" fill-rule="evenodd" fill-opacity="1"/>
<defs>
  <clipPath id="clip151">
    <rect x="194" y="47" width="2160" height="1440"/>
  </clipPath>
</defs>
<path clip-path="url(#clip150)" d="M194.098 1486.45 L2352.76 1486.45 L2352.76 47.2441 L194.098 47.2441  Z" fill="#ffffff" fill-rule="evenodd" fill-opacity="1"/>
<polyline clip-path="url(#clip150)" style="stroke:#000000; stroke-linecap:round; stroke-linejoin:round; stroke-width:4; stroke-opacity:1; fill:none" points="194.098,1486.45 2352.76,1486.45 "/>
<path clip-path="url(#clip150)" d="M255.192 1517.37 Q251.581 1517.37 249.752 1520.93 Q247.947 1524.47 247.947 1531.6 Q247.947 1538.71 249.752 1542.27 Q251.581 1545.82 255.192 1545.82 Q258.826 1545.82 260.632 1542.27 Q262.461 1538.71 262.461 1531.6 Q262.461 1524.47 260.632 1520.93 Q258.826 1517.37 255.192 1517.37 M255.192 1513.66 Q261.002 1513.66 264.058 1518.27 Q267.137 1522.85 267.137 1531.6 Q267.137 1540.33 264.058 1544.94 Q261.002 1549.52 255.192 1549.52 Q249.382 1549.52 246.303 1544.94 Q243.248 1540.33 243.248 1531.6 Q243.248 1522.85 246.303 1518.27 Q249.382 1513.66 255.192 1513.66 Z" fill="#000000" fill-rule="nonzero" fill-opacity="1" /><path clip-path="url(#clip150)" d="M924.397 1544.91 L932.036 1544.91 L932.036 1518.55 L923.726 1520.21 L923.726 1515.95 L931.99 1514.29 L936.666 1514.29 L936.666 1544.91 L944.305 1544.91 L944.305 1548.85 L924.397 1548.85 L924.397 1544.91 Z" fill="#000000" fill-rule="nonzero" fill-opacity="1" /><path clip-path="url(#clip150)" d="M1607.49 1544.91 L1623.81 1544.91 L1623.81 1548.85 L1601.87 1548.85 L1601.87 1544.91 Q1604.53 1542.16 1609.11 1537.53 Q1613.72 1532.88 1614.9 1531.53 Q1617.14 1529.01 1618.02 1527.27 Q1618.93 1525.51 1618.93 1523.82 Q1618.93 1521.07 1616.98 1519.33 Q1615.06 1517.6 1611.96 1517.6 Q1609.76 1517.6 1607.31 1518.36 Q1604.88 1519.13 1602.1 1520.68 L1602.1 1515.95 Q1604.92 1514.82 1607.38 1514.24 Q1609.83 1513.66 1611.87 1513.66 Q1617.24 1513.66 1620.43 1516.35 Q1623.63 1519.03 1623.63 1523.52 Q1623.63 1525.65 1622.82 1527.57 Q1622.03 1529.47 1619.92 1532.07 Q1619.34 1532.74 1616.24 1535.95 Q1613.14 1539.15 1607.49 1544.91 Z" fill="#000000" fill-rule="nonzero" fill-opacity="1" /><path clip-path="url(#clip150)" d="M2295.91 1530.21 Q2299.27 1530.93 2301.14 1533.2 Q2303.04 1535.47 2303.04 1538.8 Q2303.04 1543.92 2299.52 1546.72 Q2296 1549.52 2289.52 1549.52 Q2287.34 1549.52 2285.03 1549.08 Q2282.74 1548.66 2280.28 1547.81 L2280.28 1543.29 Q2282.23 1544.43 2284.54 1545.01 Q2286.86 1545.58 2289.38 1545.58 Q2293.78 1545.58 2296.07 1543.85 Q2298.39 1542.11 2298.39 1538.8 Q2298.39 1535.75 2296.23 1534.03 Q2294.1 1532.3 2290.28 1532.3 L2286.26 1532.3 L2286.26 1528.45 L2290.47 1528.45 Q2293.92 1528.45 2295.75 1527.09 Q2297.58 1525.7 2297.58 1523.11 Q2297.58 1520.45 2295.68 1519.03 Q2293.8 1517.6 2290.28 1517.6 Q2288.36 1517.6 2286.16 1518.01 Q2283.97 1518.43 2281.33 1519.31 L2281.33 1515.14 Q2283.99 1514.4 2286.3 1514.03 Q2288.64 1513.66 2290.7 1513.66 Q2296.03 1513.66 2299.13 1516.09 Q2302.23 1518.5 2302.23 1522.62 Q2302.23 1525.49 2300.59 1527.48 Q2298.94 1529.45 2295.91 1530.21 Z" fill="#000000" fill-rule="nonzero" fill-opacity="1" /><polyline clip-path="url(#clip150)" style="stroke:#000000; stroke-linecap:round; stroke-linejoin:round; stroke-width:4; stroke-opacity:1; fill:none" points="194.098,1486.45 194.098,47.2441 "/>
<polyline clip-path="url(#clip150)" style="stroke:#000000; stroke-linecap:round; stroke-linejoin:round; stroke-width:4; stroke-opacity:1; fill:none" points="194.098,1248.59 175.2,1248.59 "/>
<polyline clip-path="url(#clip150)" style="stroke:#000000; stroke-linecap:round; stroke-linejoin:round; stroke-width:4; stroke-opacity:1; fill:none" points="194.098,992.14 175.2,992.14 "/>
<polyline clip-path="url(#clip150)" style="stroke:#000000; stroke-linecap:round; stroke-linejoin:round; stroke-width:4; stroke-opacity:1; fill:none" points="194.098,735.686 175.2,735.686 "/>
<polyline clip-path="url(#clip150)" style="stroke:#000000; stroke-linecap:round; stroke-linejoin:round; stroke-width:4; stroke-opacity:1; fill:none" points="194.098,479.232 175.2,479.232 "/>
<polyline clip-path="url(#clip150)" style="stroke:#000000; stroke-linecap:round; stroke-linejoin:round; stroke-width:4; stroke-opacity:1; fill:none" points="194.098,222.778 175.2,222.778 "/>
<path clip-path="url(#clip150)" d="M32.9921 1249.04 L62.6679 1249.04 L62.6679 1252.98 L32.9921 1252.98 L32.9921 1249.04 Z" fill="#000000" fill-rule="nonzero" fill-opacity="1" /><path clip-path="url(#clip150)" d="M82.7604 1234.39 Q79.1493 1234.39 77.3206 1237.96 Q75.515 1241.5 75.515 1248.63 Q75.515 1255.73 77.3206 1259.3 Q79.1493 1262.84 82.7604 1262.84 Q86.3946 1262.84 88.2002 1259.3 Q90.0289 1255.73 90.0289 1248.63 Q90.0289 1241.5 88.2002 1237.96 Q86.3946 1234.39 82.7604 1234.39 M82.7604 1230.69 Q88.5705 1230.69 91.6261 1235.29 Q94.7048 1239.88 94.7048 1248.63 Q94.7048 1257.36 91.6261 1261.96 Q88.5705 1266.54 82.7604 1266.54 Q76.9502 1266.54 73.8715 1261.96 Q70.816 1257.36 70.816 1248.63 Q70.816 1239.88 73.8715 1235.29 Q76.9502 1230.69 82.7604 1230.69 Z" fill="#000000" fill-rule="nonzero" fill-opacity="1" /><path clip-path="url(#clip150)" d="M102.922 1259.99 L107.807 1259.99 L107.807 1265.87 L102.922 1265.87 L102.922 1259.99 Z" fill="#000000" fill-rule="nonzero" fill-opacity="1" /><path clip-path="url(#clip150)" d="M128.57 1246.73 Q125.422 1246.73 123.57 1248.88 Q121.742 1251.04 121.742 1254.79 Q121.742 1258.51 123.57 1260.69 Q125.422 1262.84 128.57 1262.84 Q131.718 1262.84 133.547 1260.69 Q135.399 1258.51 135.399 1254.79 Q135.399 1251.04 133.547 1248.88 Q131.718 1246.73 128.57 1246.73 M137.853 1232.08 L137.853 1236.34 Q136.093 1235.5 134.288 1235.06 Q132.505 1234.62 130.746 1234.62 Q126.117 1234.62 123.663 1237.75 Q121.232 1240.87 120.885 1247.19 Q122.251 1245.18 124.311 1244.11 Q126.371 1243.03 128.848 1243.03 Q134.056 1243.03 137.066 1246.2 Q140.098 1249.35 140.098 1254.79 Q140.098 1260.11 136.95 1263.33 Q133.802 1266.54 128.57 1266.54 Q122.575 1266.54 119.404 1261.96 Q116.232 1257.36 116.232 1248.63 Q116.232 1240.43 120.121 1235.57 Q124.01 1230.69 130.561 1230.69 Q132.32 1230.69 134.103 1231.04 Q135.908 1231.38 137.853 1232.08 Z" fill="#000000" fill-rule="nonzero" fill-opacity="1" /><path clip-path="url(#clip150)" d="M33.8023 992.591 L63.4781 992.591 L63.4781 996.526 L33.8023 996.526 L33.8023 992.591 Z" fill="#000000" fill-rule="nonzero" fill-opacity="1" /><path clip-path="url(#clip150)" d="M83.5706 977.938 Q79.9595 977.938 78.1308 981.503 Q76.3252 985.045 76.3252 992.174 Q76.3252 999.281 78.1308 1002.85 Q79.9595 1006.39 83.5706 1006.39 Q87.2048 1006.39 89.0103 1002.85 Q90.839 999.281 90.839 992.174 Q90.839 985.045 89.0103 981.503 Q87.2048 977.938 83.5706 977.938 M83.5706 974.235 Q89.3807 974.235 92.4363 978.841 Q95.5149 983.424 95.5149 992.174 Q95.5149 1000.9 92.4363 1005.51 Q89.3807 1010.09 83.5706 1010.09 Q77.7604 1010.09 74.6817 1005.51 Q71.6262 1000.9 71.6262 992.174 Q71.6262 983.424 74.6817 978.841 Q77.7604 974.235 83.5706 974.235 Z" fill="#000000" fill-rule="nonzero" fill-opacity="1" /><path clip-path="url(#clip150)" d="M103.732 1003.54 L108.617 1003.54 L108.617 1009.42 L103.732 1009.42 L103.732 1003.54 Z" fill="#000000" fill-rule="nonzero" fill-opacity="1" /><path clip-path="url(#clip150)" d="M132.968 990.785 Q136.325 991.503 138.2 993.772 Q140.098 996.04 140.098 999.373 Q140.098 1004.49 136.58 1007.29 Q133.061 1010.09 126.58 1010.09 Q124.404 1010.09 122.089 1009.65 Q119.797 1009.23 117.344 1008.38 L117.344 1003.86 Q119.288 1005 121.603 1005.58 Q123.918 1006.16 126.441 1006.16 Q130.839 1006.16 133.13 1004.42 Q135.445 1002.68 135.445 999.373 Q135.445 996.318 133.293 994.605 Q131.163 992.869 127.343 992.869 L123.316 992.869 L123.316 989.026 L127.529 989.026 Q130.978 989.026 132.806 987.661 Q134.635 986.272 134.635 983.679 Q134.635 981.017 132.737 979.605 Q130.862 978.17 127.343 978.17 Q125.422 978.17 123.223 978.586 Q121.024 979.003 118.385 979.883 L118.385 975.716 Q121.047 974.975 123.362 974.605 Q125.7 974.235 127.76 974.235 Q133.084 974.235 136.186 976.665 Q139.288 979.073 139.288 983.193 Q139.288 986.063 137.644 988.054 Q136.001 990.022 132.968 990.785 Z" fill="#000000" fill-rule="nonzero" fill-opacity="1" /><path clip-path="url(#clip150)" d="M82.9224 721.484 Q79.3113 721.484 77.4826 725.049 Q75.6771 728.591 75.6771 735.721 Q75.6771 742.827 77.4826 746.392 Q79.3113 749.933 82.9224 749.933 Q86.5567 749.933 88.3622 746.392 Q90.1909 742.827 90.1909 735.721 Q90.1909 728.591 88.3622 725.049 Q86.5567 721.484 82.9224 721.484 M82.9224 717.781 Q88.7326 717.781 91.7881 722.387 Q94.8668 726.971 94.8668 735.721 Q94.8668 744.447 91.7881 749.054 Q88.7326 753.637 82.9224 753.637 Q77.1123 753.637 74.0336 749.054 Q70.978 744.447 70.978 735.721 Q70.978 726.971 74.0336 722.387 Q77.1123 717.781 82.9224 717.781 Z" fill="#000000" fill-rule="nonzero" fill-opacity="1" /><path clip-path="url(#clip150)" d="M103.084 747.086 L107.969 747.086 L107.969 752.966 L103.084 752.966 L103.084 747.086 Z" fill="#000000" fill-rule="nonzero" fill-opacity="1" /><path clip-path="url(#clip150)" d="M128.154 721.484 Q124.543 721.484 122.714 725.049 Q120.908 728.591 120.908 735.721 Q120.908 742.827 122.714 746.392 Q124.543 749.933 128.154 749.933 Q131.788 749.933 133.593 746.392 Q135.422 742.827 135.422 735.721 Q135.422 728.591 133.593 725.049 Q131.788 721.484 128.154 721.484 M128.154 717.781 Q133.964 717.781 137.019 722.387 Q140.098 726.971 140.098 735.721 Q140.098 744.447 137.019 749.054 Q133.964 753.637 128.154 753.637 Q122.343 753.637 119.265 749.054 Q116.209 744.447 116.209 735.721 Q116.209 726.971 119.265 722.387 Q122.343 717.781 128.154 717.781 Z" fill="#000000" fill-rule="nonzero" fill-opacity="1" /><path clip-path="url(#clip150)" d="M83.5706 465.031 Q79.9595 465.031 78.1308 468.595 Q76.3252 472.137 76.3252 479.267 Q76.3252 486.373 78.1308 489.938 Q79.9595 493.48 83.5706 493.48 Q87.2048 493.48 89.0103 489.938 Q90.839 486.373 90.839 479.267 Q90.839 472.137 89.0103 468.595 Q87.2048 465.031 83.5706 465.031 M83.5706 461.327 Q89.3807 461.327 92.4363 465.933 Q95.5149 470.517 95.5149 479.267 Q95.5149 487.994 92.4363 492.6 Q89.3807 497.183 83.5706 497.183 Q77.7604 497.183 74.6817 492.6 Q71.6262 487.994 71.6262 479.267 Q71.6262 470.517 74.6817 465.933 Q77.7604 461.327 83.5706 461.327 Z" fill="#000000" fill-rule="nonzero" fill-opacity="1" /><path clip-path="url(#clip150)" d="M103.732 490.632 L108.617 490.632 L108.617 496.512 L103.732 496.512 L103.732 490.632 Z" fill="#000000" fill-rule="nonzero" fill-opacity="1" /><path clip-path="url(#clip150)" d="M132.968 477.878 Q136.325 478.595 138.2 480.864 Q140.098 483.132 140.098 486.466 Q140.098 491.581 136.58 494.382 Q133.061 497.183 126.58 497.183 Q124.404 497.183 122.089 496.743 Q119.797 496.327 117.344 495.47 L117.344 490.956 Q119.288 492.091 121.603 492.669 Q123.918 493.248 126.441 493.248 Q130.839 493.248 133.13 491.512 Q135.445 489.776 135.445 486.466 Q135.445 483.41 133.293 481.697 Q131.163 479.961 127.343 479.961 L123.316 479.961 L123.316 476.119 L127.529 476.119 Q130.978 476.119 132.806 474.753 Q134.635 473.364 134.635 470.771 Q134.635 468.109 132.737 466.697 Q130.862 465.262 127.343 465.262 Q125.422 465.262 123.223 465.679 Q121.024 466.095 118.385 466.975 L118.385 462.808 Q121.047 462.068 123.362 461.697 Q125.7 461.327 127.76 461.327 Q133.084 461.327 136.186 463.758 Q139.288 466.165 139.288 470.285 Q139.288 473.156 137.644 475.146 Q136.001 477.114 132.968 477.878 Z" fill="#000000" fill-rule="nonzero" fill-opacity="1" /><path clip-path="url(#clip150)" d="M82.7604 208.577 Q79.1493 208.577 77.3206 212.142 Q75.515 215.683 75.515 222.813 Q75.515 229.919 77.3206 233.484 Q79.1493 237.026 82.7604 237.026 Q86.3946 237.026 88.2002 233.484 Q90.0289 229.919 90.0289 222.813 Q90.0289 215.683 88.2002 212.142 Q86.3946 208.577 82.7604 208.577 M82.7604 204.873 Q88.5705 204.873 91.6261 209.48 Q94.7048 214.063 94.7048 222.813 Q94.7048 231.54 91.6261 236.146 Q88.5705 240.729 82.7604 240.729 Q76.9502 240.729 73.8715 236.146 Q70.816 231.54 70.816 222.813 Q70.816 214.063 73.8715 209.48 Q76.9502 204.873 82.7604 204.873 Z" fill="#000000" fill-rule="nonzero" fill-opacity="1" /><path clip-path="url(#clip150)" d="M102.922 234.179 L107.807 234.179 L107.807 240.058 L102.922 240.058 L102.922 234.179 Z" fill="#000000" fill-rule="nonzero" fill-opacity="1" /><path clip-path="url(#clip150)" d="M128.57 220.915 Q125.422 220.915 123.57 223.067 Q121.742 225.22 121.742 228.97 Q121.742 232.697 123.57 234.873 Q125.422 237.026 128.57 237.026 Q131.718 237.026 133.547 234.873 Q135.399 232.697 135.399 228.97 Q135.399 225.22 133.547 223.067 Q131.718 220.915 128.57 220.915 M137.853 206.262 L137.853 210.521 Q136.093 209.688 134.288 209.248 Q132.505 208.808 130.746 208.808 Q126.117 208.808 123.663 211.933 Q121.232 215.058 120.885 221.378 Q122.251 219.364 124.311 218.299 Q126.371 217.211 128.848 217.211 Q134.056 217.211 137.066 220.382 Q140.098 223.53 140.098 228.97 Q140.098 234.294 136.95 237.512 Q133.802 240.729 128.57 240.729 Q122.575 240.729 119.404 236.146 Q116.232 231.54 116.232 222.813 Q116.232 214.618 120.121 209.757 Q124.01 204.873 130.561 204.873 Q132.32 204.873 134.103 205.22 Q135.908 205.568 137.853 206.262 Z" fill="#000000" fill-rule="nonzero" fill-opacity="1" /><polyline clip-path="url(#clip151)" style="stroke:#009af9; stroke-linecap:round; stroke-linejoin:round; stroke-width:4; stroke-opacity:1; fill:none" points="255.192,1057.16 275.557,1052.02 295.922,1045.86 316.286,1038.75 336.651,1030.76 357.016,1021.96 377.38,1012.43 397.745,1002.24 418.11,991.478 438.474,980.205 458.839,968.499 479.204,956.435 499.568,944.087 519.933,931.53 540.298,918.837 560.663,906.084 581.027,893.345 601.392,880.693 621.757,868.205 642.121,855.953 662.486,844.013 682.851,832.459 703.215,821.365 723.58,810.806 743.945,800.856 764.31,791.589 784.674,783.08 805.039,775.404 825.404,768.634 845.768,762.846 866.133,758.113 886.498,754.511 906.862,752.112 927.227,750.993 947.592,750.674 967.957,749.429 988.321,747.187 1008.69,744.014 1029.05,739.977 1049.42,735.142 1069.78,729.576 1090.14,723.344 1110.51,716.515 1130.87,709.153 1151.24,701.326 1171.6,693.101 1191.97,684.542 1212.33,675.718 1232.7,666.695 1253.06,657.538 1273.43,648.315 1293.79,639.092 1314.16,629.935 1334.52,620.912 1354.89,612.088 1375.25,603.529 1395.62,595.304 1415.98,587.477 1436.34,580.115 1456.71,573.286 1477.07,567.055 1497.44,561.488 1517.8,556.653 1538.17,552.616 1558.53,549.443 1578.9,547.201 1599.26,545.956 1619.63,545.687 1639.99,545.307 1660.36,544.491 1680.72,543.265 1701.09,541.656 1721.45,539.687 1741.81,537.384 1762.18,534.773 1782.54,531.879 1802.91,528.727 1823.27,525.342 1843.64,521.75 1864,517.977 1884.37,514.046 1904.73,509.985 1925.1,505.818 1945.46,501.57 1965.83,497.266 1986.19,492.933 2006.56,488.595 2026.92,484.277 2047.29,480.006 2067.65,475.806 2088.01,471.702 2108.38,467.72 2128.74,463.886 2149.11,460.224 2169.47,456.76 2189.84,453.518 2210.2,450.526 2230.57,447.807 2250.93,445.387 2271.3,443.291 2291.66,441.546 "/>
<polyline clip-path="url(#clip151)" style="stroke:#000000; stroke-linecap:round; stroke-linejoin:round; stroke-width:4; stroke-opacity:1; fill:none" points="255.192,1057.16 255.192,1057.16 "/>
<polyline clip-path="url(#clip151)" style="stroke:#000000; stroke-linecap:round; stroke-linejoin:round; stroke-width:4; stroke-opacity:1; fill:none" points="934.015,1032.3 934.015,469.537 "/>
<polyline clip-path="url(#clip151)" style="stroke:#000000; stroke-linecap:round; stroke-linejoin:round; stroke-width:4; stroke-opacity:1; fill:none" points="1612.84,892.771 1612.84,198.655 "/>
<polyline clip-path="url(#clip151)" style="stroke:#000000; stroke-linecap:round; stroke-linejoin:round; stroke-width:4; stroke-opacity:1; fill:none" points="2291.66,785.171 2291.66,97.9206 "/>
<line clip-path="url(#clip151)" x1="271.192" y1="1057.16" x2="239.192" y2="1057.16" style="stroke:#000000; stroke-width:4; stroke-opacity:1"/>
<line clip-path="url(#clip151)" x1="271.192" y1="1057.16" x2="239.192" y2="1057.16" style="stroke:#000000; stroke-width:4; stroke-opacity:1"/>
<line clip-path="url(#clip151)" x1="950.015" y1="1032.3" x2="918.015" y2="1032.3" style="stroke:#000000; stroke-width:4; stroke-opacity:1"/>
<line clip-path="url(#clip151)" x1="950.015" y1="469.537" x2="918.015" y2="469.537" style="stroke:#000000; stroke-width:4; stroke-opacity:1"/>
<line clip-path="url(#clip151)" x1="1628.84" y1="892.771" x2="1596.84" y2="892.771" style="stroke:#000000; stroke-width:4; stroke-opacity:1"/>
<line clip-path="url(#clip151)" x1="1628.84" y1="198.655" x2="1596.84" y2="198.655" style="stroke:#000000; stroke-width:4; stroke-opacity:1"/>
<line clip-path="url(#clip151)" x1="2307.66" y1="785.171" x2="2275.66" y2="785.171" style="stroke:#000000; stroke-width:4; stroke-opacity:1"/>
<line clip-path="url(#clip151)" x1="2307.66" y1="97.9206" x2="2275.66" y2="97.9206" style="stroke:#000000; stroke-width:4; stroke-opacity:1"/>
<circle clip-path="url(#clip151)" cx="255.192" cy="1057.16" r="14.4" fill="#e26f46" fill-rule="evenodd" fill-opacity="1" stroke="#000000" stroke-opacity="1" stroke-width="3.2"/>
<circle clip-path="url(#clip151)" cx="934.015" cy="750.917" r="14.4" fill="#e26f46" fill-rule="evenodd" fill-opacity="1" stroke="#000000" stroke-opacity="1" stroke-width="3.2"/>
<circle clip-path="url(#clip151)" cx="1612.84" cy="545.713" r="14.4" fill="#e26f46" fill-rule="evenodd" fill-opacity="1" stroke="#000000" stroke-opacity="1" stroke-width="3.2"/>
<circle clip-path="url(#clip151)" cx="2291.66" cy="441.546" r="14.4" fill="#e26f46" fill-rule="evenodd" fill-opacity="1" stroke="#000000" stroke-opacity="1" stroke-width="3.2"/>
<polyline clip-path="url(#clip151)" style="stroke:#3da44d; stroke-linecap:round; stroke-linejoin:round; stroke-width:4; stroke-opacity:1; fill:none" points="255.192,1057.16 934.015,750.917 1612.84,545.713 2291.66,441.546 "/>
<path clip-path="url(#clip151)" d="M255.192 1445.72 L934.015 1001.66 L1612.84 896.266 L2291.66 848.832 L2291.66 87.9763 L1612.84 285.794 L934.015 488.021 L255.192 608.833  Z" fill="#c271d2" fill-rule="evenodd" fill-opacity="0.5"/>
<polyline clip-path="url(#clip151)" style="stroke:#c271d2; stroke-linecap:round; stroke-linejoin:round; stroke-width:4; stroke-opacity:1; fill:none" points="255.192,1057.16 934.015,750.917 1612.84,545.713 2291.66,441.546 "/>
<path clip-path="url(#clip150)" d="M266.053 354.418 L1260.02 354.418 L1260.02 95.2176 L266.053 95.2176  Z" fill="#ffffff" fill-rule="evenodd" fill-opacity="1"/>
<polyline clip-path="url(#clip150)" style="stroke:#000000; stroke-linecap:round; stroke-linejoin:round; stroke-width:4; stroke-opacity:1; fill:none" points="266.053,354.418 1260.02,354.418 1260.02,95.2176 266.053,95.2176 266.053,354.418 "/>
<polyline clip-path="url(#clip150)" style="stroke:#009af9; stroke-linecap:round; stroke-linejoin:round; stroke-width:4; stroke-opacity:1; fill:none" points="290.038,147.058 433.949,147.058 "/>
<path clip-path="url(#clip150)" d="M457.934 129.778 L477.795 129.778 L477.795 133.713 L462.61 133.713 L462.61 143.898 L476.314 143.898 L476.314 147.833 L462.61 147.833 L462.61 164.338 L457.934 164.338 L457.934 129.778 Z" fill="#000000" fill-rule="nonzero" fill-opacity="1" /><path clip-path="url(#clip150)" d="M485.017 128.319 L489.276 128.319 L489.276 164.338 L485.017 164.338 L485.017 128.319 Z" fill="#000000" fill-rule="nonzero" fill-opacity="1" /><path clip-path="url(#clip150)" d="M520.364 150.31 L520.364 152.393 L500.781 152.393 Q501.059 156.791 503.42 159.106 Q505.804 161.398 510.04 161.398 Q512.494 161.398 514.786 160.796 Q517.1 160.194 519.369 158.99 L519.369 163.018 Q517.077 163.99 514.67 164.5 Q512.262 165.009 509.786 165.009 Q503.582 165.009 499.948 161.398 Q496.337 157.787 496.337 151.629 Q496.337 145.264 499.762 141.537 Q503.212 137.787 509.045 137.787 Q514.276 137.787 517.309 141.166 Q520.364 144.523 520.364 150.31 M516.105 149.06 Q516.059 145.565 514.137 143.481 Q512.239 141.398 509.091 141.398 Q505.526 141.398 503.374 143.412 Q501.244 145.426 500.92 149.083 L516.105 149.06 Z" fill="#000000" fill-rule="nonzero" fill-opacity="1" /><path clip-path="url(#clip150)" d="M548.072 138.412 L538.697 151.027 L548.559 164.338 L543.535 164.338 L535.989 154.152 L528.443 164.338 L523.42 164.338 L533.489 150.773 L524.276 138.412 L529.299 138.412 L536.174 147.648 L543.049 138.412 L548.072 138.412 Z" fill="#000000" fill-rule="nonzero" fill-opacity="1" /><path clip-path="url(#clip150)" d="M554.577 138.412 L558.836 138.412 L558.836 164.338 L554.577 164.338 L554.577 138.412 M554.577 128.319 L558.836 128.319 L558.836 133.713 L554.577 133.713 L554.577 128.319 Z" fill="#000000" fill-rule="nonzero" fill-opacity="1" /><path clip-path="url(#clip150)" d="M586.359 151.398 Q586.359 146.699 584.415 144.037 Q582.494 141.352 579.114 141.352 Q575.734 141.352 573.79 144.037 Q571.869 146.699 571.869 151.398 Q571.869 156.097 573.79 158.782 Q575.734 161.444 579.114 161.444 Q582.494 161.444 584.415 158.782 Q586.359 156.097 586.359 151.398 M571.869 142.347 Q573.211 140.032 575.248 138.921 Q577.308 137.787 580.156 137.787 Q584.878 137.787 587.818 141.537 Q590.781 145.287 590.781 151.398 Q590.781 157.509 587.818 161.259 Q584.878 165.009 580.156 165.009 Q577.308 165.009 575.248 163.898 Q573.211 162.763 571.869 160.449 L571.869 164.338 L567.586 164.338 L567.586 128.319 L571.869 128.319 L571.869 142.347 Z" fill="#000000" fill-rule="nonzero" fill-opacity="1" /><path clip-path="url(#clip150)" d="M597.841 128.319 L602.1 128.319 L602.1 164.338 L597.841 164.338 L597.841 128.319 Z" fill="#000000" fill-rule="nonzero" fill-opacity="1" /><path clip-path="url(#clip150)" d="M633.188 150.31 L633.188 152.393 L613.604 152.393 Q613.882 156.791 616.243 159.106 Q618.628 161.398 622.864 161.398 Q625.317 161.398 627.609 160.796 Q629.924 160.194 632.192 158.99 L632.192 163.018 Q629.901 163.99 627.493 164.5 Q625.086 165.009 622.609 165.009 Q616.405 165.009 612.771 161.398 Q609.16 157.787 609.16 151.629 Q609.16 145.264 612.586 141.537 Q616.035 137.787 621.868 137.787 Q627.1 137.787 630.132 141.166 Q633.188 144.523 633.188 150.31 M628.928 149.06 Q628.882 145.565 626.961 143.481 Q625.063 141.398 621.915 141.398 Q618.35 141.398 616.197 143.412 Q614.067 145.426 613.743 149.083 L628.928 149.06 Z" fill="#000000" fill-rule="nonzero" fill-opacity="1" /><path clip-path="url(#clip150)" d="M668.373 128.319 L668.373 131.861 L664.299 131.861 Q662.007 131.861 661.104 132.787 Q660.225 133.713 660.225 136.12 L660.225 138.412 L667.238 138.412 L667.238 141.722 L660.225 141.722 L660.225 164.338 L655.942 164.338 L655.942 141.722 L651.868 141.722 L651.868 138.412 L655.942 138.412 L655.942 136.606 Q655.942 132.278 657.956 130.31 Q659.97 128.319 664.345 128.319 L668.373 128.319 Z" fill="#000000" fill-rule="nonzero" fill-opacity="1" /><path clip-path="url(#clip150)" d="M671.498 154.106 L671.498 138.412 L675.757 138.412 L675.757 153.944 Q675.757 157.625 677.192 159.476 Q678.627 161.305 681.498 161.305 Q684.947 161.305 686.937 159.106 Q688.951 156.907 688.951 153.111 L688.951 138.412 L693.211 138.412 L693.211 164.338 L688.951 164.338 L688.951 160.356 Q687.4 162.717 685.34 163.875 Q683.303 165.009 680.595 165.009 Q676.127 165.009 673.812 162.231 Q671.498 159.453 671.498 154.106 M682.215 137.787 L682.215 137.787 Z" fill="#000000" fill-rule="nonzero" fill-opacity="1" /><path clip-path="url(#clip150)" d="M723.534 148.689 L723.534 164.338 L719.275 164.338 L719.275 148.828 Q719.275 145.148 717.84 143.319 Q716.405 141.49 713.534 141.49 Q710.085 141.49 708.095 143.69 Q706.104 145.889 706.104 149.685 L706.104 164.338 L701.822 164.338 L701.822 138.412 L706.104 138.412 L706.104 142.44 Q707.632 140.102 709.692 138.944 Q711.775 137.787 714.484 137.787 Q718.951 137.787 721.243 140.565 Q723.534 143.319 723.534 148.689 Z" fill="#000000" fill-rule="nonzero" fill-opacity="1" /><path clip-path="url(#clip150)" d="M750.687 139.407 L750.687 143.389 Q748.882 142.393 747.053 141.907 Q745.247 141.398 743.395 141.398 Q739.252 141.398 736.96 144.037 Q734.669 146.652 734.669 151.398 Q734.669 156.143 736.96 158.782 Q739.252 161.398 743.395 161.398 Q745.247 161.398 747.053 160.912 Q748.882 160.402 750.687 159.407 L750.687 163.342 Q748.905 164.176 746.983 164.592 Q745.085 165.009 742.932 165.009 Q737.076 165.009 733.627 161.328 Q730.178 157.648 730.178 151.398 Q730.178 145.055 733.65 141.421 Q737.145 137.787 743.21 137.787 Q745.178 137.787 747.053 138.203 Q748.928 138.597 750.687 139.407 Z" fill="#000000" fill-rule="nonzero" fill-opacity="1" /><path clip-path="url(#clip150)" d="M762.307 131.051 L762.307 138.412 L771.08 138.412 L771.08 141.722 L762.307 141.722 L762.307 155.796 Q762.307 158.967 763.164 159.87 Q764.043 160.773 766.705 160.773 L771.08 160.773 L771.08 164.338 L766.705 164.338 Q761.775 164.338 759.9 162.509 Q758.025 160.657 758.025 155.796 L758.025 141.722 L754.9 141.722 L754.9 138.412 L758.025 138.412 L758.025 131.051 L762.307 131.051 Z" fill="#000000" fill-rule="nonzero" fill-opacity="1" /><path clip-path="url(#clip150)" d="M776.682 138.412 L780.942 138.412 L780.942 164.338 L776.682 164.338 L776.682 138.412 M776.682 128.319 L780.942 128.319 L780.942 133.713 L776.682 133.713 L776.682 128.319 Z" fill="#000000" fill-rule="nonzero" fill-opacity="1" /><path clip-path="url(#clip150)" d="M799.9 141.398 Q796.474 141.398 794.483 144.083 Q792.492 146.745 792.492 151.398 Q792.492 156.051 794.46 158.736 Q796.451 161.398 799.9 161.398 Q803.303 161.398 805.293 158.713 Q807.284 156.027 807.284 151.398 Q807.284 146.791 805.293 144.106 Q803.303 141.398 799.9 141.398 M799.9 137.787 Q805.455 137.787 808.627 141.398 Q811.798 145.009 811.798 151.398 Q811.798 157.764 808.627 161.398 Q805.455 165.009 799.9 165.009 Q794.321 165.009 791.15 161.398 Q788.002 157.764 788.002 151.398 Q788.002 145.009 791.15 141.398 Q794.321 137.787 799.9 137.787 Z" fill="#000000" fill-rule="nonzero" fill-opacity="1" /><path clip-path="url(#clip150)" d="M840.409 148.689 L840.409 164.338 L836.15 164.338 L836.15 148.828 Q836.15 145.148 834.714 143.319 Q833.279 141.49 830.409 141.49 Q826.96 141.49 824.969 143.69 Q822.978 145.889 822.978 149.685 L822.978 164.338 L818.696 164.338 L818.696 138.412 L822.978 138.412 L822.978 142.44 Q824.506 140.102 826.566 138.944 Q828.65 137.787 831.358 137.787 Q835.825 137.787 838.117 140.565 Q840.409 143.319 840.409 148.689 Z" fill="#000000" fill-rule="nonzero" fill-opacity="1" /><path clip-path="url(#clip150)" d="M874.02 141.398 Q870.594 141.398 868.603 144.083 Q866.612 146.745 866.612 151.398 Q866.612 156.051 868.58 158.736 Q870.571 161.398 874.02 161.398 Q877.422 161.398 879.413 158.713 Q881.404 156.027 881.404 151.398 Q881.404 146.791 879.413 144.106 Q877.422 141.398 874.02 141.398 M874.02 137.787 Q879.575 137.787 882.747 141.398 Q885.918 145.009 885.918 151.398 Q885.918 157.764 882.747 161.398 Q879.575 165.009 874.02 165.009 Q868.441 165.009 865.27 161.398 Q862.122 157.764 862.122 151.398 Q862.122 145.009 865.27 141.398 Q868.441 137.787 874.02 137.787 Z" fill="#000000" fill-rule="nonzero" fill-opacity="1" /><path clip-path="url(#clip150)" d="M906.103 128.319 L906.103 131.861 L902.029 131.861 Q899.737 131.861 898.834 132.787 Q897.955 133.713 897.955 136.12 L897.955 138.412 L904.969 138.412 L904.969 141.722 L897.955 141.722 L897.955 164.338 L893.672 164.338 L893.672 141.722 L889.598 141.722 L889.598 138.412 L893.672 138.412 L893.672 136.606 Q893.672 132.278 895.686 130.31 Q897.7 128.319 902.075 128.319 L906.103 128.319 Z" fill="#000000" fill-rule="nonzero" fill-opacity="1" /><path clip-path="url(#clip150)" d="M924.297 154.106 L924.297 138.412 L928.556 138.412 L928.556 153.944 Q928.556 157.625 929.992 159.476 Q931.427 161.305 934.297 161.305 Q937.746 161.305 939.737 159.106 Q941.751 156.907 941.751 153.111 L941.751 138.412 L946.01 138.412 L946.01 164.338 L941.751 164.338 L941.751 160.356 Q940.2 162.717 938.14 163.875 Q936.103 165.009 933.394 165.009 Q928.927 165.009 926.612 162.231 Q924.297 159.453 924.297 154.106 M935.015 137.787 L935.015 137.787 Z" fill="#000000" fill-rule="nonzero" fill-opacity="1" /><path clip-path="url(#clip150)" d="M976.334 148.689 L976.334 164.338 L972.075 164.338 L972.075 148.828 Q972.075 145.148 970.64 143.319 Q969.204 141.49 966.334 141.49 Q962.885 141.49 960.894 143.69 Q958.904 145.889 958.904 149.685 L958.904 164.338 L954.621 164.338 L954.621 138.412 L958.904 138.412 L958.904 142.44 Q960.431 140.102 962.491 138.944 Q964.575 137.787 967.283 137.787 Q971.751 137.787 974.042 140.565 Q976.334 143.319 976.334 148.689 Z" fill="#000000" fill-rule="nonzero" fill-opacity="1" /><path clip-path="url(#clip150)" d="M1001.89 142.347 L1001.89 128.319 L1006.15 128.319 L1006.15 164.338 L1001.89 164.338 L1001.89 160.449 Q1000.55 162.763 998.487 163.898 Q996.45 165.009 993.579 165.009 Q988.88 165.009 985.917 161.259 Q982.977 157.509 982.977 151.398 Q982.977 145.287 985.917 141.537 Q988.88 137.787 993.579 137.787 Q996.45 137.787 998.487 138.921 Q1000.55 140.032 1001.89 142.347 M987.376 151.398 Q987.376 156.097 989.297 158.782 Q991.241 161.444 994.621 161.444 Q998.001 161.444 999.945 158.782 Q1001.89 156.097 1001.89 151.398 Q1001.89 146.699 999.945 144.037 Q998.001 141.352 994.621 141.352 Q991.241 141.352 989.297 144.037 Q987.376 146.699 987.376 151.398 Z" fill="#000000" fill-rule="nonzero" fill-opacity="1" /><path clip-path="url(#clip150)" d="M1037.1 150.31 L1037.1 152.393 L1017.51 152.393 Q1017.79 156.791 1020.15 159.106 Q1022.54 161.398 1026.77 161.398 Q1029.23 161.398 1031.52 160.796 Q1033.83 160.194 1036.1 158.99 L1036.1 163.018 Q1033.81 163.99 1031.4 164.5 Q1029 165.009 1026.52 165.009 Q1020.32 165.009 1016.68 161.398 Q1013.07 157.787 1013.07 151.629 Q1013.07 145.264 1016.5 141.537 Q1019.94 137.787 1025.78 137.787 Q1031.01 137.787 1034.04 141.166 Q1037.1 144.523 1037.1 150.31 M1032.84 149.06 Q1032.79 145.565 1030.87 143.481 Q1028.97 141.398 1025.82 141.398 Q1022.26 141.398 1020.11 143.412 Q1017.98 145.426 1017.65 149.083 L1032.84 149.06 Z" fill="#000000" fill-rule="nonzero" fill-opacity="1" /><path clip-path="url(#clip150)" d="M1059.11 142.393 Q1058.39 141.977 1057.54 141.791 Q1056.7 141.583 1055.69 141.583 Q1052.07 141.583 1050.13 143.944 Q1048.21 146.282 1048.21 150.68 L1048.21 164.338 L1043.93 164.338 L1043.93 138.412 L1048.21 138.412 L1048.21 142.44 Q1049.55 140.078 1051.7 138.944 Q1053.86 137.787 1056.94 137.787 Q1057.38 137.787 1057.91 137.856 Q1058.44 137.903 1059.09 138.018 L1059.11 142.393 Z" fill="#000000" fill-rule="nonzero" fill-opacity="1" /><path clip-path="url(#clip150)" d="M1063.58 128.319 L1067.84 128.319 L1067.84 164.338 L1063.58 164.338 L1063.58 128.319 Z" fill="#000000" fill-rule="nonzero" fill-opacity="1" /><path clip-path="url(#clip150)" d="M1087.54 166.745 Q1085.73 171.375 1084.02 172.787 Q1082.31 174.199 1079.44 174.199 L1076.03 174.199 L1076.03 170.634 L1078.53 170.634 Q1080.29 170.634 1081.26 169.8 Q1082.24 168.967 1083.42 165.865 L1084.18 163.921 L1073.69 138.412 L1078.21 138.412 L1086.31 158.689 L1094.41 138.412 L1098.93 138.412 L1087.54 166.745 Z" fill="#000000" fill-rule="nonzero" fill-opacity="1" /><path clip-path="url(#clip150)" d="M1104.81 138.412 L1109.06 138.412 L1109.06 164.338 L1104.81 164.338 L1104.81 138.412 M1104.81 128.319 L1109.06 128.319 L1109.06 133.713 L1104.81 133.713 L1104.81 128.319 Z" fill="#000000" fill-rule="nonzero" fill-opacity="1" /><path clip-path="url(#clip150)" d="M1139.53 148.689 L1139.53 164.338 L1135.27 164.338 L1135.27 148.828 Q1135.27 145.148 1133.83 143.319 Q1132.4 141.49 1129.53 141.49 Q1126.08 141.49 1124.09 143.69 Q1122.1 145.889 1122.1 149.685 L1122.1 164.338 L1117.81 164.338 L1117.81 138.412 L1122.1 138.412 L1122.1 142.44 Q1123.62 140.102 1125.69 138.944 Q1127.77 137.787 1130.48 137.787 Q1134.94 137.787 1137.24 140.565 Q1139.53 143.319 1139.53 148.689 Z" fill="#000000" fill-rule="nonzero" fill-opacity="1" /><path clip-path="url(#clip150)" d="M1165.08 151.074 Q1165.08 146.444 1163.16 143.898 Q1161.26 141.352 1157.81 141.352 Q1154.39 141.352 1152.47 143.898 Q1150.57 146.444 1150.57 151.074 Q1150.57 155.68 1152.47 158.226 Q1154.39 160.773 1157.81 160.773 Q1161.26 160.773 1163.16 158.226 Q1165.08 155.68 1165.08 151.074 M1169.34 161.12 Q1169.34 167.74 1166.4 170.958 Q1163.46 174.199 1157.4 174.199 Q1155.15 174.199 1153.16 173.851 Q1151.17 173.527 1149.3 172.833 L1149.3 168.689 Q1151.17 169.708 1153 170.194 Q1154.83 170.68 1156.73 170.68 Q1160.92 170.68 1163 168.481 Q1165.08 166.305 1165.08 161.884 L1165.08 159.777 Q1163.76 162.069 1161.7 163.203 Q1159.64 164.338 1156.77 164.338 Q1152 164.338 1149.09 160.703 Q1146.17 157.069 1146.17 151.074 Q1146.17 145.055 1149.09 141.421 Q1152 137.787 1156.77 137.787 Q1159.64 137.787 1161.7 138.921 Q1163.76 140.055 1165.08 142.347 L1165.08 138.412 L1169.34 138.412 L1169.34 161.12 Z" fill="#000000" fill-rule="nonzero" fill-opacity="1" /><path clip-path="url(#clip150)" d="M1206.31 128.319 L1206.31 131.861 L1202.24 131.861 Q1199.94 131.861 1199.04 132.787 Q1198.16 133.713 1198.16 136.12 L1198.16 138.412 L1205.18 138.412 L1205.18 141.722 L1198.16 141.722 L1198.16 164.338 L1193.88 164.338 L1193.88 141.722 L1189.81 141.722 L1189.81 138.412 L1193.88 138.412 L1193.88 136.606 Q1193.88 132.278 1195.89 130.31 Q1197.91 128.319 1202.28 128.319 L1206.31 128.319 Z" fill="#000000" fill-rule="nonzero" fill-opacity="1" /><path clip-path="url(#clip150)" d="M1209.87 138.412 L1214.13 138.412 L1214.13 164.338 L1209.87 164.338 L1209.87 138.412 M1209.87 128.319 L1214.13 128.319 L1214.13 133.713 L1209.87 133.713 L1209.87 128.319 Z" fill="#000000" fill-rule="nonzero" fill-opacity="1" /><path clip-path="url(#clip150)" d="M1227.26 131.051 L1227.26 138.412 L1236.03 138.412 L1236.03 141.722 L1227.26 141.722 L1227.26 155.796 Q1227.26 158.967 1228.12 159.87 Q1228.99 160.773 1231.66 160.773 L1236.03 160.773 L1236.03 164.338 L1231.66 164.338 Q1226.73 164.338 1224.85 162.509 Q1222.98 160.657 1222.98 155.796 L1222.98 141.722 L1219.85 141.722 L1219.85 138.412 L1222.98 138.412 L1222.98 131.051 L1227.26 131.051 Z" fill="#000000" fill-rule="nonzero" fill-opacity="1" /><circle clip-path="url(#clip150)" cx="361.994" cy="198.898" r="20.48" fill="#e26f46" fill-rule="evenodd" fill-opacity="1" stroke="#000000" stroke-opacity="1" stroke-width="4.55111"/>
<path clip-path="url(#clip150)" d="M462.61 185.46 L462.61 198.446 L468.489 198.446 Q471.753 198.446 473.536 196.756 Q475.318 195.067 475.318 191.942 Q475.318 188.84 473.536 187.15 Q471.753 185.46 468.489 185.46 L462.61 185.46 M457.934 181.618 L468.489 181.618 Q474.3 181.618 477.263 184.256 Q480.249 186.872 480.249 191.942 Q480.249 197.057 477.263 199.673 Q474.3 202.289 468.489 202.289 L462.61 202.289 L462.61 216.178 L457.934 216.178 L457.934 181.618 Z" fill="#000000" fill-rule="nonzero" fill-opacity="1" /><path clip-path="url(#clip150)" d="M494.693 193.238 Q491.267 193.238 489.276 195.923 Q487.286 198.585 487.286 203.238 Q487.286 207.891 489.253 210.576 Q491.244 213.238 494.693 213.238 Q498.096 213.238 500.087 210.553 Q502.077 207.867 502.077 203.238 Q502.077 198.631 500.087 195.946 Q498.096 193.238 494.693 193.238 M494.693 189.627 Q500.249 189.627 503.42 193.238 Q506.591 196.849 506.591 203.238 Q506.591 209.604 503.42 213.238 Q500.249 216.849 494.693 216.849 Q489.114 216.849 485.943 213.238 Q482.795 209.604 482.795 203.238 Q482.795 196.849 485.943 193.238 Q489.114 189.627 494.693 189.627 Z" fill="#000000" fill-rule="nonzero" fill-opacity="1" /><path clip-path="url(#clip150)" d="M513.651 190.252 L517.911 190.252 L517.911 216.178 L513.651 216.178 L513.651 190.252 M513.651 180.159 L517.911 180.159 L517.911 185.553 L513.651 185.553 L513.651 180.159 Z" fill="#000000" fill-rule="nonzero" fill-opacity="1" /><path clip-path="url(#clip150)" d="M548.373 200.529 L548.373 216.178 L544.114 216.178 L544.114 200.668 Q544.114 196.988 542.679 195.159 Q541.244 193.33 538.373 193.33 Q534.924 193.33 532.934 195.53 Q530.943 197.729 530.943 201.525 L530.943 216.178 L526.66 216.178 L526.66 190.252 L530.943 190.252 L530.943 194.28 Q532.471 191.942 534.531 190.784 Q536.614 189.627 539.322 189.627 Q543.79 189.627 546.082 192.405 Q548.373 195.159 548.373 200.529 Z" fill="#000000" fill-rule="nonzero" fill-opacity="1" /><path clip-path="url(#clip150)" d="M561.082 182.891 L561.082 190.252 L569.855 190.252 L569.855 193.562 L561.082 193.562 L561.082 207.636 Q561.082 210.807 561.938 211.71 Q562.818 212.613 565.48 212.613 L569.855 212.613 L569.855 216.178 L565.48 216.178 Q560.549 216.178 558.674 214.349 Q556.799 212.497 556.799 207.636 L556.799 193.562 L553.674 193.562 L553.674 190.252 L556.799 190.252 L556.799 182.891 L561.082 182.891 Z" fill="#000000" fill-rule="nonzero" fill-opacity="1" /><path clip-path="url(#clip150)" d="M572.98 190.252 L577.239 190.252 L582.563 210.483 L587.864 190.252 L592.887 190.252 L598.211 210.483 L603.512 190.252 L607.771 190.252 L600.989 216.178 L595.966 216.178 L590.387 194.928 L584.785 216.178 L579.762 216.178 L572.98 190.252 Z" fill="#000000" fill-rule="nonzero" fill-opacity="1" /><path clip-path="url(#clip150)" d="M614.229 190.252 L618.489 190.252 L618.489 216.178 L614.229 216.178 L614.229 190.252 M614.229 180.159 L618.489 180.159 L618.489 185.553 L614.229 185.553 L614.229 180.159 Z" fill="#000000" fill-rule="nonzero" fill-opacity="1" /><path clip-path="url(#clip150)" d="M643.928 191.016 L643.928 195.043 Q642.123 194.117 640.178 193.655 Q638.234 193.192 636.151 193.192 Q632.979 193.192 631.382 194.164 Q629.808 195.136 629.808 197.08 Q629.808 198.562 630.942 199.418 Q632.077 200.252 635.502 201.016 L636.961 201.34 Q641.498 202.312 643.396 204.094 Q645.317 205.854 645.317 209.025 Q645.317 212.636 642.447 214.742 Q639.6 216.849 634.6 216.849 Q632.516 216.849 630.248 216.432 Q628.003 216.039 625.503 215.228 L625.503 210.83 Q627.864 212.057 630.155 212.682 Q632.447 213.284 634.692 213.284 Q637.702 213.284 639.322 212.266 Q640.942 211.224 640.942 209.349 Q640.942 207.613 639.762 206.687 Q638.604 205.761 634.646 204.904 L633.165 204.557 Q629.206 203.724 627.447 202.011 Q625.688 200.275 625.688 197.266 Q625.688 193.608 628.28 191.618 Q630.873 189.627 635.641 189.627 Q638.002 189.627 640.086 189.974 Q642.169 190.321 643.928 191.016 Z" fill="#000000" fill-rule="nonzero" fill-opacity="1" /><path clip-path="url(#clip150)" d="M674.275 202.15 L674.275 204.233 L654.692 204.233 Q654.97 208.631 657.331 210.946 Q659.715 213.238 663.951 213.238 Q666.405 213.238 668.697 212.636 Q671.012 212.034 673.28 210.83 L673.28 214.858 Q670.988 215.83 668.581 216.34 Q666.174 216.849 663.697 216.849 Q657.493 216.849 653.859 213.238 Q650.248 209.627 650.248 203.469 Q650.248 197.104 653.674 193.377 Q657.123 189.627 662.956 189.627 Q668.187 189.627 671.22 193.006 Q674.275 196.363 674.275 202.15 M670.016 200.9 Q669.97 197.405 668.049 195.321 Q666.15 193.238 663.002 193.238 Q659.438 193.238 657.285 195.252 Q655.155 197.266 654.831 200.923 L670.016 200.9 Z" fill="#000000" fill-rule="nonzero" fill-opacity="1" /><path clip-path="url(#clip150)" d="M714.993 191.247 L714.993 195.229 Q713.187 194.233 711.359 193.747 Q709.553 193.238 707.701 193.238 Q703.558 193.238 701.266 195.877 Q698.974 198.492 698.974 203.238 Q698.974 207.983 701.266 210.622 Q703.558 213.238 707.701 213.238 Q709.553 213.238 711.359 212.752 Q713.187 212.242 714.993 211.247 L714.993 215.182 Q713.21 216.016 711.289 216.432 Q709.391 216.849 707.238 216.849 Q701.382 216.849 697.933 213.168 Q694.484 209.488 694.484 203.238 Q694.484 196.895 697.956 193.261 Q701.451 189.627 707.516 189.627 Q709.484 189.627 711.359 190.043 Q713.234 190.437 714.993 191.247 Z" fill="#000000" fill-rule="nonzero" fill-opacity="1" /><path clip-path="url(#clip150)" d="M732.446 193.238 Q729.021 193.238 727.03 195.923 Q725.039 198.585 725.039 203.238 Q725.039 207.891 727.007 210.576 Q728.997 213.238 732.446 213.238 Q735.849 213.238 737.84 210.553 Q739.831 207.867 739.831 203.238 Q739.831 198.631 737.84 195.946 Q735.849 193.238 732.446 193.238 M732.446 189.627 Q738.002 189.627 741.173 193.238 Q744.344 196.849 744.344 203.238 Q744.344 209.604 741.173 213.238 Q738.002 216.849 732.446 216.849 Q726.868 216.849 723.696 213.238 Q720.548 209.604 720.548 203.238 Q720.548 196.849 723.696 193.238 Q726.868 189.627 732.446 189.627 Z" fill="#000000" fill-rule="nonzero" fill-opacity="1" /><path clip-path="url(#clip150)" d="M772.955 200.529 L772.955 216.178 L768.696 216.178 L768.696 200.668 Q768.696 196.988 767.261 195.159 Q765.826 193.33 762.956 193.33 Q759.506 193.33 757.516 195.53 Q755.525 197.729 755.525 201.525 L755.525 216.178 L751.243 216.178 L751.243 190.252 L755.525 190.252 L755.525 194.28 Q757.053 191.942 759.113 190.784 Q761.196 189.627 763.905 189.627 Q768.372 189.627 770.664 192.405 Q772.955 195.159 772.955 200.529 Z" fill="#000000" fill-rule="nonzero" fill-opacity="1" /><path clip-path="url(#clip150)" d="M785.664 182.891 L785.664 190.252 L794.437 190.252 L794.437 193.562 L785.664 193.562 L785.664 207.636 Q785.664 210.807 786.52 211.71 Q787.4 212.613 790.062 212.613 L794.437 212.613 L794.437 216.178 L790.062 216.178 Q785.131 216.178 783.256 214.349 Q781.381 212.497 781.381 207.636 L781.381 193.562 L778.256 193.562 L778.256 190.252 L781.381 190.252 L781.381 182.891 L785.664 182.891 Z" fill="#000000" fill-rule="nonzero" fill-opacity="1" /><path clip-path="url(#clip150)" d="M815.062 194.233 Q814.344 193.817 813.488 193.631 Q812.654 193.423 811.636 193.423 Q808.025 193.423 806.08 195.784 Q804.159 198.122 804.159 202.52 L804.159 216.178 L799.877 216.178 L799.877 190.252 L804.159 190.252 L804.159 194.28 Q805.502 191.918 807.654 190.784 Q809.807 189.627 812.886 189.627 Q813.326 189.627 813.858 189.696 Q814.39 189.743 815.039 189.858 L815.062 194.233 Z" fill="#000000" fill-rule="nonzero" fill-opacity="1" /><path clip-path="url(#clip150)" d="M831.312 203.145 Q826.15 203.145 824.159 204.326 Q822.168 205.506 822.168 208.354 Q822.168 210.622 823.65 211.965 Q825.154 213.284 827.724 213.284 Q831.265 213.284 833.395 210.784 Q835.548 208.261 835.548 204.094 L835.548 203.145 L831.312 203.145 M839.807 201.386 L839.807 216.178 L835.548 216.178 L835.548 212.242 Q834.089 214.603 831.913 215.738 Q829.738 216.849 826.589 216.849 Q822.608 216.849 820.247 214.627 Q817.909 212.381 817.909 208.631 Q817.909 204.256 820.826 202.034 Q823.765 199.812 829.576 199.812 L835.548 199.812 L835.548 199.395 Q835.548 196.455 833.603 194.858 Q831.682 193.238 828.187 193.238 Q825.964 193.238 823.858 193.77 Q821.751 194.303 819.807 195.367 L819.807 191.432 Q822.145 190.53 824.344 190.09 Q826.543 189.627 828.626 189.627 Q834.251 189.627 837.029 192.543 Q839.807 195.46 839.807 201.386 Z" fill="#000000" fill-rule="nonzero" fill-opacity="1" /><path clip-path="url(#clip150)" d="M865.108 191.016 L865.108 195.043 Q863.302 194.117 861.358 193.655 Q859.413 193.192 857.33 193.192 Q854.159 193.192 852.562 194.164 Q850.987 195.136 850.987 197.08 Q850.987 198.562 852.122 199.418 Q853.256 200.252 856.682 201.016 L858.14 201.34 Q862.677 202.312 864.575 204.094 Q866.497 205.854 866.497 209.025 Q866.497 212.636 863.626 214.742 Q860.779 216.849 855.779 216.849 Q853.696 216.849 851.427 216.432 Q849.182 216.039 846.682 215.228 L846.682 210.83 Q849.043 212.057 851.335 212.682 Q853.626 213.284 855.872 213.284 Q858.881 213.284 860.501 212.266 Q862.122 211.224 862.122 209.349 Q862.122 207.613 860.941 206.687 Q859.784 205.761 855.825 204.904 L854.344 204.557 Q850.386 203.724 848.626 202.011 Q846.867 200.275 846.867 197.266 Q846.867 193.608 849.46 191.618 Q852.052 189.627 856.821 189.627 Q859.182 189.627 861.265 189.974 Q863.348 190.321 865.108 191.016 Z" fill="#000000" fill-rule="nonzero" fill-opacity="1" /><path clip-path="url(#clip150)" d="M877.492 182.891 L877.492 190.252 L886.265 190.252 L886.265 193.562 L877.492 193.562 L877.492 207.636 Q877.492 210.807 878.348 211.71 Q879.228 212.613 881.89 212.613 L886.265 212.613 L886.265 216.178 L881.89 216.178 Q876.96 216.178 875.085 214.349 Q873.21 212.497 873.21 207.636 L873.21 193.562 L870.085 193.562 L870.085 190.252 L873.21 190.252 L873.21 182.891 L877.492 182.891 Z" fill="#000000" fill-rule="nonzero" fill-opacity="1" /><path clip-path="url(#clip150)" d="M908.395 191.016 L908.395 195.043 Q906.589 194.117 904.645 193.655 Q902.7 193.192 900.617 193.192 Q897.446 193.192 895.848 194.164 Q894.274 195.136 894.274 197.08 Q894.274 198.562 895.409 199.418 Q896.543 200.252 899.969 201.016 L901.427 201.34 Q905.964 202.312 907.862 204.094 Q909.783 205.854 909.783 209.025 Q909.783 212.636 906.913 214.742 Q904.066 216.849 899.066 216.849 Q896.983 216.849 894.714 216.432 Q892.469 216.039 889.969 215.228 L889.969 210.83 Q892.33 212.057 894.621 212.682 Q896.913 213.284 899.158 213.284 Q902.168 213.284 903.788 212.266 Q905.408 211.224 905.408 209.349 Q905.408 207.613 904.228 206.687 Q903.07 205.761 899.112 204.904 L897.631 204.557 Q893.672 203.724 891.913 202.011 Q890.154 200.275 890.154 197.266 Q890.154 193.608 892.746 191.618 Q895.339 189.627 900.108 189.627 Q902.469 189.627 904.552 189.974 Q906.635 190.321 908.395 191.016 Z" fill="#000000" fill-rule="nonzero" fill-opacity="1" /><polyline clip-path="url(#clip150)" style="stroke:#3da44d; stroke-linecap:round; stroke-linejoin:round; stroke-width:4; stroke-opacity:1; fill:none" points="290.038,250.738 433.949,250.738 "/>
<path clip-path="url(#clip150)" d="M457.934 233.458 L464.902 233.458 L473.721 256.976 L482.587 233.458 L489.554 233.458 L489.554 268.018 L484.994 268.018 L484.994 237.67 L476.082 261.374 L471.383 261.374 L462.471 237.67 L462.471 268.018 L457.934 268.018 L457.934 233.458 Z" fill="#000000" fill-rule="nonzero" fill-opacity="1" /><path clip-path="url(#clip150)" d="M519.554 234.592 L519.554 239.152 Q516.892 237.879 514.531 237.254 Q512.17 236.629 509.971 236.629 Q506.151 236.629 504.068 238.11 Q502.008 239.592 502.008 242.323 Q502.008 244.615 503.374 245.795 Q504.762 246.953 508.605 247.67 L511.429 248.249 Q516.661 249.245 519.137 251.768 Q521.637 254.268 521.637 258.481 Q521.637 263.504 518.258 266.096 Q514.901 268.689 508.397 268.689 Q505.943 268.689 503.165 268.133 Q500.411 267.578 497.448 266.49 L497.448 261.675 Q500.295 263.272 503.026 264.082 Q505.758 264.893 508.397 264.893 Q512.401 264.893 514.577 263.319 Q516.753 261.744 516.753 258.828 Q516.753 256.282 515.179 254.846 Q513.628 253.411 510.063 252.694 L507.216 252.138 Q501.985 251.096 499.647 248.874 Q497.309 246.652 497.309 242.694 Q497.309 238.11 500.526 235.471 Q503.767 232.833 509.438 232.833 Q511.869 232.833 514.392 233.272 Q516.915 233.712 519.554 234.592 Z" fill="#000000" fill-rule="nonzero" fill-opacity="1" /><path clip-path="url(#clip150)" d="M528.929 233.458 L535.897 233.458 L544.716 256.976 L553.582 233.458 L560.549 233.458 L560.549 268.018 L555.989 268.018 L555.989 237.67 L547.077 261.374 L542.378 261.374 L533.466 237.67 L533.466 268.018 L528.929 268.018 L528.929 233.458 Z" fill="#000000" fill-rule="nonzero" fill-opacity="1" /><path clip-path="url(#clip150)" d="M597.841 231.999 L597.841 235.541 L593.767 235.541 Q591.475 235.541 590.572 236.467 Q589.693 237.393 589.693 239.8 L589.693 242.092 L596.706 242.092 L596.706 245.402 L589.693 245.402 L589.693 268.018 L585.41 268.018 L585.41 245.402 L581.336 245.402 L581.336 242.092 L585.41 242.092 L585.41 240.286 Q585.41 235.958 587.424 233.99 Q589.438 231.999 593.813 231.999 L597.841 231.999 Z" fill="#000000" fill-rule="nonzero" fill-opacity="1" /><path clip-path="url(#clip150)" d="M601.405 242.092 L605.665 242.092 L605.665 268.018 L601.405 268.018 L601.405 242.092 M601.405 231.999 L605.665 231.999 L605.665 237.393 L601.405 237.393 L601.405 231.999 Z" fill="#000000" fill-rule="nonzero" fill-opacity="1" /><path clip-path="url(#clip150)" d="M618.79 234.731 L618.79 242.092 L627.563 242.092 L627.563 245.402 L618.79 245.402 L618.79 259.476 Q618.79 262.647 619.646 263.55 Q620.526 264.453 623.188 264.453 L627.563 264.453 L627.563 268.018 L623.188 268.018 Q618.257 268.018 616.382 266.189 Q614.507 264.337 614.507 259.476 L614.507 245.402 L611.382 245.402 L611.382 242.092 L614.507 242.092 L614.507 234.731 L618.79 234.731 Z" fill="#000000" fill-rule="nonzero" fill-opacity="1" /><polyline clip-path="url(#clip150)" style="stroke:#c271d2; stroke-linecap:round; stroke-linejoin:round; stroke-width:4; stroke-opacity:1; fill:none" points="290.038,302.578 433.949,302.578 "/>
<path clip-path="url(#clip150)" d="M457.934 285.298 L464.902 285.298 L473.721 308.816 L482.587 285.298 L489.554 285.298 L489.554 319.858 L484.994 319.858 L484.994 289.51 L476.082 313.214 L471.383 313.214 L462.471 289.51 L462.471 319.858 L457.934 319.858 L457.934 285.298 Z" fill="#000000" fill-rule="nonzero" fill-opacity="1" /><path clip-path="url(#clip150)" d="M519.554 286.432 L519.554 290.992 Q516.892 289.719 514.531 289.094 Q512.17 288.469 509.971 288.469 Q506.151 288.469 504.068 289.95 Q502.008 291.432 502.008 294.163 Q502.008 296.455 503.374 297.635 Q504.762 298.793 508.605 299.51 L511.429 300.089 Q516.661 301.085 519.137 303.608 Q521.637 306.108 521.637 310.321 Q521.637 315.344 518.258 317.936 Q514.901 320.529 508.397 320.529 Q505.943 320.529 503.165 319.973 Q500.411 319.418 497.448 318.33 L497.448 313.515 Q500.295 315.112 503.026 315.922 Q505.758 316.733 508.397 316.733 Q512.401 316.733 514.577 315.159 Q516.753 313.584 516.753 310.668 Q516.753 308.122 515.179 306.686 Q513.628 305.251 510.063 304.534 L507.216 303.978 Q501.985 302.936 499.647 300.714 Q497.309 298.492 497.309 294.534 Q497.309 289.95 500.526 287.311 Q503.767 284.673 509.438 284.673 Q511.869 284.673 514.392 285.112 Q516.915 285.552 519.554 286.432 Z" fill="#000000" fill-rule="nonzero" fill-opacity="1" /><path clip-path="url(#clip150)" d="M528.929 285.298 L535.897 285.298 L544.716 308.816 L553.582 285.298 L560.549 285.298 L560.549 319.858 L555.989 319.858 L555.989 289.51 L547.077 313.214 L542.378 313.214 L533.466 289.51 L533.466 319.858 L528.929 319.858 L528.929 285.298 Z" fill="#000000" fill-rule="nonzero" fill-opacity="1" /><path clip-path="url(#clip150)" d="M597.841 283.839 L597.841 287.381 L593.767 287.381 Q591.475 287.381 590.572 288.307 Q589.693 289.233 589.693 291.64 L589.693 293.932 L596.706 293.932 L596.706 297.242 L589.693 297.242 L589.693 319.858 L585.41 319.858 L585.41 297.242 L581.336 297.242 L581.336 293.932 L585.41 293.932 L585.41 292.126 Q585.41 287.798 587.424 285.83 Q589.438 283.839 593.813 283.839 L597.841 283.839 Z" fill="#000000" fill-rule="nonzero" fill-opacity="1" /><path clip-path="url(#clip150)" d="M601.405 293.932 L605.665 293.932 L605.665 319.858 L601.405 319.858 L601.405 293.932 M601.405 283.839 L605.665 283.839 L605.665 289.233 L601.405 289.233 L601.405 283.839 Z" fill="#000000" fill-rule="nonzero" fill-opacity="1" /><path clip-path="url(#clip150)" d="M618.79 286.571 L618.79 293.932 L627.563 293.932 L627.563 297.242 L618.79 297.242 L618.79 311.316 Q618.79 314.487 619.646 315.39 Q620.526 316.293 623.188 316.293 L627.563 316.293 L627.563 319.858 L623.188 319.858 Q618.257 319.858 616.382 318.029 Q614.507 316.177 614.507 311.316 L614.507 297.242 L611.382 297.242 L611.382 293.932 L614.507 293.932 L614.507 286.571 L618.79 286.571 Z" fill="#000000" fill-rule="nonzero" fill-opacity="1" /></svg>
