<?xml version="1.0" encoding="utf-8"?>
<svg xmlns="http://www.w3.org/2000/svg" xmlns:xlink="http://www.w3.org/1999/xlink" width="600" height="400" viewBox="0 0 2400 1600">
<defs>
  <clipPath id="clip280">
    <rect x="0" y="0" width="2400" height="1600"/>
  </clipPath>
</defs>
<path clip-path="url(#clip280)" d="M0 1600 L2400 1600 L2400 0 L0 0  Z" fill="#ffffff" fill-rule="evenodd" fill-opacity="1"/>
<defs>
  <clipPath id="clip281">
    <rect x="194" y="47" width="2160" height="1440"/>
  </clipPath>
</defs>
<path clip-path="url(#clip280)" d="M194.098 1486.45 L2352.76 1486.45 L2352.76 47.2441 L194.098 47.2441  Z" fill="#ffffff" fill-rule="evenodd" fill-opacity="1"/>
<polyline clip-path="url(#clip280)" style="stroke:#000000; stroke-linecap:round; stroke-linejoin:round; stroke-width:4; stroke-opacity:1; fill:none" points="194.098,1486.45 2352.76,1486.45 "/>
<path clip-path="url(#clip280)" d="M255.192 1517.37 Q251.581 1517.37 249.752 1520.93 Q247.947 1524.47 247.947 1531.6 Q247.947 1538.71 249.752 1542.27 Q251.581 1545.82 255.192 1545.82 Q258.826 1545.82 260.632 1542.27 Q262.461 1538.71 262.461 1531.6 Q262.461 1524.47 260.632 1520.93 Q258.826 1517.37 255.192 1517.37 M255.192 1513.66 Q261.002 1513.66 264.058 1518.27 Q267.137 1522.85 267.137 1531.6 Q267.137 1540.33 264.058 1544.94 Q261.002 1549.52 255.192 1549.52 Q249.382 1549.52 246.303 1544.94 Q243.248 1540.33 243.248 1531.6 Q243.248 1522.85 246.303 1518.27 Q249.382 1513.66 255.192 1513.66 Z" fill="#000000" fill-rule="nonzero" fill-opacity="1" /><path clip-path="url(#clip280)" d="M924.397 1544.91 L932.036 1544.91 L932.036 1518.55 L923.726 1520.21 L923.726 1515.95 L931.99 1514.29 L936.666 1514.29 L936.666 1544.91 L944.305 1544.91 L944.305 1548.85 L924.397 1548.85 L924.397 1544.91 Z" fill="#000000" fill-rule="nonzero" fill-opacity="1" /><path clip-path="url(#clip280)" d="M1607.49 1544.91 L1623.81 1544.91 L1623.81 1548.85 L1601.87 1548.85 L1601.87 1544.91 Q1604.53 1542.16 1609.11 1537.53 Q1613.72 1532.88 1614.9 1531.53 Q1617.14 1529.01 1618.02 1527.27 Q1618.93 1525.51 1618.93 1523.82 Q1618.93 1521.07 1616.98 1519.33 Q1615.06 1517.6 1611.96 1517.6 Q1609.76 1517.6 1607.31 1518.36 Q1604.88 1519.13 1602.1 1520.68 L1602.1 1515.95 Q1604.92 1514.82 1607.38 1514.24 Q1609.83 1513.66 1611.87 1513.66 Q1617.24 1513.66 1620.43 1516.35 Q1623.63 1519.03 1623.63 1523.52 Q1623.63 1525.65 1622.82 1527.57 Q1622.03 1529.47 1619.92 1532.07 Q1619.34 1532.74 1616.24 1535.95 Q1613.14 1539.15 1607.49 1544.91 Z" fill="#000000" fill-rule="nonzero" fill-opacity="1" /><path clip-path="url(#clip280)" d="M2295.91 1530.21 Q2299.27 1530.93 2301.14 1533.2 Q2303.04 1535.47 2303.04 1538.8 Q2303.04 1543.92 2299.52 1546.72 Q2296 1549.52 2289.52 1549.52 Q2287.34 1549.52 2285.03 1549.08 Q2282.74 1548.66 2280.28 1547.81 L2280.28 1543.29 Q2282.23 1544.43 2284.54 1545.01 Q2286.86 1545.58 2289.38 1545.58 Q2293.78 1545.58 2296.07 1543.85 Q2298.39 1542.11 2298.39 1538.8 Q2298.39 1535.75 2296.23 1534.03 Q2294.1 1532.3 2290.28 1532.3 L2286.26 1532.3 L2286.26 1528.45 L2290.47 1528.45 Q2293.92 1528.45 2295.75 1527.09 Q2297.58 1525.7 2297.58 1523.11 Q2297.58 1520.45 2295.68 1519.03 Q2293.8 1517.6 2290.28 1517.6 Q2288.36 1517.6 2286.16 1518.01 Q2283.97 1518.43 2281.33 1519.31 L2281.33 1515.14 Q2283.99 1514.4 2286.3 1514.03 Q2288.64 1513.66 2290.7 1513.66 Q2296.03 1513.66 2299.13 1516.09 Q2302.23 1518.5 2302.23 1522.62 Q2302.23 1525.49 2300.59 1527.48 Q2298.94 1529.45 2295.91 1530.21 Z" fill="#000000" fill-rule="nonzero" fill-opacity="1" /><polyline clip-path="url(#clip280)" style="stroke:#000000; stroke-linecap:round; stroke-linejoin:round; stroke-width:4; stroke-opacity:1; fill:none" points="194.098,1486.45 194.098,47.2441 "/>
<polyline clip-path="url(#clip280)" style="stroke:#000000; stroke-linecap:round; stroke-linejoin:round; stroke-width:4; stroke-opacity:1; fill:none" points="194.098,1360.05 175.2,1360.05 "/>
<polyline clip-path="url(#clip280)" style="stroke:#000000; stroke-linecap:round; stroke-linejoin:round; stroke-width:4; stroke-opacity:1; fill:none" points="194.098,1085.22 175.2,1085.22 "/>
<polyline clip-path="url(#clip280)" style="stroke:#000000; stroke-linecap:round; stroke-linejoin:round; stroke-width:4; stroke-opacity:1; fill:none" points="194.098,810.388 175.2,810.388 "/>
<polyline clip-path="url(#clip280)" style="stroke:#000000; stroke-linecap:round; stroke-linejoin:round; stroke-width:4; stroke-opacity:1; fill:none" points="194.098,535.557 175.2,535.557 "/>
<polyline clip-path="url(#clip280)" style="stroke:#000000; stroke-linecap:round; stroke-linejoin:round; stroke-width:4; stroke-opacity:1; fill:none" points="194.098,260.726 175.2,260.726 "/>
<path clip-path="url(#clip280)" d="M32.9921 1360.5 L62.6679 1360.5 L62.6679 1364.44 L32.9921 1364.44 L32.9921 1360.5 Z" fill="#000000" fill-rule="nonzero" fill-opacity="1" /><path clip-path="url(#clip280)" d="M82.7604 1345.85 Q79.1493 1345.85 77.3206 1349.41 Q75.515 1352.95 75.515 1360.08 Q75.515 1367.19 77.3206 1370.76 Q79.1493 1374.3 82.7604 1374.3 Q86.3946 1374.3 88.2002 1370.76 Q90.0289 1367.19 90.0289 1360.08 Q90.0289 1352.95 88.2002 1349.41 Q86.3946 1345.85 82.7604 1345.85 M82.7604 1342.14 Q88.5705 1342.14 91.6261 1346.75 Q94.7048 1351.33 94.7048 1360.08 Q94.7048 1368.81 91.6261 1373.42 Q88.5705 1378 82.7604 1378 Q76.9502 1378 73.8715 1373.42 Q70.816 1368.81 70.816 1360.08 Q70.816 1351.33 73.8715 1346.75 Q76.9502 1342.14 82.7604 1342.14 Z" fill="#000000" fill-rule="nonzero" fill-opacity="1" /><path clip-path="url(#clip280)" d="M102.922 1371.45 L107.807 1371.45 L107.807 1377.33 L102.922 1377.33 L102.922 1371.45 Z" fill="#000000" fill-rule="nonzero" fill-opacity="1" /><path clip-path="url(#clip280)" d="M128.57 1358.19 Q125.422 1358.19 123.57 1360.34 Q121.742 1362.49 121.742 1366.24 Q121.742 1369.97 123.57 1372.14 Q125.422 1374.3 128.57 1374.3 Q131.718 1374.3 133.547 1372.14 Q135.399 1369.97 135.399 1366.24 Q135.399 1362.49 133.547 1360.34 Q131.718 1358.19 128.57 1358.19 M137.853 1343.53 L137.853 1347.79 Q136.093 1346.96 134.288 1346.52 Q132.505 1346.08 130.746 1346.08 Q126.117 1346.08 123.663 1349.2 Q121.232 1352.33 120.885 1358.65 Q122.251 1356.64 124.311 1355.57 Q126.371 1354.48 128.848 1354.48 Q134.056 1354.48 137.066 1357.65 Q140.098 1360.8 140.098 1366.24 Q140.098 1371.57 136.95 1374.78 Q133.802 1378 128.57 1378 Q122.575 1378 119.404 1373.42 Q116.232 1368.81 116.232 1360.08 Q116.232 1351.89 120.121 1347.03 Q124.01 1342.14 130.561 1342.14 Q132.32 1342.14 134.103 1342.49 Q135.908 1342.84 137.853 1343.53 Z" fill="#000000" fill-rule="nonzero" fill-opacity="1" /><path clip-path="url(#clip280)" d="M33.8023 1085.67 L63.4781 1085.67 L63.4781 1089.61 L33.8023 1089.61 L33.8023 1085.67 Z" fill="#000000" fill-rule="nonzero" fill-opacity="1" /><path clip-path="url(#clip280)" d="M83.5706 1071.02 Q79.9595 1071.02 78.1308 1074.58 Q76.3252 1078.12 76.3252 1085.25 Q76.3252 1092.36 78.1308 1095.92 Q79.9595 1099.47 83.5706 1099.47 Q87.2048 1099.47 89.0103 1095.92 Q90.839 1092.36 90.839 1085.25 Q90.839 1078.12 89.0103 1074.58 Q87.2048 1071.02 83.5706 1071.02 M83.5706 1067.31 Q89.3807 1067.31 92.4363 1071.92 Q95.5149 1076.5 95.5149 1085.25 Q95.5149 1093.98 92.4363 1098.59 Q89.3807 1103.17 83.5706 1103.17 Q77.7604 1103.17 74.6817 1098.59 Q71.6262 1093.98 71.6262 1085.25 Q71.6262 1076.5 74.6817 1071.92 Q77.7604 1067.31 83.5706 1067.31 Z" fill="#000000" fill-rule="nonzero" fill-opacity="1" /><path clip-path="url(#clip280)" d="M103.732 1096.62 L108.617 1096.62 L108.617 1102.5 L103.732 1102.5 L103.732 1096.62 Z" fill="#000000" fill-rule="nonzero" fill-opacity="1" /><path clip-path="url(#clip280)" d="M132.968 1083.86 Q136.325 1084.58 138.2 1086.85 Q140.098 1089.12 140.098 1092.45 Q140.098 1097.57 136.58 1100.37 Q133.061 1103.17 126.58 1103.17 Q124.404 1103.17 122.089 1102.73 Q119.797 1102.31 117.344 1101.46 L117.344 1096.94 Q119.288 1098.08 121.603 1098.66 Q123.918 1099.23 126.441 1099.23 Q130.839 1099.23 133.13 1097.5 Q135.445 1095.76 135.445 1092.45 Q135.445 1089.4 133.293 1087.68 Q131.163 1085.95 127.343 1085.95 L123.316 1085.95 L123.316 1082.11 L127.529 1082.11 Q130.978 1082.11 132.806 1080.74 Q134.635 1079.35 134.635 1076.76 Q134.635 1074.1 132.737 1072.68 Q130.862 1071.25 127.343 1071.25 Q125.422 1071.25 123.223 1071.67 Q121.024 1072.08 118.385 1072.96 L118.385 1068.8 Q121.047 1068.05 123.362 1067.68 Q125.7 1067.31 127.76 1067.31 Q133.084 1067.31 136.186 1069.74 Q139.288 1072.15 139.288 1076.27 Q139.288 1079.14 137.644 1081.13 Q136.001 1083.1 132.968 1083.86 Z" fill="#000000" fill-rule="nonzero" fill-opacity="1" /><path clip-path="url(#clip280)" d="M82.9224 796.186 Q79.3113 796.186 77.4826 799.751 Q75.6771 803.293 75.6771 810.422 Q75.6771 817.529 77.4826 821.094 Q79.3113 824.635 82.9224 824.635 Q86.5567 824.635 88.3622 821.094 Q90.1909 817.529 90.1909 810.422 Q90.1909 803.293 88.3622 799.751 Q86.5567 796.186 82.9224 796.186 M82.9224 792.483 Q88.7326 792.483 91.7881 797.089 Q94.8668 801.673 94.8668 810.422 Q94.8668 819.149 91.7881 823.756 Q88.7326 828.339 82.9224 828.339 Q77.1123 828.339 74.0336 823.756 Q70.978 819.149 70.978 810.422 Q70.978 801.673 74.0336 797.089 Q77.1123 792.483 82.9224 792.483 Z" fill="#000000" fill-rule="nonzero" fill-opacity="1" /><path clip-path="url(#clip280)" d="M103.084 821.788 L107.969 821.788 L107.969 827.668 L103.084 827.668 L103.084 821.788 Z" fill="#000000" fill-rule="nonzero" fill-opacity="1" /><path clip-path="url(#clip280)" d="M128.154 796.186 Q124.543 796.186 122.714 799.751 Q120.908 803.293 120.908 810.422 Q120.908 817.529 122.714 821.094 Q124.543 824.635 128.154 824.635 Q131.788 824.635 133.593 821.094 Q135.422 817.529 135.422 810.422 Q135.422 803.293 133.593 799.751 Q131.788 796.186 128.154 796.186 M128.154 792.483 Q133.964 792.483 137.019 797.089 Q140.098 801.673 140.098 810.422 Q140.098 819.149 137.019 823.756 Q133.964 828.339 128.154 828.339 Q122.343 828.339 119.265 823.756 Q116.209 819.149 116.209 810.422 Q116.209 801.673 119.265 797.089 Q122.343 792.483 128.154 792.483 Z" fill="#000000" fill-rule="nonzero" fill-opacity="1" /><path clip-path="url(#clip280)" d="M83.5706 521.356 Q79.9595 521.356 78.1308 524.92 Q76.3252 528.462 76.3252 535.592 Q76.3252 542.698 78.1308 546.263 Q79.9595 549.805 83.5706 549.805 Q87.2048 549.805 89.0103 546.263 Q90.839 542.698 90.839 535.592 Q90.839 528.462 89.0103 524.92 Q87.2048 521.356 83.5706 521.356 M83.5706 517.652 Q89.3807 517.652 92.4363 522.258 Q95.5149 526.842 95.5149 535.592 Q95.5149 544.318 92.4363 548.925 Q89.3807 553.508 83.5706 553.508 Q77.7604 553.508 74.6817 548.925 Q71.6262 544.318 71.6262 535.592 Q71.6262 526.842 74.6817 522.258 Q77.7604 517.652 83.5706 517.652 Z" fill="#000000" fill-rule="nonzero" fill-opacity="1" /><path clip-path="url(#clip280)" d="M103.732 546.957 L108.617 546.957 L108.617 552.837 L103.732 552.837 L103.732 546.957 Z" fill="#000000" fill-rule="nonzero" fill-opacity="1" /><path clip-path="url(#clip280)" d="M132.968 534.203 Q136.325 534.92 138.2 537.189 Q140.098 539.457 140.098 542.791 Q140.098 547.906 136.58 550.707 Q133.061 553.508 126.58 553.508 Q124.404 553.508 122.089 553.068 Q119.797 552.652 117.344 551.795 L117.344 547.281 Q119.288 548.416 121.603 548.994 Q123.918 549.573 126.441 549.573 Q130.839 549.573 133.13 547.837 Q135.445 546.101 135.445 542.791 Q135.445 539.735 133.293 538.022 Q131.163 536.286 127.343 536.286 L123.316 536.286 L123.316 532.443 L127.529 532.443 Q130.978 532.443 132.806 531.078 Q134.635 529.689 134.635 527.096 Q134.635 524.434 132.737 523.022 Q130.862 521.587 127.343 521.587 Q125.422 521.587 123.223 522.004 Q121.024 522.42 118.385 523.3 L118.385 519.133 Q121.047 518.393 123.362 518.022 Q125.7 517.652 127.76 517.652 Q133.084 517.652 136.186 520.082 Q139.288 522.49 139.288 526.61 Q139.288 529.481 137.644 531.471 Q136.001 533.439 132.968 534.203 Z" fill="#000000" fill-rule="nonzero" fill-opacity="1" /><path clip-path="url(#clip280)" d="M82.7604 246.525 Q79.1493 246.525 77.3206 250.09 Q75.515 253.631 75.515 260.761 Q75.515 267.867 77.3206 271.432 Q79.1493 274.974 82.7604 274.974 Q86.3946 274.974 88.2002 271.432 Q90.0289 267.867 90.0289 260.761 Q90.0289 253.631 88.2002 250.09 Q86.3946 246.525 82.7604 246.525 M82.7604 242.821 Q88.5705 242.821 91.6261 247.428 Q94.7048 252.011 94.7048 260.761 Q94.7048 269.488 91.6261 274.094 Q88.5705 278.677 82.7604 278.677 Q76.9502 278.677 73.8715 274.094 Q70.816 269.488 70.816 260.761 Q70.816 252.011 73.8715 247.428 Q76.9502 242.821 82.7604 242.821 Z" fill="#000000" fill-rule="nonzero" fill-opacity="1" /><path clip-path="url(#clip280)" d="M102.922 272.126 L107.807 272.126 L107.807 278.006 L102.922 278.006 L102.922 272.126 Z" fill="#000000" fill-rule="nonzero" fill-opacity="1" /><path clip-path="url(#clip280)" d="M128.57 258.863 Q125.422 258.863 123.57 261.015 Q121.742 263.168 121.742 266.918 Q121.742 270.645 123.57 272.821 Q125.422 274.974 128.57 274.974 Q131.718 274.974 133.547 272.821 Q135.399 270.645 135.399 266.918 Q135.399 263.168 133.547 261.015 Q131.718 258.863 128.57 258.863 M137.853 244.21 L137.853 248.469 Q136.093 247.636 134.288 247.196 Q132.505 246.756 130.746 246.756 Q126.117 246.756 123.663 249.881 Q121.232 253.006 120.885 259.326 Q122.251 257.312 124.311 256.247 Q126.371 255.159 128.848 255.159 Q134.056 255.159 137.066 258.33 Q140.098 261.478 140.098 266.918 Q140.098 272.242 136.95 275.46 Q133.802 278.677 128.57 278.677 Q122.575 278.677 119.404 274.094 Q116.232 269.488 116.232 260.761 Q116.232 252.566 120.121 247.705 Q124.01 242.821 130.561 242.821 Q132.32 242.821 134.103 243.168 Q135.908 243.515 137.853 244.21 Z" fill="#000000" fill-rule="nonzero" fill-opacity="1" /><polyline clip-path="url(#clip281)" style="stroke:#000000; stroke-linecap:round; stroke-linejoin:round; stroke-width:4; stroke-opacity:1; fill:none" points="255.192,1367.57 255.192,881.267 "/>
<polyline clip-path="url(#clip281)" style="stroke:#000000; stroke-linecap:round; stroke-linejoin:round; stroke-width:4; stroke-opacity:1; fill:none" points="934.015,1010.58 934.015,767.431 "/>
<polyline clip-path="url(#clip281)" style="stroke:#000000; stroke-linecap:round; stroke-linejoin:round; stroke-width:4; stroke-opacity:1; fill:none" points="1612.84,653.596 1612.84,653.596 "/>
<polyline clip-path="url(#clip281)" style="stroke:#000000; stroke-linecap:round; stroke-linejoin:round; stroke-width:4; stroke-opacity:1; fill:none" points="2291.66,539.76 2291.66,296.61 "/>
<line clip-path="url(#clip281)" x1="271.192" y1="1367.57" x2="239.192" y2="1367.57" style="stroke:#000000; stroke-width:4; stroke-opacity:1"/>
<line clip-path="url(#clip281)" x1="271.192" y1="881.267" x2="239.192" y2="881.267" style="stroke:#000000; stroke-width:4; stroke-opacity:1"/>
<line clip-path="url(#clip281)" x1="950.015" y1="1010.58" x2="918.015" y2="1010.58" style="stroke:#000000; stroke-width:4; stroke-opacity:1"/>
<line clip-path="url(#clip281)" x1="950.015" y1="767.431" x2="918.015" y2="767.431" style="stroke:#000000; stroke-width:4; stroke-opacity:1"/>
<line clip-path="url(#clip281)" x1="1628.84" y1="653.596" x2="1596.84" y2="653.596" style="stroke:#000000; stroke-width:4; stroke-opacity:1"/>
<line clip-path="url(#clip281)" x1="1628.84" y1="653.596" x2="1596.84" y2="653.596" style="stroke:#000000; stroke-width:4; stroke-opacity:1"/>
<line clip-path="url(#clip281)" x1="2307.66" y1="539.76" x2="2275.66" y2="539.76" style="stroke:#000000; stroke-width:4; stroke-opacity:1"/>
<line clip-path="url(#clip281)" x1="2307.66" y1="296.61" x2="2275.66" y2="296.61" style="stroke:#000000; stroke-width:4; stroke-opacity:1"/>
<circle clip-path="url(#clip281)" cx="255.192" cy="1124.42" r="14.4" fill="#009af9" fill-rule="evenodd" fill-opacity="1" stroke="#000000" stroke-opacity="1" stroke-width="3.2"/>
<circle clip-path="url(#clip281)" cx="934.015" cy="889.006" r="14.4" fill="#009af9" fill-rule="evenodd" fill-opacity="1" stroke="#000000" stroke-opacity="1" stroke-width="3.2"/>
<circle clip-path="url(#clip281)" cx="1612.84" cy="653.596" r="14.4" fill="#009af9" fill-rule="evenodd" fill-opacity="1" stroke="#000000" stroke-opacity="1" stroke-width="3.2"/>
<circle clip-path="url(#clip281)" cx="2291.66" cy="418.185" r="14.4" fill="#009af9" fill-rule="evenodd" fill-opacity="1" stroke="#000000" stroke-opacity="1" stroke-width="3.2"/>
<polyline clip-path="url(#clip281)" style="stroke:#e26f46; stroke-linecap:round; stroke-linejoin:round; stroke-width:4; stroke-opacity:1; fill:none" points="255.192,1124.42 934.015,889.006 1612.84,653.596 2291.66,418.185 "/>
<path clip-path="url(#clip281)" d="M255.192 1445.72 L934.015 1013.02 L1612.84 782.576 L2291.66 726.73 L2291.66 87.9763 L1612.84 524.895 L934.015 750.98 L255.192 797.778  Z" fill="#3da44d" fill-rule="evenodd" fill-opacity="0.5"/>
<polyline clip-path="url(#clip281)" style="stroke:#3da44d; stroke-linecap:round; stroke-linejoin:round; stroke-width:4; stroke-opacity:1; fill:none" points="255.192,1124.42 934.015,889.006 1612.84,653.596 2291.66,418.185 "/>
<path clip-path="url(#clip280)" d="M266.053 302.578 L933.769 302.578 L933.769 95.2176 L266.053 95.2176  Z" fill="#ffffff" fill-rule="evenodd" fill-opacity="1"/>
<polyline clip-path="url(#clip280)" style="stroke:#000000; stroke-linecap:round; stroke-linejoin:round; stroke-width:4; stroke-opacity:1; fill:none" points="266.053,302.578 933.769,302.578 933.769,95.2176 266.053,95.2176 266.053,302.578 "/>
<circle clip-path="url(#clip280)" cx="361.994" cy="147.058" r="20.48" fill="#009af9" fill-rule="evenodd" fill-opacity="1" stroke="#000000" stroke-opacity="1" stroke-width="4.55111"/>
<path clip-path="url(#clip280)" d="M462.61 133.62 L462.61 146.606 L468.489 146.606 Q471.753 146.606 473.536 144.916 Q475.318 143.227 475.318 140.102 Q475.318 137 473.536 135.31 Q471.753 133.62 468.489 133.62 L462.61 133.62 M457.934 129.778 L468.489 129.778 Q474.3 129.778 477.263 132.416 Q480.249 135.032 480.249 140.102 Q480.249 145.217 477.263 147.833 Q474.3 150.449 468.489 150.449 L462.61 150.449 L462.61 164.338 L457.934 164.338 L457.934 129.778 Z" fill="#000000" fill-rule="nonzero" fill-opacity="1" /><path clip-path="url(#clip280)" d="M494.693 141.398 Q491.267 141.398 489.276 144.083 Q487.286 146.745 487.286 151.398 Q487.286 156.051 489.253 158.736 Q491.244 161.398 494.693 161.398 Q498.096 161.398 500.087 158.713 Q502.077 156.027 502.077 151.398 Q502.077 146.791 500.087 144.106 Q498.096 141.398 494.693 141.398 M494.693 137.787 Q500.249 137.787 503.42 141.398 Q506.591 145.009 506.591 151.398 Q506.591 157.764 503.42 161.398 Q500.249 165.009 494.693 165.009 Q489.114 165.009 485.943 161.398 Q482.795 157.764 482.795 151.398 Q482.795 145.009 485.943 141.398 Q489.114 137.787 494.693 137.787 Z" fill="#000000" fill-rule="nonzero" fill-opacity="1" /><path clip-path="url(#clip280)" d="M513.651 138.412 L517.911 138.412 L517.911 164.338 L513.651 164.338 L513.651 138.412 M513.651 128.319 L517.911 128.319 L517.911 133.713 L513.651 133.713 L513.651 128.319 Z" fill="#000000" fill-rule="nonzero" fill-opacity="1" /><path clip-path="url(#clip280)" d="M548.373 148.689 L548.373 164.338 L544.114 164.338 L544.114 148.828 Q544.114 145.148 542.679 143.319 Q541.244 141.49 538.373 141.49 Q534.924 141.49 532.934 143.69 Q530.943 145.889 530.943 149.685 L530.943 164.338 L526.66 164.338 L526.66 138.412 L530.943 138.412 L530.943 142.44 Q532.471 140.102 534.531 138.944 Q536.614 137.787 539.322 137.787 Q543.79 137.787 546.082 140.565 Q548.373 143.319 548.373 148.689 Z" fill="#000000" fill-rule="nonzero" fill-opacity="1" /><path clip-path="url(#clip280)" d="M561.082 131.051 L561.082 138.412 L569.855 138.412 L569.855 141.722 L561.082 141.722 L561.082 155.796 Q561.082 158.967 561.938 159.87 Q562.818 160.773 565.48 160.773 L569.855 160.773 L569.855 164.338 L565.48 164.338 Q560.549 164.338 558.674 162.509 Q556.799 160.657 556.799 155.796 L556.799 141.722 L553.674 141.722 L553.674 138.412 L556.799 138.412 L556.799 131.051 L561.082 131.051 Z" fill="#000000" fill-rule="nonzero" fill-opacity="1" /><path clip-path="url(#clip280)" d="M572.98 138.412 L577.239 138.412 L582.563 158.643 L587.864 138.412 L592.887 138.412 L598.211 158.643 L603.512 138.412 L607.771 138.412 L600.989 164.338 L595.966 164.338 L590.387 143.088 L584.785 164.338 L579.762 164.338 L572.98 138.412 Z" fill="#000000" fill-rule="nonzero" fill-opacity="1" /><path clip-path="url(#clip280)" d="M614.229 138.412 L618.489 138.412 L618.489 164.338 L614.229 164.338 L614.229 138.412 M614.229 128.319 L618.489 128.319 L618.489 133.713 L614.229 133.713 L614.229 128.319 Z" fill="#000000" fill-rule="nonzero" fill-opacity="1" /><path clip-path="url(#clip280)" d="M643.928 139.176 L643.928 143.203 Q642.123 142.277 640.178 141.815 Q638.234 141.352 636.151 141.352 Q632.979 141.352 631.382 142.324 Q629.808 143.296 629.808 145.24 Q629.808 146.722 630.942 147.578 Q632.077 148.412 635.502 149.176 L636.961 149.5 Q641.498 150.472 643.396 152.254 Q645.317 154.014 645.317 157.185 Q645.317 160.796 642.447 162.902 Q639.6 165.009 634.6 165.009 Q632.516 165.009 630.248 164.592 Q628.003 164.199 625.503 163.388 L625.503 158.99 Q627.864 160.217 630.155 160.842 Q632.447 161.444 634.692 161.444 Q637.702 161.444 639.322 160.426 Q640.942 159.384 640.942 157.509 Q640.942 155.773 639.762 154.847 Q638.604 153.921 634.646 153.064 L633.165 152.717 Q629.206 151.884 627.447 150.171 Q625.688 148.435 625.688 145.426 Q625.688 141.768 628.28 139.778 Q630.873 137.787 635.641 137.787 Q638.002 137.787 640.086 138.134 Q642.169 138.481 643.928 139.176 Z" fill="#000000" fill-rule="nonzero" fill-opacity="1" /><path clip-path="url(#clip280)" d="M674.275 150.31 L674.275 152.393 L654.692 152.393 Q654.97 156.791 657.331 159.106 Q659.715 161.398 663.951 161.398 Q666.405 161.398 668.697 160.796 Q671.012 160.194 673.28 158.99 L673.28 163.018 Q670.988 163.99 668.581 164.5 Q666.174 165.009 663.697 165.009 Q657.493 165.009 653.859 161.398 Q650.248 157.787 650.248 151.629 Q650.248 145.264 653.674 141.537 Q657.123 137.787 662.956 137.787 Q668.187 137.787 671.22 141.166 Q674.275 144.523 674.275 150.31 M670.016 149.06 Q669.97 145.565 668.049 143.481 Q666.15 141.398 663.002 141.398 Q659.438 141.398 657.285 143.412 Q655.155 145.426 654.831 149.083 L670.016 149.06 Z" fill="#000000" fill-rule="nonzero" fill-opacity="1" /><path clip-path="url(#clip280)" d="M714.993 139.407 L714.993 143.389 Q713.187 142.393 711.359 141.907 Q709.553 141.398 707.701 141.398 Q703.558 141.398 701.266 144.037 Q698.974 146.652 698.974 151.398 Q698.974 156.143 701.266 158.782 Q703.558 161.398 707.701 161.398 Q709.553 161.398 711.359 160.912 Q713.187 160.402 714.993 159.407 L714.993 163.342 Q713.21 164.176 711.289 164.592 Q709.391 165.009 707.238 165.009 Q701.382 165.009 697.933 161.328 Q694.484 157.648 694.484 151.398 Q694.484 145.055 697.956 141.421 Q701.451 137.787 707.516 137.787 Q709.484 137.787 711.359 138.203 Q713.234 138.597 714.993 139.407 Z" fill="#000000" fill-rule="nonzero" fill-opacity="1" /><path clip-path="url(#clip280)" d="M732.446 141.398 Q729.021 141.398 727.03 144.083 Q725.039 146.745 725.039 151.398 Q725.039 156.051 727.007 158.736 Q728.997 161.398 732.446 161.398 Q735.849 161.398 737.84 158.713 Q739.831 156.027 739.831 151.398 Q739.831 146.791 737.84 144.106 Q735.849 141.398 732.446 141.398 M732.446 137.787 Q738.002 137.787 741.173 141.398 Q744.344 145.009 744.344 151.398 Q744.344 157.764 741.173 161.398 Q738.002 165.009 732.446 165.009 Q726.868 165.009 723.696 161.398 Q720.548 157.764 720.548 151.398 Q720.548 145.009 723.696 141.398 Q726.868 137.787 732.446 137.787 Z" fill="#000000" fill-rule="nonzero" fill-opacity="1" /><path clip-path="url(#clip280)" d="M772.955 148.689 L772.955 164.338 L768.696 164.338 L768.696 148.828 Q768.696 145.148 767.261 143.319 Q765.826 141.49 762.956 141.49 Q759.506 141.49 757.516 143.69 Q755.525 145.889 755.525 149.685 L755.525 164.338 L751.243 164.338 L751.243 138.412 L755.525 138.412 L755.525 142.44 Q757.053 140.102 759.113 138.944 Q761.196 137.787 763.905 137.787 Q768.372 137.787 770.664 140.565 Q772.955 143.319 772.955 148.689 Z" fill="#000000" fill-rule="nonzero" fill-opacity="1" /><path clip-path="url(#clip280)" d="M785.664 131.051 L785.664 138.412 L794.437 138.412 L794.437 141.722 L785.664 141.722 L785.664 155.796 Q785.664 158.967 786.52 159.87 Q787.4 160.773 790.062 160.773 L794.437 160.773 L794.437 164.338 L790.062 164.338 Q785.131 164.338 783.256 162.509 Q781.381 160.657 781.381 155.796 L781.381 141.722 L778.256 141.722 L778.256 138.412 L781.381 138.412 L781.381 131.051 L785.664 131.051 Z" fill="#000000" fill-rule="nonzero" fill-opacity="1" /><path clip-path="url(#clip280)" d="M815.062 142.393 Q814.344 141.977 813.488 141.791 Q812.654 141.583 811.636 141.583 Q808.025 141.583 806.08 143.944 Q804.159 146.282 804.159 150.68 L804.159 164.338 L799.877 164.338 L799.877 138.412 L804.159 138.412 L804.159 142.44 Q805.502 140.078 807.654 138.944 Q809.807 137.787 812.886 137.787 Q813.326 137.787 813.858 137.856 Q814.39 137.903 815.039 138.018 L815.062 142.393 Z" fill="#000000" fill-rule="nonzero" fill-opacity="1" /><path clip-path="url(#clip280)" d="M831.312 151.305 Q826.15 151.305 824.159 152.486 Q822.168 153.666 822.168 156.514 Q822.168 158.782 823.65 160.125 Q825.154 161.444 827.724 161.444 Q831.265 161.444 833.395 158.944 Q835.548 156.421 835.548 152.254 L835.548 151.305 L831.312 151.305 M839.807 149.546 L839.807 164.338 L835.548 164.338 L835.548 160.402 Q834.089 162.763 831.913 163.898 Q829.738 165.009 826.589 165.009 Q822.608 165.009 820.247 162.787 Q817.909 160.541 817.909 156.791 Q817.909 152.416 820.826 150.194 Q823.765 147.972 829.576 147.972 L835.548 147.972 L835.548 147.555 Q835.548 144.615 833.603 143.018 Q831.682 141.398 828.187 141.398 Q825.964 141.398 823.858 141.93 Q821.751 142.463 819.807 143.527 L819.807 139.592 Q822.145 138.69 824.344 138.25 Q826.543 137.787 828.626 137.787 Q834.251 137.787 837.029 140.703 Q839.807 143.62 839.807 149.546 Z" fill="#000000" fill-rule="nonzero" fill-opacity="1" /><path clip-path="url(#clip280)" d="M865.108 139.176 L865.108 143.203 Q863.302 142.277 861.358 141.815 Q859.413 141.352 857.33 141.352 Q854.159 141.352 852.562 142.324 Q850.987 143.296 850.987 145.24 Q850.987 146.722 852.122 147.578 Q853.256 148.412 856.682 149.176 L858.14 149.5 Q862.677 150.472 864.575 152.254 Q866.497 154.014 866.497 157.185 Q866.497 160.796 863.626 162.902 Q860.779 165.009 855.779 165.009 Q853.696 165.009 851.427 164.592 Q849.182 164.199 846.682 163.388 L846.682 158.99 Q849.043 160.217 851.335 160.842 Q853.626 161.444 855.872 161.444 Q858.881 161.444 860.501 160.426 Q862.122 159.384 862.122 157.509 Q862.122 155.773 860.941 154.847 Q859.784 153.921 855.825 153.064 L854.344 152.717 Q850.386 151.884 848.626 150.171 Q846.867 148.435 846.867 145.426 Q846.867 141.768 849.46 139.778 Q852.052 137.787 856.821 137.787 Q859.182 137.787 861.265 138.134 Q863.348 138.481 865.108 139.176 Z" fill="#000000" fill-rule="nonzero" fill-opacity="1" /><path clip-path="url(#clip280)" d="M877.492 131.051 L877.492 138.412 L886.265 138.412 L886.265 141.722 L877.492 141.722 L877.492 155.796 Q877.492 158.967 878.348 159.87 Q879.228 160.773 881.89 160.773 L886.265 160.773 L886.265 164.338 L881.89 164.338 Q876.96 164.338 875.085 162.509 Q873.21 160.657 873.21 155.796 L873.21 141.722 L870.085 141.722 L870.085 138.412 L873.21 138.412 L873.21 131.051 L877.492 131.051 Z" fill="#000000" fill-rule="nonzero" fill-opacity="1" /><path clip-path="url(#clip280)" d="M908.395 139.176 L908.395 143.203 Q906.589 142.277 904.645 141.815 Q902.7 141.352 900.617 141.352 Q897.446 141.352 895.848 142.324 Q894.274 143.296 894.274 145.24 Q894.274 146.722 895.409 147.578 Q896.543 148.412 899.969 149.176 L901.427 149.5 Q905.964 150.472 907.862 152.254 Q909.783 154.014 909.783 157.185 Q909.783 160.796 906.913 162.902 Q904.066 165.009 899.066 165.009 Q896.983 165.009 894.714 164.592 Q892.469 164.199 889.969 163.388 L889.969 158.99 Q892.33 160.217 894.621 160.842 Q896.913 161.444 899.158 161.444 Q902.168 161.444 903.788 160.426 Q905.408 159.384 905.408 157.509 Q905.408 155.773 904.228 154.847 Q903.07 153.921 899.112 153.064 L897.631 152.717 Q893.672 151.884 891.913 150.171 Q890.154 148.435 890.154 145.426 Q890.154 141.768 892.746 139.778 Q895.339 137.787 900.108 137.787 Q902.469 137.787 904.552 138.134 Q906.635 138.481 908.395 139.176 Z" fill="#000000" fill-rule="nonzero" fill-opacity="1" /><polyline clip-path="url(#clip280)" style="stroke:#e26f46; stroke-linecap:round; stroke-linejoin:round; stroke-width:4; stroke-opacity:1; fill:none" points="290.038,198.898 433.949,198.898 "/>
<path clip-path="url(#clip280)" d="M457.934 181.618 L464.902 181.618 L473.721 205.136 L482.587 181.618 L489.554 181.618 L489.554 216.178 L484.994 216.178 L484.994 185.83 L476.082 209.534 L471.383 209.534 L462.471 185.83 L462.471 216.178 L457.934 216.178 L457.934 181.618 Z" fill="#000000" fill-rule="nonzero" fill-opacity="1" /><path clip-path="url(#clip280)" d="M519.554 182.752 L519.554 187.312 Q516.892 186.039 514.531 185.414 Q512.17 184.789 509.971 184.789 Q506.151 184.789 504.068 186.27 Q502.008 187.752 502.008 190.483 Q502.008 192.775 503.374 193.955 Q504.762 195.113 508.605 195.83 L511.429 196.409 Q516.661 197.405 519.137 199.928 Q521.637 202.428 521.637 206.641 Q521.637 211.664 518.258 214.256 Q514.901 216.849 508.397 216.849 Q505.943 216.849 503.165 216.293 Q500.411 215.738 497.448 214.65 L497.448 209.835 Q500.295 211.432 503.026 212.242 Q505.758 213.053 508.397 213.053 Q512.401 213.053 514.577 211.479 Q516.753 209.904 516.753 206.988 Q516.753 204.442 515.179 203.006 Q513.628 201.571 510.063 200.854 L507.216 200.298 Q501.985 199.256 499.647 197.034 Q497.309 194.812 497.309 190.854 Q497.309 186.27 500.526 183.631 Q503.767 180.993 509.438 180.993 Q511.869 180.993 514.392 181.432 Q516.915 181.872 519.554 182.752 Z" fill="#000000" fill-rule="nonzero" fill-opacity="1" /><path clip-path="url(#clip280)" d="M528.929 181.618 L535.897 181.618 L544.716 205.136 L553.582 181.618 L560.549 181.618 L560.549 216.178 L555.989 216.178 L555.989 185.83 L547.077 209.534 L542.378 209.534 L533.466 185.83 L533.466 216.178 L528.929 216.178 L528.929 181.618 Z" fill="#000000" fill-rule="nonzero" fill-opacity="1" /><path clip-path="url(#clip280)" d="M597.841 180.159 L597.841 183.701 L593.767 183.701 Q591.475 183.701 590.572 184.627 Q589.693 185.553 589.693 187.96 L589.693 190.252 L596.706 190.252 L596.706 193.562 L589.693 193.562 L589.693 216.178 L585.41 216.178 L585.41 193.562 L581.336 193.562 L581.336 190.252 L585.41 190.252 L585.41 188.446 Q585.41 184.118 587.424 182.15 Q589.438 180.159 593.813 180.159 L597.841 180.159 Z" fill="#000000" fill-rule="nonzero" fill-opacity="1" /><path clip-path="url(#clip280)" d="M601.405 190.252 L605.665 190.252 L605.665 216.178 L601.405 216.178 L601.405 190.252 M601.405 180.159 L605.665 180.159 L605.665 185.553 L601.405 185.553 L601.405 180.159 Z" fill="#000000" fill-rule="nonzero" fill-opacity="1" /><path clip-path="url(#clip280)" d="M618.79 182.891 L618.79 190.252 L627.563 190.252 L627.563 193.562 L618.79 193.562 L618.79 207.636 Q618.79 210.807 619.646 211.71 Q620.526 212.613 623.188 212.613 L627.563 212.613 L627.563 216.178 L623.188 216.178 Q618.257 216.178 616.382 214.349 Q614.507 212.497 614.507 207.636 L614.507 193.562 L611.382 193.562 L611.382 190.252 L614.507 190.252 L614.507 182.891 L618.79 182.891 Z" fill="#000000" fill-rule="nonzero" fill-opacity="1" /><polyline clip-path="url(#clip280)" style="stroke:#3da44d; stroke-linecap:round; stroke-linejoin:round; stroke-width:4; stroke-opacity:1; fill:none" points="290.038,250.738 433.949,250.738 "/>
<path clip-path="url(#clip280)" d="M457.934 233.458 L464.902 233.458 L473.721 256.976 L482.587 233.458 L489.554 233.458 L489.554 268.018 L484.994 268.018 L484.994 237.67 L476.082 261.374 L471.383 261.374 L462.471 237.67 L462.471 268.018 L457.934 268.018 L457.934 233.458 Z" fill="#000000" fill-rule="nonzero" fill-opacity="1" /><path clip-path="url(#clip280)" d="M519.554 234.592 L519.554 239.152 Q516.892 237.879 514.531 237.254 Q512.17 236.629 509.971 236.629 Q506.151 236.629 504.068 238.11 Q502.008 239.592 502.008 242.323 Q502.008 244.615 503.374 245.795 Q504.762 246.953 508.605 247.67 L511.429 248.249 Q516.661 249.245 519.137 251.768 Q521.637 254.268 521.637 258.481 Q521.637 263.504 518.258 266.096 Q514.901 268.689 508.397 268.689 Q505.943 268.689 503.165 268.133 Q500.411 267.578 497.448 266.49 L497.448 261.675 Q500.295 263.272 503.026 264.082 Q505.758 264.893 508.397 264.893 Q512.401 264.893 514.577 263.319 Q516.753 261.744 516.753 258.828 Q516.753 256.282 515.179 254.846 Q513.628 253.411 510.063 252.694 L507.216 252.138 Q501.985 251.096 499.647 248.874 Q497.309 246.652 497.309 242.694 Q497.309 238.11 500.526 235.471 Q503.767 232.833 509.438 232.833 Q511.869 232.833 514.392 233.272 Q516.915 233.712 519.554 234.592 Z" fill="#000000" fill-rule="nonzero" fill-opacity="1" /><path clip-path="url(#clip280)" d="M528.929 233.458 L535.897 233.458 L544.716 256.976 L553.582 233.458 L560.549 233.458 L560.549 268.018 L555.989 268.018 L555.989 237.67 L547.077 261.374 L542.378 261.374 L533.466 237.67 L533.466 268.018 L528.929 268.018 L528.929 233.458 Z" fill="#000000" fill-rule="nonzero" fill-opacity="1" /><path clip-path="url(#clip280)" d="M597.841 231.999 L597.841 235.541 L593.767 235.541 Q591.475 235.541 590.572 236.467 Q589.693 237.393 589.693 239.8 L589.693 242.092 L596.706 242.092 L596.706 245.402 L589.693 245.402 L589.693 268.018 L585.41 268.018 L585.41 245.402 L581.336 245.402 L581.336 242.092 L585.41 242.092 L585.41 240.286 Q585.41 235.958 587.424 233.99 Q589.438 231.999 593.813 231.999 L597.841 231.999 Z" fill="#000000" fill-rule="nonzero" fill-opacity="1" /><path clip-path="url(#clip280)" d="M601.405 242.092 L605.665 242.092 L605.665 268.018 L601.405 268.018 L601.405 242.092 M601.405 231.999 L605.665 231.999 L605.665 237.393 L601.405 237.393 L601.405 231.999 Z" fill="#000000" fill-rule="nonzero" fill-opacity="1" /><path clip-path="url(#clip280)" d="M618.79 234.731 L618.79 242.092 L627.563 242.092 L627.563 245.402 L618.79 245.402 L618.79 259.476 Q618.79 262.647 619.646 263.55 Q620.526 264.453 623.188 264.453 L627.563 264.453 L627.563 268.018 L623.188 268.018 Q618.257 268.018 616.382 266.189 Q614.507 264.337 614.507 259.476 L614.507 245.402 L611.382 245.402 L611.382 242.092 L614.507 242.092 L614.507 234.731 L618.79 234.731 Z" fill="#000000" fill-rule="nonzero" fill-opacity="1" /></svg>
