<?xml version="1.0" encoding="utf-8"?>
<svg xmlns="http://www.w3.org/2000/svg" xmlns:xlink="http://www.w3.org/1999/xlink" width="600" height="400" viewBox="0 0 2400 1600">
<defs>
  <clipPath id="clip400">
    <rect x="0" y="0" width="2400" height="1600"/>
  </clipPath>
</defs>
<path clip-path="url(#clip400)" d="M0 1600 L2400 1600 L2400 0 L0 0  Z" fill="#ffffff" fill-rule="evenodd" fill-opacity="1"/>
<defs>
  <clipPath id="clip401">
    <rect x="224" y="47" width="2130" height="1440"/>
  </clipPath>
</defs>
<path clip-path="url(#clip400)" d="M224.098 1486.45 L2352.76 1486.45 L2352.76 47.2441 L224.098 47.2441  Z" fill="#ffffff" fill-rule="evenodd" fill-opacity="1"/>
<polyline clip-path="url(#clip400)" style="stroke:#000000; stroke-linecap:round; stroke-linejoin:round; stroke-width:4; stroke-opacity:1; fill:none" points="224.098,1486.45 2352.76,1486.45 "/>
<path clip-path="url(#clip400)" d="M284.343 1517.37 Q280.732 1517.37 278.903 1520.93 Q277.098 1524.47 277.098 1531.6 Q277.098 1538.71 278.903 1542.27 Q280.732 1545.82 284.343 1545.82 Q287.977 1545.82 289.783 1542.27 Q291.611 1538.71 291.611 1531.6 Q291.611 1524.47 289.783 1520.93 Q287.977 1517.37 284.343 1517.37 M284.343 1513.66 Q290.153 1513.66 293.209 1518.27 Q296.287 1522.85 296.287 1531.6 Q296.287 1540.33 293.209 1544.94 Q290.153 1549.52 284.343 1549.52 Q278.533 1549.52 275.454 1544.94 Q272.399 1540.33 272.399 1531.6 Q272.399 1522.85 275.454 1518.27 Q278.533 1513.66 284.343 1513.66 Z" fill="#000000" fill-rule="nonzero" fill-opacity="1" /><path clip-path="url(#clip400)" d="M944.114 1544.91 L951.753 1544.91 L951.753 1518.55 L943.443 1520.21 L943.443 1515.95 L951.707 1514.29 L956.383 1514.29 L956.383 1544.91 L964.022 1544.91 L964.022 1548.85 L944.114 1548.85 L944.114 1544.91 Z" fill="#000000" fill-rule="nonzero" fill-opacity="1" /><path clip-path="url(#clip400)" d="M1617.77 1544.91 L1634.09 1544.91 L1634.09 1548.85 L1612.15 1548.85 L1612.15 1544.91 Q1614.81 1542.16 1619.39 1537.53 Q1624 1532.88 1625.18 1531.53 Q1627.43 1529.01 1628.31 1527.27 Q1629.21 1525.51 1629.21 1523.82 Q1629.21 1521.07 1627.27 1519.33 Q1625.34 1517.6 1622.24 1517.6 Q1620.04 1517.6 1617.59 1518.36 Q1615.16 1519.13 1612.38 1520.68 L1612.38 1515.95 Q1615.2 1514.82 1617.66 1514.24 Q1620.11 1513.66 1622.15 1513.66 Q1627.52 1513.66 1630.71 1516.35 Q1633.91 1519.03 1633.91 1523.52 Q1633.91 1525.65 1633.1 1527.57 Q1632.31 1529.47 1630.2 1532.07 Q1629.63 1532.74 1626.52 1535.95 Q1623.42 1539.15 1617.77 1544.91 Z" fill="#000000" fill-rule="nonzero" fill-opacity="1" /><path clip-path="url(#clip400)" d="M2296.76 1530.21 Q2300.11 1530.93 2301.99 1533.2 Q2303.89 1535.47 2303.89 1538.8 Q2303.89 1543.92 2300.37 1546.72 Q2296.85 1549.52 2290.37 1549.52 Q2288.19 1549.52 2285.88 1549.08 Q2283.59 1548.66 2281.13 1547.81 L2281.13 1543.29 Q2283.08 1544.43 2285.39 1545.01 Q2287.71 1545.58 2290.23 1545.58 Q2294.63 1545.58 2296.92 1543.85 Q2299.24 1542.11 2299.24 1538.8 Q2299.24 1535.75 2297.08 1534.03 Q2294.95 1532.3 2291.13 1532.3 L2287.11 1532.3 L2287.11 1528.45 L2291.32 1528.45 Q2294.77 1528.45 2296.6 1527.09 Q2298.43 1525.7 2298.43 1523.11 Q2298.43 1520.45 2296.53 1519.03 Q2294.65 1517.6 2291.13 1517.6 Q2289.21 1517.6 2287.01 1518.01 Q2284.81 1518.43 2282.18 1519.31 L2282.18 1515.14 Q2284.84 1514.4 2287.15 1514.03 Q2289.49 1513.66 2291.55 1513.66 Q2296.87 1513.66 2299.98 1516.09 Q2303.08 1518.5 2303.08 1522.62 Q2303.08 1525.49 2301.43 1527.48 Q2299.79 1529.45 2296.76 1530.21 Z" fill="#000000" fill-rule="nonzero" fill-opacity="1" /><polyline clip-path="url(#clip400)" style="stroke:#000000; stroke-linecap:round; stroke-linejoin:round; stroke-width:4; stroke-opacity:1; fill:none" points="224.098,1486.45 224.098,47.2441 "/>
<polyline clip-path="url(#clip400)" style="stroke:#000000; stroke-linecap:round; stroke-linejoin:round; stroke-width:4; stroke-opacity:1; fill:none" points="224.098,1341.32 205.2,1341.32 "/>
<polyline clip-path="url(#clip400)" style="stroke:#000000; stroke-linecap:round; stroke-linejoin:round; stroke-width:4; stroke-opacity:1; fill:none" points="224.098,1150.37 205.2,1150.37 "/>
<polyline clip-path="url(#clip400)" style="stroke:#000000; stroke-linecap:round; stroke-linejoin:round; stroke-width:4; stroke-opacity:1; fill:none" points="224.098,959.42 205.2,959.42 "/>
<polyline clip-path="url(#clip400)" style="stroke:#000000; stroke-linecap:round; stroke-linejoin:round; stroke-width:4; stroke-opacity:1; fill:none" points="224.098,768.472 205.2,768.472 "/>
<polyline clip-path="url(#clip400)" style="stroke:#000000; stroke-linecap:round; stroke-linejoin:round; stroke-width:4; stroke-opacity:1; fill:none" points="224.098,577.524 205.2,577.524 "/>
<polyline clip-path="url(#clip400)" style="stroke:#000000; stroke-linecap:round; stroke-linejoin:round; stroke-width:4; stroke-opacity:1; fill:none" points="224.098,386.577 205.2,386.577 "/>
<polyline clip-path="url(#clip400)" style="stroke:#000000; stroke-linecap:round; stroke-linejoin:round; stroke-width:4; stroke-opacity:1; fill:none" points="224.098,195.629 205.2,195.629 "/>
<path clip-path="url(#clip400)" d="M33.9875 1341.77 L63.6633 1341.77 L63.6633 1345.7 L33.9875 1345.7 L33.9875 1341.77 Z" fill="#000000" fill-rule="nonzero" fill-opacity="1" /><path clip-path="url(#clip400)" d="M83.7557 1327.11 Q80.1447 1327.11 78.316 1330.68 Q76.5104 1334.22 76.5104 1341.35 Q76.5104 1348.46 78.316 1352.02 Q80.1447 1355.56 83.7557 1355.56 Q87.39 1355.56 89.1955 1352.02 Q91.0242 1348.46 91.0242 1341.35 Q91.0242 1334.22 89.1955 1330.68 Q87.39 1327.11 83.7557 1327.11 M83.7557 1323.41 Q89.5659 1323.41 92.6214 1328.02 Q95.7001 1332.6 95.7001 1341.35 Q95.7001 1350.08 92.6214 1354.68 Q89.5659 1359.27 83.7557 1359.27 Q77.9456 1359.27 74.8669 1354.68 Q71.8114 1350.08 71.8114 1341.35 Q71.8114 1332.6 74.8669 1328.02 Q77.9456 1323.41 83.7557 1323.41 Z" fill="#000000" fill-rule="nonzero" fill-opacity="1" /><path clip-path="url(#clip400)" d="M103.918 1352.72 L108.802 1352.72 L108.802 1358.6 L103.918 1358.6 L103.918 1352.72 Z" fill="#000000" fill-rule="nonzero" fill-opacity="1" /><path clip-path="url(#clip400)" d="M117.806 1324.04 L140.029 1324.04 L140.029 1326.03 L127.482 1358.6 L122.598 1358.6 L134.404 1327.97 L117.806 1327.97 L117.806 1324.04 Z" fill="#000000" fill-rule="nonzero" fill-opacity="1" /><path clip-path="url(#clip400)" d="M149.195 1324.04 L167.552 1324.04 L167.552 1327.97 L153.478 1327.97 L153.478 1336.44 Q154.496 1336.1 155.515 1335.93 Q156.533 1335.75 157.552 1335.75 Q163.339 1335.75 166.718 1338.92 Q170.098 1342.09 170.098 1347.51 Q170.098 1353.09 166.626 1356.19 Q163.153 1359.27 156.834 1359.27 Q154.658 1359.27 152.39 1358.9 Q150.144 1358.53 147.737 1357.78 L147.737 1353.09 Q149.82 1354.22 152.042 1354.78 Q154.265 1355.33 156.741 1355.33 Q160.746 1355.33 163.084 1353.22 Q165.422 1351.12 165.422 1347.51 Q165.422 1343.9 163.084 1341.79 Q160.746 1339.68 156.741 1339.68 Q154.866 1339.68 152.991 1340.1 Q151.14 1340.52 149.195 1341.4 L149.195 1324.04 Z" fill="#000000" fill-rule="nonzero" fill-opacity="1" /><path clip-path="url(#clip400)" d="M32.9921 1150.82 L62.6679 1150.82 L62.6679 1154.75 L32.9921 1154.75 L32.9921 1150.82 Z" fill="#000000" fill-rule="nonzero" fill-opacity="1" /><path clip-path="url(#clip400)" d="M82.7604 1136.17 Q79.1493 1136.17 77.3206 1139.73 Q75.515 1143.27 75.515 1150.4 Q75.515 1157.51 77.3206 1161.07 Q79.1493 1164.62 82.7604 1164.62 Q86.3946 1164.62 88.2002 1161.07 Q90.0289 1157.51 90.0289 1150.4 Q90.0289 1143.27 88.2002 1139.73 Q86.3946 1136.17 82.7604 1136.17 M82.7604 1132.46 Q88.5705 1132.46 91.6261 1137.07 Q94.7048 1141.65 94.7048 1150.4 Q94.7048 1159.13 91.6261 1163.74 Q88.5705 1168.32 82.7604 1168.32 Q76.9502 1168.32 73.8715 1163.74 Q70.816 1159.13 70.816 1150.4 Q70.816 1141.65 73.8715 1137.07 Q76.9502 1132.46 82.7604 1132.46 Z" fill="#000000" fill-rule="nonzero" fill-opacity="1" /><path clip-path="url(#clip400)" d="M102.922 1161.77 L107.807 1161.77 L107.807 1167.65 L102.922 1167.65 L102.922 1161.77 Z" fill="#000000" fill-rule="nonzero" fill-opacity="1" /><path clip-path="url(#clip400)" d="M118.038 1133.09 L136.394 1133.09 L136.394 1137.02 L122.32 1137.02 L122.32 1145.49 Q123.339 1145.15 124.357 1144.99 Q125.376 1144.8 126.394 1144.8 Q132.181 1144.8 135.561 1147.97 Q138.941 1151.14 138.941 1156.56 Q138.941 1162.14 135.468 1165.24 Q131.996 1168.32 125.677 1168.32 Q123.501 1168.32 121.232 1167.95 Q118.987 1167.58 116.58 1166.84 L116.58 1162.14 Q118.663 1163.27 120.885 1163.83 Q123.107 1164.38 125.584 1164.38 Q129.589 1164.38 131.927 1162.28 Q134.265 1160.17 134.265 1156.56 Q134.265 1152.95 131.927 1150.84 Q129.589 1148.74 125.584 1148.74 Q123.709 1148.74 121.834 1149.15 Q119.982 1149.57 118.038 1150.45 L118.038 1133.09 Z" fill="#000000" fill-rule="nonzero" fill-opacity="1" /><path clip-path="url(#clip400)" d="M158.153 1136.17 Q154.542 1136.17 152.714 1139.73 Q150.908 1143.27 150.908 1150.4 Q150.908 1157.51 152.714 1161.07 Q154.542 1164.62 158.153 1164.62 Q161.788 1164.62 163.593 1161.07 Q165.422 1157.51 165.422 1150.4 Q165.422 1143.27 163.593 1139.73 Q161.788 1136.17 158.153 1136.17 M158.153 1132.46 Q163.964 1132.46 167.019 1137.07 Q170.098 1141.65 170.098 1150.4 Q170.098 1159.13 167.019 1163.74 Q163.964 1168.32 158.153 1168.32 Q152.343 1168.32 149.265 1163.74 Q146.209 1159.13 146.209 1150.4 Q146.209 1141.65 149.265 1137.07 Q152.343 1132.46 158.153 1132.46 Z" fill="#000000" fill-rule="nonzero" fill-opacity="1" /><path clip-path="url(#clip400)" d="M33.9875 959.871 L63.6633 959.871 L63.6633 963.806 L33.9875 963.806 L33.9875 959.871 Z" fill="#000000" fill-rule="nonzero" fill-opacity="1" /><path clip-path="url(#clip400)" d="M83.7557 945.218 Q80.1447 945.218 78.316 948.783 Q76.5104 952.325 76.5104 959.454 Q76.5104 966.561 78.316 970.126 Q80.1447 973.667 83.7557 973.667 Q87.39 973.667 89.1955 970.126 Q91.0242 966.561 91.0242 959.454 Q91.0242 952.325 89.1955 948.783 Q87.39 945.218 83.7557 945.218 M83.7557 941.515 Q89.5659 941.515 92.6214 946.121 Q95.7001 950.705 95.7001 959.454 Q95.7001 968.181 92.6214 972.788 Q89.5659 977.371 83.7557 977.371 Q77.9456 977.371 74.8669 972.788 Q71.8114 968.181 71.8114 959.454 Q71.8114 950.705 74.8669 946.121 Q77.9456 941.515 83.7557 941.515 Z" fill="#000000" fill-rule="nonzero" fill-opacity="1" /><path clip-path="url(#clip400)" d="M103.918 970.82 L108.802 970.82 L108.802 976.7 L103.918 976.7 L103.918 970.82 Z" fill="#000000" fill-rule="nonzero" fill-opacity="1" /><path clip-path="url(#clip400)" d="M123.015 972.765 L139.334 972.765 L139.334 976.7 L117.39 976.7 L117.39 972.765 Q120.052 970.01 124.635 965.38 Q129.242 960.728 130.422 959.385 Q132.668 956.862 133.547 955.126 Q134.45 953.367 134.45 951.677 Q134.45 948.922 132.505 947.186 Q130.584 945.45 127.482 945.45 Q125.283 945.45 122.83 946.214 Q120.399 946.978 117.621 948.529 L117.621 943.806 Q120.445 942.672 122.899 942.093 Q125.353 941.515 127.39 941.515 Q132.76 941.515 135.955 944.2 Q139.149 946.885 139.149 951.376 Q139.149 953.505 138.339 955.427 Q137.552 957.325 135.445 959.917 Q134.867 960.589 131.765 963.806 Q128.663 967.001 123.015 972.765 Z" fill="#000000" fill-rule="nonzero" fill-opacity="1" /><path clip-path="url(#clip400)" d="M149.195 942.14 L167.552 942.14 L167.552 946.075 L153.478 946.075 L153.478 954.547 Q154.496 954.2 155.515 954.038 Q156.533 953.853 157.552 953.853 Q163.339 953.853 166.718 957.024 Q170.098 960.195 170.098 965.612 Q170.098 971.191 166.626 974.292 Q163.153 977.371 156.834 977.371 Q154.658 977.371 152.39 977.001 Q150.144 976.63 147.737 975.89 L147.737 971.191 Q149.82 972.325 152.042 972.88 Q154.265 973.436 156.741 973.436 Q160.746 973.436 163.084 971.329 Q165.422 969.223 165.422 965.612 Q165.422 962.001 163.084 959.894 Q160.746 957.788 156.741 957.788 Q154.866 957.788 152.991 958.205 Q151.14 958.621 149.195 959.501 L149.195 942.14 Z" fill="#000000" fill-rule="nonzero" fill-opacity="1" /><path clip-path="url(#clip400)" d="M82.7604 754.271 Q79.1493 754.271 77.3206 757.836 Q75.515 761.377 75.515 768.507 Q75.515 775.613 77.3206 779.178 Q79.1493 782.72 82.7604 782.72 Q86.3946 782.72 88.2002 779.178 Q90.0289 775.613 90.0289 768.507 Q90.0289 761.377 88.2002 757.836 Q86.3946 754.271 82.7604 754.271 M82.7604 750.567 Q88.5705 750.567 91.6261 755.174 Q94.7048 759.757 94.7048 768.507 Q94.7048 777.234 91.6261 781.84 Q88.5705 786.423 82.7604 786.423 Q76.9502 786.423 73.8715 781.84 Q70.816 777.234 70.816 768.507 Q70.816 759.757 73.8715 755.174 Q76.9502 750.567 82.7604 750.567 Z" fill="#000000" fill-rule="nonzero" fill-opacity="1" /><path clip-path="url(#clip400)" d="M102.922 779.873 L107.807 779.873 L107.807 785.752 L102.922 785.752 L102.922 779.873 Z" fill="#000000" fill-rule="nonzero" fill-opacity="1" /><path clip-path="url(#clip400)" d="M127.992 754.271 Q124.381 754.271 122.552 757.836 Q120.746 761.377 120.746 768.507 Q120.746 775.613 122.552 779.178 Q124.381 782.72 127.992 782.72 Q131.626 782.72 133.431 779.178 Q135.26 775.613 135.26 768.507 Q135.26 761.377 133.431 757.836 Q131.626 754.271 127.992 754.271 M127.992 750.567 Q133.802 750.567 136.857 755.174 Q139.936 759.757 139.936 768.507 Q139.936 777.234 136.857 781.84 Q133.802 786.423 127.992 786.423 Q122.181 786.423 119.103 781.84 Q116.047 777.234 116.047 768.507 Q116.047 759.757 119.103 755.174 Q122.181 750.567 127.992 750.567 Z" fill="#000000" fill-rule="nonzero" fill-opacity="1" /><path clip-path="url(#clip400)" d="M158.153 754.271 Q154.542 754.271 152.714 757.836 Q150.908 761.377 150.908 768.507 Q150.908 775.613 152.714 779.178 Q154.542 782.72 158.153 782.72 Q161.788 782.72 163.593 779.178 Q165.422 775.613 165.422 768.507 Q165.422 761.377 163.593 757.836 Q161.788 754.271 158.153 754.271 M158.153 750.567 Q163.964 750.567 167.019 755.174 Q170.098 759.757 170.098 768.507 Q170.098 777.234 167.019 781.84 Q163.964 786.423 158.153 786.423 Q152.343 786.423 149.265 781.84 Q146.209 777.234 146.209 768.507 Q146.209 759.757 149.265 755.174 Q152.343 750.567 158.153 750.567 Z" fill="#000000" fill-rule="nonzero" fill-opacity="1" /><path clip-path="url(#clip400)" d="M83.7557 563.323 Q80.1447 563.323 78.316 566.888 Q76.5104 570.43 76.5104 577.559 Q76.5104 584.666 78.316 588.23 Q80.1447 591.772 83.7557 591.772 Q87.39 591.772 89.1955 588.23 Q91.0242 584.666 91.0242 577.559 Q91.0242 570.43 89.1955 566.888 Q87.39 563.323 83.7557 563.323 M83.7557 559.619 Q89.5659 559.619 92.6214 564.226 Q95.7001 568.809 95.7001 577.559 Q95.7001 586.286 92.6214 590.892 Q89.5659 595.476 83.7557 595.476 Q77.9456 595.476 74.8669 590.892 Q71.8114 586.286 71.8114 577.559 Q71.8114 568.809 74.8669 564.226 Q77.9456 559.619 83.7557 559.619 Z" fill="#000000" fill-rule="nonzero" fill-opacity="1" /><path clip-path="url(#clip400)" d="M103.918 588.925 L108.802 588.925 L108.802 594.804 L103.918 594.804 L103.918 588.925 Z" fill="#000000" fill-rule="nonzero" fill-opacity="1" /><path clip-path="url(#clip400)" d="M123.015 590.869 L139.334 590.869 L139.334 594.804 L117.39 594.804 L117.39 590.869 Q120.052 588.115 124.635 583.485 Q129.242 578.832 130.422 577.49 Q132.668 574.967 133.547 573.231 Q134.45 571.471 134.45 569.781 Q134.45 567.027 132.505 565.291 Q130.584 563.555 127.482 563.555 Q125.283 563.555 122.83 564.319 Q120.399 565.082 117.621 566.633 L117.621 561.911 Q120.445 560.777 122.899 560.198 Q125.353 559.619 127.39 559.619 Q132.76 559.619 135.955 562.305 Q139.149 564.99 139.149 569.481 Q139.149 571.61 138.339 573.531 Q137.552 575.43 135.445 578.022 Q134.867 578.693 131.765 581.911 Q128.663 585.105 123.015 590.869 Z" fill="#000000" fill-rule="nonzero" fill-opacity="1" /><path clip-path="url(#clip400)" d="M149.195 560.244 L167.552 560.244 L167.552 564.18 L153.478 564.18 L153.478 572.652 Q154.496 572.305 155.515 572.143 Q156.533 571.957 157.552 571.957 Q163.339 571.957 166.718 575.129 Q170.098 578.3 170.098 583.717 Q170.098 589.295 166.626 592.397 Q163.153 595.476 156.834 595.476 Q154.658 595.476 152.39 595.105 Q150.144 594.735 147.737 593.994 L147.737 589.295 Q149.82 590.429 152.042 590.985 Q154.265 591.541 156.741 591.541 Q160.746 591.541 163.084 589.434 Q165.422 587.328 165.422 583.717 Q165.422 580.105 163.084 577.999 Q160.746 575.893 156.741 575.893 Q154.866 575.893 152.991 576.309 Q151.14 576.726 149.195 577.605 L149.195 560.244 Z" fill="#000000" fill-rule="nonzero" fill-opacity="1" /><path clip-path="url(#clip400)" d="M82.7604 372.376 Q79.1493 372.376 77.3206 375.94 Q75.515 379.482 75.515 386.612 Q75.515 393.718 77.3206 397.283 Q79.1493 400.824 82.7604 400.824 Q86.3946 400.824 88.2002 397.283 Q90.0289 393.718 90.0289 386.612 Q90.0289 379.482 88.2002 375.94 Q86.3946 372.376 82.7604 372.376 M82.7604 368.672 Q88.5705 368.672 91.6261 373.278 Q94.7048 377.862 94.7048 386.612 Q94.7048 395.338 91.6261 399.945 Q88.5705 404.528 82.7604 404.528 Q76.9502 404.528 73.8715 399.945 Q70.816 395.338 70.816 386.612 Q70.816 377.862 73.8715 373.278 Q76.9502 368.672 82.7604 368.672 Z" fill="#000000" fill-rule="nonzero" fill-opacity="1" /><path clip-path="url(#clip400)" d="M102.922 397.977 L107.807 397.977 L107.807 403.857 L102.922 403.857 L102.922 397.977 Z" fill="#000000" fill-rule="nonzero" fill-opacity="1" /><path clip-path="url(#clip400)" d="M118.038 369.297 L136.394 369.297 L136.394 373.232 L122.32 373.232 L122.32 381.704 Q123.339 381.357 124.357 381.195 Q125.376 381.01 126.394 381.01 Q132.181 381.01 135.561 384.181 Q138.941 387.352 138.941 392.769 Q138.941 398.348 135.468 401.449 Q131.996 404.528 125.677 404.528 Q123.501 404.528 121.232 404.158 Q118.987 403.787 116.58 403.047 L116.58 398.348 Q118.663 399.482 120.885 400.037 Q123.107 400.593 125.584 400.593 Q129.589 400.593 131.927 398.486 Q134.265 396.38 134.265 392.769 Q134.265 389.158 131.927 387.051 Q129.589 384.945 125.584 384.945 Q123.709 384.945 121.834 385.362 Q119.982 385.778 118.038 386.658 L118.038 369.297 Z" fill="#000000" fill-rule="nonzero" fill-opacity="1" /><path clip-path="url(#clip400)" d="M158.153 372.376 Q154.542 372.376 152.714 375.94 Q150.908 379.482 150.908 386.612 Q150.908 393.718 152.714 397.283 Q154.542 400.824 158.153 400.824 Q161.788 400.824 163.593 397.283 Q165.422 393.718 165.422 386.612 Q165.422 379.482 163.593 375.94 Q161.788 372.376 158.153 372.376 M158.153 368.672 Q163.964 368.672 167.019 373.278 Q170.098 377.862 170.098 386.612 Q170.098 395.338 167.019 399.945 Q163.964 404.528 158.153 404.528 Q152.343 404.528 149.265 399.945 Q146.209 395.338 146.209 386.612 Q146.209 377.862 149.265 373.278 Q152.343 368.672 158.153 368.672 Z" fill="#000000" fill-rule="nonzero" fill-opacity="1" /><path clip-path="url(#clip400)" d="M83.7557 181.428 Q80.1447 181.428 78.316 184.993 Q76.5104 188.534 76.5104 195.664 Q76.5104 202.77 78.316 206.335 Q80.1447 209.877 83.7557 209.877 Q87.39 209.877 89.1955 206.335 Q91.0242 202.77 91.0242 195.664 Q91.0242 188.534 89.1955 184.993 Q87.39 181.428 83.7557 181.428 M83.7557 177.724 Q89.5659 177.724 92.6214 182.331 Q95.7001 186.914 95.7001 195.664 Q95.7001 204.391 92.6214 208.997 Q89.5659 213.58 83.7557 213.58 Q77.9456 213.58 74.8669 208.997 Q71.8114 204.391 71.8114 195.664 Q71.8114 186.914 74.8669 182.331 Q77.9456 177.724 83.7557 177.724 Z" fill="#000000" fill-rule="nonzero" fill-opacity="1" /><path clip-path="url(#clip400)" d="M103.918 207.03 L108.802 207.03 L108.802 212.909 L103.918 212.909 L103.918 207.03 Z" fill="#000000" fill-rule="nonzero" fill-opacity="1" /><path clip-path="url(#clip400)" d="M117.806 178.349 L140.029 178.349 L140.029 180.34 L127.482 212.909 L122.598 212.909 L134.404 182.284 L117.806 182.284 L117.806 178.349 Z" fill="#000000" fill-rule="nonzero" fill-opacity="1" /><path clip-path="url(#clip400)" d="M149.195 178.349 L167.552 178.349 L167.552 182.284 L153.478 182.284 L153.478 190.757 Q154.496 190.409 155.515 190.247 Q156.533 190.062 157.552 190.062 Q163.339 190.062 166.718 193.233 Q170.098 196.405 170.098 201.821 Q170.098 207.4 166.626 210.502 Q163.153 213.58 156.834 213.58 Q154.658 213.58 152.39 213.21 Q150.144 212.84 147.737 212.099 L147.737 207.4 Q149.82 208.534 152.042 209.09 Q154.265 209.645 156.741 209.645 Q160.746 209.645 163.084 207.539 Q165.422 205.432 165.422 201.821 Q165.422 198.21 163.084 196.104 Q160.746 193.997 156.741 193.997 Q154.866 193.997 152.991 194.414 Q151.14 194.831 149.195 195.71 L149.195 178.349 Z" fill="#000000" fill-rule="nonzero" fill-opacity="1" /><polyline clip-path="url(#clip401)" style="stroke:#009af9; stroke-linecap:round; stroke-linejoin:round; stroke-width:4; stroke-opacity:1; fill:none" points="284.343,1055.7 304.425,1051.11 324.506,1045.61 344.588,1039.25 364.67,1032.11 384.751,1024.25 404.833,1015.74 424.915,1006.64 444.996,997.018 465.078,986.946 485.16,976.487 505.241,965.708 525.323,954.675 545.405,943.455 565.486,932.115 585.568,920.72 605.65,909.338 625.731,898.034 645.813,886.876 665.895,875.929 685.977,865.261 706.058,854.937 726.14,845.025 746.222,835.591 766.303,826.7 786.385,818.421 806.467,810.818 826.548,803.96 846.63,797.911 866.712,792.739 886.793,788.511 906.875,785.292 926.957,783.149 947.038,782.149 967.12,781.864 987.202,780.751 1007.28,778.748 1027.37,775.913 1047.45,772.306 1067.53,767.986 1087.61,763.013 1107.69,757.445 1127.77,751.343 1147.86,744.766 1167.94,737.773 1188.02,730.423 1208.1,722.776 1228.18,714.892 1248.26,706.83 1268.35,698.648 1288.43,690.408 1308.51,682.167 1328.59,673.986 1348.67,665.923 1368.75,658.039 1388.84,650.393 1408.92,643.043 1429,636.05 1449.08,629.472 1469.16,623.37 1489.24,617.803 1509.33,612.829 1529.41,608.509 1549.49,604.902 1569.57,602.067 1589.65,600.064 1609.73,598.952 1629.82,598.712 1649.9,598.372 1669.98,597.643 1690.06,596.548 1710.14,595.109 1730.22,593.35 1750.31,591.293 1770.39,588.96 1790.47,586.374 1810.55,583.557 1830.63,580.533 1850.71,577.324 1870.8,573.953 1890.88,570.441 1910.96,566.812 1931.04,563.089 1951.12,559.293 1971.2,555.448 1991.29,551.576 2011.37,547.701 2031.45,543.843 2051.53,540.027 2071.61,536.274 2091.69,532.607 2111.78,529.05 2131.86,525.623 2151.94,522.351 2172.02,519.256 2192.1,516.36 2212.18,513.686 2232.27,511.257 2252.35,509.095 2272.43,507.223 2292.51,505.663 "/>
<polyline clip-path="url(#clip401)" style="stroke:#000000; stroke-linecap:round; stroke-linejoin:round; stroke-width:4; stroke-opacity:1; fill:none" points="284.343,1055.7 284.343,1055.7 "/>
<polyline clip-path="url(#clip401)" style="stroke:#000000; stroke-linecap:round; stroke-linejoin:round; stroke-width:4; stroke-opacity:1; fill:none" points="953.732,1033.49 953.732,530.672 "/>
<polyline clip-path="url(#clip401)" style="stroke:#000000; stroke-linecap:round; stroke-linejoin:round; stroke-width:4; stroke-opacity:1; fill:none" points="1623.12,908.825 1623.12,288.645 "/>
<polyline clip-path="url(#clip401)" style="stroke:#000000; stroke-linecap:round; stroke-linejoin:round; stroke-width:4; stroke-opacity:1; fill:none" points="2292.51,812.686 2292.51,198.64 "/>
<line clip-path="url(#clip401)" x1="300.343" y1="1055.7" x2="268.343" y2="1055.7" style="stroke:#000000; stroke-width:4; stroke-opacity:1"/>
<line clip-path="url(#clip401)" x1="300.343" y1="1055.7" x2="268.343" y2="1055.7" style="stroke:#000000; stroke-width:4; stroke-opacity:1"/>
<line clip-path="url(#clip401)" x1="969.732" y1="1033.49" x2="937.732" y2="1033.49" style="stroke:#000000; stroke-width:4; stroke-opacity:1"/>
<line clip-path="url(#clip401)" x1="969.732" y1="530.672" x2="937.732" y2="530.672" style="stroke:#000000; stroke-width:4; stroke-opacity:1"/>
<line clip-path="url(#clip401)" x1="1639.12" y1="908.825" x2="1607.12" y2="908.825" style="stroke:#000000; stroke-width:4; stroke-opacity:1"/>
<line clip-path="url(#clip401)" x1="1639.12" y1="288.645" x2="1607.12" y2="288.645" style="stroke:#000000; stroke-width:4; stroke-opacity:1"/>
<line clip-path="url(#clip401)" x1="2308.51" y1="812.686" x2="2276.51" y2="812.686" style="stroke:#000000; stroke-width:4; stroke-opacity:1"/>
<line clip-path="url(#clip401)" x1="2308.51" y1="198.64" x2="2276.51" y2="198.64" style="stroke:#000000; stroke-width:4; stroke-opacity:1"/>
<circle clip-path="url(#clip401)" cx="284.343" cy="1055.7" r="14.4" fill="#e26f46" fill-rule="evenodd" fill-opacity="1" stroke="#000000" stroke-opacity="1" stroke-width="3.2"/>
<circle clip-path="url(#clip401)" cx="953.732" cy="782.081" r="14.4" fill="#e26f46" fill-rule="evenodd" fill-opacity="1" stroke="#000000" stroke-opacity="1" stroke-width="3.2"/>
<circle clip-path="url(#clip401)" cx="1623.12" cy="598.735" r="14.4" fill="#e26f46" fill-rule="evenodd" fill-opacity="1" stroke="#000000" stroke-opacity="1" stroke-width="3.2"/>
<circle clip-path="url(#clip401)" cx="2292.51" cy="505.663" r="14.4" fill="#e26f46" fill-rule="evenodd" fill-opacity="1" stroke="#000000" stroke-opacity="1" stroke-width="3.2"/>
<polyline clip-path="url(#clip401)" style="stroke:#3da44d; stroke-linecap:round; stroke-linejoin:round; stroke-width:4; stroke-opacity:1; fill:none" points="284.343,1055.7 953.732,782.081 1623.12,598.735 2292.51,505.663 "/>
<path clip-path="url(#clip401)" d="M284.343 1445.72 L953.732 988.253 L1623.12 835.513 L2292.51 863.441 L2292.51 87.9763 L1623.12 379.065 L953.732 571.265 L284.343 723.15  Z" fill="#c271d2" fill-rule="evenodd" fill-opacity="0.5"/>
<polyline clip-path="url(#clip401)" style="stroke:#c271d2; stroke-linecap:round; stroke-linejoin:round; stroke-width:4; stroke-opacity:1; fill:none" points="284.343,1055.7 953.732,782.081 1623.12,598.735 2292.51,505.663 "/>
<path clip-path="url(#clip400)" d="M295.053 354.418 L1286.02 354.418 L1286.02 95.2176 L295.053 95.2176  Z" fill="#ffffff" fill-rule="evenodd" fill-opacity="1"/>
<polyline clip-path="url(#clip400)" style="stroke:#000000; stroke-linecap:round; stroke-linejoin:round; stroke-width:4; stroke-opacity:1; fill:none" points="295.053,354.418 1286.02,354.418 1286.02,95.2176 295.053,95.2176 295.053,354.418 "/>
<polyline clip-path="url(#clip400)" style="stroke:#009af9; stroke-linecap:round; stroke-linejoin:round; stroke-width:4; stroke-opacity:1; fill:none" points="318.705,147.058 460.615,147.058 "/>
<path clip-path="url(#clip400)" d="M484.267 129.778 L504.128 129.778 L504.128 133.713 L488.943 133.713 L488.943 143.898 L502.647 143.898 L502.647 147.833 L488.943 147.833 L488.943 164.338 L484.267 164.338 L484.267 129.778 Z" fill="#000000" fill-rule="nonzero" fill-opacity="1" /><path clip-path="url(#clip400)" d="M511.35 128.319 L515.61 128.319 L515.61 164.338 L511.35 164.338 L511.35 128.319 Z" fill="#000000" fill-rule="nonzero" fill-opacity="1" /><path clip-path="url(#clip400)" d="M546.697 150.31 L546.697 152.393 L527.114 152.393 Q527.392 156.791 529.753 159.106 Q532.137 161.398 536.373 161.398 Q538.827 161.398 541.119 160.796 Q543.434 160.194 545.702 158.99 L545.702 163.018 Q543.41 163.99 541.003 164.5 Q538.596 165.009 536.119 165.009 Q529.915 165.009 526.281 161.398 Q522.67 157.787 522.67 151.629 Q522.67 145.264 526.096 141.537 Q529.545 137.787 535.378 137.787 Q540.609 137.787 543.642 141.166 Q546.697 144.523 546.697 150.31 M542.438 149.06 Q542.392 145.565 540.471 143.481 Q538.572 141.398 535.424 141.398 Q531.86 141.398 529.707 143.412 Q527.577 145.426 527.253 149.083 L542.438 149.06 Z" fill="#000000" fill-rule="nonzero" fill-opacity="1" /><path clip-path="url(#clip400)" d="M574.406 138.412 L565.031 151.027 L574.892 164.338 L569.869 164.338 L562.322 154.152 L554.776 164.338 L549.753 164.338 L559.822 150.773 L550.609 138.412 L555.633 138.412 L562.508 147.648 L569.382 138.412 L574.406 138.412 Z" fill="#000000" fill-rule="nonzero" fill-opacity="1" /><path clip-path="url(#clip400)" d="M580.91 138.412 L585.169 138.412 L585.169 164.338 L580.91 164.338 L580.91 138.412 M580.91 128.319 L585.169 128.319 L585.169 133.713 L580.91 133.713 L580.91 128.319 Z" fill="#000000" fill-rule="nonzero" fill-opacity="1" /><path clip-path="url(#clip400)" d="M612.692 151.398 Q612.692 146.699 610.748 144.037 Q608.827 141.352 605.447 141.352 Q602.067 141.352 600.123 144.037 Q598.202 146.699 598.202 151.398 Q598.202 156.097 600.123 158.782 Q602.067 161.444 605.447 161.444 Q608.827 161.444 610.748 158.782 Q612.692 156.097 612.692 151.398 M598.202 142.347 Q599.544 140.032 601.581 138.921 Q603.642 137.787 606.489 137.787 Q611.211 137.787 614.151 141.537 Q617.114 145.287 617.114 151.398 Q617.114 157.509 614.151 161.259 Q611.211 165.009 606.489 165.009 Q603.642 165.009 601.581 163.898 Q599.544 162.763 598.202 160.449 L598.202 164.338 L593.919 164.338 L593.919 128.319 L598.202 128.319 L598.202 142.347 Z" fill="#000000" fill-rule="nonzero" fill-opacity="1" /><path clip-path="url(#clip400)" d="M624.174 128.319 L628.433 128.319 L628.433 164.338 L624.174 164.338 L624.174 128.319 Z" fill="#000000" fill-rule="nonzero" fill-opacity="1" /><path clip-path="url(#clip400)" d="M659.521 150.31 L659.521 152.393 L639.938 152.393 Q640.215 156.791 642.577 159.106 Q644.961 161.398 649.197 161.398 Q651.651 161.398 653.942 160.796 Q656.257 160.194 658.526 158.99 L658.526 163.018 Q656.234 163.99 653.826 164.5 Q651.419 165.009 648.942 165.009 Q642.739 165.009 639.104 161.398 Q635.493 157.787 635.493 151.629 Q635.493 145.264 638.919 141.537 Q642.368 137.787 648.201 137.787 Q653.433 137.787 656.465 141.166 Q659.521 144.523 659.521 150.31 M655.262 149.06 Q655.215 145.565 653.294 143.481 Q651.396 141.398 648.248 141.398 Q644.683 141.398 642.53 143.412 Q640.401 145.426 640.077 149.083 L655.262 149.06 Z" fill="#000000" fill-rule="nonzero" fill-opacity="1" /><path clip-path="url(#clip400)" d="M694.706 128.319 L694.706 131.861 L690.632 131.861 Q688.34 131.861 687.437 132.787 Q686.558 133.713 686.558 136.12 L686.558 138.412 L693.572 138.412 L693.572 141.722 L686.558 141.722 L686.558 164.338 L682.275 164.338 L682.275 141.722 L678.201 141.722 L678.201 138.412 L682.275 138.412 L682.275 136.606 Q682.275 132.278 684.289 130.31 Q686.303 128.319 690.678 128.319 L694.706 128.319 Z" fill="#000000" fill-rule="nonzero" fill-opacity="1" /><path clip-path="url(#clip400)" d="M697.831 154.106 L697.831 138.412 L702.09 138.412 L702.09 153.944 Q702.09 157.625 703.525 159.476 Q704.96 161.305 707.831 161.305 Q711.28 161.305 713.271 159.106 Q715.284 156.907 715.284 153.111 L715.284 138.412 L719.544 138.412 L719.544 164.338 L715.284 164.338 L715.284 160.356 Q713.734 162.717 711.673 163.875 Q709.636 165.009 706.928 165.009 Q702.46 165.009 700.146 162.231 Q697.831 159.453 697.831 154.106 M708.548 137.787 L708.548 137.787 Z" fill="#000000" fill-rule="nonzero" fill-opacity="1" /><path clip-path="url(#clip400)" d="M749.868 148.689 L749.868 164.338 L745.608 164.338 L745.608 148.828 Q745.608 145.148 744.173 143.319 Q742.738 141.49 739.868 141.49 Q736.419 141.49 734.428 143.69 Q732.437 145.889 732.437 149.685 L732.437 164.338 L728.155 164.338 L728.155 138.412 L732.437 138.412 L732.437 142.44 Q733.965 140.102 736.025 138.944 Q738.108 137.787 740.817 137.787 Q745.284 137.787 747.576 140.565 Q749.868 143.319 749.868 148.689 Z" fill="#000000" fill-rule="nonzero" fill-opacity="1" /><path clip-path="url(#clip400)" d="M777.02 139.407 L777.02 143.389 Q775.215 142.393 773.386 141.907 Q771.58 141.398 769.729 141.398 Q765.585 141.398 763.293 144.037 Q761.002 146.652 761.002 151.398 Q761.002 156.143 763.293 158.782 Q765.585 161.398 769.729 161.398 Q771.58 161.398 773.386 160.912 Q775.215 160.402 777.02 159.407 L777.02 163.342 Q775.238 164.176 773.317 164.592 Q771.418 165.009 769.266 165.009 Q763.409 165.009 759.96 161.328 Q756.511 157.648 756.511 151.398 Q756.511 145.055 759.983 141.421 Q763.479 137.787 769.543 137.787 Q771.511 137.787 773.386 138.203 Q775.261 138.597 777.02 139.407 Z" fill="#000000" fill-rule="nonzero" fill-opacity="1" /><path clip-path="url(#clip400)" d="M788.641 131.051 L788.641 138.412 L797.414 138.412 L797.414 141.722 L788.641 141.722 L788.641 155.796 Q788.641 158.967 789.497 159.87 Q790.377 160.773 793.039 160.773 L797.414 160.773 L797.414 164.338 L793.039 164.338 Q788.108 164.338 786.233 162.509 Q784.358 160.657 784.358 155.796 L784.358 141.722 L781.233 141.722 L781.233 138.412 L784.358 138.412 L784.358 131.051 L788.641 131.051 Z" fill="#000000" fill-rule="nonzero" fill-opacity="1" /><path clip-path="url(#clip400)" d="M803.015 138.412 L807.275 138.412 L807.275 164.338 L803.015 164.338 L803.015 138.412 M803.015 128.319 L807.275 128.319 L807.275 133.713 L803.015 133.713 L803.015 128.319 Z" fill="#000000" fill-rule="nonzero" fill-opacity="1" /><path clip-path="url(#clip400)" d="M826.233 141.398 Q822.807 141.398 820.816 144.083 Q818.826 146.745 818.826 151.398 Q818.826 156.051 820.793 158.736 Q822.784 161.398 826.233 161.398 Q829.636 161.398 831.626 158.713 Q833.617 156.027 833.617 151.398 Q833.617 146.791 831.626 144.106 Q829.636 141.398 826.233 141.398 M826.233 137.787 Q831.788 137.787 834.96 141.398 Q838.131 145.009 838.131 151.398 Q838.131 157.764 834.96 161.398 Q831.788 165.009 826.233 165.009 Q820.654 165.009 817.483 161.398 Q814.335 157.764 814.335 151.398 Q814.335 145.009 817.483 141.398 Q820.654 137.787 826.233 137.787 Z" fill="#000000" fill-rule="nonzero" fill-opacity="1" /><path clip-path="url(#clip400)" d="M866.742 148.689 L866.742 164.338 L862.483 164.338 L862.483 148.828 Q862.483 145.148 861.048 143.319 Q859.612 141.49 856.742 141.49 Q853.293 141.49 851.302 143.69 Q849.312 145.889 849.312 149.685 L849.312 164.338 L845.029 164.338 L845.029 138.412 L849.312 138.412 L849.312 142.44 Q850.839 140.102 852.899 138.944 Q854.983 137.787 857.691 137.787 Q862.159 137.787 864.45 140.565 Q866.742 143.319 866.742 148.689 Z" fill="#000000" fill-rule="nonzero" fill-opacity="1" /><path clip-path="url(#clip400)" d="M900.353 141.398 Q896.927 141.398 894.936 144.083 Q892.946 146.745 892.946 151.398 Q892.946 156.051 894.913 158.736 Q896.904 161.398 900.353 161.398 Q903.756 161.398 905.746 158.713 Q907.737 156.027 907.737 151.398 Q907.737 146.791 905.746 144.106 Q903.756 141.398 900.353 141.398 M900.353 137.787 Q905.908 137.787 909.08 141.398 Q912.251 145.009 912.251 151.398 Q912.251 157.764 909.08 161.398 Q905.908 165.009 900.353 165.009 Q894.774 165.009 891.603 161.398 Q888.455 157.764 888.455 151.398 Q888.455 145.009 891.603 141.398 Q894.774 137.787 900.353 137.787 Z" fill="#000000" fill-rule="nonzero" fill-opacity="1" /><path clip-path="url(#clip400)" d="M932.436 128.319 L932.436 131.861 L928.362 131.861 Q926.07 131.861 925.168 132.787 Q924.288 133.713 924.288 136.12 L924.288 138.412 L931.302 138.412 L931.302 141.722 L924.288 141.722 L924.288 164.338 L920.006 164.338 L920.006 141.722 L915.932 141.722 L915.932 138.412 L920.006 138.412 L920.006 136.606 Q920.006 132.278 922.019 130.31 Q924.033 128.319 928.408 128.319 L932.436 128.319 Z" fill="#000000" fill-rule="nonzero" fill-opacity="1" /><path clip-path="url(#clip400)" d="M950.63 154.106 L950.63 138.412 L954.89 138.412 L954.89 153.944 Q954.89 157.625 956.325 159.476 Q957.76 161.305 960.63 161.305 Q964.079 161.305 966.07 159.106 Q968.084 156.907 968.084 153.111 L968.084 138.412 L972.343 138.412 L972.343 164.338 L968.084 164.338 L968.084 160.356 Q966.533 162.717 964.473 163.875 Q962.436 165.009 959.728 165.009 Q955.26 165.009 952.945 162.231 Q950.63 159.453 950.63 154.106 M961.348 137.787 L961.348 137.787 Z" fill="#000000" fill-rule="nonzero" fill-opacity="1" /><path clip-path="url(#clip400)" d="M1002.67 148.689 L1002.67 164.338 L998.408 164.338 L998.408 148.828 Q998.408 145.148 996.973 143.319 Q995.538 141.49 992.667 141.49 Q989.218 141.49 987.227 143.69 Q985.237 145.889 985.237 149.685 L985.237 164.338 L980.954 164.338 L980.954 138.412 L985.237 138.412 L985.237 142.44 Q986.764 140.102 988.825 138.944 Q990.908 137.787 993.616 137.787 Q998.084 137.787 1000.38 140.565 Q1002.67 143.319 1002.67 148.689 Z" fill="#000000" fill-rule="nonzero" fill-opacity="1" /><path clip-path="url(#clip400)" d="M1028.22 142.347 L1028.22 128.319 L1032.48 128.319 L1032.48 164.338 L1028.22 164.338 L1028.22 160.449 Q1026.88 162.763 1024.82 163.898 Q1022.78 165.009 1019.91 165.009 Q1015.21 165.009 1012.25 161.259 Q1009.31 157.509 1009.31 151.398 Q1009.31 145.287 1012.25 141.537 Q1015.21 137.787 1019.91 137.787 Q1022.78 137.787 1024.82 138.921 Q1026.88 140.032 1028.22 142.347 M1013.71 151.398 Q1013.71 156.097 1015.63 158.782 Q1017.57 161.444 1020.95 161.444 Q1024.33 161.444 1026.28 158.782 Q1028.22 156.097 1028.22 151.398 Q1028.22 146.699 1026.28 144.037 Q1024.33 141.352 1020.95 141.352 Q1017.57 141.352 1015.63 144.037 Q1013.71 146.699 1013.71 151.398 Z" fill="#000000" fill-rule="nonzero" fill-opacity="1" /><path clip-path="url(#clip400)" d="M1063.43 150.31 L1063.43 152.393 L1043.85 152.393 Q1044.13 156.791 1046.49 159.106 Q1048.87 161.398 1053.11 161.398 Q1055.56 161.398 1057.85 160.796 Q1060.17 160.194 1062.44 158.99 L1062.44 163.018 Q1060.14 163.99 1057.74 164.5 Q1055.33 165.009 1052.85 165.009 Q1046.65 165.009 1043.01 161.398 Q1039.4 157.787 1039.4 151.629 Q1039.4 145.264 1042.83 141.537 Q1046.28 137.787 1052.11 137.787 Q1057.34 137.787 1060.38 141.166 Q1063.43 144.523 1063.43 150.31 M1059.17 149.06 Q1059.13 145.565 1057.2 143.481 Q1055.31 141.398 1052.16 141.398 Q1048.59 141.398 1046.44 143.412 Q1044.31 145.426 1043.99 149.083 L1059.17 149.06 Z" fill="#000000" fill-rule="nonzero" fill-opacity="1" /><path clip-path="url(#clip400)" d="M1085.44 142.393 Q1084.73 141.977 1083.87 141.791 Q1083.04 141.583 1082.02 141.583 Q1078.41 141.583 1076.46 143.944 Q1074.54 146.282 1074.54 150.68 L1074.54 164.338 L1070.26 164.338 L1070.26 138.412 L1074.54 138.412 L1074.54 142.44 Q1075.88 140.078 1078.04 138.944 Q1080.19 137.787 1083.27 137.787 Q1083.71 137.787 1084.24 137.856 Q1084.77 137.903 1085.42 138.018 L1085.44 142.393 Z" fill="#000000" fill-rule="nonzero" fill-opacity="1" /><path clip-path="url(#clip400)" d="M1089.91 128.319 L1094.17 128.319 L1094.17 164.338 L1089.91 164.338 L1089.91 128.319 Z" fill="#000000" fill-rule="nonzero" fill-opacity="1" /><path clip-path="url(#clip400)" d="M1113.87 166.745 Q1112.06 171.375 1110.35 172.787 Q1108.64 174.199 1105.77 174.199 L1102.37 174.199 L1102.37 170.634 L1104.87 170.634 Q1106.62 170.634 1107.6 169.8 Q1108.57 168.967 1109.75 165.865 L1110.51 163.921 L1100.03 138.412 L1104.54 138.412 L1112.64 158.689 L1120.75 138.412 L1125.26 138.412 L1113.87 166.745 Z" fill="#000000" fill-rule="nonzero" fill-opacity="1" /><path clip-path="url(#clip400)" d="M1131.14 138.412 L1135.4 138.412 L1135.4 164.338 L1131.14 164.338 L1131.14 138.412 M1131.14 128.319 L1135.4 128.319 L1135.4 133.713 L1131.14 133.713 L1131.14 128.319 Z" fill="#000000" fill-rule="nonzero" fill-opacity="1" /><path clip-path="url(#clip400)" d="M1165.86 148.689 L1165.86 164.338 L1161.6 164.338 L1161.6 148.828 Q1161.6 145.148 1160.17 143.319 Q1158.73 141.49 1155.86 141.49 Q1152.41 141.49 1150.42 143.69 Q1148.43 145.889 1148.43 149.685 L1148.43 164.338 L1144.15 164.338 L1144.15 138.412 L1148.43 138.412 L1148.43 142.44 Q1149.96 140.102 1152.02 138.944 Q1154.1 137.787 1156.81 137.787 Q1161.28 137.787 1163.57 140.565 Q1165.86 143.319 1165.86 148.689 Z" fill="#000000" fill-rule="nonzero" fill-opacity="1" /><path clip-path="url(#clip400)" d="M1191.42 151.074 Q1191.42 146.444 1189.49 143.898 Q1187.6 141.352 1184.15 141.352 Q1180.72 141.352 1178.8 143.898 Q1176.9 146.444 1176.9 151.074 Q1176.9 155.68 1178.8 158.226 Q1180.72 160.773 1184.15 160.773 Q1187.6 160.773 1189.49 158.226 Q1191.42 155.68 1191.42 151.074 M1195.68 161.12 Q1195.68 167.74 1192.74 170.958 Q1189.8 174.199 1183.73 174.199 Q1181.49 174.199 1179.49 173.851 Q1177.5 173.527 1175.63 172.833 L1175.63 168.689 Q1177.5 169.708 1179.33 170.194 Q1181.16 170.68 1183.06 170.68 Q1187.25 170.68 1189.33 168.481 Q1191.42 166.305 1191.42 161.884 L1191.42 159.777 Q1190.1 162.069 1188.04 163.203 Q1185.98 164.338 1183.11 164.338 Q1178.34 164.338 1175.42 160.703 Q1172.5 157.069 1172.5 151.074 Q1172.5 145.055 1175.42 141.421 Q1178.34 137.787 1183.11 137.787 Q1185.98 137.787 1188.04 138.921 Q1190.1 140.055 1191.42 142.347 L1191.42 138.412 L1195.68 138.412 L1195.68 161.12 Z" fill="#000000" fill-rule="nonzero" fill-opacity="1" /><path clip-path="url(#clip400)" d="M1232.64 128.319 L1232.64 131.861 L1228.57 131.861 Q1226.28 131.861 1225.37 132.787 Q1224.49 133.713 1224.49 136.12 L1224.49 138.412 L1231.51 138.412 L1231.51 141.722 L1224.49 141.722 L1224.49 164.338 L1220.21 164.338 L1220.21 141.722 L1216.14 141.722 L1216.14 138.412 L1220.21 138.412 L1220.21 136.606 Q1220.21 132.278 1222.23 130.31 Q1224.24 128.319 1228.62 128.319 L1232.64 128.319 Z" fill="#000000" fill-rule="nonzero" fill-opacity="1" /><path clip-path="url(#clip400)" d="M1236.21 138.412 L1240.47 138.412 L1240.47 164.338 L1236.21 164.338 L1236.21 138.412 M1236.21 128.319 L1240.47 128.319 L1240.47 133.713 L1236.21 133.713 L1236.21 128.319 Z" fill="#000000" fill-rule="nonzero" fill-opacity="1" /><path clip-path="url(#clip400)" d="M1253.59 131.051 L1253.59 138.412 L1262.36 138.412 L1262.36 141.722 L1253.59 141.722 L1253.59 155.796 Q1253.59 158.967 1254.45 159.87 Q1255.33 160.773 1257.99 160.773 L1262.36 160.773 L1262.36 164.338 L1257.99 164.338 Q1253.06 164.338 1251.18 162.509 Q1249.31 160.657 1249.31 155.796 L1249.31 141.722 L1246.18 141.722 L1246.18 138.412 L1249.31 138.412 L1249.31 131.051 L1253.59 131.051 Z" fill="#000000" fill-rule="nonzero" fill-opacity="1" /><circle clip-path="url(#clip400)" cx="389.66" cy="198.898" r="20.48" fill="#e26f46" fill-rule="evenodd" fill-opacity="1" stroke="#000000" stroke-opacity="1" stroke-width="4.55111"/>
<path clip-path="url(#clip400)" d="M488.943 185.46 L488.943 198.446 L494.823 198.446 Q498.087 198.446 499.869 196.756 Q501.651 195.067 501.651 191.942 Q501.651 188.84 499.869 187.15 Q498.087 185.46 494.823 185.46 L488.943 185.46 M484.267 181.618 L494.823 181.618 Q500.633 181.618 503.596 184.256 Q506.582 186.872 506.582 191.942 Q506.582 197.057 503.596 199.673 Q500.633 202.289 494.823 202.289 L488.943 202.289 L488.943 216.178 L484.267 216.178 L484.267 181.618 Z" fill="#000000" fill-rule="nonzero" fill-opacity="1" /><path clip-path="url(#clip400)" d="M521.026 193.238 Q517.6 193.238 515.61 195.923 Q513.619 198.585 513.619 203.238 Q513.619 207.891 515.586 210.576 Q517.577 213.238 521.026 213.238 Q524.429 213.238 526.42 210.553 Q528.41 207.867 528.41 203.238 Q528.41 198.631 526.42 195.946 Q524.429 193.238 521.026 193.238 M521.026 189.627 Q526.582 189.627 529.753 193.238 Q532.924 196.849 532.924 203.238 Q532.924 209.604 529.753 213.238 Q526.582 216.849 521.026 216.849 Q515.448 216.849 512.276 213.238 Q509.128 209.604 509.128 203.238 Q509.128 196.849 512.276 193.238 Q515.448 189.627 521.026 189.627 Z" fill="#000000" fill-rule="nonzero" fill-opacity="1" /><path clip-path="url(#clip400)" d="M539.984 190.252 L544.244 190.252 L544.244 216.178 L539.984 216.178 L539.984 190.252 M539.984 180.159 L544.244 180.159 L544.244 185.553 L539.984 185.553 L539.984 180.159 Z" fill="#000000" fill-rule="nonzero" fill-opacity="1" /><path clip-path="url(#clip400)" d="M574.707 200.529 L574.707 216.178 L570.447 216.178 L570.447 200.668 Q570.447 196.988 569.012 195.159 Q567.577 193.33 564.707 193.33 Q561.258 193.33 559.267 195.53 Q557.276 197.729 557.276 201.525 L557.276 216.178 L552.994 216.178 L552.994 190.252 L557.276 190.252 L557.276 194.28 Q558.804 191.942 560.864 190.784 Q562.947 189.627 565.656 189.627 Q570.123 189.627 572.415 192.405 Q574.707 195.159 574.707 200.529 Z" fill="#000000" fill-rule="nonzero" fill-opacity="1" /><path clip-path="url(#clip400)" d="M587.415 182.891 L587.415 190.252 L596.188 190.252 L596.188 193.562 L587.415 193.562 L587.415 207.636 Q587.415 210.807 588.271 211.71 Q589.151 212.613 591.813 212.613 L596.188 212.613 L596.188 216.178 L591.813 216.178 Q586.882 216.178 585.007 214.349 Q583.132 212.497 583.132 207.636 L583.132 193.562 L580.007 193.562 L580.007 190.252 L583.132 190.252 L583.132 182.891 L587.415 182.891 Z" fill="#000000" fill-rule="nonzero" fill-opacity="1" /><path clip-path="url(#clip400)" d="M599.313 190.252 L603.572 190.252 L608.896 210.483 L614.197 190.252 L619.22 190.252 L624.544 210.483 L629.845 190.252 L634.104 190.252 L627.322 216.178 L622.299 216.178 L616.72 194.928 L611.118 216.178 L606.095 216.178 L599.313 190.252 Z" fill="#000000" fill-rule="nonzero" fill-opacity="1" /><path clip-path="url(#clip400)" d="M640.563 190.252 L644.822 190.252 L644.822 216.178 L640.563 216.178 L640.563 190.252 M640.563 180.159 L644.822 180.159 L644.822 185.553 L640.563 185.553 L640.563 180.159 Z" fill="#000000" fill-rule="nonzero" fill-opacity="1" /><path clip-path="url(#clip400)" d="M670.262 191.016 L670.262 195.043 Q668.456 194.117 666.512 193.655 Q664.567 193.192 662.484 193.192 Q659.313 193.192 657.715 194.164 Q656.141 195.136 656.141 197.08 Q656.141 198.562 657.276 199.418 Q658.41 200.252 661.836 201.016 L663.294 201.34 Q667.831 202.312 669.729 204.094 Q671.65 205.854 671.65 209.025 Q671.65 212.636 668.78 214.742 Q665.933 216.849 660.933 216.849 Q658.85 216.849 656.581 216.432 Q654.336 216.039 651.836 215.228 L651.836 210.83 Q654.197 212.057 656.488 212.682 Q658.78 213.284 661.026 213.284 Q664.035 213.284 665.655 212.266 Q667.275 211.224 667.275 209.349 Q667.275 207.613 666.095 206.687 Q664.938 205.761 660.979 204.904 L659.498 204.557 Q655.539 203.724 653.78 202.011 Q652.021 200.275 652.021 197.266 Q652.021 193.608 654.613 191.618 Q657.206 189.627 661.975 189.627 Q664.336 189.627 666.419 189.974 Q668.502 190.321 670.262 191.016 Z" fill="#000000" fill-rule="nonzero" fill-opacity="1" /><path clip-path="url(#clip400)" d="M700.609 202.15 L700.609 204.233 L681.025 204.233 Q681.303 208.631 683.664 210.946 Q686.049 213.238 690.285 213.238 Q692.738 213.238 695.03 212.636 Q697.345 212.034 699.613 210.83 L699.613 214.858 Q697.322 215.83 694.914 216.34 Q692.507 216.849 690.03 216.849 Q683.826 216.849 680.192 213.238 Q676.581 209.627 676.581 203.469 Q676.581 197.104 680.007 193.377 Q683.456 189.627 689.289 189.627 Q694.521 189.627 697.553 193.006 Q700.609 196.363 700.609 202.15 M696.349 200.9 Q696.303 197.405 694.382 195.321 Q692.484 193.238 689.336 193.238 Q685.771 193.238 683.618 195.252 Q681.488 197.266 681.164 200.923 L696.349 200.9 Z" fill="#000000" fill-rule="nonzero" fill-opacity="1" /><path clip-path="url(#clip400)" d="M741.326 191.247 L741.326 195.229 Q739.52 194.233 737.692 193.747 Q735.886 193.238 734.034 193.238 Q729.891 193.238 727.599 195.877 Q725.308 198.492 725.308 203.238 Q725.308 207.983 727.599 210.622 Q729.891 213.238 734.034 213.238 Q735.886 213.238 737.692 212.752 Q739.52 212.242 741.326 211.247 L741.326 215.182 Q739.544 216.016 737.622 216.432 Q735.724 216.849 733.571 216.849 Q727.715 216.849 724.266 213.168 Q720.817 209.488 720.817 203.238 Q720.817 196.895 724.289 193.261 Q727.784 189.627 733.849 189.627 Q735.817 189.627 737.692 190.043 Q739.567 190.437 741.326 191.247 Z" fill="#000000" fill-rule="nonzero" fill-opacity="1" /><path clip-path="url(#clip400)" d="M758.78 193.238 Q755.354 193.238 753.363 195.923 Q751.372 198.585 751.372 203.238 Q751.372 207.891 753.34 210.576 Q755.331 213.238 758.78 213.238 Q762.182 213.238 764.173 210.553 Q766.164 207.867 766.164 203.238 Q766.164 198.631 764.173 195.946 Q762.182 193.238 758.78 193.238 M758.78 189.627 Q764.335 189.627 767.506 193.238 Q770.678 196.849 770.678 203.238 Q770.678 209.604 767.506 213.238 Q764.335 216.849 758.78 216.849 Q753.201 216.849 750.03 213.238 Q746.882 209.604 746.882 203.238 Q746.882 196.849 750.03 193.238 Q753.201 189.627 758.78 189.627 Z" fill="#000000" fill-rule="nonzero" fill-opacity="1" /><path clip-path="url(#clip400)" d="M799.289 200.529 L799.289 216.178 L795.029 216.178 L795.029 200.668 Q795.029 196.988 793.594 195.159 Q792.159 193.33 789.289 193.33 Q785.84 193.33 783.849 195.53 Q781.858 197.729 781.858 201.525 L781.858 216.178 L777.576 216.178 L777.576 190.252 L781.858 190.252 L781.858 194.28 Q783.386 191.942 785.446 190.784 Q787.529 189.627 790.238 189.627 Q794.705 189.627 796.997 192.405 Q799.289 195.159 799.289 200.529 Z" fill="#000000" fill-rule="nonzero" fill-opacity="1" /><path clip-path="url(#clip400)" d="M811.997 182.891 L811.997 190.252 L820.77 190.252 L820.77 193.562 L811.997 193.562 L811.997 207.636 Q811.997 210.807 812.853 211.71 Q813.733 212.613 816.395 212.613 L820.77 212.613 L820.77 216.178 L816.395 216.178 Q811.465 216.178 809.59 214.349 Q807.715 212.497 807.715 207.636 L807.715 193.562 L804.59 193.562 L804.59 190.252 L807.715 190.252 L807.715 182.891 L811.997 182.891 Z" fill="#000000" fill-rule="nonzero" fill-opacity="1" /><path clip-path="url(#clip400)" d="M841.395 194.233 Q840.677 193.817 839.821 193.631 Q838.988 193.423 837.969 193.423 Q834.358 193.423 832.413 195.784 Q830.492 198.122 830.492 202.52 L830.492 216.178 L826.21 216.178 L826.21 190.252 L830.492 190.252 L830.492 194.28 Q831.835 191.918 833.988 190.784 Q836.14 189.627 839.219 189.627 Q839.659 189.627 840.191 189.696 Q840.724 189.743 841.372 189.858 L841.395 194.233 Z" fill="#000000" fill-rule="nonzero" fill-opacity="1" /><path clip-path="url(#clip400)" d="M857.645 203.145 Q852.483 203.145 850.492 204.326 Q848.501 205.506 848.501 208.354 Q848.501 210.622 849.983 211.965 Q851.487 213.284 854.057 213.284 Q857.599 213.284 859.728 210.784 Q861.881 208.261 861.881 204.094 L861.881 203.145 L857.645 203.145 M866.14 201.386 L866.14 216.178 L861.881 216.178 L861.881 212.242 Q860.423 214.603 858.247 215.738 Q856.071 216.849 852.923 216.849 Q848.941 216.849 846.58 214.627 Q844.242 212.381 844.242 208.631 Q844.242 204.256 847.159 202.034 Q850.099 199.812 855.909 199.812 L861.881 199.812 L861.881 199.395 Q861.881 196.455 859.936 194.858 Q858.015 193.238 854.52 193.238 Q852.298 193.238 850.191 193.77 Q848.085 194.303 846.14 195.367 L846.14 191.432 Q848.478 190.53 850.677 190.09 Q852.876 189.627 854.96 189.627 Q860.585 189.627 863.362 192.543 Q866.14 195.46 866.14 201.386 Z" fill="#000000" fill-rule="nonzero" fill-opacity="1" /><path clip-path="url(#clip400)" d="M891.441 191.016 L891.441 195.043 Q889.635 194.117 887.691 193.655 Q885.747 193.192 883.663 193.192 Q880.492 193.192 878.895 194.164 Q877.321 195.136 877.321 197.08 Q877.321 198.562 878.455 199.418 Q879.589 200.252 883.015 201.016 L884.473 201.34 Q889.01 202.312 890.909 204.094 Q892.83 205.854 892.83 209.025 Q892.83 212.636 889.959 214.742 Q887.112 216.849 882.112 216.849 Q880.029 216.849 877.76 216.432 Q875.515 216.039 873.015 215.228 L873.015 210.83 Q875.376 212.057 877.668 212.682 Q879.96 213.284 882.205 213.284 Q885.214 213.284 886.834 212.266 Q888.455 211.224 888.455 209.349 Q888.455 207.613 887.274 206.687 Q886.117 205.761 882.159 204.904 L880.677 204.557 Q876.719 203.724 874.96 202.011 Q873.2 200.275 873.2 197.266 Q873.2 193.608 875.793 191.618 Q878.385 189.627 883.154 189.627 Q885.515 189.627 887.598 189.974 Q889.682 190.321 891.441 191.016 Z" fill="#000000" fill-rule="nonzero" fill-opacity="1" /><path clip-path="url(#clip400)" d="M903.825 182.891 L903.825 190.252 L912.598 190.252 L912.598 193.562 L903.825 193.562 L903.825 207.636 Q903.825 210.807 904.682 211.71 Q905.561 212.613 908.223 212.613 L912.598 212.613 L912.598 216.178 L908.223 216.178 Q903.293 216.178 901.418 214.349 Q899.543 212.497 899.543 207.636 L899.543 193.562 L896.418 193.562 L896.418 190.252 L899.543 190.252 L899.543 182.891 L903.825 182.891 Z" fill="#000000" fill-rule="nonzero" fill-opacity="1" /><path clip-path="url(#clip400)" d="M934.728 191.016 L934.728 195.043 Q932.922 194.117 930.978 193.655 Q929.033 193.192 926.95 193.192 Q923.779 193.192 922.182 194.164 Q920.607 195.136 920.607 197.08 Q920.607 198.562 921.742 199.418 Q922.876 200.252 926.302 201.016 L927.76 201.34 Q932.297 202.312 934.195 204.094 Q936.117 205.854 936.117 209.025 Q936.117 212.636 933.246 214.742 Q930.399 216.849 925.399 216.849 Q923.316 216.849 921.047 216.432 Q918.802 216.039 916.302 215.228 L916.302 210.83 Q918.663 212.057 920.955 212.682 Q923.246 213.284 925.492 213.284 Q928.501 213.284 930.121 212.266 Q931.742 211.224 931.742 209.349 Q931.742 207.613 930.561 206.687 Q929.404 205.761 925.445 204.904 L923.964 204.557 Q920.006 203.724 918.246 202.011 Q916.487 200.275 916.487 197.266 Q916.487 193.608 919.08 191.618 Q921.672 189.627 926.441 189.627 Q928.802 189.627 930.885 189.974 Q932.968 190.321 934.728 191.016 Z" fill="#000000" fill-rule="nonzero" fill-opacity="1" /><polyline clip-path="url(#clip400)" style="stroke:#3da44d; stroke-linecap:round; stroke-linejoin:round; stroke-width:4; stroke-opacity:1; fill:none" points="318.705,250.738 460.615,250.738 "/>
<path clip-path="url(#clip400)" d="M484.267 233.458 L491.235 233.458 L500.054 256.976 L508.92 233.458 L515.887 233.458 L515.887 268.018 L511.327 268.018 L511.327 237.67 L502.415 261.374 L497.716 261.374 L488.804 237.67 L488.804 268.018 L484.267 268.018 L484.267 233.458 Z" fill="#000000" fill-rule="nonzero" fill-opacity="1" /><path clip-path="url(#clip400)" d="M545.887 234.592 L545.887 239.152 Q543.225 237.879 540.864 237.254 Q538.503 236.629 536.304 236.629 Q532.485 236.629 530.401 238.11 Q528.341 239.592 528.341 242.323 Q528.341 244.615 529.707 245.795 Q531.096 246.953 534.938 247.67 L537.762 248.249 Q542.994 249.245 545.471 251.768 Q547.971 254.268 547.971 258.481 Q547.971 263.504 544.591 266.096 Q541.234 268.689 534.73 268.689 Q532.276 268.689 529.498 268.133 Q526.744 267.578 523.781 266.49 L523.781 261.675 Q526.628 263.272 529.36 264.082 Q532.091 264.893 534.73 264.893 Q538.734 264.893 540.91 263.319 Q543.086 261.744 543.086 258.828 Q543.086 256.282 541.512 254.846 Q539.961 253.411 536.397 252.694 L533.549 252.138 Q528.318 251.096 525.98 248.874 Q523.642 246.652 523.642 242.694 Q523.642 238.11 526.86 235.471 Q530.1 232.833 535.772 232.833 Q538.202 232.833 540.725 233.272 Q543.248 233.712 545.887 234.592 Z" fill="#000000" fill-rule="nonzero" fill-opacity="1" /><path clip-path="url(#clip400)" d="M555.262 233.458 L562.23 233.458 L571.049 256.976 L579.915 233.458 L586.882 233.458 L586.882 268.018 L582.322 268.018 L582.322 237.67 L573.41 261.374 L568.711 261.374 L559.799 237.67 L559.799 268.018 L555.262 268.018 L555.262 233.458 Z" fill="#000000" fill-rule="nonzero" fill-opacity="1" /><path clip-path="url(#clip400)" d="M624.174 231.999 L624.174 235.541 L620.1 235.541 Q617.808 235.541 616.905 236.467 Q616.026 237.393 616.026 239.8 L616.026 242.092 L623.04 242.092 L623.04 245.402 L616.026 245.402 L616.026 268.018 L611.743 268.018 L611.743 245.402 L607.669 245.402 L607.669 242.092 L611.743 242.092 L611.743 240.286 Q611.743 235.958 613.757 233.99 Q615.771 231.999 620.146 231.999 L624.174 231.999 Z" fill="#000000" fill-rule="nonzero" fill-opacity="1" /><path clip-path="url(#clip400)" d="M627.739 242.092 L631.998 242.092 L631.998 268.018 L627.739 268.018 L627.739 242.092 M627.739 231.999 L631.998 231.999 L631.998 237.393 L627.739 237.393 L627.739 231.999 Z" fill="#000000" fill-rule="nonzero" fill-opacity="1" /><path clip-path="url(#clip400)" d="M645.123 234.731 L645.123 242.092 L653.896 242.092 L653.896 245.402 L645.123 245.402 L645.123 259.476 Q645.123 262.647 645.979 263.55 Q646.859 264.453 649.521 264.453 L653.896 264.453 L653.896 268.018 L649.521 268.018 Q644.59 268.018 642.715 266.189 Q640.84 264.337 640.84 259.476 L640.84 245.402 L637.715 245.402 L637.715 242.092 L640.84 242.092 L640.84 234.731 L645.123 234.731 Z" fill="#000000" fill-rule="nonzero" fill-opacity="1" /><polyline clip-path="url(#clip400)" style="stroke:#c271d2; stroke-linecap:round; stroke-linejoin:round; stroke-width:4; stroke-opacity:1; fill:none" points="318.705,302.578 460.615,302.578 "/>
<path clip-path="url(#clip400)" d="M484.267 285.298 L491.235 285.298 L500.054 308.816 L508.92 285.298 L515.887 285.298 L515.887 319.858 L511.327 319.858 L511.327 289.51 L502.415 313.214 L497.716 313.214 L488.804 289.51 L488.804 319.858 L484.267 319.858 L484.267 285.298 Z" fill="#000000" fill-rule="nonzero" fill-opacity="1" /><path clip-path="url(#clip400)" d="M545.887 286.432 L545.887 290.992 Q543.225 289.719 540.864 289.094 Q538.503 288.469 536.304 288.469 Q532.485 288.469 530.401 289.95 Q528.341 291.432 528.341 294.163 Q528.341 296.455 529.707 297.635 Q531.096 298.793 534.938 299.51 L537.762 300.089 Q542.994 301.085 545.471 303.608 Q547.971 306.108 547.971 310.321 Q547.971 315.344 544.591 317.936 Q541.234 320.529 534.73 320.529 Q532.276 320.529 529.498 319.973 Q526.744 319.418 523.781 318.33 L523.781 313.515 Q526.628 315.112 529.36 315.922 Q532.091 316.733 534.73 316.733 Q538.734 316.733 540.91 315.159 Q543.086 313.584 543.086 310.668 Q543.086 308.122 541.512 306.686 Q539.961 305.251 536.397 304.534 L533.549 303.978 Q528.318 302.936 525.98 300.714 Q523.642 298.492 523.642 294.534 Q523.642 289.95 526.86 287.311 Q530.1 284.673 535.772 284.673 Q538.202 284.673 540.725 285.112 Q543.248 285.552 545.887 286.432 Z" fill="#000000" fill-rule="nonzero" fill-opacity="1" /><path clip-path="url(#clip400)" d="M555.262 285.298 L562.23 285.298 L571.049 308.816 L579.915 285.298 L586.882 285.298 L586.882 319.858 L582.322 319.858 L582.322 289.51 L573.41 313.214 L568.711 313.214 L559.799 289.51 L559.799 319.858 L555.262 319.858 L555.262 285.298 Z" fill="#000000" fill-rule="nonzero" fill-opacity="1" /><path clip-path="url(#clip400)" d="M624.174 283.839 L624.174 287.381 L620.1 287.381 Q617.808 287.381 616.905 288.307 Q616.026 289.233 616.026 291.64 L616.026 293.932 L623.04 293.932 L623.04 297.242 L616.026 297.242 L616.026 319.858 L611.743 319.858 L611.743 297.242 L607.669 297.242 L607.669 293.932 L611.743 293.932 L611.743 292.126 Q611.743 287.798 613.757 285.83 Q615.771 283.839 620.146 283.839 L624.174 283.839 Z" fill="#000000" fill-rule="nonzero" fill-opacity="1" /><path clip-path="url(#clip400)" d="M627.739 293.932 L631.998 293.932 L631.998 319.858 L627.739 319.858 L627.739 293.932 M627.739 283.839 L631.998 283.839 L631.998 289.233 L627.739 289.233 L627.739 283.839 Z" fill="#000000" fill-rule="nonzero" fill-opacity="1" /><path clip-path="url(#clip400)" d="M645.123 286.571 L645.123 293.932 L653.896 293.932 L653.896 297.242 L645.123 297.242 L645.123 311.316 Q645.123 314.487 645.979 315.39 Q646.859 316.293 649.521 316.293 L653.896 316.293 L653.896 319.858 L649.521 319.858 Q644.59 319.858 642.715 318.029 Q640.84 316.177 640.84 311.316 L640.84 297.242 L637.715 297.242 L637.715 293.932 L640.84 293.932 L640.84 286.571 L645.123 286.571 Z" fill="#000000" fill-rule="nonzero" fill-opacity="1" /></svg>
